  0
SECTION
  2
HEADER
  9
$ACADVER
  1
AC1014
  9
$HANDSEED
  5
FFFF
  9
$MEASUREMENT
 70
     1
  0
ENDSEC
  0
SECTION
  2
TABLES
  0
TABLE
  2
VPORT
  5
8
330
0
100
AcDbSymbolTable
 70
     4
  0
VPORT
  5
2E
330
8
100
AcDbSymbolTableRecord
100
AcDbViewportTableRecord
  2
*ACTIVE
 70
     0
 10
0.0
 20
0.0
 11
1.0
 21
1.0
 12
210.0
 22
148.5
 13
0.0
 23
0.0
 14
10.0
 24
10.0
 15
10.0
 25
10.0
 16
0.0
 26
0.0
 36
1.0
 17
0.0
 27
0.0
 37
0.0
 40
341.0
 41
1.24
 42
50.0
 43
0.0
 44
0.0
 50
0.0
 51
0.0
 71
     0
 72
   100
 73
     1
 74
     3
 75
     0
 76
     0
 77
     0
 78
     0
  0
ENDTAB
  0
TABLE
  2
LTYPE
  5
5
330
0
100
AcDbSymbolTable
 70
     1
  0
LTYPE
  5
14
330
5
100
AcDbSymbolTableRecord
100
AcDbLinetypeTableRecord
  2
BYBLOCK
 70
     0
  3

 72
    65
 73
     0
 40
0.0
  0
LTYPE
  5
15
330
5
100
AcDbSymbolTableRecord
100
AcDbLinetypeTableRecord
  2
BYLAYER
 70
     0
  3

 72
    65
 73
     0
 40
0.0
  0
LTYPE
  5
16
330
5
100
AcDbSymbolTableRecord
100
AcDbLinetypeTableRecord
  2
CONTINUOUS
 70
     0
  3
Solid line
 72
    65
 73
     0
 40
0.0
  0
ENDTAB
  0
TABLE
  2
LAYER
  5
2
100
AcDbSymbolTable
 70
2
  0
LAYER
  5
50
100
AcDbSymbolTableRecord
100
AcDbLayerTableRecord
  2
0
 70
0
  6
CONTINUOUS
  0
LAYER
  5
51
100
AcDbSymbolTableRecord
100
AcDbLayerTableRecord
  2
Layer_1
 70
0
  6
CONTINUOUS
  0
ENDTAB
  0
TABLE
  2
STYLE
  5
3
330
0
100
AcDbSymbolTable
 70
     1
  0
STYLE
  5
11
330
3
100
AcDbSymbolTableRecord
100
AcDbTextStyleTableRecord
  2
STANDARD
 70
     0
 40
0.0
 41
1.0
 50
0.0
 71
     0
 42
2.5
  3
txt
  4

  0
ENDTAB
  0
TABLE
  2
VIEW
  5
6
330
0
100
AcDbSymbolTable
 70
     0
  0
ENDTAB
  0
TABLE
  2
UCS
  5
7
330
0
100
AcDbSymbolTable
 70
     0
  0
ENDTAB
  0
TABLE
  2
APPID
  5
9
330
0
100
AcDbSymbolTable
 70
     2
  0
APPID
  5
12
330
9
100
AcDbSymbolTableRecord
100
AcDbRegAppTableRecord
  2
ACAD
 70
     0
  0
ENDTAB
  0
TABLE
  2
DIMSTYLE
  5
A
330
0
100
AcDbSymbolTable
 70
     1
  0
DIMSTYLE
105
27
330
A
100
AcDbSymbolTableRecord
100
AcDbDimStyleTableRecord
  2
ISO-25
 70
     0
  3

  4

  5

  6

  7

 40
1.0
 41
2.5
 42
0.625
 43
3.75
 44
1.25
 45
0.0
 46
0.0
 47
0.0
 48
0.0
140
2.5
141
2.5
142
0.0
143
0.03937007874016
144
1.0
145
0.0
146
1.0
147
0.625
 71
     0
 72
     0
 73
     0
 74
     0
 75
     0
 76
     0
 77
     1
 78
     8
170
     0
171
     3
172
     1
173
     0
174
     0
175
     0
176
     0
177
     0
178
     0
270
     2
271
     2
272
     2
273
     2
274
     3
340
11
275
     0
280
     0
281
     0
282
     0
283
     0
284
     8
285
     0
286
     0
287
     3
288
     0
  0
ENDTAB
  0
TABLE
  2
BLOCK_RECORD
  5
1
330
0
100
AcDbSymbolTable
 70
     1
  0
BLOCK_RECORD
  5
1F
330
1
100
AcDbSymbolTableRecord
100
AcDbBlockTableRecord
  2
*MODEL_SPACE
  0
BLOCK_RECORD
  5
1B
330
1
100
AcDbSymbolTableRecord
100
AcDbBlockTableRecord
  2
*PAPER_SPACE
  0
ENDTAB
  0
ENDSEC
  0
SECTION
  2
BLOCKS
  0
BLOCK
  5
20
330
1F
100
AcDbEntity
  8
0
100
AcDbBlockBegin
  2
*MODEL_SPACE
 70
     0
 10
0.0
 20
0.0
 30
0.0
  3
*MODEL_SPACE
  1

  0
ENDBLK
  5
21
330
1F
100
AcDbEntity
  8
0
100
AcDbBlockEnd
  0
BLOCK
  5
1C
330
1B
100
AcDbEntity
 67
     1
  8
0
100
AcDbBlockBegin
  2
*PAPER_SPACE
  1

  0
ENDBLK
  5
1D
330
1B
100
AcDbEntity
 67
     1
  8
0
100
AcDbBlockEnd
  0
ENDSEC
  0
SECTION
  2
ENTITIES
  0
LINE
  5
100
100
AcDbEntity
  8
Layer_1
 62
7
100
AcDbLine
 10
69.973977
 20
176.388890
 30
0.0
 11
69.973977
 21
184.834390
 31
0.0
  0
LINE
  5
101
100
AcDbEntity
  8
Layer_1
 62
7
100
AcDbLine
 10
69.973977
 20
184.834390
 30
0.0
 11
94.040477
 21
184.834390
 31
0.0
  0
LINE
  5
102
100
AcDbEntity
  8
Layer_1
 62
7
100
AcDbLine
 10
94.040477
 20
184.834390
 30
0.0
 11
118.106977
 21
184.834390
 31
0.0
  0
LINE
  5
103
100
AcDbEntity
  8
Layer_1
 62
7
100
AcDbLine
 10
118.106977
 20
184.834390
 30
0.0
 11
118.106977
 21
176.388890
 31
0.0
  0
LINE
  5
104
100
AcDbEntity
  8
Layer_1
 62
7
100
AcDbLine
 10
118.106977
 20
176.388890
 30
0.0
 11
118.106977
 21
167.943390
 31
0.0
  0
LINE
  5
105
100
AcDbEntity
  8
Layer_1
 62
7
100
AcDbLine
 10
118.106977
 20
167.943390
 30
0.0
 11
94.040477
 21
167.943390
 31
0.0
  0
LINE
  5
106
100
AcDbEntity
  8
Layer_1
 62
7
100
AcDbLine
 10
94.040477
 20
167.943390
 30
0.0
 11
69.973977
 21
167.943390
 31
0.0
  0
LINE
  5
107
100
AcDbEntity
  8
Layer_1
 62
7
100
AcDbLine
 10
69.973977
 20
167.943390
 30
0.0
 11
69.973977
 21
176.388890
 31
0.0
  0
LINE
  5
108
100
AcDbEntity
  8
Layer_1
 62
7
100
AcDbLine
 10
69.973977
 20
176.388890
 30
0.0
 11
69.973977
 21
176.388890
 31
0.0
  0
LINE
  5
109
100
AcDbEntity
  8
Layer_1
 62
7
100
AcDbLine
 10
117.020185
 20
169.776542
 30
0.0
 11
117.078277
 21
169.937290
 31
0.0
  0
LINE
  5
10a
100
AcDbEntity
  8
Layer_1
 62
7
100
AcDbLine
 10
117.078277
 20
169.937290
 30
0.0
 11
117.085643
 21
176.261890
 31
0.0
  0
SPLINE
  5
10b
100
AcDbEntity
  8
Layer_1
 62
7
100
AcDbSpline
 70
0
 71
3
 72
13
 73
9
 74
7
 40
0.000000
 40
0.000000
 40
0.000000
 40
0.000000
 40
0.227601
 40
0.458746
 40
0.683151
 40
0.881445
 40
1.066797
 40
1.271406
 40
1.271406
 40
1.271406
 40
1.271406
 10
116.098297
 20
168.988106
 30
0.0
 10
116.172314
 20
169.005692
 30
0.0
 10
116.321498
 20
169.041137
 30
0.0
 10
116.526557
 20
169.144945
 30
0.0
 10
116.700773
 20
169.277564
 30
0.0
 10
116.839528
 20
169.426474
 30
0.0
 10
116.947933
 20
169.591485
 30
0.0
 10
116.995321
 20
169.712859
 30
0.0
 10
117.020185
 20
169.776542
 30
0.0
 11
116.098297
 21
168.988106
 31
0.0
 11
116.317519
 21
169.049297
 31
0.0
 11
116.524625
 21
169.151935
 31
0.0
 11
116.703173
 21
169.287871
 31
0.0
 11
116.837980
 21
169.433293
 31
0.0
 11
116.938855
 21
169.588791
 31
0.0
 11
117.020185
 21
169.776542
 31
0.0
  0
LINE
  5
10c
100
AcDbEntity
  8
Layer_1
 62
7
100
AcDbLine
 10
116.387076
 20
183.724026
 30
0.0
 11
116.214672
 21
183.805690
 31
0.0
  0
LINE
  5
10d
100
AcDbEntity
  8
Layer_1
 62
7
100
AcDbLine
 10
116.214672
 20
183.805690
 30
0.0
 11
98.662738
 21
183.805690
 31
0.0
  0
LINE
  5
10e
100
AcDbEntity
  8
Layer_1
 62
7
100
AcDbLine
 10
98.662738
 20
183.805690
 30
0.0
 11
81.110805
 21
183.805690
 31
0.0
  0
LINE
  5
10f
100
AcDbEntity
  8
Layer_1
 62
7
100
AcDbLine
 10
81.110805
 20
183.805690
 30
0.0
 11
80.933538
 21
183.718599
 31
0.0
  0
SPLINE
  5
110
100
AcDbEntity
  8
Layer_1
 62
7
100
AcDbSpline
 70
0
 71
3
 72
13
 73
9
 74
7
 40
0.000000
 40
0.000000
 40
0.000000
 40
0.000000
 40
3.550092
 40
5.718772
 40
6.527927
 40
6.929499
 40
7.325453
 40
7.727490
 40
7.727490
 40
7.727490
 40
7.727490
 10
117.085643
 20
176.261890
 30
0.0
 10
117.096306
 20
177.446255
 30
0.0
 10
117.113481
 20
179.354125
 30
0.0
 10
117.041838
 20
181.523046
 30
0.0
 10
117.119423
 20
182.658490
 30
0.0
 10
116.971967
 20
183.181255
 30
0.0
 10
116.733183
 20
183.516767
 30
0.0
 10
116.503029
 20
183.654590
 30
0.0
 10
116.387076
 20
183.724026
 30
0.0
 11
117.085643
 21
176.261890
 31
0.0
 11
117.086825
 21
179.811982
 31
0.0
 11
117.080511
 21
181.980653
 31
0.0
 11
117.066735
 21
182.789690
 31
0.0
 11
116.949759
 21
183.173848
 31
0.0
 11
116.716837
 21
183.494047
 31
0.0
 11
116.387076
 21
183.724026
 31
0.0
  0
LINE
  5
111
100
AcDbEntity
  8
Layer_1
 62
7
100
AcDbLine
 10
80.112218
 20
182.390041
 30
0.0
 11
80.019672
 21
182.332490
 31
0.0
  0
LINE
  5
112
100
AcDbEntity
  8
Layer_1
 62
7
100
AcDbLine
 10
80.019672
 20
182.332490
 30
0.0
 11
75.504822
 21
182.325858
 31
0.0
  0
LINE
  5
113
100
AcDbEntity
  8
Layer_1
 62
7
100
AcDbLine
 10
75.504822
 20
182.325858
 30
0.0
 11
70.989972
 21
182.319226
 31
0.0
  0
LINE
  5
114
100
AcDbEntity
  8
Layer_1
 62
7
100
AcDbLine
 10
70.989972
 20
182.319226
 30
0.0
 11
70.989972
 21
176.388600
 31
0.0
  0
LINE
  5
115
100
AcDbEntity
  8
Layer_1
 62
7
100
AcDbLine
 10
70.989972
 20
176.388600
 30
0.0
 11
70.989972
 21
170.457976
 31
0.0
  0
LINE
  5
116
100
AcDbEntity
  8
Layer_1
 62
7
100
AcDbLine
 10
70.989972
 20
170.457976
 30
0.0
 11
75.518219
 21
170.457976
 31
0.0
  0
SPLINE
  5
117
100
AcDbEntity
  8
Layer_1
 62
7
100
AcDbSpline
 70
0
 71
3
 72
13
 73
9
 74
7
 40
0.000000
 40
0.000000
 40
0.000000
 40
0.000000
 40
0.376564
 40
0.742600
 40
1.118233
 40
1.333291
 40
1.490613
 40
1.627727
 40
1.627727
 40
1.627727
 40
1.627727
 10
80.933538
 20
183.718599
 30
0.0
 10
80.825580
 20
183.652543
 30
0.0
 10
80.612682
 20
183.522276
 30
0.0
 10
80.393565
 20
183.205892
 30
0.0
 10
80.318088
 20
182.891609
 30
0.0
 10
80.290350
 20
182.645160
 30
0.0
 10
80.226720
 20
182.480722
 30
0.0
 10
80.148598
 20
182.418853
 30
0.0
 10
80.112218
 20
182.390041
 30
0.0
 11
80.933538
 21
183.718599
 31
0.0
 11
80.626991
 21
183.499900
 31
0.0
 11
80.416592
 21
183.200376
 31
0.0
 11
80.315407
 21
182.838628
 31
0.0
 11
80.277303
 21
182.626973
 31
0.0
 11
80.212391
 21
182.483667
 31
0.0
 11
80.112218
 21
182.390041
 31
0.0
  0
LINE
  5
118
100
AcDbEntity
  8
Layer_1
 62
7
100
AcDbLine
 10
116.098292
 20
168.988089
 30
0.0
 11
116.098297
 21
168.988106
 31
0.0
  0
SPLINE
  5
119
100
AcDbEntity
  8
Layer_1
 62
7
100
AcDbSpline
 70
0
 71
3
 72
22
 73
18
 74
16
 40
0.000000
 40
0.000000
 40
0.000000
 40
0.000000
 40
3.054880
 40
4.313608
 40
4.592635
 40
4.737759
 40
4.886928
 40
5.108206
 40
5.366919
 40
5.615349
 40
5.872163
 40
6.086805
 40
6.288207
 40
6.500262
 40
15.589328
 40
32.294668
 40
41.410575
 40
41.410575
 40
41.410575
 40
41.410575
 10
75.518219
 20
170.457976
 30
0.0
 10
76.546087
 20
170.473849
 30
0.0
 10
77.997476
 20
170.496262
 30
0.0
 10
79.481771
 20
170.414265
 30
0.0
 10
80.080165
 20
170.461126
 30
0.0
 10
80.226214
 20
170.320413
 30
0.0
 10
80.293439
 20
170.159743
 30
0.0
 10
80.312527
 20
169.949669
 30
0.0
 10
80.358948
 20
169.710076
 30
0.0
 10
80.472221
 20
169.478445
 30
0.0
 10
80.627376
 20
169.293084
 30
0.0
 10
80.799410
 20
169.147721
 30
0.0
 10
80.985074
 20
169.046304
 30
0.0
 10
84.067856
 20
168.265815
 30
0.0
 10
92.884722
 20
169.576212
 30
0.0
 10
104.442024
 20
168.852384
 30
0.0
 10
113.056903
 20
168.952681
 30
0.0
 10
116.098292
 20
168.988089
 30
0.0
 11
75.518219
 21
170.457976
 31
0.0
 11
78.573098
 21
170.455727
 31
0.0
 11
79.831770
 21
170.443859
 31
0.0
 11
80.109269
 21
170.414692
 31
0.0
 11
80.216284
 21
170.316668
 31
0.0
 11
80.278027
 21
170.180877
 31
0.0
 11
80.314797
 21
169.962676
 31
0.0
 11
80.370761
 21
169.710089
 31
0.0
 11
80.479193
 21
169.486571
 31
0.0
 11
80.642082
 21
169.288024
 31
0.0
 11
80.807216
 21
169.150904
 31
0.0
 11
80.984753
 21
169.055807
 31
0.0
 11
81.188072
 21
168.995568
 31
0.0
 11
90.277085
 21
168.964670
 31
0.0
 11
106.982424
 21
168.961091
 31
0.0
 11
116.098292
 21
168.988089
 31
0.0
  0
SPLINE
  5
11a
100
AcDbEntity
  8
Layer_1
 62
7
100
AcDbSpline
 70
0
 71
3
 72
10
 73
6
 74
4
 40
0.000000
 40
0.000000
 40
0.000000
 40
0.000000
 40
3.104289
 40
6.233716
 40
9.233082
 40
9.233082
 40
9.233082
 40
9.233082
 10
70.538416
 20
182.883216
 30
0.0
 10
71.573112
 20
182.892380
 30
0.0
 10
73.650881
 20
182.910783
 30
0.0
 10
76.729502
 20
182.829908
 30
0.0
 10
78.769945
 20
182.947860
 30
0.0
 10
79.768517
 20
183.005585
 30
0.0
 11
70.538416
 21
182.883216
 31
0.0
 11
73.642691
 21
182.892604
 31
0.0
 11
76.772060
 21
182.873518
 31
0.0
 11
79.768517
 21
183.005585
 31
0.0
  0
SPLINE
  5
11b
100
AcDbEntity
  8
Layer_1
 62
7
100
AcDbSpline
 70
0
 71
3
 72
10
 73
6
 74
4
 40
0.000000
 40
0.000000
 40
0.000000
 40
0.000000
 40
0.559440
 40
1.118167
 40
1.678089
 40
1.678089
 40
1.678089
 40
1.678089
 10
79.768517
 20
183.005585
 30
0.0
 10
79.818265
 20
183.186682
 30
0.0
 10
79.917699
 20
183.548648
 30
0.0
 10
80.282134
 20
183.999674
 30
0.0
 10
80.610986
 20
184.179876
 30
0.0
 10
80.775587
 20
184.270073
 30
0.0
 11
79.768517
 21
183.005585
 31
0.0
 11
79.953659
 21
183.533501
 31
0.0
 11
80.303307
 21
183.969302
 31
0.0
 11
80.775587
 21
184.270073
 31
0.0
  0
SPLINE
  5
11c
100
AcDbEntity
  8
Layer_1
 62
7
100
AcDbSpline
 70
0
 71
3
 72
10
 73
6
 74
4
 40
0.000000
 40
0.000000
 40
0.000000
 40
0.000000
 40
3.412390
 40
6.824780
 40
10.237171
 40
10.237171
 40
10.237171
 40
10.237171
 10
80.775587
 20
184.270073
 30
0.0
 10
79.638124
 20
184.270073
 30
0.0
 10
77.363197
 20
184.270073
 30
0.0
 10
73.950806
 20
184.270073
 30
0.0
 10
71.675880
 20
184.270073
 30
0.0
 10
70.538416
 20
184.270073
 30
0.0
 11
80.775587
 21
184.270073
 31
0.0
 11
77.363197
 21
184.270073
 31
0.0
 11
73.950807
 21
184.270073
 31
0.0
 11
70.538416
 21
184.270073
 31
0.0
  0
LINE
  5
11d
100
AcDbEntity
  8
Layer_1
 62
7
100
AcDbLine
 10
70.538416
 20
182.883216
 30
0.0
 11
70.538416
 21
182.883216
 31
0.0
  0
SPLINE
  5
11e
100
AcDbEntity
  8
Layer_1
 62
7
100
AcDbSpline
 70
0
 71
3
 72
10
 73
6
 74
4
 40
0.000000
 40
0.000000
 40
0.000000
 40
0.000000
 40
0.462286
 40
0.924571
 40
1.386857
 40
1.386857
 40
1.386857
 40
1.386857
 10
70.538416
 20
184.270073
 30
0.0
 10
70.538416
 20
184.115978
 30
0.0
 10
70.538416
 20
183.807787
 30
0.0
 10
70.538416
 20
183.345501
 30
0.0
 10
70.538416
 20
183.037311
 30
0.0
 10
70.538416
 20
182.883216
 30
0.0
 11
70.538416
 21
184.270073
 31
0.0
 11
70.538416
 21
183.807787
 31
0.0
 11
70.538416
 21
183.345501
 31
0.0
 11
70.538416
 21
182.883216
 31
0.0
  0
SPLINE
  5
11f
100
AcDbEntity
  8
Layer_1
 62
7
100
AcDbSpline
 70
0
 71
3
 72
10
 73
6
 74
4
 40
0.000000
 40
0.000000
 40
0.000000
 40
0.000000
 40
0.661924
 40
1.246474
 40
1.664509
 40
1.664509
 40
1.664509
 40
1.664509
 10
116.629936
 20
184.233141
 30
0.0
 10
116.810504
 20
184.146805
 30
0.0
 10
117.150531
 20
183.984225
 30
0.0
 10
117.546505
 20
183.112288
 30
0.0
 10
117.543853
 20
183.583547
 30
0.0
 10
117.542747
 20
183.780042
 30
0.0
 11
116.629936
 21
184.233141
 31
0.0
 11
117.159371
 21
183.835848
 31
0.0
 11
117.504139
 21
183.363794
 31
0.0
 11
117.542747
 21
183.780042
 31
0.0
  0
LINE
  5
120
100
AcDbEntity
  8
Layer_1
 62
7
100
AcDbLine
 10
116.629936
 20
184.233141
 30
0.0
 11
116.629936
 21
184.233141
 31
0.0
  0
SPLINE
  5
121
100
AcDbEntity
  8
Layer_1
 62
7
100
AcDbSpline
 70
0
 71
3
 72
10
 73
6
 74
4
 40
0.000000
 40
0.000000
 40
0.000000
 40
0.000000
 40
0.479463
 40
0.974657
 40
1.322408
 40
1.322408
 40
1.322408
 40
1.322408
 10
117.542747
 20
183.780042
 30
0.0
 10
117.554099
 20
183.975237
 30
0.0
 10
117.577174
 20
184.372032
 30
0.0
 10
117.003430
 20
184.283314
 30
0.0
 10
116.739018
 20
184.247795
 30
0.0
 10
116.629936
 20
184.233141
 30
0.0
 11
117.542747
 21
183.780042
 31
0.0
 11
117.468885
 21
184.253782
 31
0.0
 11
116.974423
 21
184.280681
 31
0.0
 11
116.629936
 21
184.233141
 31
0.0
  0
SPLINE
  5
122
100
AcDbEntity
  8
Layer_1
 62
7
100
AcDbSpline
 70
0
 71
3
 72
10
 73
6
 74
4
 40
0.000000
 40
0.000000
 40
0.000000
 40
0.000000
 40
3.483535
 40
7.069281
 40
10.112484
 40
10.112484
 40
10.112484
 40
10.112484
 10
70.538416
 20
168.508072
 30
0.0
 10
71.699558
 20
168.514157
 30
0.0
 10
74.055910
 20
168.526505
 30
0.0
 10
77.427273
 20
168.458498
 30
0.0
 10
79.635575
 20
168.548386
 30
0.0
 10
80.649358
 20
168.589651
 30
0.0
 11
70.538416
 21
168.508072
 31
0.0
 11
74.021950
 21
168.511784
 31
0.0
 11
77.607652
 21
168.494194
 31
0.0
 11
80.649358
 21
168.589651
 31
0.0
  0
SPLINE
  5
123
100
AcDbEntity
  8
Layer_1
 62
7
100
AcDbSpline
 70
0
 71
3
 72
10
 73
6
 74
4
 40
0.000000
 40
0.000000
 40
0.000000
 40
0.000000
 40
0.760754
 40
1.498237
 40
2.163533
 40
2.163533
 40
2.163533
 40
2.163533
 10
80.649358
 20
168.589651
 30
0.0
 10
80.432326
 20
168.731808
 30
0.0
 10
80.004902
 20
169.011774
 30
0.0
 10
79.859960
 20
169.869668
 30
0.0
 10
79.334684
 20
169.882267
 30
0.0
 10
79.085561
 20
169.888243
 30
0.0
 11
80.649358
 21
168.589651
 31
0.0
 11
80.082586
 21
169.097111
 31
0.0
 11
79.735916
 21
169.748035
 31
0.0
 11
79.085561
 21
169.888243
 31
0.0
  0
SPLINE
  5
124
100
AcDbEntity
  8
Layer_1
 62
7
100
AcDbSpline
 70
0
 71
3
 72
10
 73
6
 74
4
 40
0.000000
 40
0.000000
 40
0.000000
 40
0.000000
 40
2.849046
 40
5.698098
 40
8.547150
 40
8.547150
 40
8.547150
 40
8.547150
 10
79.085561
 20
169.888243
 30
0.0
 10
78.135881
 20
169.890408
 30
0.0
 10
76.236519
 20
169.894737
 30
0.0
 10
73.387467
 20
169.892845
 30
0.0
 10
71.488100
 20
169.893126
 30
0.0
 10
70.538416
 20
169.893266
 30
0.0
 11
79.085561
 21
169.888243
 31
0.0
 11
76.236519
 21
169.893340
 31
0.0
 11
73.387468
 21
169.893231
 31
0.0
 11
70.538416
 21
169.893266
 31
0.0
  0
LINE
  5
125
100
AcDbEntity
  8
Layer_1
 62
7
100
AcDbLine
 10
70.538416
 20
168.508063
 30
0.0
 11
70.538416
 21
168.508072
 31
0.0
  0
SPLINE
  5
126
100
AcDbEntity
  8
Layer_1
 62
7
100
AcDbSpline
 70
0
 71
3
 72
10
 73
6
 74
4
 40
0.000000
 40
0.000000
 40
0.000000
 40
0.000000
 40
0.461733
 40
0.923468
 40
1.385203
 40
1.385203
 40
1.385203
 40
1.385203
 10
70.538416
 20
169.893266
 30
0.0
 10
70.538416
 20
169.739355
 30
0.0
 10
70.538416
 20
169.431533
 30
0.0
 10
70.538416
 20
168.969798
 30
0.0
 10
70.538416
 20
168.661975
 30
0.0
 10
70.538416
 20
168.508063
 30
0.0
 11
70.538416
 21
169.893266
 31
0.0
 11
70.538416
 21
169.431533
 31
0.0
 11
70.538416
 21
168.969798
 31
0.0
 11
70.538416
 21
168.508063
 31
0.0
  0
SPLINE
  5
127
100
AcDbEntity
  8
Layer_1
 62
7
100
AcDbSpline
 70
0
 71
3
 72
10
 73
6
 74
4
 40
0.000000
 40
0.000000
 40
0.000000
 40
0.000000
 40
0.513318
 40
1.026776
 40
1.540265
 40
1.540265
 40
1.540265
 40
1.540265
 10
117.542197
 20
169.561444
 30
0.0
 10
117.470421
 20
169.405088
 30
0.0
 10
117.326850
 20
169.092334
 30
0.0
 10
116.949690
 20
168.722355
 30
0.0
 10
116.636937
 20
168.579501
 30
0.0
 10
116.480556
 20
168.508072
 30
0.0
 11
117.542197
 21
169.561444
 31
0.0
 11
117.299914
 21
169.108902
 31
0.0
 11
116.934377
 21
168.748317
 31
0.0
 11
116.480556
 21
168.508072
 31
0.0
  0
LINE
  5
128
100
AcDbEntity
  8
Layer_1
 62
7
100
AcDbLine
 10
117.542197
 20
169.561444
 30
0.0
 11
117.542197
 21
169.561444
 31
0.0
  0
SPLINE
  5
129
100
AcDbEntity
  8
Layer_1
 62
7
100
AcDbSpline
 70
0
 71
3
 72
10
 73
6
 74
4
 40
0.000000
 40
0.000000
 40
0.000000
 40
0.000000
 40
0.765158
 40
1.209700
 40
1.968807
 40
1.968807
 40
1.968807
 40
1.968807
 10
116.480556
 20
168.508072
 30
0.0
 10
116.748827
 20
168.444354
 30
0.0
 10
117.172957
 20
168.343618
 30
0.0
 10
117.700813
 20
168.873992
 30
0.0
 10
117.603543
 20
169.295568
 30
0.0
 10
117.542197
 20
169.561444
 30
0.0
 11
116.480556
 21
168.508072
 31
0.0
 11
117.245441
 21
168.487599
 31
0.0
 11
117.559189
 21
168.802527
 31
0.0
 11
117.542197
 21
169.561444
 31
0.0
  0
SPLINE
  5
12a
100
AcDbEntity
  8
Layer_1
 62
7
100
AcDbSpline
 70
0
 71
3
 72
10
 73
6
 74
4
 40
0.000000
 40
0.000000
 40
0.000000
 40
0.000000
 40
3.104289
 40
6.233716
 40
9.233082
 40
9.233082
 40
9.233082
 40
9.233082
 10
70.538416
 20
182.883216
 30
0.0
 10
71.573112
 20
182.892380
 30
0.0
 10
73.650881
 20
182.910783
 30
0.0
 10
76.729502
 20
182.829908
 30
0.0
 10
78.769945
 20
182.947860
 30
0.0
 10
79.768517
 20
183.005585
 30
0.0
 11
70.538416
 21
182.883216
 31
0.0
 11
73.642691
 21
182.892604
 31
0.0
 11
76.772060
 21
182.873518
 31
0.0
 11
79.768517
 21
183.005585
 31
0.0
  0
SPLINE
  5
12b
100
AcDbEntity
  8
Layer_1
 62
7
100
AcDbSpline
 70
0
 71
3
 72
10
 73
6
 74
4
 40
0.000000
 40
0.000000
 40
0.000000
 40
0.000000
 40
0.559440
 40
1.118167
 40
1.678089
 40
1.678089
 40
1.678089
 40
1.678089
 10
79.768517
 20
183.005585
 30
0.0
 10
79.818265
 20
183.186682
 30
0.0
 10
79.917699
 20
183.548648
 30
0.0
 10
80.282134
 20
183.999674
 30
0.0
 10
80.610986
 20
184.179876
 30
0.0
 10
80.775587
 20
184.270073
 30
0.0
 11
79.768517
 21
183.005585
 31
0.0
 11
79.953659
 21
183.533501
 31
0.0
 11
80.303307
 21
183.969302
 31
0.0
 11
80.775587
 21
184.270073
 31
0.0
  0
SPLINE
  5
12c
100
AcDbEntity
  8
Layer_1
 62
7
100
AcDbSpline
 70
0
 71
3
 72
10
 73
6
 74
4
 40
0.000000
 40
0.000000
 40
0.000000
 40
0.000000
 40
3.412390
 40
6.824780
 40
10.237171
 40
10.237171
 40
10.237171
 40
10.237171
 10
80.775587
 20
184.270073
 30
0.0
 10
79.638124
 20
184.270073
 30
0.0
 10
77.363197
 20
184.270073
 30
0.0
 10
73.950806
 20
184.270073
 30
0.0
 10
71.675880
 20
184.270073
 30
0.0
 10
70.538416
 20
184.270073
 30
0.0
 11
80.775587
 21
184.270073
 31
0.0
 11
77.363197
 21
184.270073
 31
0.0
 11
73.950807
 21
184.270073
 31
0.0
 11
70.538416
 21
184.270073
 31
0.0
  0
LINE
  5
12d
100
AcDbEntity
  8
Layer_1
 62
7
100
AcDbLine
 10
70.538416
 20
182.883216
 30
0.0
 11
70.538416
 21
182.883216
 31
0.0
  0
SPLINE
  5
12e
100
AcDbEntity
  8
Layer_1
 62
7
100
AcDbSpline
 70
0
 71
3
 72
10
 73
6
 74
4
 40
0.000000
 40
0.000000
 40
0.000000
 40
0.000000
 40
0.462286
 40
0.924571
 40
1.386857
 40
1.386857
 40
1.386857
 40
1.386857
 10
70.538416
 20
184.270073
 30
0.0
 10
70.538416
 20
184.115978
 30
0.0
 10
70.538416
 20
183.807787
 30
0.0
 10
70.538416
 20
183.345501
 30
0.0
 10
70.538416
 20
183.037311
 30
0.0
 10
70.538416
 20
182.883216
 30
0.0
 11
70.538416
 21
184.270073
 31
0.0
 11
70.538416
 21
183.807787
 31
0.0
 11
70.538416
 21
183.345501
 31
0.0
 11
70.538416
 21
182.883216
 31
0.0
  0
SPLINE
  5
12f
100
AcDbEntity
  8
Layer_1
 62
7
100
AcDbSpline
 70
0
 71
3
 72
10
 73
6
 74
4
 40
0.000000
 40
0.000000
 40
0.000000
 40
0.000000
 40
0.661924
 40
1.246474
 40
1.664509
 40
1.664509
 40
1.664509
 40
1.664509
 10
116.629936
 20
184.233141
 30
0.0
 10
116.810504
 20
184.146805
 30
0.0
 10
117.150531
 20
183.984225
 30
0.0
 10
117.546505
 20
183.112288
 30
0.0
 10
117.543853
 20
183.583547
 30
0.0
 10
117.542747
 20
183.780042
 30
0.0
 11
116.629936
 21
184.233141
 31
0.0
 11
117.159371
 21
183.835848
 31
0.0
 11
117.504139
 21
183.363794
 31
0.0
 11
117.542747
 21
183.780042
 31
0.0
  0
LINE
  5
130
100
AcDbEntity
  8
Layer_1
 62
7
100
AcDbLine
 10
116.629936
 20
184.233141
 30
0.0
 11
116.629936
 21
184.233141
 31
0.0
  0
SPLINE
  5
131
100
AcDbEntity
  8
Layer_1
 62
7
100
AcDbSpline
 70
0
 71
3
 72
10
 73
6
 74
4
 40
0.000000
 40
0.000000
 40
0.000000
 40
0.000000
 40
0.479463
 40
0.974657
 40
1.322408
 40
1.322408
 40
1.322408
 40
1.322408
 10
117.542747
 20
183.780042
 30
0.0
 10
117.554099
 20
183.975237
 30
0.0
 10
117.577174
 20
184.372032
 30
0.0
 10
117.003430
 20
184.283314
 30
0.0
 10
116.739018
 20
184.247795
 30
0.0
 10
116.629936
 20
184.233141
 30
0.0
 11
117.542747
 21
183.780042
 31
0.0
 11
117.468885
 21
184.253782
 31
0.0
 11
116.974423
 21
184.280681
 31
0.0
 11
116.629936
 21
184.233141
 31
0.0
  0
SPLINE
  5
132
100
AcDbEntity
  8
Layer_1
 62
7
100
AcDbSpline
 70
0
 71
3
 72
10
 73
6
 74
4
 40
0.000000
 40
0.000000
 40
0.000000
 40
0.000000
 40
3.483535
 40
7.069281
 40
10.112484
 40
10.112484
 40
10.112484
 40
10.112484
 10
70.538416
 20
168.508072
 30
0.0
 10
71.699558
 20
168.514157
 30
0.0
 10
74.055910
 20
168.526505
 30
0.0
 10
77.427273
 20
168.458498
 30
0.0
 10
79.635575
 20
168.548386
 30
0.0
 10
80.649358
 20
168.589651
 30
0.0
 11
70.538416
 21
168.508072
 31
0.0
 11
74.021950
 21
168.511784
 31
0.0
 11
77.607652
 21
168.494194
 31
0.0
 11
80.649358
 21
168.589651
 31
0.0
  0
SPLINE
  5
133
100
AcDbEntity
  8
Layer_1
 62
7
100
AcDbSpline
 70
0
 71
3
 72
10
 73
6
 74
4
 40
0.000000
 40
0.000000
 40
0.000000
 40
0.000000
 40
0.760754
 40
1.498237
 40
2.163533
 40
2.163533
 40
2.163533
 40
2.163533
 10
80.649358
 20
168.589651
 30
0.0
 10
80.432326
 20
168.731808
 30
0.0
 10
80.004902
 20
169.011774
 30
0.0
 10
79.859960
 20
169.869668
 30
0.0
 10
79.334684
 20
169.882267
 30
0.0
 10
79.085561
 20
169.888243
 30
0.0
 11
80.649358
 21
168.589651
 31
0.0
 11
80.082586
 21
169.097111
 31
0.0
 11
79.735916
 21
169.748035
 31
0.0
 11
79.085561
 21
169.888243
 31
0.0
  0
SPLINE
  5
134
100
AcDbEntity
  8
Layer_1
 62
7
100
AcDbSpline
 70
0
 71
3
 72
10
 73
6
 74
4
 40
0.000000
 40
0.000000
 40
0.000000
 40
0.000000
 40
2.849046
 40
5.698098
 40
8.547150
 40
8.547150
 40
8.547150
 40
8.547150
 10
79.085561
 20
169.888243
 30
0.0
 10
78.135881
 20
169.890408
 30
0.0
 10
76.236519
 20
169.894737
 30
0.0
 10
73.387467
 20
169.892845
 30
0.0
 10
71.488100
 20
169.893126
 30
0.0
 10
70.538416
 20
169.893266
 30
0.0
 11
79.085561
 21
169.888243
 31
0.0
 11
76.236519
 21
169.893340
 31
0.0
 11
73.387468
 21
169.893231
 31
0.0
 11
70.538416
 21
169.893266
 31
0.0
  0
LINE
  5
135
100
AcDbEntity
  8
Layer_1
 62
7
100
AcDbLine
 10
70.538416
 20
168.508063
 30
0.0
 11
70.538416
 21
168.508072
 31
0.0
  0
SPLINE
  5
136
100
AcDbEntity
  8
Layer_1
 62
7
100
AcDbSpline
 70
0
 71
3
 72
10
 73
6
 74
4
 40
0.000000
 40
0.000000
 40
0.000000
 40
0.000000
 40
0.461733
 40
0.923468
 40
1.385203
 40
1.385203
 40
1.385203
 40
1.385203
 10
70.538416
 20
169.893266
 30
0.0
 10
70.538416
 20
169.739355
 30
0.0
 10
70.538416
 20
169.431533
 30
0.0
 10
70.538416
 20
168.969798
 30
0.0
 10
70.538416
 20
168.661975
 30
0.0
 10
70.538416
 20
168.508063
 30
0.0
 11
70.538416
 21
169.893266
 31
0.0
 11
70.538416
 21
169.431533
 31
0.0
 11
70.538416
 21
168.969798
 31
0.0
 11
70.538416
 21
168.508063
 31
0.0
  0
SPLINE
  5
137
100
AcDbEntity
  8
Layer_1
 62
7
100
AcDbSpline
 70
0
 71
3
 72
10
 73
6
 74
4
 40
0.000000
 40
0.000000
 40
0.000000
 40
0.000000
 40
0.513318
 40
1.026776
 40
1.540265
 40
1.540265
 40
1.540265
 40
1.540265
 10
117.542197
 20
169.561444
 30
0.0
 10
117.470421
 20
169.405088
 30
0.0
 10
117.326850
 20
169.092334
 30
0.0
 10
116.949690
 20
168.722355
 30
0.0
 10
116.636937
 20
168.579501
 30
0.0
 10
116.480556
 20
168.508072
 30
0.0
 11
117.542197
 21
169.561444
 31
0.0
 11
117.299914
 21
169.108902
 31
0.0
 11
116.934377
 21
168.748317
 31
0.0
 11
116.480556
 21
168.508072
 31
0.0
  0
LINE
  5
138
100
AcDbEntity
  8
Layer_1
 62
7
100
AcDbLine
 10
117.542197
 20
169.561444
 30
0.0
 11
117.542197
 21
169.561444
 31
0.0
  0
SPLINE
  5
139
100
AcDbEntity
  8
Layer_1
 62
7
100
AcDbSpline
 70
0
 71
3
 72
10
 73
6
 74
4
 40
0.000000
 40
0.000000
 40
0.000000
 40
0.000000
 40
0.765158
 40
1.209700
 40
1.968807
 40
1.968807
 40
1.968807
 40
1.968807
 10
116.480556
 20
168.508072
 30
0.0
 10
116.748827
 20
168.444354
 30
0.0
 10
117.172957
 20
168.343618
 30
0.0
 10
117.700813
 20
168.873992
 30
0.0
 10
117.603543
 20
169.295568
 30
0.0
 10
117.542197
 20
169.561444
 30
0.0
 11
116.480556
 21
168.508072
 31
0.0
 11
117.245441
 21
168.487599
 31
0.0
 11
117.559189
 21
168.802527
 31
0.0
 11
117.542197
 21
169.561444
 31
0.0
  0
SPLINE
  5
13a
100
AcDbEntity
  8
Layer_1
 62
7
100
AcDbSpline
 70
0
 71
3
 72
10
 73
6
 74
4
 40
0.000000
 40
0.000000
 40
0.000000
 40
0.000000
 40
2.785021
 40
5.586620
 40
8.291359
 40
8.291359
 40
8.291359
 40
8.291359
 10
71.102861
 20
183.459787
 30
0.0
 10
72.030988
 20
183.468265
 30
0.0
 10
73.892767
 20
183.485271
 30
0.0
 10
76.659733
 20
183.345734
 30
0.0
 10
78.486468
 20
183.554549
 30
0.0
 10
79.383769
 20
183.657120
 30
0.0
 11
71.102861
 21
183.459787
 31
0.0
 11
73.887881
 21
183.457629
 31
0.0
 11
76.689255
 21
183.422150
 31
0.0
 11
79.383769
 21
183.657120
 31
0.0
  0
LINE
  5
13b
100
AcDbEntity
  8
Layer_1
 62
7
100
AcDbLine
 10
71.102861
 20
183.705628
 30
0.0
 11
71.102861
 21
183.459787
 31
0.0
  0
LINE
  5
13c
100
AcDbEntity
  8
Layer_1
 62
7
100
AcDbLine
 10
71.102861
 20
183.459787
 30
0.0
 11
71.102861
 21
183.459787
 31
0.0
  0
SPLINE
  5
13d
100
AcDbEntity
  8
Layer_1
 62
7
100
AcDbSpline
 70
0
 71
3
 72
10
 73
6
 74
4
 40
0.000000
 40
0.000000
 40
0.000000
 40
0.000000
 40
2.697576
 40
5.498176
 40
8.281498
 40
8.281498
 40
8.281498
 40
8.281498
 10
79.383769
 20
183.657120
 30
0.0
 10
78.484817
 20
183.681533
 30
0.0
 10
76.652582
 20
183.731291
 30
0.0
 10
73.891906
 20
183.696456
 30
0.0
 10
72.030623
 20
183.702577
 30
0.0
 10
71.102861
 20
183.705628
 30
0.0
 11
79.383769
 21
183.657120
 31
0.0
 11
76.686768
 21
183.712814
 31
0.0
 11
73.886182
 21
183.703832
 31
0.0
 11
71.102861
 21
183.705628
 31
0.0
  0
SPLINE
  5
13e
100
AcDbEntity
  8
Layer_1
 62
7
100
AcDbSpline
 70
0
 71
3
 72
10
 73
6
 74
4
 40
0.000000
 40
0.000000
 40
0.000000
 40
0.000000
 40
2.730979
 40
5.469653
 40
8.206855
 40
8.206855
 40
8.206855
 40
8.206855
 10
79.309352
 20
169.365762
 30
0.0
 10
78.399171
 20
169.346323
 30
0.0
 10
76.576243
 20
169.307392
 30
0.0
 10
73.840534
 20
169.338069
 30
0.0
 10
72.015255
 20
169.331909
 30
0.0
 10
71.102861
 20
169.328830
 30
0.0
 11
79.309352
 21
169.365762
 31
0.0
 11
76.578720
 21
169.322249
 31
0.0
 11
73.840061
 21
169.331414
 31
0.0
 11
71.102861
 21
169.328830
 31
0.0
  0
SPLINE
  5
13f
100
AcDbEntity
  8
Layer_1
 62
7
100
AcDbSpline
 70
0
 71
3
 72
10
 73
6
 74
4
 40
0.000000
 40
0.000000
 40
0.000000
 40
0.000000
 40
0.795553
 40
1.894258
 40
2.922880
 40
2.922880
 40
2.922880
 40
2.922880
 10
71.102861
 20
169.328830
 30
0.0
 10
71.345013
 20
169.204071
 30
0.0
 10
71.921592
 20
168.907012
 30
0.0
 10
72.920859
 20
169.145430
 30
0.0
 10
73.626368
 20
169.098579
 30
0.0
 10
73.967501
 20
169.075925
 30
0.0
 11
71.102861
 21
169.328830
 31
0.0
 11
71.841846
 21
169.034203
 31
0.0
 11
72.939011
 21
169.092363
 31
0.0
 11
73.967501
 21
169.075925
 31
0.0
  0
SPLINE
  5
140
100
AcDbEntity
  8
Layer_1
 62
7
100
AcDbSpline
 70
0
 71
3
 72
10
 73
6
 74
4
 40
0.000000
 40
0.000000
 40
0.000000
 40
0.000000
 40
1.834040
 40
3.670604
 40
5.490483
 40
5.490483
 40
5.490483
 40
5.490483
 10
73.967501
 20
169.075925
 30
0.0
 10
74.578820
 20
169.071312
 30
0.0
 10
75.802299
 20
169.062080
 30
0.0
 10
77.632572
 20
169.049769
 30
0.0
 10
78.851132
 20
169.077842
 30
0.0
 10
79.457632
 20
169.091815
 30
0.0
 11
73.967501
 21
169.075925
 31
0.0
 11
75.801490
 21
169.062336
 31
0.0
 11
77.638051
 21
169.058882
 31
0.0
 11
79.457632
 21
169.091815
 31
0.0
  0
LINE
  5
141
100
AcDbEntity
  8
Layer_1
 62
7
100
AcDbLine
 10
79.309352
 20
169.365768
 30
0.0
 11
79.309352
 21
169.365762
 31
0.0
  0
SPLINE
  5
142
100
AcDbEntity
  8
Layer_1
 62
7
100
AcDbSpline
 70
0
 71
3
 72
10
 73
6
 74
4
 40
0.000000
 40
0.000000
 40
0.000000
 40
0.000000
 40
0.104789
 40
0.211251
 40
0.312203
 40
0.312203
 40
0.312203
 40
0.312203
 10
79.457632
 20
169.091815
 30
0.0
 10
79.442369
 20
169.123206
 30
0.0
 10
79.411600
 20
169.186490
 30
0.0
 10
79.369898
 20
169.282320
 30
0.0
 10
79.329174
 20
169.338449
 30
0.0
 10
79.309352
 20
169.365768
 30
0.0
 11
79.457632
 21
169.091815
 31
0.0
 11
79.412471
 21
169.186373
 31
0.0
 11
79.365732
 21
169.282026
 31
0.0
 11
79.309352
 21
169.365768
 31
0.0
  0
SPLINE
  5
143
100
AcDbEntity
  8
Layer_1
 62
7
100
AcDbSpline
 70
0
 71
3
 72
10
 73
6
 74
4
 40
0.000000
 40
0.000000
 40
0.000000
 40
0.000000
 40
3.104289
 40
6.233716
 40
9.233082
 40
9.233082
 40
9.233082
 40
9.233082
 10
70.538416
 20
182.883216
 30
0.0
 10
71.573112
 20
182.892380
 30
0.0
 10
73.650881
 20
182.910783
 30
0.0
 10
76.729502
 20
182.829908
 30
0.0
 10
78.769945
 20
182.947860
 30
0.0
 10
79.768517
 20
183.005585
 30
0.0
 11
70.538416
 21
182.883216
 31
0.0
 11
73.642691
 21
182.892604
 31
0.0
 11
76.772060
 21
182.873518
 31
0.0
 11
79.768517
 21
183.005585
 31
0.0
  0
SPLINE
  5
144
100
AcDbEntity
  8
Layer_1
 62
7
100
AcDbSpline
 70
0
 71
3
 72
10
 73
6
 74
4
 40
0.000000
 40
0.000000
 40
0.000000
 40
0.000000
 40
0.559440
 40
1.118167
 40
1.678089
 40
1.678089
 40
1.678089
 40
1.678089
 10
79.768517
 20
183.005585
 30
0.0
 10
79.818265
 20
183.186682
 30
0.0
 10
79.917699
 20
183.548648
 30
0.0
 10
80.282134
 20
183.999674
 30
0.0
 10
80.610986
 20
184.179876
 30
0.0
 10
80.775587
 20
184.270073
 30
0.0
 11
79.768517
 21
183.005585
 31
0.0
 11
79.953659
 21
183.533501
 31
0.0
 11
80.303307
 21
183.969302
 31
0.0
 11
80.775587
 21
184.270073
 31
0.0
  0
SPLINE
  5
145
100
AcDbEntity
  8
Layer_1
 62
7
100
AcDbSpline
 70
0
 71
3
 72
10
 73
6
 74
4
 40
0.000000
 40
0.000000
 40
0.000000
 40
0.000000
 40
3.412390
 40
6.824780
 40
10.237171
 40
10.237171
 40
10.237171
 40
10.237171
 10
80.775587
 20
184.270073
 30
0.0
 10
79.638124
 20
184.270073
 30
0.0
 10
77.363197
 20
184.270073
 30
0.0
 10
73.950806
 20
184.270073
 30
0.0
 10
71.675880
 20
184.270073
 30
0.0
 10
70.538416
 20
184.270073
 30
0.0
 11
80.775587
 21
184.270073
 31
0.0
 11
77.363197
 21
184.270073
 31
0.0
 11
73.950807
 21
184.270073
 31
0.0
 11
70.538416
 21
184.270073
 31
0.0
  0
LINE
  5
146
100
AcDbEntity
  8
Layer_1
 62
7
100
AcDbLine
 10
70.538416
 20
182.883216
 30
0.0
 11
70.538416
 21
182.883216
 31
0.0
  0
SPLINE
  5
147
100
AcDbEntity
  8
Layer_1
 62
7
100
AcDbSpline
 70
0
 71
3
 72
10
 73
6
 74
4
 40
0.000000
 40
0.000000
 40
0.000000
 40
0.000000
 40
0.462286
 40
0.924571
 40
1.386857
 40
1.386857
 40
1.386857
 40
1.386857
 10
70.538416
 20
184.270073
 30
0.0
 10
70.538416
 20
184.115978
 30
0.0
 10
70.538416
 20
183.807787
 30
0.0
 10
70.538416
 20
183.345501
 30
0.0
 10
70.538416
 20
183.037311
 30
0.0
 10
70.538416
 20
182.883216
 30
0.0
 11
70.538416
 21
184.270073
 31
0.0
 11
70.538416
 21
183.807787
 31
0.0
 11
70.538416
 21
183.345501
 31
0.0
 11
70.538416
 21
182.883216
 31
0.0
  0
SPLINE
  5
148
100
AcDbEntity
  8
Layer_1
 62
7
100
AcDbSpline
 70
0
 71
3
 72
10
 73
6
 74
4
 40
0.000000
 40
0.000000
 40
0.000000
 40
0.000000
 40
0.661924
 40
1.246474
 40
1.664509
 40
1.664509
 40
1.664509
 40
1.664509
 10
116.629936
 20
184.233141
 30
0.0
 10
116.810504
 20
184.146805
 30
0.0
 10
117.150531
 20
183.984225
 30
0.0
 10
117.546505
 20
183.112288
 30
0.0
 10
117.543853
 20
183.583547
 30
0.0
 10
117.542747
 20
183.780042
 30
0.0
 11
116.629936
 21
184.233141
 31
0.0
 11
117.159371
 21
183.835848
 31
0.0
 11
117.504139
 21
183.363794
 31
0.0
 11
117.542747
 21
183.780042
 31
0.0
  0
LINE
  5
149
100
AcDbEntity
  8
Layer_1
 62
7
100
AcDbLine
 10
116.629936
 20
184.233141
 30
0.0
 11
116.629936
 21
184.233141
 31
0.0
  0
SPLINE
  5
14a
100
AcDbEntity
  8
Layer_1
 62
7
100
AcDbSpline
 70
0
 71
3
 72
10
 73
6
 74
4
 40
0.000000
 40
0.000000
 40
0.000000
 40
0.000000
 40
0.479463
 40
0.974657
 40
1.322408
 40
1.322408
 40
1.322408
 40
1.322408
 10
117.542747
 20
183.780042
 30
0.0
 10
117.554099
 20
183.975237
 30
0.0
 10
117.577174
 20
184.372032
 30
0.0
 10
117.003430
 20
184.283314
 30
0.0
 10
116.739018
 20
184.247795
 30
0.0
 10
116.629936
 20
184.233141
 30
0.0
 11
117.542747
 21
183.780042
 31
0.0
 11
117.468885
 21
184.253782
 31
0.0
 11
116.974423
 21
184.280681
 31
0.0
 11
116.629936
 21
184.233141
 31
0.0
  0
SPLINE
  5
14b
100
AcDbEntity
  8
Layer_1
 62
7
100
AcDbSpline
 70
0
 71
3
 72
10
 73
6
 74
4
 40
0.000000
 40
0.000000
 40
0.000000
 40
0.000000
 40
3.483535
 40
7.069281
 40
10.112484
 40
10.112484
 40
10.112484
 40
10.112484
 10
70.538416
 20
168.508072
 30
0.0
 10
71.699558
 20
168.514157
 30
0.0
 10
74.055910
 20
168.526505
 30
0.0
 10
77.427273
 20
168.458498
 30
0.0
 10
79.635575
 20
168.548386
 30
0.0
 10
80.649358
 20
168.589651
 30
0.0
 11
70.538416
 21
168.508072
 31
0.0
 11
74.021950
 21
168.511784
 31
0.0
 11
77.607652
 21
168.494194
 31
0.0
 11
80.649358
 21
168.589651
 31
0.0
  0
SPLINE
  5
14c
100
AcDbEntity
  8
Layer_1
 62
7
100
AcDbSpline
 70
0
 71
3
 72
10
 73
6
 74
4
 40
0.000000
 40
0.000000
 40
0.000000
 40
0.000000
 40
0.760754
 40
1.498237
 40
2.163533
 40
2.163533
 40
2.163533
 40
2.163533
 10
80.649358
 20
168.589651
 30
0.0
 10
80.432326
 20
168.731808
 30
0.0
 10
80.004902
 20
169.011774
 30
0.0
 10
79.859960
 20
169.869668
 30
0.0
 10
79.334684
 20
169.882267
 30
0.0
 10
79.085561
 20
169.888243
 30
0.0
 11
80.649358
 21
168.589651
 31
0.0
 11
80.082586
 21
169.097111
 31
0.0
 11
79.735916
 21
169.748035
 31
0.0
 11
79.085561
 21
169.888243
 31
0.0
  0
SPLINE
  5
14d
100
AcDbEntity
  8
Layer_1
 62
7
100
AcDbSpline
 70
0
 71
3
 72
10
 73
6
 74
4
 40
0.000000
 40
0.000000
 40
0.000000
 40
0.000000
 40
2.849046
 40
5.698098
 40
8.547150
 40
8.547150
 40
8.547150
 40
8.547150
 10
79.085561
 20
169.888243
 30
0.0
 10
78.135881
 20
169.890408
 30
0.0
 10
76.236519
 20
169.894737
 30
0.0
 10
73.387467
 20
169.892845
 30
0.0
 10
71.488100
 20
169.893126
 30
0.0
 10
70.538416
 20
169.893266
 30
0.0
 11
79.085561
 21
169.888243
 31
0.0
 11
76.236519
 21
169.893340
 31
0.0
 11
73.387468
 21
169.893231
 31
0.0
 11
70.538416
 21
169.893266
 31
0.0
  0
LINE
  5
14e
100
AcDbEntity
  8
Layer_1
 62
7
100
AcDbLine
 10
70.538416
 20
168.508063
 30
0.0
 11
70.538416
 21
168.508072
 31
0.0
  0
SPLINE
  5
14f
100
AcDbEntity
  8
Layer_1
 62
7
100
AcDbSpline
 70
0
 71
3
 72
10
 73
6
 74
4
 40
0.000000
 40
0.000000
 40
0.000000
 40
0.000000
 40
0.461733
 40
0.923468
 40
1.385203
 40
1.385203
 40
1.385203
 40
1.385203
 10
70.538416
 20
169.893266
 30
0.0
 10
70.538416
 20
169.739355
 30
0.0
 10
70.538416
 20
169.431533
 30
0.0
 10
70.538416
 20
168.969798
 30
0.0
 10
70.538416
 20
168.661975
 30
0.0
 10
70.538416
 20
168.508063
 30
0.0
 11
70.538416
 21
169.893266
 31
0.0
 11
70.538416
 21
169.431533
 31
0.0
 11
70.538416
 21
168.969798
 31
0.0
 11
70.538416
 21
168.508063
 31
0.0
  0
SPLINE
  5
150
100
AcDbEntity
  8
Layer_1
 62
7
100
AcDbSpline
 70
0
 71
3
 72
10
 73
6
 74
4
 40
0.000000
 40
0.000000
 40
0.000000
 40
0.000000
 40
0.513318
 40
1.026776
 40
1.540265
 40
1.540265
 40
1.540265
 40
1.540265
 10
117.542197
 20
169.561444
 30
0.0
 10
117.470421
 20
169.405088
 30
0.0
 10
117.326850
 20
169.092334
 30
0.0
 10
116.949690
 20
168.722355
 30
0.0
 10
116.636937
 20
168.579501
 30
0.0
 10
116.480556
 20
168.508072
 30
0.0
 11
117.542197
 21
169.561444
 31
0.0
 11
117.299914
 21
169.108902
 31
0.0
 11
116.934377
 21
168.748317
 31
0.0
 11
116.480556
 21
168.508072
 31
0.0
  0
LINE
  5
151
100
AcDbEntity
  8
Layer_1
 62
7
100
AcDbLine
 10
117.542197
 20
169.561444
 30
0.0
 11
117.542197
 21
169.561444
 31
0.0
  0
SPLINE
  5
152
100
AcDbEntity
  8
Layer_1
 62
7
100
AcDbSpline
 70
0
 71
3
 72
10
 73
6
 74
4
 40
0.000000
 40
0.000000
 40
0.000000
 40
0.000000
 40
0.765158
 40
1.209700
 40
1.968807
 40
1.968807
 40
1.968807
 40
1.968807
 10
116.480556
 20
168.508072
 30
0.0
 10
116.748827
 20
168.444354
 30
0.0
 10
117.172957
 20
168.343618
 30
0.0
 10
117.700813
 20
168.873992
 30
0.0
 10
117.603543
 20
169.295568
 30
0.0
 10
117.542197
 20
169.561444
 30
0.0
 11
116.480556
 21
168.508072
 31
0.0
 11
117.245441
 21
168.487599
 31
0.0
 11
117.559189
 21
168.802527
 31
0.0
 11
117.542197
 21
169.561444
 31
0.0
  0
SPLINE
  5
153
100
AcDbEntity
  8
Layer_1
 62
7
100
AcDbSpline
 70
0
 71
3
 72
10
 73
6
 74
4
 40
0.000000
 40
0.000000
 40
0.000000
 40
0.000000
 40
2.785021
 40
5.586620
 40
8.291359
 40
8.291359
 40
8.291359
 40
8.291359
 10
71.102861
 20
183.459787
 30
0.0
 10
72.030988
 20
183.468265
 30
0.0
 10
73.892767
 20
183.485271
 30
0.0
 10
76.659733
 20
183.345734
 30
0.0
 10
78.486468
 20
183.554549
 30
0.0
 10
79.383769
 20
183.657120
 30
0.0
 11
71.102861
 21
183.459787
 31
0.0
 11
73.887881
 21
183.457629
 31
0.0
 11
76.689255
 21
183.422150
 31
0.0
 11
79.383769
 21
183.657120
 31
0.0
  0
LINE
  5
154
100
AcDbEntity
  8
Layer_1
 62
7
100
AcDbLine
 10
71.102861
 20
183.705628
 30
0.0
 11
71.102861
 21
183.459787
 31
0.0
  0
LINE
  5
155
100
AcDbEntity
  8
Layer_1
 62
7
100
AcDbLine
 10
71.102861
 20
183.459787
 30
0.0
 11
71.102861
 21
183.459787
 31
0.0
  0
SPLINE
  5
156
100
AcDbEntity
  8
Layer_1
 62
7
100
AcDbSpline
 70
0
 71
3
 72
10
 73
6
 74
4
 40
0.000000
 40
0.000000
 40
0.000000
 40
0.000000
 40
2.697576
 40
5.498176
 40
8.281498
 40
8.281498
 40
8.281498
 40
8.281498
 10
79.383769
 20
183.657120
 30
0.0
 10
78.484817
 20
183.681533
 30
0.0
 10
76.652582
 20
183.731291
 30
0.0
 10
73.891906
 20
183.696456
 30
0.0
 10
72.030623
 20
183.702577
 30
0.0
 10
71.102861
 20
183.705628
 30
0.0
 11
79.383769
 21
183.657120
 31
0.0
 11
76.686768
 21
183.712814
 31
0.0
 11
73.886182
 21
183.703832
 31
0.0
 11
71.102861
 21
183.705628
 31
0.0
  0
SPLINE
  5
157
100
AcDbEntity
  8
Layer_1
 62
7
100
AcDbSpline
 70
0
 71
3
 72
10
 73
6
 74
4
 40
0.000000
 40
0.000000
 40
0.000000
 40
0.000000
 40
2.730979
 40
5.469653
 40
8.206855
 40
8.206855
 40
8.206855
 40
8.206855
 10
79.309352
 20
169.365762
 30
0.0
 10
78.399171
 20
169.346323
 30
0.0
 10
76.576243
 20
169.307392
 30
0.0
 10
73.840534
 20
169.338069
 30
0.0
 10
72.015255
 20
169.331909
 30
0.0
 10
71.102861
 20
169.328830
 30
0.0
 11
79.309352
 21
169.365762
 31
0.0
 11
76.578720
 21
169.322249
 31
0.0
 11
73.840061
 21
169.331414
 31
0.0
 11
71.102861
 21
169.328830
 31
0.0
  0
SPLINE
  5
158
100
AcDbEntity
  8
Layer_1
 62
7
100
AcDbSpline
 70
0
 71
3
 72
10
 73
6
 74
4
 40
0.000000
 40
0.000000
 40
0.000000
 40
0.000000
 40
0.795553
 40
1.894258
 40
2.922880
 40
2.922880
 40
2.922880
 40
2.922880
 10
71.102861
 20
169.328830
 30
0.0
 10
71.345013
 20
169.204071
 30
0.0
 10
71.921592
 20
168.907012
 30
0.0
 10
72.920859
 20
169.145430
 30
0.0
 10
73.626368
 20
169.098579
 30
0.0
 10
73.967501
 20
169.075925
 30
0.0
 11
71.102861
 21
169.328830
 31
0.0
 11
71.841846
 21
169.034203
 31
0.0
 11
72.939011
 21
169.092363
 31
0.0
 11
73.967501
 21
169.075925
 31
0.0
  0
SPLINE
  5
159
100
AcDbEntity
  8
Layer_1
 62
7
100
AcDbSpline
 70
0
 71
3
 72
10
 73
6
 74
4
 40
0.000000
 40
0.000000
 40
0.000000
 40
0.000000
 40
1.834040
 40
3.670604
 40
5.490483
 40
5.490483
 40
5.490483
 40
5.490483
 10
73.967501
 20
169.075925
 30
0.0
 10
74.578820
 20
169.071312
 30
0.0
 10
75.802299
 20
169.062080
 30
0.0
 10
77.632572
 20
169.049769
 30
0.0
 10
78.851132
 20
169.077842
 30
0.0
 10
79.457632
 20
169.091815
 30
0.0
 11
73.967501
 21
169.075925
 31
0.0
 11
75.801490
 21
169.062336
 31
0.0
 11
77.638051
 21
169.058882
 31
0.0
 11
79.457632
 21
169.091815
 31
0.0
  0
LINE
  5
15a
100
AcDbEntity
  8
Layer_1
 62
7
100
AcDbLine
 10
79.309352
 20
169.365768
 30
0.0
 11
79.309352
 21
169.365762
 31
0.0
  0
SPLINE
  5
15b
100
AcDbEntity
  8
Layer_1
 62
7
100
AcDbSpline
 70
0
 71
3
 72
10
 73
6
 74
4
 40
0.000000
 40
0.000000
 40
0.000000
 40
0.000000
 40
0.104789
 40
0.211251
 40
0.312203
 40
0.312203
 40
0.312203
 40
0.312203
 10
79.457632
 20
169.091815
 30
0.0
 10
79.442369
 20
169.123206
 30
0.0
 10
79.411600
 20
169.186490
 30
0.0
 10
79.369898
 20
169.282320
 30
0.0
 10
79.329174
 20
169.338449
 30
0.0
 10
79.309352
 20
169.365768
 30
0.0
 11
79.457632
 21
169.091815
 31
0.0
 11
79.412471
 21
169.186373
 31
0.0
 11
79.365732
 21
169.282026
 31
0.0
 11
79.309352
 21
169.365768
 31
0.0
  0
SPLINE
  5
15c
100
AcDbEntity
  8
Layer_1
 62
7
100
AcDbSpline
 70
0
 71
3
 72
10
 73
6
 74
4
 40
0.000000
 40
0.000000
 40
0.000000
 40
0.000000
 40
2.785021
 40
5.586620
 40
8.291359
 40
8.291359
 40
8.291359
 40
8.291359
 10
71.102861
 20
183.459787
 30
0.0
 10
72.030988
 20
183.468265
 30
0.0
 10
73.892767
 20
183.485271
 30
0.0
 10
76.659733
 20
183.345734
 30
0.0
 10
78.486468
 20
183.554549
 30
0.0
 10
79.383769
 20
183.657120
 30
0.0
 11
71.102861
 21
183.459787
 31
0.0
 11
73.887881
 21
183.457629
 31
0.0
 11
76.689255
 21
183.422150
 31
0.0
 11
79.383769
 21
183.657120
 31
0.0
  0
LINE
  5
15d
100
AcDbEntity
  8
Layer_1
 62
7
100
AcDbLine
 10
71.102861
 20
183.705628
 30
0.0
 11
71.102861
 21
183.459787
 31
0.0
  0
LINE
  5
15e
100
AcDbEntity
  8
Layer_1
 62
7
100
AcDbLine
 10
71.102861
 20
183.459787
 30
0.0
 11
71.102861
 21
183.459787
 31
0.0
  0
SPLINE
  5
15f
100
AcDbEntity
  8
Layer_1
 62
7
100
AcDbSpline
 70
0
 71
3
 72
10
 73
6
 74
4
 40
0.000000
 40
0.000000
 40
0.000000
 40
0.000000
 40
2.697576
 40
5.498176
 40
8.281498
 40
8.281498
 40
8.281498
 40
8.281498
 10
79.383769
 20
183.657120
 30
0.0
 10
78.484817
 20
183.681533
 30
0.0
 10
76.652582
 20
183.731291
 30
0.0
 10
73.891906
 20
183.696456
 30
0.0
 10
72.030623
 20
183.702577
 30
0.0
 10
71.102861
 20
183.705628
 30
0.0
 11
79.383769
 21
183.657120
 31
0.0
 11
76.686768
 21
183.712814
 31
0.0
 11
73.886182
 21
183.703832
 31
0.0
 11
71.102861
 21
183.705628
 31
0.0
  0
SPLINE
  5
160
100
AcDbEntity
  8
Layer_1
 62
7
100
AcDbSpline
 70
0
 71
3
 72
10
 73
6
 74
4
 40
0.000000
 40
0.000000
 40
0.000000
 40
0.000000
 40
2.730979
 40
5.469653
 40
8.206855
 40
8.206855
 40
8.206855
 40
8.206855
 10
79.309352
 20
169.365762
 30
0.0
 10
78.399171
 20
169.346323
 30
0.0
 10
76.576243
 20
169.307392
 30
0.0
 10
73.840534
 20
169.338069
 30
0.0
 10
72.015255
 20
169.331909
 30
0.0
 10
71.102861
 20
169.328830
 30
0.0
 11
79.309352
 21
169.365762
 31
0.0
 11
76.578720
 21
169.322249
 31
0.0
 11
73.840061
 21
169.331414
 31
0.0
 11
71.102861
 21
169.328830
 31
0.0
  0
SPLINE
  5
161
100
AcDbEntity
  8
Layer_1
 62
7
100
AcDbSpline
 70
0
 71
3
 72
10
 73
6
 74
4
 40
0.000000
 40
0.000000
 40
0.000000
 40
0.000000
 40
0.795553
 40
1.894258
 40
2.922880
 40
2.922880
 40
2.922880
 40
2.922880
 10
71.102861
 20
169.328830
 30
0.0
 10
71.345013
 20
169.204071
 30
0.0
 10
71.921592
 20
168.907012
 30
0.0
 10
72.920859
 20
169.145430
 30
0.0
 10
73.626368
 20
169.098579
 30
0.0
 10
73.967501
 20
169.075925
 30
0.0
 11
71.102861
 21
169.328830
 31
0.0
 11
71.841846
 21
169.034203
 31
0.0
 11
72.939011
 21
169.092363
 31
0.0
 11
73.967501
 21
169.075925
 31
0.0
  0
SPLINE
  5
162
100
AcDbEntity
  8
Layer_1
 62
7
100
AcDbSpline
 70
0
 71
3
 72
10
 73
6
 74
4
 40
0.000000
 40
0.000000
 40
0.000000
 40
0.000000
 40
1.834040
 40
3.670604
 40
5.490483
 40
5.490483
 40
5.490483
 40
5.490483
 10
73.967501
 20
169.075925
 30
0.0
 10
74.578820
 20
169.071312
 30
0.0
 10
75.802299
 20
169.062080
 30
0.0
 10
77.632572
 20
169.049769
 30
0.0
 10
78.851132
 20
169.077842
 30
0.0
 10
79.457632
 20
169.091815
 30
0.0
 11
73.967501
 21
169.075925
 31
0.0
 11
75.801490
 21
169.062336
 31
0.0
 11
77.638051
 21
169.058882
 31
0.0
 11
79.457632
 21
169.091815
 31
0.0
  0
LINE
  5
163
100
AcDbEntity
  8
Layer_1
 62
7
100
AcDbLine
 10
79.309352
 20
169.365768
 30
0.0
 11
79.309352
 21
169.365762
 31
0.0
  0
SPLINE
  5
164
100
AcDbEntity
  8
Layer_1
 62
7
100
AcDbSpline
 70
0
 71
3
 72
10
 73
6
 74
4
 40
0.000000
 40
0.000000
 40
0.000000
 40
0.000000
 40
0.104789
 40
0.211251
 40
0.312203
 40
0.312203
 40
0.312203
 40
0.312203
 10
79.457632
 20
169.091815
 30
0.0
 10
79.442369
 20
169.123206
 30
0.0
 10
79.411600
 20
169.186490
 30
0.0
 10
79.369898
 20
169.282320
 30
0.0
 10
79.329174
 20
169.338449
 30
0.0
 10
79.309352
 20
169.365768
 30
0.0
 11
79.457632
 21
169.091815
 31
0.0
 11
79.412471
 21
169.186373
 31
0.0
 11
79.365732
 21
169.282026
 31
0.0
 11
79.309352
 21
169.365768
 31
0.0
  0
ENDSEC
  0
SECTION
  2
OBJECTS
  0
DICTIONARY
  5
C
330
0
100
AcDbDictionary
  3
ACAD_GROUP
350
D
  3
ACAD_MLINESTYLE
350
17
  0
DICTIONARY
  5
D
330
C
100
AcDbDictionary
  0
DICTIONARY
  5
1A
330
C
100
AcDbDictionary
  0
DICTIONARY
  5
17
330
C
100
AcDbDictionary
  3
STANDARD
350
18
  0
DICTIONARY
  5
19
330
C
100
AcDbDictionary
  0
ENDSEC
  0
EOF
