  0
SECTION
  2
HEADER
  9
$ACADVER
  1
AC1014
  9
$HANDSEED
  5
FFFF
  9
$MEASUREMENT
 70
     1
  0
ENDSEC
  0
SECTION
  2
TABLES
  0
TABLE
  2
VPORT
  5
8
330
0
100
AcDbSymbolTable
 70
     4
  0
VPORT
  5
2E
330
8
100
AcDbSymbolTableRecord
100
AcDbViewportTableRecord
  2
*ACTIVE
 70
     0
 10
0.0
 20
0.0
 11
1.0
 21
1.0
 12
210.0
 22
148.5
 13
0.0
 23
0.0
 14
10.0
 24
10.0
 15
10.0
 25
10.0
 16
0.0
 26
0.0
 36
1.0
 17
0.0
 27
0.0
 37
0.0
 40
341.0
 41
1.24
 42
50.0
 43
0.0
 44
0.0
 50
0.0
 51
0.0
 71
     0
 72
   100
 73
     1
 74
     3
 75
     0
 76
     0
 77
     0
 78
     0
  0
ENDTAB
  0
TABLE
  2
LTYPE
  5
5
330
0
100
AcDbSymbolTable
 70
     1
  0
LTYPE
  5
14
330
5
100
AcDbSymbolTableRecord
100
AcDbLinetypeTableRecord
  2
BYBLOCK
 70
     0
  3

 72
    65
 73
     0
 40
0.0
  0
LTYPE
  5
15
330
5
100
AcDbSymbolTableRecord
100
AcDbLinetypeTableRecord
  2
BYLAYER
 70
     0
  3

 72
    65
 73
     0
 40
0.0
  0
LTYPE
  5
16
330
5
100
AcDbSymbolTableRecord
100
AcDbLinetypeTableRecord
  2
CONTINUOUS
 70
     0
  3
Solid line
 72
    65
 73
     0
 40
0.0
  0
ENDTAB
  0
TABLE
  2
LAYER
  5
2
100
AcDbSymbolTable
 70
2
  0
LAYER
  5
50
100
AcDbSymbolTableRecord
100
AcDbLayerTableRecord
  2
0
 70
0
  6
CONTINUOUS
  0
LAYER
  5
51
100
AcDbSymbolTableRecord
100
AcDbLayerTableRecord
  2
Layer_1
 70
0
  6
CONTINUOUS
  0
ENDTAB
  0
TABLE
  2
STYLE
  5
3
330
0
100
AcDbSymbolTable
 70
     1
  0
STYLE
  5
11
330
3
100
AcDbSymbolTableRecord
100
AcDbTextStyleTableRecord
  2
STANDARD
 70
     0
 40
0.0
 41
1.0
 50
0.0
 71
     0
 42
2.5
  3
txt
  4

  0
ENDTAB
  0
TABLE
  2
VIEW
  5
6
330
0
100
AcDbSymbolTable
 70
     0
  0
ENDTAB
  0
TABLE
  2
UCS
  5
7
330
0
100
AcDbSymbolTable
 70
     0
  0
ENDTAB
  0
TABLE
  2
APPID
  5
9
330
0
100
AcDbSymbolTable
 70
     2
  0
APPID
  5
12
330
9
100
AcDbSymbolTableRecord
100
AcDbRegAppTableRecord
  2
ACAD
 70
     0
  0
ENDTAB
  0
TABLE
  2
DIMSTYLE
  5
A
330
0
100
AcDbSymbolTable
 70
     1
  0
DIMSTYLE
105
27
330
A
100
AcDbSymbolTableRecord
100
AcDbDimStyleTableRecord
  2
ISO-25
 70
     0
  3

  4

  5

  6

  7

 40
1.0
 41
2.5
 42
0.625
 43
3.75
 44
1.25
 45
0.0
 46
0.0
 47
0.0
 48
0.0
140
2.5
141
2.5
142
0.0
143
0.03937007874016
144
1.0
145
0.0
146
1.0
147
0.625
 71
     0
 72
     0
 73
     0
 74
     0
 75
     0
 76
     0
 77
     1
 78
     8
170
     0
171
     3
172
     1
173
     0
174
     0
175
     0
176
     0
177
     0
178
     0
270
     2
271
     2
272
     2
273
     2
274
     3
340
11
275
     0
280
     0
281
     0
282
     0
283
     0
284
     8
285
     0
286
     0
287
     3
288
     0
  0
ENDTAB
  0
TABLE
  2
BLOCK_RECORD
  5
1
330
0
100
AcDbSymbolTable
 70
     1
  0
BLOCK_RECORD
  5
1F
330
1
100
AcDbSymbolTableRecord
100
AcDbBlockTableRecord
  2
*MODEL_SPACE
  0
BLOCK_RECORD
  5
1B
330
1
100
AcDbSymbolTableRecord
100
AcDbBlockTableRecord
  2
*PAPER_SPACE
  0
ENDTAB
  0
ENDSEC
  0
SECTION
  2
BLOCKS
  0
BLOCK
  5
20
330
1F
100
AcDbEntity
  8
0
100
AcDbBlockBegin
  2
*MODEL_SPACE
 70
     0
 10
0.0
 20
0.0
 30
0.0
  3
*MODEL_SPACE
  1

  0
ENDBLK
  5
21
330
1F
100
AcDbEntity
  8
0
100
AcDbBlockEnd
  0
BLOCK
  5
1C
330
1B
100
AcDbEntity
 67
     1
  8
0
100
AcDbBlockBegin
  2
*PAPER_SPACE
  1

  0
ENDBLK
  5
1D
330
1B
100
AcDbEntity
 67
     1
  8
0
100
AcDbBlockEnd
  0
ENDSEC
  0
SECTION
  2
ENTITIES
  0
LINE
  5
100
100
AcDbEntity
  8
Layer_1
 62
7
100
AcDbLine
 10
61.305226
 20
184.824242
 30
0.0
 11
61.305226
 21
193.269742
 31
0.0
  0
LINE
  5
101
100
AcDbEntity
  8
Layer_1
 62
7
100
AcDbLine
 10
61.305226
 20
193.269742
 30
0.0
 11
85.371726
 21
193.269742
 31
0.0
  0
LINE
  5
102
100
AcDbEntity
  8
Layer_1
 62
7
100
AcDbLine
 10
85.371726
 20
193.269742
 30
0.0
 11
109.438226
 21
193.269742
 31
0.0
  0
LINE
  5
103
100
AcDbEntity
  8
Layer_1
 62
7
100
AcDbLine
 10
109.438226
 20
193.269742
 30
0.0
 11
109.438226
 21
184.824242
 31
0.0
  0
LINE
  5
104
100
AcDbEntity
  8
Layer_1
 62
7
100
AcDbLine
 10
109.438226
 20
184.824242
 30
0.0
 11
109.438226
 21
176.378742
 31
0.0
  0
LINE
  5
105
100
AcDbEntity
  8
Layer_1
 62
7
100
AcDbLine
 10
109.438226
 20
176.378742
 30
0.0
 11
85.371726
 21
176.378742
 31
0.0
  0
LINE
  5
106
100
AcDbEntity
  8
Layer_1
 62
7
100
AcDbLine
 10
85.371726
 20
176.378742
 30
0.0
 11
61.305226
 21
176.378742
 31
0.0
  0
LINE
  5
107
100
AcDbEntity
  8
Layer_1
 62
7
100
AcDbLine
 10
61.305226
 20
176.378742
 30
0.0
 11
61.305226
 21
184.824242
 31
0.0
  0
LINE
  5
108
100
AcDbEntity
  8
Layer_1
 62
7
100
AcDbLine
 10
61.305226
 20
184.824242
 30
0.0
 11
61.305226
 21
184.824242
 31
0.0
  0
LINE
  5
109
100
AcDbEntity
  8
Layer_1
 62
7
100
AcDbLine
 10
108.351433
 20
178.211893
 30
0.0
 11
108.409526
 21
178.372642
 31
0.0
  0
LINE
  5
10a
100
AcDbEntity
  8
Layer_1
 62
7
100
AcDbLine
 10
108.409526
 20
178.372642
 30
0.0
 11
108.416892
 21
184.697242
 31
0.0
  0
SPLINE
  5
10b
100
AcDbEntity
  8
Layer_1
 62
7
100
AcDbSpline
 70
0
 71
3
 72
13
 73
9
 74
7
 40
0.000000
 40
0.000000
 40
0.000000
 40
0.000000
 40
0.227601
 40
0.458746
 40
0.683151
 40
0.881445
 40
1.066797
 40
1.271406
 40
1.271406
 40
1.271406
 40
1.271406
 10
107.429546
 20
177.423458
 30
0.0
 10
107.503562
 20
177.441043
 30
0.0
 10
107.652746
 20
177.476488
 30
0.0
 10
107.857805
 20
177.580296
 30
0.0
 10
108.032021
 20
177.712915
 30
0.0
 10
108.170776
 20
177.861825
 30
0.0
 10
108.279182
 20
178.026837
 30
0.0
 10
108.326569
 20
178.148210
 30
0.0
 10
108.351433
 20
178.211893
 30
0.0
 11
107.429546
 21
177.423458
 31
0.0
 11
107.648767
 21
177.484648
 31
0.0
 11
107.855874
 21
177.587287
 31
0.0
 11
108.034421
 21
177.723223
 31
0.0
 11
108.169228
 21
177.868644
 31
0.0
 11
108.270103
 21
178.024143
 31
0.0
 11
108.351433
 21
178.211893
 31
0.0
  0
LINE
  5
10c
100
AcDbEntity
  8
Layer_1
 62
7
100
AcDbLine
 10
107.718324
 20
192.159378
 30
0.0
 11
107.545920
 21
192.241042
 31
0.0
  0
LINE
  5
10d
100
AcDbEntity
  8
Layer_1
 62
7
100
AcDbLine
 10
107.545920
 20
192.241042
 30
0.0
 11
89.993986
 21
192.241042
 31
0.0
  0
LINE
  5
10e
100
AcDbEntity
  8
Layer_1
 62
7
100
AcDbLine
 10
89.993986
 20
192.241042
 30
0.0
 11
72.442053
 21
192.241042
 31
0.0
  0
LINE
  5
10f
100
AcDbEntity
  8
Layer_1
 62
7
100
AcDbLine
 10
72.442053
 20
192.241042
 30
0.0
 11
72.264786
 21
192.153951
 31
0.0
  0
SPLINE
  5
110
100
AcDbEntity
  8
Layer_1
 62
7
100
AcDbSpline
 70
0
 71
3
 72
13
 73
9
 74
7
 40
0.000000
 40
0.000000
 40
0.000000
 40
0.000000
 40
3.550092
 40
5.718772
 40
6.527927
 40
6.929499
 40
7.325453
 40
7.727490
 40
7.727490
 40
7.727490
 40
7.727490
 10
108.416892
 20
184.697242
 30
0.0
 10
108.427554
 20
185.881607
 30
0.0
 10
108.444729
 20
187.789477
 30
0.0
 10
108.373086
 20
189.958397
 30
0.0
 10
108.450671
 20
191.093841
 30
0.0
 10
108.303215
 20
191.616607
 30
0.0
 10
108.064431
 20
191.952118
 30
0.0
 10
107.834277
 20
192.089941
 30
0.0
 10
107.718324
 20
192.159378
 30
0.0
 11
108.416892
 21
184.697242
 31
0.0
 11
108.418073
 21
188.247334
 31
0.0
 11
108.411759
 21
190.416004
 31
0.0
 11
108.397983
 21
191.225042
 31
0.0
 11
108.281007
 21
191.609199
 31
0.0
 11
108.048086
 21
191.929398
 31
0.0
 11
107.718324
 21
192.159378
 31
0.0
  0
LINE
  5
111
100
AcDbEntity
  8
Layer_1
 62
7
100
AcDbLine
 10
71.443466
 20
190.825392
 30
0.0
 11
71.350920
 21
190.767842
 31
0.0
  0
LINE
  5
112
100
AcDbEntity
  8
Layer_1
 62
7
100
AcDbLine
 10
71.350920
 20
190.767842
 30
0.0
 11
66.836070
 21
190.761209
 31
0.0
  0
LINE
  5
113
100
AcDbEntity
  8
Layer_1
 62
7
100
AcDbLine
 10
66.836070
 20
190.761209
 30
0.0
 11
62.321220
 21
190.754577
 31
0.0
  0
LINE
  5
114
100
AcDbEntity
  8
Layer_1
 62
7
100
AcDbLine
 10
62.321220
 20
190.754577
 30
0.0
 11
62.321220
 21
184.823951
 31
0.0
  0
LINE
  5
115
100
AcDbEntity
  8
Layer_1
 62
7
100
AcDbLine
 10
62.321220
 20
184.823951
 30
0.0
 11
62.321220
 21
178.893327
 31
0.0
  0
LINE
  5
116
100
AcDbEntity
  8
Layer_1
 62
7
100
AcDbLine
 10
62.321220
 20
178.893327
 30
0.0
 11
66.849467
 21
178.893327
 31
0.0
  0
SPLINE
  5
117
100
AcDbEntity
  8
Layer_1
 62
7
100
AcDbSpline
 70
0
 71
3
 72
13
 73
9
 74
7
 40
0.000000
 40
0.000000
 40
0.000000
 40
0.000000
 40
0.376564
 40
0.742600
 40
1.118233
 40
1.333291
 40
1.490613
 40
1.627727
 40
1.627727
 40
1.627727
 40
1.627727
 10
72.264786
 20
192.153951
 30
0.0
 10
72.156828
 20
192.087894
 30
0.0
 10
71.943930
 20
191.957628
 30
0.0
 10
71.724813
 20
191.641243
 30
0.0
 10
71.649336
 20
191.326961
 30
0.0
 10
71.621598
 20
191.080511
 30
0.0
 10
71.557968
 20
190.916073
 30
0.0
 10
71.479846
 20
190.854204
 30
0.0
 10
71.443466
 20
190.825392
 30
0.0
 11
72.264786
 21
192.153951
 31
0.0
 11
71.958239
 21
191.935251
 31
0.0
 11
71.747840
 21
191.635727
 31
0.0
 11
71.646655
 21
191.273979
 31
0.0
 11
71.608552
 21
191.062324
 31
0.0
 11
71.543640
 21
190.919018
 31
0.0
 11
71.443466
 21
190.825392
 31
0.0
  0
LINE
  5
118
100
AcDbEntity
  8
Layer_1
 62
7
100
AcDbLine
 10
107.429540
 20
177.423441
 30
0.0
 11
107.429546
 21
177.423458
 31
0.0
  0
LINE
  5
119
100
AcDbEntity
  8
Layer_1
 62
7
100
AcDbLine
 10
61.305226
 20
184.824242
 30
0.0
 11
61.305226
 21
193.269742
 31
0.0
  0
LINE
  5
11a
100
AcDbEntity
  8
Layer_1
 62
7
100
AcDbLine
 10
61.305226
 20
193.269742
 30
0.0
 11
85.371726
 21
193.269742
 31
0.0
  0
LINE
  5
11b
100
AcDbEntity
  8
Layer_1
 62
7
100
AcDbLine
 10
85.371726
 20
193.269742
 30
0.0
 11
109.438226
 21
193.269742
 31
0.0
  0
LINE
  5
11c
100
AcDbEntity
  8
Layer_1
 62
7
100
AcDbLine
 10
109.438226
 20
193.269742
 30
0.0
 11
109.438226
 21
184.824242
 31
0.0
  0
LINE
  5
11d
100
AcDbEntity
  8
Layer_1
 62
7
100
AcDbLine
 10
109.438226
 20
184.824242
 30
0.0
 11
109.438226
 21
176.378742
 31
0.0
  0
LINE
  5
11e
100
AcDbEntity
  8
Layer_1
 62
7
100
AcDbLine
 10
109.438226
 20
176.378742
 30
0.0
 11
85.371726
 21
176.378742
 31
0.0
  0
LINE
  5
11f
100
AcDbEntity
  8
Layer_1
 62
7
100
AcDbLine
 10
85.371726
 20
176.378742
 30
0.0
 11
61.305226
 21
176.378742
 31
0.0
  0
LINE
  5
120
100
AcDbEntity
  8
Layer_1
 62
7
100
AcDbLine
 10
61.305226
 20
176.378742
 30
0.0
 11
61.305226
 21
184.824242
 31
0.0
  0
LINE
  5
121
100
AcDbEntity
  8
Layer_1
 62
7
100
AcDbLine
 10
61.305226
 20
184.824242
 30
0.0
 11
61.305226
 21
184.824242
 31
0.0
  0
LINE
  5
122
100
AcDbEntity
  8
Layer_1
 62
7
100
AcDbLine
 10
74.183026
 20
178.766342
 30
0.0
 11
74.183026
 21
179.045742
 31
0.0
  0
LINE
  5
123
100
AcDbEntity
  8
Layer_1
 62
7
100
AcDbLine
 10
74.183026
 20
179.045742
 30
0.0
 11
74.703726
 21
179.045742
 31
0.0
  0
LINE
  5
124
100
AcDbEntity
  8
Layer_1
 62
7
100
AcDbLine
 10
74.703726
 20
179.045742
 30
0.0
 11
75.224426
 21
179.045742
 31
0.0
  0
LINE
  5
125
100
AcDbEntity
  8
Layer_1
 62
7
100
AcDbLine
 10
75.224426
 20
179.045742
 30
0.0
 11
75.224426
 21
178.766342
 31
0.0
  0
LINE
  5
126
100
AcDbEntity
  8
Layer_1
 62
7
100
AcDbLine
 10
75.224426
 20
178.766342
 30
0.0
 11
75.224426
 21
178.486942
 31
0.0
  0
LINE
  5
127
100
AcDbEntity
  8
Layer_1
 62
7
100
AcDbLine
 10
75.224426
 20
178.486942
 30
0.0
 11
76.164226
 21
178.486942
 31
0.0
  0
LINE
  5
128
100
AcDbEntity
  8
Layer_1
 62
7
100
AcDbLine
 10
76.164226
 20
178.486942
 30
0.0
 11
77.104026
 21
178.486942
 31
0.0
  0
LINE
  5
129
100
AcDbEntity
  8
Layer_1
 62
7
100
AcDbLine
 10
77.104026
 20
178.486942
 30
0.0
 11
77.104026
 21
179.236242
 31
0.0
  0
LINE
  5
12a
100
AcDbEntity
  8
Layer_1
 62
7
100
AcDbLine
 10
77.104026
 20
179.236242
 30
0.0
 11
77.104026
 21
179.985542
 31
0.0
  0
LINE
  5
12b
100
AcDbEntity
  8
Layer_1
 62
7
100
AcDbLine
 10
77.104026
 20
179.985542
 30
0.0
 11
76.165083
 21
179.985542
 31
0.0
  0
LINE
  5
12c
100
AcDbEntity
  8
Layer_1
 62
7
100
AcDbLine
 10
76.165083
 20
179.985542
 30
0.0
 11
75.226144
 21
179.985542
 31
0.0
  0
LINE
  5
12d
100
AcDbEntity
  8
Layer_1
 62
7
100
AcDbLine
 10
75.226144
 20
179.985542
 30
0.0
 11
75.218919
 21
179.712492
 31
0.0
  0
LINE
  5
12e
100
AcDbEntity
  8
Layer_1
 62
7
100
AcDbLine
 10
75.218919
 20
179.712492
 30
0.0
 11
75.211723
 21
179.439442
 31
0.0
  0
LINE
  5
12f
100
AcDbEntity
  8
Layer_1
 62
7
100
AcDbLine
 10
75.211723
 20
179.439442
 30
0.0
 11
74.703723
 21
179.439442
 31
0.0
  0
LINE
  5
130
100
AcDbEntity
  8
Layer_1
 62
7
100
AcDbLine
 10
74.703723
 20
179.439442
 30
0.0
 11
74.195723
 21
179.439442
 31
0.0
  0
LINE
  5
131
100
AcDbEntity
  8
Layer_1
 62
7
100
AcDbLine
 10
74.195723
 20
179.439442
 30
0.0
 11
74.188526
 21
179.712492
 31
0.0
  0
LINE
  5
132
100
AcDbEntity
  8
Layer_1
 62
7
100
AcDbLine
 10
74.188526
 20
179.712492
 30
0.0
 11
74.181329
 21
179.985542
 31
0.0
  0
LINE
  5
133
100
AcDbEntity
  8
Layer_1
 62
7
100
AcDbLine
 10
74.181329
 20
179.985542
 30
0.0
 11
73.229690
 21
179.985542
 31
0.0
  0
LINE
  5
134
100
AcDbEntity
  8
Layer_1
 62
7
100
AcDbLine
 10
73.229690
 20
179.985542
 30
0.0
 11
72.278048
 21
179.985542
 31
0.0
  0
LINE
  5
135
100
AcDbEntity
  8
Layer_1
 62
7
100
AcDbLine
 10
72.278048
 20
179.985542
 30
0.0
 11
72.278048
 21
179.236242
 31
0.0
  0
LINE
  5
136
100
AcDbEntity
  8
Layer_1
 62
7
100
AcDbLine
 10
72.278048
 20
179.236242
 30
0.0
 11
72.278048
 21
178.486942
 31
0.0
  0
LINE
  5
137
100
AcDbEntity
  8
Layer_1
 62
7
100
AcDbLine
 10
72.278048
 20
178.486942
 30
0.0
 11
73.230548
 21
178.486942
 31
0.0
  0
LINE
  5
138
100
AcDbEntity
  8
Layer_1
 62
7
100
AcDbLine
 10
73.230548
 20
178.486942
 30
0.0
 11
74.183048
 21
178.486942
 31
0.0
  0
LINE
  5
139
100
AcDbEntity
  8
Layer_1
 62
7
100
AcDbLine
 10
74.183048
 20
178.486942
 30
0.0
 11
74.183048
 21
178.766342
 31
0.0
  0
LINE
  5
13a
100
AcDbEntity
  8
Layer_1
 62
7
100
AcDbLine
 10
74.183048
 20
178.766342
 30
0.0
 11
74.183026
 21
178.766342
 31
0.0
  0
LINE
  5
13b
100
AcDbEntity
  8
Layer_1
 62
7
100
AcDbLine
 10
103.601718
 20
178.886992
 30
0.0
 11
103.608914
 21
179.160042
 31
0.0
  0
LINE
  5
13c
100
AcDbEntity
  8
Layer_1
 62
7
100
AcDbLine
 10
103.608914
 20
179.160042
 30
0.0
 11
104.059764
 21
179.166984
 31
0.0
  0
LINE
  5
13d
100
AcDbEntity
  8
Layer_1
 62
7
100
AcDbLine
 10
104.059764
 20
179.166984
 30
0.0
 11
104.510614
 21
179.173927
 31
0.0
  0
LINE
  5
13e
100
AcDbEntity
  8
Layer_1
 62
7
100
AcDbLine
 10
104.510614
 20
179.173927
 30
0.0
 11
104.510614
 21
178.893940
 31
0.0
  0
LINE
  5
13f
100
AcDbEntity
  8
Layer_1
 62
7
100
AcDbLine
 10
104.510614
 20
178.893940
 30
0.0
 11
104.510614
 21
178.613953
 31
0.0
  0
LINE
  5
140
100
AcDbEntity
  8
Layer_1
 62
7
100
AcDbLine
 10
104.510614
 20
178.613953
 30
0.0
 11
105.463114
 21
178.613953
 31
0.0
  0
LINE
  5
141
100
AcDbEntity
  8
Layer_1
 62
7
100
AcDbLine
 10
105.463114
 20
178.613953
 30
0.0
 11
106.415614
 21
178.613953
 31
0.0
  0
LINE
  5
142
100
AcDbEntity
  8
Layer_1
 62
7
100
AcDbLine
 10
106.415614
 20
178.613953
 30
0.0
 11
106.415614
 21
179.217395
 31
0.0
  0
LINE
  5
143
100
AcDbEntity
  8
Layer_1
 62
7
100
AcDbLine
 10
106.415614
 20
179.217395
 30
0.0
 11
106.415614
 21
179.820834
 31
0.0
  0
LINE
  5
144
100
AcDbEntity
  8
Layer_1
 62
7
100
AcDbLine
 10
106.415614
 20
179.820834
 30
0.0
 11
107.050614
 21
180.455453
 31
0.0
  0
LINE
  5
145
100
AcDbEntity
  8
Layer_1
 62
7
100
AcDbLine
 10
107.050614
 20
180.455453
 30
0.0
 11
107.685614
 21
181.090072
 31
0.0
  0
LINE
  5
146
100
AcDbEntity
  8
Layer_1
 62
7
100
AcDbLine
 10
107.685614
 20
181.090072
 30
0.0
 11
107.685614
 21
185.701109
 31
0.0
  0
LINE
  5
147
100
AcDbEntity
  8
Layer_1
 62
7
100
AcDbLine
 10
107.685614
 20
185.701109
 30
0.0
 11
107.685614
 21
190.312149
 31
0.0
  0
LINE
  5
148
100
AcDbEntity
  8
Layer_1
 62
7
100
AcDbLine
 10
107.685614
 20
190.312149
 30
0.0
 11
107.119172
 21
190.876551
 31
0.0
  0
LINE
  5
149
100
AcDbEntity
  8
Layer_1
 62
7
100
AcDbLine
 10
107.119172
 20
190.876551
 30
0.0
 11
106.552729
 21
191.440953
 31
0.0
  0
LINE
  5
14a
100
AcDbEntity
  8
Layer_1
 62
7
100
AcDbLine
 10
106.552729
 20
191.440953
 30
0.0
 11
93.791648
 21
191.440953
 31
0.0
  0
LINE
  5
14b
100
AcDbEntity
  8
Layer_1
 62
7
100
AcDbLine
 10
93.791648
 20
191.440953
 30
0.0
 11
81.030561
 21
191.440953
 31
0.0
  0
LINE
  5
14c
100
AcDbEntity
  8
Layer_1
 62
7
100
AcDbLine
 10
81.030561
 20
191.440953
 30
0.0
 11
80.381102
 21
190.793253
 31
0.0
  0
LINE
  5
14d
100
AcDbEntity
  8
Layer_1
 62
7
100
AcDbLine
 10
80.381102
 20
190.793253
 30
0.0
 11
79.731644
 21
190.145553
 31
0.0
  0
LINE
  5
14e
100
AcDbEntity
  8
Layer_1
 62
7
100
AcDbLine
 10
79.731644
 20
190.145553
 30
0.0
 11
79.027429
 21
190.145553
 31
0.0
  0
LINE
  5
14f
100
AcDbEntity
  8
Layer_1
 62
7
100
AcDbLine
 10
79.027429
 20
190.145553
 30
0.0
 11
78.323214
 21
190.145553
 31
0.0
  0
LINE
  5
150
100
AcDbEntity
  8
Layer_1
 62
7
100
AcDbLine
 10
78.323214
 20
190.145553
 30
0.0
 11
78.323214
 21
189.713753
 31
0.0
  0
LINE
  5
151
100
AcDbEntity
  8
Layer_1
 62
7
100
AcDbLine
 10
78.323214
 20
189.713753
 30
0.0
 11
78.323214
 21
189.281953
 31
0.0
  0
LINE
  5
152
100
AcDbEntity
  8
Layer_1
 62
7
100
AcDbLine
 10
78.323214
 20
189.281953
 30
0.0
 11
77.446914
 21
189.281953
 31
0.0
  0
LINE
  5
153
100
AcDbEntity
  8
Layer_1
 62
7
100
AcDbLine
 10
77.446914
 20
189.281953
 30
0.0
 11
76.570614
 21
189.281953
 31
0.0
  0
LINE
  5
154
100
AcDbEntity
  8
Layer_1
 62
7
100
AcDbLine
 10
76.570614
 20
189.281953
 30
0.0
 11
76.570614
 21
189.535953
 31
0.0
  0
LINE
  5
155
100
AcDbEntity
  8
Layer_1
 62
7
100
AcDbLine
 10
76.570614
 20
189.535953
 30
0.0
 11
76.570614
 21
189.789953
 31
0.0
  0
LINE
  5
156
100
AcDbEntity
  8
Layer_1
 62
7
100
AcDbLine
 10
76.570614
 20
189.789953
 30
0.0
 11
76.176914
 21
189.789953
 31
0.0
  0
LINE
  5
157
100
AcDbEntity
  8
Layer_1
 62
7
100
AcDbLine
 10
76.176914
 20
189.789953
 30
0.0
 11
75.783214
 21
189.789953
 31
0.0
  0
LINE
  5
158
100
AcDbEntity
  8
Layer_1
 62
7
100
AcDbLine
 10
75.783214
 20
189.789953
 30
0.0
 11
75.783214
 21
189.535953
 31
0.0
  0
LINE
  5
159
100
AcDbEntity
  8
Layer_1
 62
7
100
AcDbLine
 10
75.783214
 20
189.535953
 30
0.0
 11
75.783214
 21
189.281953
 31
0.0
  0
LINE
  5
15a
100
AcDbEntity
  8
Layer_1
 62
7
100
AcDbLine
 10
75.783214
 20
189.281953
 30
0.0
 11
74.703714
 21
189.281953
 31
0.0
  0
LINE
  5
15b
100
AcDbEntity
  8
Layer_1
 62
7
100
AcDbLine
 10
74.703714
 20
189.281953
 30
0.0
 11
73.624214
 21
189.281953
 31
0.0
  0
LINE
  5
15c
100
AcDbEntity
  8
Layer_1
 62
7
100
AcDbLine
 10
73.624214
 20
189.281953
 30
0.0
 11
73.624214
 21
189.535953
 31
0.0
  0
LINE
  5
15d
100
AcDbEntity
  8
Layer_1
 62
7
100
AcDbLine
 10
73.624214
 20
189.535953
 30
0.0
 11
73.624214
 21
189.789953
 31
0.0
  0
LINE
  5
15e
100
AcDbEntity
  8
Layer_1
 62
7
100
AcDbLine
 10
73.624214
 20
189.789953
 30
0.0
 11
73.230514
 21
189.789953
 31
0.0
  0
LINE
  5
15f
100
AcDbEntity
  8
Layer_1
 62
7
100
AcDbLine
 10
73.230514
 20
189.789953
 30
0.0
 11
72.836814
 21
189.789953
 31
0.0
  0
LINE
  5
160
100
AcDbEntity
  8
Layer_1
 62
7
100
AcDbLine
 10
72.836814
 20
189.789953
 30
0.0
 11
72.836814
 21
189.167653
 31
0.0
  0
LINE
  5
161
100
AcDbEntity
  8
Layer_1
 62
7
100
AcDbLine
 10
72.836814
 20
189.167653
 30
0.0
 11
72.836814
 21
188.545353
 31
0.0
  0
LINE
  5
162
100
AcDbEntity
  8
Layer_1
 62
7
100
AcDbLine
 10
72.836814
 20
188.545353
 30
0.0
 11
71.655714
 21
188.545353
 31
0.0
  0
LINE
  5
163
100
AcDbEntity
  8
Layer_1
 62
7
100
AcDbLine
 10
71.655714
 20
188.545353
 30
0.0
 11
70.474614
 21
188.545353
 31
0.0
  0
LINE
  5
164
100
AcDbEntity
  8
Layer_1
 62
7
100
AcDbLine
 10
70.474614
 20
188.545353
 30
0.0
 11
70.474614
 21
188.824753
 31
0.0
  0
LINE
  5
165
100
AcDbEntity
  8
Layer_1
 62
7
100
AcDbLine
 10
70.474614
 20
188.824753
 30
0.0
 11
70.474614
 21
189.104153
 31
0.0
  0
LINE
  5
166
100
AcDbEntity
  8
Layer_1
 62
7
100
AcDbLine
 10
70.474614
 20
189.104153
 30
0.0
 11
66.728114
 21
189.104153
 31
0.0
  0
LINE
  5
167
100
AcDbEntity
  8
Layer_1
 62
7
100
AcDbLine
 10
66.728114
 20
189.104153
 30
0.0
 11
62.981614
 21
189.104153
 31
0.0
  0
LINE
  5
168
100
AcDbEntity
  8
Layer_1
 62
7
100
AcDbLine
 10
62.981614
 20
189.104153
 30
0.0
 11
62.981614
 21
188.354853
 31
0.0
  0
LINE
  5
169
100
AcDbEntity
  8
Layer_1
 62
7
100
AcDbLine
 10
62.981614
 20
188.354853
 30
0.0
 11
62.981614
 21
187.605553
 31
0.0
  0
LINE
  5
16a
100
AcDbEntity
  8
Layer_1
 62
7
100
AcDbLine
 10
62.981614
 20
187.605553
 30
0.0
 11
66.728114
 21
187.605553
 31
0.0
  0
LINE
  5
16b
100
AcDbEntity
  8
Layer_1
 62
7
100
AcDbLine
 10
66.728114
 20
187.605553
 30
0.0
 11
70.474614
 21
187.605553
 31
0.0
  0
LINE
  5
16c
100
AcDbEntity
  8
Layer_1
 62
7
100
AcDbLine
 10
70.474614
 20
187.605553
 30
0.0
 11
70.474614
 21
187.871790
 31
0.0
  0
LINE
  5
16d
100
AcDbEntity
  8
Layer_1
 62
7
100
AcDbLine
 10
70.474614
 20
187.871790
 30
0.0
 11
70.474614
 21
188.138027
 31
0.0
  0
LINE
  5
16e
100
AcDbEntity
  8
Layer_1
 62
7
100
AcDbLine
 10
70.474614
 20
188.138027
 30
0.0
 11
71.738264
 21
188.149965
 31
0.0
  0
SPLINE
  5
16f
100
AcDbEntity
  8
Layer_1
 62
7
100
AcDbSpline
 70
0
 71
3
 72
22
 73
18
 74
16
 40
0.000000
 40
0.000000
 40
0.000000
 40
0.000000
 40
3.054880
 40
4.313608
 40
4.592635
 40
4.737759
 40
4.886928
 40
5.108206
 40
5.366919
 40
5.615349
 40
5.872163
 40
6.086805
 40
6.288207
 40
6.500262
 40
15.589328
 40
32.294668
 40
41.410575
 40
41.410575
 40
41.410575
 40
41.410575
 10
66.849467
 20
178.893327
 30
0.0
 10
67.877335
 20
178.909200
 30
0.0
 10
69.328724
 20
178.931613
 30
0.0
 10
70.813019
 20
178.849616
 30
0.0
 10
71.411413
 20
178.896477
 30
0.0
 10
71.557462
 20
178.755764
 30
0.0
 10
71.624687
 20
178.595094
 30
0.0
 10
71.643775
 20
178.385021
 30
0.0
 10
71.690196
 20
178.145427
 30
0.0
 10
71.803469
 20
177.913797
 30
0.0
 10
71.958624
 20
177.728436
 30
0.0
 10
72.130658
 20
177.583073
 30
0.0
 10
72.316323
 20
177.481655
 30
0.0
 10
75.399104
 20
176.701166
 30
0.0
 10
84.215971
 20
178.011563
 30
0.0
 10
95.773272
 20
177.287735
 30
0.0
 10
104.388151
 20
177.388032
 30
0.0
 10
107.429540
 20
177.423441
 30
0.0
 11
66.849467
 21
178.893327
 31
0.0
 11
69.904346
 21
178.891078
 31
0.0
 11
71.163019
 21
178.879210
 31
0.0
 11
71.440517
 21
178.850043
 31
0.0
 11
71.547532
 21
178.752020
 31
0.0
 11
71.609275
 21
178.616228
 31
0.0
 11
71.646045
 21
178.398027
 31
0.0
 11
71.702009
 21
178.145440
 31
0.0
 11
71.810441
 21
177.921923
 31
0.0
 11
71.973330
 21
177.723375
 31
0.0
 11
72.138464
 21
177.586255
 31
0.0
 11
72.316001
 21
177.491158
 31
0.0
 11
72.519320
 21
177.430920
 31
0.0
 11
81.608333
 21
177.400021
 31
0.0
 11
98.313672
 21
177.396442
 31
0.0
 11
107.429540
 21
177.423441
 31
0.0
  0
LINE
  5
170
100
AcDbEntity
  8
Layer_1
 62
7
100
AcDbLine
 10
73.312336
 20
188.177312
 30
0.0
 11
73.622761
 21
188.192722
 31
0.0
  0
LINE
  5
171
100
AcDbEntity
  8
Layer_1
 62
7
100
AcDbLine
 10
73.622761
 20
188.192722
 30
0.0
 11
73.629845
 21
188.527790
 31
0.0
  0
LINE
  5
172
100
AcDbEntity
  8
Layer_1
 62
7
100
AcDbLine
 10
73.629845
 20
188.527790
 30
0.0
 11
73.636928
 21
188.862858
 31
0.0
  0
LINE
  5
173
100
AcDbEntity
  8
Layer_1
 62
7
100
AcDbLine
 10
73.636928
 20
188.862858
 30
0.0
 11
74.703728
 21
188.862858
 31
0.0
  0
LINE
  5
174
100
AcDbEntity
  8
Layer_1
 62
7
100
AcDbLine
 10
74.703728
 20
188.862858
 30
0.0
 11
75.770528
 21
188.862858
 31
0.0
  0
LINE
  5
175
100
AcDbEntity
  8
Layer_1
 62
7
100
AcDbLine
 10
75.770528
 20
188.862858
 30
0.0
 11
75.777612
 21
188.526308
 31
0.0
  0
LINE
  5
176
100
AcDbEntity
  8
Layer_1
 62
7
100
AcDbLine
 10
75.777612
 20
188.526308
 30
0.0
 11
75.784696
 21
188.189758
 31
0.0
  0
LINE
  5
177
100
AcDbEntity
  8
Layer_1
 62
7
100
AcDbLine
 10
75.784696
 20
188.189758
 30
0.0
 11
76.177659
 21
188.189758
 31
0.0
  0
LINE
  5
178
100
AcDbEntity
  8
Layer_1
 62
7
100
AcDbLine
 10
76.177659
 20
188.189758
 30
0.0
 11
76.570623
 21
188.189758
 31
0.0
  0
LINE
  5
179
100
AcDbEntity
  8
Layer_1
 62
7
100
AcDbLine
 10
76.570623
 20
188.189758
 30
0.0
 11
76.570623
 21
188.532658
 31
0.0
  0
LINE
  5
17a
100
AcDbEntity
  8
Layer_1
 62
7
100
AcDbLine
 10
76.570623
 20
188.532658
 30
0.0
 11
76.570623
 21
188.875558
 31
0.0
  0
LINE
  5
17b
100
AcDbEntity
  8
Layer_1
 62
7
100
AcDbLine
 10
76.570623
 20
188.875558
 30
0.0
 11
77.446923
 21
188.875558
 31
0.0
  0
LINE
  5
17c
100
AcDbEntity
  8
Layer_1
 62
7
100
AcDbLine
 10
77.446923
 20
188.875558
 30
0.0
 11
78.323223
 21
188.875558
 31
0.0
  0
LINE
  5
17d
100
AcDbEntity
  8
Layer_1
 62
7
100
AcDbLine
 10
78.323223
 20
188.875558
 30
0.0
 11
78.323223
 21
188.570758
 31
0.0
  0
LINE
  5
17e
100
AcDbEntity
  8
Layer_1
 62
7
100
AcDbLine
 10
78.323223
 20
188.570758
 30
0.0
 11
78.323223
 21
188.265958
 31
0.0
  0
LINE
  5
17f
100
AcDbEntity
  8
Layer_1
 62
7
100
AcDbLine
 10
78.323223
 20
188.265958
 30
0.0
 11
79.072523
 21
188.265958
 31
0.0
  0
LINE
  5
180
100
AcDbEntity
  8
Layer_1
 62
7
100
AcDbLine
 10
79.072523
 20
188.265958
 30
0.0
 11
79.821823
 21
188.265958
 31
0.0
  0
LINE
  5
181
100
AcDbEntity
  8
Layer_1
 62
7
100
AcDbLine
 10
79.821823
 20
188.265958
 30
0.0
 11
79.821823
 21
188.970636
 31
0.0
  0
LINE
  5
182
100
AcDbEntity
  8
Layer_1
 62
7
100
AcDbLine
 10
79.821823
 20
188.970636
 30
0.0
 11
79.821823
 21
189.675311
 31
0.0
  0
LINE
  5
183
100
AcDbEntity
  8
Layer_1
 62
7
100
AcDbLine
 10
79.821823
 20
189.675311
 30
0.0
 11
80.501095
 21
190.354936
 31
0.0
  0
LINE
  5
184
100
AcDbEntity
  8
Layer_1
 62
7
100
AcDbLine
 10
80.501095
 20
190.354936
 30
0.0
 11
81.180370
 21
191.034558
 31
0.0
  0
LINE
  5
185
100
AcDbEntity
  8
Layer_1
 62
7
100
AcDbLine
 10
81.180370
 20
191.034558
 30
0.0
 11
93.791388
 21
191.034558
 31
0.0
  0
LINE
  5
186
100
AcDbEntity
  8
Layer_1
 62
7
100
AcDbLine
 10
93.791388
 20
191.034558
 30
0.0
 11
106.402406
 21
191.034558
 31
0.0
  0
LINE
  5
187
100
AcDbEntity
  8
Layer_1
 62
7
100
AcDbLine
 10
106.402406
 20
191.034558
 30
0.0
 11
106.853516
 21
190.583974
 31
0.0
  0
LINE
  5
188
100
AcDbEntity
  8
Layer_1
 62
7
100
AcDbLine
 10
106.853516
 20
190.583974
 30
0.0
 11
107.304623
 21
190.133389
 31
0.0
  0
LINE
  5
189
100
AcDbEntity
  8
Layer_1
 62
7
100
AcDbLine
 10
107.304623
 20
190.133389
 30
0.0
 11
107.304623
 21
185.701027
 31
0.0
  0
LINE
  5
18a
100
AcDbEntity
  8
Layer_1
 62
7
100
AcDbLine
 10
107.304623
 20
185.701027
 30
0.0
 11
107.304623
 21
181.268665
 31
0.0
  0
LINE
  5
18b
100
AcDbEntity
  8
Layer_1
 62
7
100
AcDbLine
 10
107.304623
 20
181.268665
 30
0.0
 11
106.726982
 21
180.690612
 31
0.0
  0
LINE
  5
18c
100
AcDbEntity
  8
Layer_1
 62
7
100
AcDbLine
 10
106.726982
 20
180.690612
 30
0.0
 11
106.149338
 21
180.112558
 31
0.0
  0
LINE
  5
18d
100
AcDbEntity
  8
Layer_1
 62
7
100
AcDbLine
 10
106.149338
 20
180.112558
 30
0.0
 11
105.329982
 21
180.112558
 31
0.0
  0
LINE
  5
18e
100
AcDbEntity
  8
Layer_1
 62
7
100
AcDbLine
 10
105.329982
 20
180.112558
 30
0.0
 11
104.510623
 21
180.112558
 31
0.0
  0
LINE
  5
18f
100
AcDbEntity
  8
Layer_1
 62
7
100
AcDbLine
 10
104.510623
 20
180.112558
 30
0.0
 11
104.510623
 21
179.845858
 31
0.0
  0
LINE
  5
190
100
AcDbEntity
  8
Layer_1
 62
7
100
AcDbLine
 10
104.510623
 20
179.845858
 30
0.0
 11
104.510623
 21
179.579158
 31
0.0
  0
LINE
  5
191
100
AcDbEntity
  8
Layer_1
 62
7
100
AcDbLine
 10
104.510623
 20
179.579158
 30
0.0
 11
104.053423
 21
179.579158
 31
0.0
  0
LINE
  5
192
100
AcDbEntity
  8
Layer_1
 62
7
100
AcDbLine
 10
104.053423
 20
179.579158
 30
0.0
 11
103.596223
 21
179.579158
 31
0.0
  0
LINE
  5
193
100
AcDbEntity
  8
Layer_1
 62
7
100
AcDbLine
 10
103.596223
 20
179.579158
 30
0.0
 11
103.596223
 21
179.845858
 31
0.0
  0
LINE
  5
194
100
AcDbEntity
  8
Layer_1
 62
7
100
AcDbLine
 10
103.596223
 20
179.845858
 30
0.0
 11
103.596223
 21
180.112558
 31
0.0
  0
LINE
  5
195
100
AcDbEntity
  8
Layer_1
 62
7
100
AcDbLine
 10
103.596223
 20
180.112558
 30
0.0
 11
102.789640
 21
180.112558
 31
0.0
  0
LINE
  5
196
100
AcDbEntity
  8
Layer_1
 62
7
100
AcDbLine
 10
102.789640
 20
180.112558
 30
0.0
 11
101.983057
 21
180.112558
 31
0.0
  0
LINE
  5
197
100
AcDbEntity
  8
Layer_1
 62
7
100
AcDbLine
 10
101.983057
 20
180.112558
 30
0.0
 11
101.068790
 21
181.028621
 31
0.0
  0
SPLINE
  5
198
100
AcDbEntity
  8
Layer_1
 62
7
100
AcDbSpline
 70
0
 71
3
 72
10
 73
6
 74
4
 40
0.000000
 40
0.000000
 40
0.000000
 40
0.000000
 40
0.679094
 40
1.244679
 40
1.574340
 40
1.574340
 40
1.574340
 40
1.574340
 10
71.738264
 20
188.149965
 30
0.0
 10
71.964613
 20
188.152550
 30
0.0
 10
72.379476
 20
188.157288
 30
0.0
 10
72.904219
 20
188.164879
 30
0.0
 10
73.202499
 20
188.173966
 30
0.0
 10
73.312336
 20
188.177312
 30
0.0
 11
71.738264
 21
188.149965
 31
0.0
 11
72.417310
 21
188.158096
 31
0.0
 11
72.982810
 21
188.167921
 31
0.0
 11
73.312336
 21
188.177312
 31
0.0
  0
LINE
  5
199
100
AcDbEntity
  8
Layer_1
 62
7
100
AcDbLine
 10
99.711284
 20
182.017558
 30
0.0
 11
99.405223
 21
182.017558
 31
0.0
  0
LINE
  5
19a
100
AcDbEntity
  8
Layer_1
 62
7
100
AcDbLine
 10
99.405223
 20
182.017558
 30
0.0
 11
99.405223
 21
182.423958
 31
0.0
  0
LINE
  5
19b
100
AcDbEntity
  8
Layer_1
 62
7
100
AcDbLine
 10
99.405223
 20
182.423958
 30
0.0
 11
99.405223
 21
182.830358
 31
0.0
  0
LINE
  5
19c
100
AcDbEntity
  8
Layer_1
 62
7
100
AcDbLine
 10
99.405223
 20
182.830358
 30
0.0
 11
97.563723
 21
182.830358
 31
0.0
  0
SPLINE
  5
19d
100
AcDbEntity
  8
Layer_1
 62
7
100
AcDbSpline
 70
0
 71
3
 72
13
 73
9
 74
7
 40
0.000000
 40
0.000000
 40
0.000000
 40
0.000000
 40
0.662095
 40
1.153803
 40
1.368864
 40
1.442425
 40
1.564344
 40
1.747166
 40
1.747166
 40
1.747166
 40
1.747166
 10
101.068790
 20
181.028621
 30
0.0
 10
100.914109
 20
181.187392
 30
0.0
 10
100.644554
 20
181.464077
 30
0.0
 10
100.303582
 20
181.756673
 30
0.0
 10
100.134526
 20
181.972344
 30
0.0
 10
99.999633
 20
182.008104
 30
0.0
 10
99.873874
 20
182.015983
 30
0.0
 10
99.772250
 20
182.016968
 30
0.0
 10
99.711284
 20
182.017558
 30
0.0
 11
101.068790
 21
181.028621
 31
0.0
 11
100.598871
 21
181.495038
 31
0.0
 11
100.245770
 21
181.837233
 31
0.0
 11
100.085934
 21
181.981121
 31
0.0
 11
100.015416
 21
182.002057
 31
0.0
 11
99.894069
 21
182.013856
 31
0.0
 11
99.711284
 21
182.017558
 31
0.0
  0
LINE
  5
19e
100
AcDbEntity
  8
Layer_1
 62
7
100
AcDbLine
 10
95.587987
 20
182.728758
 30
0.0
 11
95.453748
 21
182.728758
 31
0.0
  0
LINE
  5
19f
100
AcDbEntity
  8
Layer_1
 62
7
100
AcDbLine
 10
95.453748
 20
182.728758
 30
0.0
 11
95.010811
 21
183.174198
 31
0.0
  0
SPLINE
  5
1a0
100
AcDbEntity
  8
Layer_1
 62
7
100
AcDbSpline
 70
0
 71
3
 72
13
 73
9
 74
7
 40
0.000000
 40
0.000000
 40
0.000000
 40
0.000000
 40
1.288346
 40
1.769719
 40
1.849964
 40
1.884003
 40
1.925237
 40
2.012236
 40
2.012236
 40
2.012236
 40
2.012236
 10
97.563723
 20
182.830358
 30
0.0
 10
97.120478
 20
182.821173
 30
0.0
 10
96.511622
 20
182.808554
 30
0.0
 10
95.956794
 20
182.845761
 30
0.0
 10
95.717079
 20
182.801765
 30
0.0
 10
95.720015
 20
182.738405
 30
0.0
 10
95.655701
 20
182.728405
 30
0.0
 10
95.615358
 20
182.728616
 30
0.0
 10
95.587987
 20
182.728758
 30
0.0
 11
97.563723
 21
182.830358
 31
0.0
 11
96.275378
 21
182.828352
 31
0.0
 11
95.794189
 21
182.815056
 31
0.0
 11
95.722223
 21
182.779558
 31
0.0
 11
95.713488
 21
182.746659
 31
0.0
 11
95.674923
 21
182.732064
 31
0.0
 11
95.587987
 21
182.728758
 31
0.0
  0
LINE
  5
1a1
100
AcDbEntity
  8
Layer_1
 62
7
100
AcDbLine
 10
91.886823
 20
183.651755
 30
0.0
 11
89.308723
 21
183.662959
 31
0.0
  0
LINE
  5
1a2
100
AcDbEntity
  8
Layer_1
 62
7
100
AcDbLine
 10
89.308723
 20
183.662959
 30
0.0
 11
88.934073
 21
183.290172
 31
0.0
  0
LINE
  5
1a3
100
AcDbEntity
  8
Layer_1
 62
7
100
AcDbLine
 10
88.934073
 20
183.290172
 30
0.0
 11
88.559423
 21
182.917387
 31
0.0
  0
LINE
  5
1a4
100
AcDbEntity
  8
Layer_1
 62
7
100
AcDbLine
 10
88.559423
 20
182.917387
 30
0.0
 11
88.559423
 21
182.452090
 31
0.0
  0
SPLINE
  5
1a5
100
AcDbEntity
  8
Layer_1
 62
7
100
AcDbSpline
 70
0
 71
3
 72
13
 73
9
 74
7
 40
0.000000
 40
0.000000
 40
0.000000
 40
0.000000
 40
0.322429
 40
0.564035
 40
0.673125
 40
1.052408
 40
1.997140
 40
3.302812
 40
3.302812
 40
3.302812
 40
3.302812
 10
95.010811
 20
183.174198
 30
0.0
 10
94.934397
 20
183.250208
 30
0.0
 10
94.800723
 20
183.383174
 30
0.0
 10
94.637837
 20
183.533718
 30
0.0
 10
94.449161
 20
183.698834
 30
0.0
 10
93.925829
 20
183.573785
 30
0.0
 10
93.083144
 20
183.677361
 30
0.0
 10
92.326072
 20
183.661157
 30
0.0
 10
91.886823
 20
183.651755
 30
0.0
 11
95.010811
 21
183.174198
 31
0.0
 11
94.780649
 21
183.399999
 31
0.0
 11
94.603027
 21
183.563779
 31
0.0
 11
94.516397
 21
183.630080
 31
0.0
 11
94.137175
 21
183.636885
 31
0.0
 11
93.192475
 21
183.644668
 31
0.0
 11
91.886823
 21
183.651755
 31
0.0
  0
LINE
  5
1a6
100
AcDbEntity
  8
Layer_1
 62
7
100
AcDbLine
 10
89.113673
 20
181.092496
 30
0.0
 11
89.105517
 21
181.805731
 31
0.0
  0
LINE
  5
1a7
100
AcDbEntity
  8
Layer_1
 62
7
100
AcDbLine
 10
89.105517
 20
181.805731
 30
0.0
 11
89.035667
 21
181.897250
 31
0.0
  0
SPLINE
  5
1a8
100
AcDbEntity
  8
Layer_1
 62
7
100
AcDbSpline
 70
0
 71
3
 72
25
 73
21
 74
19
 40
0.000000
 40
0.000000
 40
0.000000
 40
0.000000
 40
0.326900
 40
0.469810
 40
0.552815
 40
0.611882
 40
0.674498
 40
0.728364
 40
0.867184
 40
1.152089
 40
1.521538
 40
2.004876
 40
2.219142
 40
2.309338
 40
2.568673
 40
2.816689
 40
3.074369
 40
3.208823
 40
3.483499
 40
3.878299
 40
3.878299
 40
3.878299
 40
3.878299
 10
88.559423
 20
182.452090
 30
0.0
 10
88.557663
 20
182.344576
 30
0.0
 10
88.555133
 20
182.190059
 30
0.0
 10
88.558755
 20
181.997680
 30
0.0
 10
88.501541
 20
181.918704
 30
0.0
 10
88.461285
 20
181.863919
 30
0.0
 10
88.435358
 20
181.811081
 30
0.0
 10
88.408615
 20
181.729667
 30
0.0
 10
88.416468
 20
181.568029
 30
0.0
 10
88.407339
 20
181.305294
 30
0.0
 10
88.411056
 20
180.924832
 30
0.0
 10
88.423136
 20
180.571613
 30
0.0
 10
88.417080
 20
180.305288
 30
0.0
 10
88.486507
 20
180.126570
 30
0.0
 10
88.684296
 20
180.015898
 30
0.0
 10
88.951775
 20
180.059635
 30
0.0
 10
89.105246
 20
180.245494
 30
0.0
 10
89.109160
 20
180.470736
 30
0.0
 10
89.117815
 20
180.737273
 30
0.0
 10
89.115210
 20
180.960724
 30
0.0
 10
89.113673
 20
181.092496
 30
0.0
 11
88.559423
 21
182.452090
 31
0.0
 11
88.556857
 21
182.125200
 31
0.0
 11
88.540406
 21
181.983241
 31
0.0
 11
88.496933
 21
181.912529
 31
0.0
 11
88.463387
 21
181.863914
 31
0.0
 11
88.435511
 21
181.807845
 31
0.0
 11
88.419339
 21
181.756463
 31
0.0
 11
88.412794
 21
181.617798
 31
0.0
 11
88.410145
 21
181.332905
 31
0.0
 11
88.411973
 21
180.963461
 31
0.0
 11
88.419817
 21
180.480187
 31
0.0
 11
88.435854
 21
180.266522
 31
0.0
 11
88.470517
 21
180.183252
 31
0.0
 11
88.690512
 21
180.045932
 31
0.0
 11
88.935029
 21
180.087444
 31
0.0
 11
89.095188
 21
180.289306
 31
0.0
 11
89.108554
 21
180.423094
 31
0.0
 11
89.114870
 21
180.697698
 31
0.0
 11
89.113673
 21
181.092496
 31
0.0
  0
LINE
  5
1a9
100
AcDbEntity
  8
Layer_1
 62
7
100
AcDbLine
 10
88.965817
 20
182.365569
 30
0.0
 11
88.965817
 21
182.742370
 31
0.0
  0
LINE
  5
1aa
100
AcDbEntity
  8
Layer_1
 62
7
100
AcDbLine
 10
88.965817
 20
182.742370
 30
0.0
 11
89.226167
 21
183.001334
 31
0.0
  0
LINE
  5
1ab
100
AcDbEntity
  8
Layer_1
 62
7
100
AcDbLine
 10
89.226167
 20
183.001334
 30
0.0
 11
89.486517
 21
183.260296
 31
0.0
  0
LINE
  5
1ac
100
AcDbEntity
  8
Layer_1
 62
7
100
AcDbLine
 10
89.486517
 20
183.260296
 30
0.0
 11
89.943717
 21
183.274717
 31
0.0
  0
SPLINE
  5
1ad
100
AcDbEntity
  8
Layer_1
 62
7
100
AcDbSpline
 70
0
 71
3
 72
10
 73
6
 74
4
 40
0.000000
 40
0.000000
 40
0.000000
 40
0.000000
 40
0.092761
 40
0.216879
 40
0.483537
 40
0.483537
 40
0.483537
 40
0.483537
 10
89.035667
 20
181.897250
 30
0.0
 10
89.016948
 20
181.922609
 30
0.0
 10
88.973181
 20
181.981899
 30
0.0
 10
88.965845
 20
182.148684
 30
0.0
 10
88.965829
 20
182.277600
 30
0.0
 10
88.965817
 20
182.365569
 30
0.0
 11
89.035667
 21
181.897250
 31
0.0
 11
88.986913
 21
181.976165
 31
0.0
 11
88.968604
 21
182.098926
 31
0.0
 11
88.965817
 21
182.365569
 31
0.0
  0
LINE
  5
1ae
100
AcDbEntity
  8
Layer_1
 62
7
100
AcDbLine
 10
92.420666
 20
183.301500
 30
0.0
 11
94.440415
 21
183.313862
 31
0.0
  0
LINE
  5
1af
100
AcDbEntity
  8
Layer_1
 62
7
100
AcDbLine
 10
94.440415
 20
183.313862
 30
0.0
 11
94.882854
 21
182.868921
 31
0.0
  0
LINE
  5
1b0
100
AcDbEntity
  8
Layer_1
 62
7
100
AcDbLine
 10
94.882854
 20
182.868921
 30
0.0
 11
95.325294
 21
182.423978
 31
0.0
  0
LINE
  5
1b1
100
AcDbEntity
  8
Layer_1
 62
7
100
AcDbLine
 10
95.325294
 20
182.423978
 30
0.0
 11
95.523756
 21
182.423978
 31
0.0
  0
LINE
  5
1b2
100
AcDbEntity
  8
Layer_1
 62
7
100
AcDbLine
 10
95.523756
 20
182.423978
 30
0.0
 11
95.722217
 21
182.423978
 31
0.0
  0
LINE
  5
1b3
100
AcDbEntity
  8
Layer_1
 62
7
100
AcDbLine
 10
95.722217
 20
182.423978
 30
0.0
 11
95.722217
 21
181.992178
 31
0.0
  0
LINE
  5
1b4
100
AcDbEntity
  8
Layer_1
 62
7
100
AcDbLine
 10
95.722217
 20
181.992178
 30
0.0
 11
95.722217
 21
181.560378
 31
0.0
  0
LINE
  5
1b5
100
AcDbEntity
  8
Layer_1
 62
7
100
AcDbLine
 10
95.722217
 20
181.560378
 30
0.0
 11
97.563717
 21
181.560378
 31
0.0
  0
SPLINE
  5
1b6
100
AcDbEntity
  8
Layer_1
 62
7
100
AcDbSpline
 70
0
 71
3
 72
10
 73
6
 74
4
 40
0.000000
 40
0.000000
 40
0.000000
 40
0.000000
 40
0.507152
 40
1.397071
 40
2.477111
 40
2.477111
 40
2.477111
 40
2.477111
 10
89.943717
 20
183.274717
 30
0.0
 10
90.112738
 20
183.277905
 30
0.0
 10
90.578348
 20
183.286688
 30
0.0
 10
91.404029
 20
183.294088
 30
0.0
 10
92.060663
 20
183.298875
 30
0.0
 10
92.420666
 20
183.301500
 30
0.0
 11
89.943717
 21
183.274717
 31
0.0
 11
90.450790
 21
183.283674
 31
0.0
 11
91.340657
 21
183.293296
 31
0.0
 11
92.420666
 21
183.301500
 31
0.0
  0
LINE
  5
1b7
100
AcDbEntity
  8
Layer_1
 62
7
100
AcDbLine
 10
99.652737
 20
181.611178
 30
0.0
 11
99.900255
 21
181.611178
 31
0.0
  0
LINE
  5
1b8
100
AcDbEntity
  8
Layer_1
 62
7
100
AcDbLine
 10
99.900255
 20
181.611178
 30
0.0
 11
100.808437
 21
180.703261
 31
0.0
  0
LINE
  5
1b9
100
AcDbEntity
  8
Layer_1
 62
7
100
AcDbLine
 10
100.808437
 20
180.703261
 30
0.0
 11
101.716617
 21
179.795343
 31
0.0
  0
LINE
  5
1ba
100
AcDbEntity
  8
Layer_1
 62
7
100
AcDbLine
 10
101.716617
 20
179.795343
 30
0.0
 11
101.716617
 21
179.204661
 31
0.0
  0
LINE
  5
1bb
100
AcDbEntity
  8
Layer_1
 62
7
100
AcDbLine
 10
101.716617
 20
179.204661
 30
0.0
 11
101.716617
 21
178.613978
 31
0.0
  0
LINE
  5
1bc
100
AcDbEntity
  8
Layer_1
 62
7
100
AcDbLine
 10
101.716617
 20
178.613978
 30
0.0
 11
102.655559
 21
178.613978
 31
0.0
  0
LINE
  5
1bd
100
AcDbEntity
  8
Layer_1
 62
7
100
AcDbLine
 10
102.655559
 20
178.613978
 30
0.0
 11
103.594498
 21
178.613978
 31
0.0
  0
LINE
  5
1be
100
AcDbEntity
  8
Layer_1
 62
7
100
AcDbLine
 10
103.594498
 20
178.613978
 30
0.0
 11
103.601723
 21
178.887028
 31
0.0
  0
LINE
  5
1bf
100
AcDbEntity
  8
Layer_1
 62
7
100
AcDbLine
 10
103.601723
 20
178.887028
 30
0.0
 11
103.601718
 21
178.886992
 31
0.0
  0
LINE
  5
1c0
100
AcDbEntity
  8
Layer_1
 62
7
100
AcDbLine
 10
90.407276
 20
179.442100
 30
0.0
 11
91.150226
 21
180.195199
 31
0.0
  0
LINE
  5
1c1
100
AcDbEntity
  8
Layer_1
 62
7
100
AcDbLine
 10
91.150226
 20
180.195199
 30
0.0
 11
91.150226
 21
180.877770
 31
0.0
  0
LINE
  5
1c2
100
AcDbEntity
  8
Layer_1
 62
7
100
AcDbLine
 10
91.150226
 20
180.877770
 30
0.0
 11
91.150226
 21
181.560342
 31
0.0
  0
LINE
  5
1c3
100
AcDbEntity
  8
Layer_1
 62
7
100
AcDbLine
 10
91.150226
 20
181.560342
 30
0.0
 11
92.737726
 21
181.560342
 31
0.0
  0
LINE
  5
1c4
100
AcDbEntity
  8
Layer_1
 62
7
100
AcDbLine
 10
92.737726
 20
181.560342
 30
0.0
 11
94.325226
 21
181.560342
 31
0.0
  0
LINE
  5
1c5
100
AcDbEntity
  8
Layer_1
 62
7
100
AcDbLine
 10
94.325226
 20
181.560342
 30
0.0
 11
94.325226
 21
182.195342
 31
0.0
  0
LINE
  5
1c6
100
AcDbEntity
  8
Layer_1
 62
7
100
AcDbLine
 10
94.325226
 20
182.195342
 30
0.0
 11
94.325226
 21
182.830342
 31
0.0
  0
LINE
  5
1c7
100
AcDbEntity
  8
Layer_1
 62
7
100
AcDbLine
 10
94.325226
 20
182.830342
 30
0.0
 11
92.483726
 21
182.830342
 31
0.0
  0
LINE
  5
1c8
100
AcDbEntity
  8
Layer_1
 62
7
100
AcDbLine
 10
92.483726
 20
182.830342
 30
0.0
 11
90.642226
 21
182.830342
 31
0.0
  0
LINE
  5
1c9
100
AcDbEntity
  8
Layer_1
 62
7
100
AcDbLine
 10
90.642226
 20
182.830342
 30
0.0
 11
90.642226
 21
182.195342
 31
0.0
  0
LINE
  5
1ca
100
AcDbEntity
  8
Layer_1
 62
7
100
AcDbLine
 10
90.642226
 20
182.195342
 30
0.0
 11
90.642226
 21
181.560342
 31
0.0
  0
LINE
  5
1cb
100
AcDbEntity
  8
Layer_1
 62
7
100
AcDbLine
 10
90.642226
 20
181.560342
 30
0.0
 11
90.705726
 21
181.560342
 31
0.0
  0
LINE
  5
1cc
100
AcDbEntity
  8
Layer_1
 62
7
100
AcDbLine
 10
90.705726
 20
181.560342
 30
0.0
 11
90.769226
 21
181.560342
 31
0.0
  0
LINE
  5
1cd
100
AcDbEntity
  8
Layer_1
 62
7
100
AcDbLine
 10
90.769226
 20
181.560342
 30
0.0
 11
90.769226
 21
180.969605
 31
0.0
  0
LINE
  5
1ce
100
AcDbEntity
  8
Layer_1
 62
7
100
AcDbLine
 10
90.769226
 20
180.969605
 30
0.0
 11
90.769226
 21
180.378869
 31
0.0
  0
LINE
  5
1cf
100
AcDbEntity
  8
Layer_1
 62
7
100
AcDbLine
 10
90.769226
 20
180.378869
 30
0.0
 11
90.127692
 21
179.737705
 31
0.0
  0
LINE
  5
1d0
100
AcDbEntity
  8
Layer_1
 62
7
100
AcDbLine
 10
90.127692
 20
179.737705
 30
0.0
 11
89.486159
 21
179.096542
 31
0.0
  0
LINE
  5
1d1
100
AcDbEntity
  8
Layer_1
 62
7
100
AcDbLine
 10
89.486159
 20
179.096542
 30
0.0
 11
87.695938
 21
179.096542
 31
0.0
  0
LINE
  5
1d2
100
AcDbEntity
  8
Layer_1
 62
7
100
AcDbLine
 10
87.695938
 20
179.096542
 30
0.0
 11
85.905721
 21
179.096542
 31
0.0
  0
LINE
  5
1d3
100
AcDbEntity
  8
Layer_1
 62
7
100
AcDbLine
 10
85.905721
 20
179.096542
 30
0.0
 11
85.518075
 21
179.483584
 31
0.0
  0
SPLINE
  5
1d4
100
AcDbEntity
  8
Layer_1
 62
7
100
AcDbSpline
 70
0
 71
3
 72
13
 73
9
 74
7
 40
0.000000
 40
0.000000
 40
0.000000
 40
0.000000
 40
1.015534
 40
1.633189
 40
1.842033
 40
1.876023
 40
1.962746
 40
2.092771
 40
2.092771
 40
2.092771
 40
2.092771
 10
97.563717
 20
181.560378
 30
0.0
 10
97.903882
 20
181.555315
 30
0.0
 10
98.450938
 20
181.547173
 30
0.0
 10
99.053464
 20
181.590676
 30
0.0
 10
99.352933
 20
181.557750
 30
0.0
 10
99.451903
 20
181.608843
 30
0.0
 10
99.538093
 20
181.606959
 30
0.0
 10
99.609751
 20
181.609596
 30
0.0
 10
99.652737
 20
181.611178
 30
0.0
 11
97.563717
 21
181.560378
 31
0.0
 11
98.579247
 21
181.563251
 31
0.0
 11
99.196843
 21
181.571767
 31
0.0
 11
99.405217
 21
181.585778
 31
0.0
 11
99.436482
 21
181.599112
 31
0.0
 11
99.522752
 21
181.607967
 31
0.0
 11
99.652737
 21
181.611178
 31
0.0
  0
LINE
  5
1d5
100
AcDbEntity
  8
Layer_1
 62
7
100
AcDbLine
 10
85.206626
 20
180.154522
 30
0.0
 11
85.282826
 21
180.241308
 31
0.0
  0
LINE
  5
1d6
100
AcDbEntity
  8
Layer_1
 62
7
100
AcDbLine
 10
85.282826
 20
180.241308
 30
0.0
 11
85.282826
 21
181.026942
 31
0.0
  0
LINE
  5
1d7
100
AcDbEntity
  8
Layer_1
 62
7
100
AcDbLine
 10
85.282826
 20
181.026942
 30
0.0
 11
85.282826
 21
181.812575
 31
0.0
  0
LINE
  5
1d8
100
AcDbEntity
  8
Layer_1
 62
7
100
AcDbLine
 10
85.282826
 20
181.812575
 30
0.0
 11
85.204306
 21
181.902003
 31
0.0
  0
SPLINE
  5
1d9
100
AcDbEntity
  8
Layer_1
 62
7
100
AcDbSpline
 70
0
 71
3
 72
13
 73
9
 74
7
 40
0.000000
 40
0.000000
 40
0.000000
 40
0.000000
 40
0.375831
 40
0.544338
 40
0.632365
 40
0.699031
 40
0.762403
 40
0.837727
 40
0.837727
 40
0.837727
 40
0.837727
 10
85.518075
 20
179.483584
 30
0.0
 10
85.431902
 20
179.572715
 30
0.0
 10
85.307093
 20
179.701809
 30
0.0
 10
85.149873
 20
179.853137
 30
0.0
 10
85.126594
 20
179.962102
 30
0.0
 10
85.134266
 20
180.035088
 30
0.0
 10
85.160754
 20
180.099441
 30
0.0
 10
85.190481
 20
180.135136
 30
0.0
 10
85.206626
 20
180.154522
 30
0.0
 11
85.518075
 21
179.483584
 31
0.0
 11
85.254539
 21
179.751534
 31
0.0
 11
85.149410
 21
179.883226
 31
0.0
 11
85.130426
 21
179.969181
 31
0.0
 11
85.137588
 21
180.035462
 31
0.0
 11
85.161683
 21
180.094074
 31
0.0
 11
85.206626
 21
180.154522
 31
0.0
  0
LINE
  5
1da
100
AcDbEntity
  8
Layer_1
 62
7
100
AcDbLine
 10
84.749426
 20
179.887416
 30
0.0
 11
84.749426
 21
179.693907
 31
0.0
  0
LINE
  5
1db
100
AcDbEntity
  8
Layer_1
 62
7
100
AcDbLine
 10
84.749426
 20
179.693907
 30
0.0
 11
85.250838
 21
179.192026
 31
0.0
  0
LINE
  5
1dc
100
AcDbEntity
  8
Layer_1
 62
7
100
AcDbLine
 10
85.250838
 20
179.192026
 30
0.0
 11
85.752249
 21
178.690142
 31
0.0
  0
LINE
  5
1dd
100
AcDbEntity
  8
Layer_1
 62
7
100
AcDbLine
 10
85.752249
 20
178.690142
 30
0.0
 11
87.708286
 21
178.689577
 31
0.0
  0
LINE
  5
1de
100
AcDbEntity
  8
Layer_1
 62
7
100
AcDbLine
 10
87.708286
 20
178.689577
 30
0.0
 11
89.664326
 21
178.689013
 31
0.0
  0
LINE
  5
1df
100
AcDbEntity
  8
Layer_1
 62
7
100
AcDbLine
 10
89.664326
 20
178.689013
 30
0.0
 11
90.407276
 21
179.442111
 31
0.0
  0
LINE
  5
1e0
100
AcDbEntity
  8
Layer_1
 62
7
100
AcDbLine
 10
90.407276
 20
179.442111
 30
0.0
 11
90.407276
 21
179.442100
 31
0.0
  0
SPLINE
  5
1e1
100
AcDbEntity
  8
Layer_1
 62
7
100
AcDbSpline
 70
0
 71
3
 72
19
 73
15
 74
13
 40
0.000000
 40
0.000000
 40
0.000000
 40
0.000000
 40
0.231621
 40
0.443993
 40
0.674135
 40
0.779326
 40
1.023036
 40
1.471262
 40
2.026951
 40
2.288258
 40
2.419561
 40
2.465223
 40
2.537268
 40
2.656818
 40
2.656818
 40
2.656818
 40
2.656818
 10
85.204306
 20
181.902003
 30
0.0
 10
85.141940
 20
181.952908
 30
0.0
 10
85.022391
 20
182.050488
 30
0.0
 10
84.779956
 20
182.016996
 30
0.0
 10
84.631492
 20
181.879396
 30
0.0
 10
84.602494
 20
181.685194
 30
0.0
 10
84.599298
 20
181.420841
 30
0.0
 10
84.592785
 20
181.001829
 30
0.0
 10
84.609443
 20
180.590609
 30
0.0
 10
84.597253
 20
180.256066
 30
0.0
 10
84.689613
 20
180.138671
 30
0.0
 10
84.741400
 20
180.072100
 30
0.0
 10
84.747457
 20
179.990045
 30
0.0
 10
84.748669
 20
179.926849
 30
0.0
 10
84.749426
 20
179.887416
 30
0.0
 11
85.204306
 21
181.902003
 31
0.0
 11
85.006289
 21
182.022159
 31
0.0
 11
84.795373
 21
181.997337
 31
0.0
 11
84.632526
 21
181.834712
 31
0.0
 11
84.610892
 21
181.731770
 31
0.0
 11
84.600014
 21
181.488304
 31
0.0
 11
84.597026
 21
181.040087
 31
0.0
 11
84.603484
 21
180.484436
 31
0.0
 11
84.634468
 21
180.224973
 31
0.0
 11
84.707391
 21
180.115781
 31
0.0
 11
84.732681
 21
180.077763
 31
0.0
 11
84.745724
 21
180.006908
 31
0.0
 11
84.749426
 21
179.887416
 31
0.0
  0
LINE
  5
1e2
100
AcDbEntity
  8
Layer_1
 62
7
100
AcDbLine
 10
86.421287
 20
182.384182
 30
0.0
 11
86.413131
 21
182.779302
 31
0.0
  0
LINE
  5
1e3
100
AcDbEntity
  8
Layer_1
 62
7
100
AcDbLine
 10
86.413131
 20
182.779302
 30
0.0
 11
85.778323
 21
183.414420
 31
0.0
  0
LINE
  5
1e4
100
AcDbEntity
  8
Layer_1
 62
7
100
AcDbLine
 10
85.778323
 20
183.414420
 30
0.0
 11
85.143512
 21
184.049542
 31
0.0
  0
LINE
  5
1e5
100
AcDbEntity
  8
Layer_1
 62
7
100
AcDbLine
 10
85.143512
 20
184.049542
 30
0.0
 11
84.032073
 21
184.049542
 31
0.0
  0
LINE
  5
1e6
100
AcDbEntity
  8
Layer_1
 62
7
100
AcDbLine
 10
84.032073
 20
184.049542
 30
0.0
 11
82.920631
 21
184.049542
 31
0.0
  0
LINE
  5
1e7
100
AcDbEntity
  8
Layer_1
 62
7
100
AcDbLine
 10
82.920631
 20
184.049542
 30
0.0
 11
82.920631
 21
184.417842
 31
0.0
  0
LINE
  5
1e8
100
AcDbEntity
  8
Layer_1
 62
7
100
AcDbLine
 10
82.920631
 20
184.417842
 30
0.0
 11
82.920631
 21
184.786142
 31
0.0
  0
LINE
  5
1e9
100
AcDbEntity
  8
Layer_1
 62
7
100
AcDbLine
 10
82.920631
 20
184.786142
 30
0.0
 11
82.171331
 21
184.786142
 31
0.0
  0
LINE
  5
1ea
100
AcDbEntity
  8
Layer_1
 62
7
100
AcDbLine
 10
82.171331
 20
184.786142
 30
0.0
 11
81.422031
 21
184.786142
 31
0.0
  0
LINE
  5
1eb
100
AcDbEntity
  8
Layer_1
 62
7
100
AcDbLine
 10
81.422031
 20
184.786142
 30
0.0
 11
81.422031
 21
183.846342
 31
0.0
  0
LINE
  5
1ec
100
AcDbEntity
  8
Layer_1
 62
7
100
AcDbLine
 10
81.422031
 20
183.846342
 30
0.0
 11
81.422031
 21
182.906542
 31
0.0
  0
LINE
  5
1ed
100
AcDbEntity
  8
Layer_1
 62
7
100
AcDbLine
 10
81.422031
 20
182.906542
 30
0.0
 11
82.171331
 21
182.906542
 31
0.0
  0
LINE
  5
1ee
100
AcDbEntity
  8
Layer_1
 62
7
100
AcDbLine
 10
82.171331
 20
182.906542
 30
0.0
 11
82.920631
 21
182.906542
 31
0.0
  0
LINE
  5
1ef
100
AcDbEntity
  8
Layer_1
 62
7
100
AcDbLine
 10
82.920631
 20
182.906542
 30
0.0
 11
82.920631
 21
183.274842
 31
0.0
  0
LINE
  5
1f0
100
AcDbEntity
  8
Layer_1
 62
7
100
AcDbLine
 10
82.920631
 20
183.274842
 30
0.0
 11
82.920631
 21
183.643142
 31
0.0
  0
LINE
  5
1f1
100
AcDbEntity
  8
Layer_1
 62
7
100
AcDbLine
 10
82.920631
 20
183.643142
 30
0.0
 11
83.955455
 21
183.643142
 31
0.0
  0
LINE
  5
1f2
100
AcDbEntity
  8
Layer_1
 62
7
100
AcDbLine
 10
83.955455
 20
183.643142
 30
0.0
 11
84.990277
 21
183.643142
 31
0.0
  0
LINE
  5
1f3
100
AcDbEntity
  8
Layer_1
 62
7
100
AcDbLine
 10
84.990277
 20
183.643142
 30
0.0
 11
85.504855
 21
183.129023
 31
0.0
  0
LINE
  5
1f4
100
AcDbEntity
  8
Layer_1
 62
7
100
AcDbLine
 10
85.504855
 20
183.129023
 30
0.0
 11
86.019431
 21
182.614907
 31
0.0
  0
LINE
  5
1f5
100
AcDbEntity
  8
Layer_1
 62
7
100
AcDbLine
 10
86.019431
 20
182.614907
 30
0.0
 11
86.019431
 21
182.293933
 31
0.0
  0
SPLINE
  5
1f6
100
AcDbEntity
  8
Layer_1
 62
7
100
AcDbSpline
 70
0
 71
3
 72
16
 73
12
 74
10
 40
0.000000
 40
0.000000
 40
0.000000
 40
0.000000
 40
0.158404
 40
0.387593
 40
0.910807
 40
1.464389
 40
1.735518
 40
1.888033
 40
1.978536
 40
2.113033
 40
2.383410
 40
2.383410
 40
2.383410
 40
2.383410
 10
86.392695
 20
180.086024
 30
0.0
 10
86.438527
 20
180.116926
 30
0.0
 10
86.550671
 20
180.192539
 30
0.0
 10
86.565524
 20
180.523629
 30
0.0
 10
86.576762
 20
180.943414
 30
0.0
 10
86.573222
 20
181.393634
 30
0.0
 10
86.576902
 20
181.726494
 30
0.0
 10
86.501778
 20
181.882784
 30
0.0
 10
86.435190
 20
181.991466
 30
0.0
 10
86.427624
 20
182.160948
 30
0.0
 10
86.423825
 20
182.294797
 30
0.0
 10
86.421287
 20
182.384182
 30
0.0
 11
86.392695
 21
180.086024
 31
0.0
 11
86.512515
 21
180.189634
 31
0.0
 11
86.560191
 21
180.413810
 31
0.0
 11
86.573645
 21
180.936851
 31
0.0
 11
86.574855
 21
181.490431
 31
0.0
 11
86.551342
 21
181.760538
 31
0.0
 11
86.489819
 21
181.900095
 31
0.0
 11
86.448815
 21
181.980775
 31
0.0
 11
86.429962
 21
182.113944
 31
0.0
 11
86.421287
 21
182.384182
 31
0.0
  0
LINE
  5
1f7
100
AcDbEntity
  8
Layer_1
 62
7
100
AcDbLine
 10
86.392701
 20
180.086024
 30
0.0
 11
86.392695
 21
180.086024
 31
0.0
  0
SPLINE
  5
1f8
100
AcDbEntity
  8
Layer_1
 62
7
100
AcDbSpline
 70
0
 71
3
 72
19
 73
15
 74
13
 40
0.000000
 40
0.000000
 40
0.000000
 40
0.000000
 40
0.201549
 40
0.308855
 40
0.360886
 40
0.490262
 40
0.739704
 40
1.293364
 40
1.781694
 40
2.012040
 40
2.116773
 40
2.298721
 40
2.480126
 40
2.662442
 40
2.662442
 40
2.662442
 40
2.662442
 10
86.019431
 20
182.293933
 30
0.0
 10
86.017948
 20
182.227397
 30
0.0
 10
86.015676
 20
182.125436
 30
0.0
 10
86.016608
 20
182.001043
 30
0.0
 10
85.967651
 20
181.916642
 30
0.0
 10
85.862589
 20
181.810914
 30
0.0
 10
85.881984
 20
181.475431
 30
0.0
 10
85.860927
 20
181.059255
 30
0.0
 10
85.871187
 20
180.631743
 30
0.0
 10
85.869122
 20
180.356999
 30
0.0
 10
85.913521
 20
180.187006
 30
0.0
 10
86.033876
 20
180.073652
 30
0.0
 10
86.218659
 20
180.018635
 30
0.0
 10
86.334590
 20
180.063523
 30
0.0
 10
86.392701
 20
180.086024
 30
0.0
 11
86.019431
 21
182.293933
 31
0.0
 11
86.016290
 21
182.092409
 31
0.0
 11
86.004310
 21
181.985774
 31
0.0
 11
85.979658
 21
181.939953
 31
0.0
 11
85.903560
 21
181.835323
 31
0.0
 11
85.872782
 21
181.587788
 31
0.0
 11
85.867031
 21
181.034158
 31
0.0
 11
85.869760
 21
180.545835
 31
0.0
 11
85.882802
 21
180.315859
 31
0.0
 11
85.913443
 21
180.215708
 31
0.0
 11
86.041443
 21
180.086398
 31
0.0
 11
86.216550
 21
180.039015
 31
0.0
 11
86.392701
 21
180.086024
 31
0.0
  0
LINE
  5
1f9
100
AcDbEntity
  8
Layer_1
 62
7
100
AcDbLine
 10
86.211512
 20
184.659142
 30
0.0
 11
84.800110
 21
186.068842
 31
0.0
  0
LINE
  5
1fa
100
AcDbEntity
  8
Layer_1
 62
7
100
AcDbLine
 10
84.800110
 20
186.068842
 30
0.0
 11
83.866719
 21
186.081542
 31
0.0
  0
LINE
  5
1fb
100
AcDbEntity
  8
Layer_1
 62
7
100
AcDbLine
 10
83.866719
 20
186.081542
 30
0.0
 11
82.933326
 21
186.094242
 31
0.0
  0
LINE
  5
1fc
100
AcDbEntity
  8
Layer_1
 62
7
100
AcDbLine
 10
82.933326
 20
186.094242
 30
0.0
 11
82.926552
 21
186.786392
 31
0.0
  0
LINE
  5
1fd
100
AcDbEntity
  8
Layer_1
 62
7
100
AcDbLine
 10
82.926552
 20
186.786392
 30
0.0
 11
82.919807
 21
187.478542
 31
0.0
  0
LINE
  5
1fe
100
AcDbEntity
  8
Layer_1
 62
7
100
AcDbLine
 10
82.919807
 20
187.478542
 30
0.0
 11
82.170913
 21
187.478542
 31
0.0
  0
LINE
  5
1ff
100
AcDbEntity
  8
Layer_1
 62
7
100
AcDbLine
 10
82.170913
 20
187.478542
 30
0.0
 11
81.422023
 21
187.478542
 31
0.0
  0
LINE
  5
200
100
AcDbEntity
  8
Layer_1
 62
7
100
AcDbLine
 10
81.422023
 20
187.478542
 30
0.0
 11
81.422023
 21
186.526042
 31
0.0
  0
LINE
  5
201
100
AcDbEntity
  8
Layer_1
 62
7
100
AcDbLine
 10
81.422023
 20
186.526042
 30
0.0
 11
81.422023
 21
185.573542
 31
0.0
  0
LINE
  5
202
100
AcDbEntity
  8
Layer_1
 62
7
100
AcDbLine
 10
81.422023
 20
185.573542
 30
0.0
 11
82.171323
 21
185.573542
 31
0.0
  0
SPLINE
  5
203
100
AcDbEntity
  8
Layer_1
 62
7
100
AcDbSpline
 70
0
 71
3
 72
22
 73
18
 74
16
 40
0.000000
 40
0.000000
 40
0.000000
 40
0.000000
 40
0.158403
 40
0.387592
 40
0.910806
 40
1.465675
 40
1.736864
 40
1.891193
 40
1.987821
 40
2.159276
 40
2.552829
 40
2.897770
 40
3.091249
 40
3.183384
 40
3.494362
 40
4.237747
 40
5.252729
 40
5.252729
 40
5.252729
 40
5.252729
 10
87.662695
 20
180.086024
 30
0.0
 10
87.708526
 20
180.116926
 30
0.0
 10
87.820669
 20
180.192541
 30
0.0
 10
87.835524
 20
180.523622
 30
0.0
 10
87.846756
 20
180.943892
 30
0.0
 10
87.843250
 20
181.394325
 30
0.0
 10
87.846912
 20
181.728691
 30
0.0
 10
87.769085
 20
181.886538
 30
0.0
 10
87.695113
 20
182.008819
 30
0.0
 10
87.701193
 20
182.237445
 30
0.0
 10
87.695021
 20
182.535918
 30
0.0
 10
87.693740
 20
182.848143
 30
0.0
 10
87.690519
 20
183.057603
 30
0.0
 10
87.648713
 20
183.256441
 30
0.0
 10
87.313571
 20
183.494317
 30
0.0
 10
86.880728
 20
184.013498
 30
0.0
 10
86.456429
 20
184.422851
 30
0.0
 10
86.211512
 20
184.659142
 30
0.0
 11
87.662695
 21
180.086024
 31
0.0
 11
87.782514
 21
180.189634
 31
0.0
 11
87.830190
 21
180.413810
 31
0.0
 11
87.843642
 21
180.936851
 31
0.0
 11
87.844873
 21
181.491718
 31
0.0
 11
87.820942
 21
181.761849
 31
0.0
 11
87.758010
 21
181.902765
 31
0.0
 11
87.714636
 21
181.989110
 31
0.0
 11
87.698321
 21
182.159787
 31
0.0
 11
87.695826
 21
182.553332
 31
0.0
 11
87.692707
 21
182.898259
 31
0.0
 11
87.681486
 21
183.091412
 31
0.0
 11
87.659368
 21
183.180853
 31
0.0
 11
87.447597
 21
183.408583
 31
0.0
 11
86.927439
 21
183.939671
 31
0.0
 11
86.211512
 21
184.659142
 31
0.0
  0
LINE
  5
204
100
AcDbEntity
  8
Layer_1
 62
7
100
AcDbLine
 10
83.765085
 20
185.675142
 30
0.0
 11
84.609545
 21
185.675142
 31
0.0
  0
LINE
  5
205
100
AcDbEntity
  8
Layer_1
 62
7
100
AcDbLine
 10
84.609545
 20
185.675142
 30
0.0
 11
85.949482
 21
184.335382
 31
0.0
  0
LINE
  5
206
100
AcDbEntity
  8
Layer_1
 62
7
100
AcDbLine
 10
85.949482
 20
184.335382
 30
0.0
 11
87.289423
 21
182.995622
 31
0.0
  0
LINE
  5
207
100
AcDbEntity
  8
Layer_1
 62
7
100
AcDbLine
 10
87.289423
 20
182.995622
 30
0.0
 11
87.289423
 21
182.484292
 31
0.0
  0
SPLINE
  5
208
100
AcDbEntity
  8
Layer_1
 62
7
100
AcDbSpline
 70
0
 71
3
 72
13
 73
9
 74
7
 40
0.000000
 40
0.000000
 40
0.000000
 40
0.000000
 40
0.519764
 40
0.718244
 40
0.765525
 40
0.815259
 40
1.038360
 40
1.625089
 40
1.625089
 40
1.625089
 40
1.625089
 10
82.171323
 20
185.573542
 30
0.0
 10
82.335551
 20
185.588497
 30
0.0
 10
82.562492
 20
185.609163
 30
0.0
 10
82.859478
 20
185.544216
 30
0.0
 10
82.920605
 20
185.625525
 30
0.0
 10
82.994126
 20
185.706542
 30
0.0
 10
83.319849
 20
185.636921
 30
0.0
 10
83.578030
 20
185.659084
 30
0.0
 10
83.765085
 20
185.675142
 30
0.0
 11
82.171323
 21
185.573542
 31
0.0
 11
82.691082
 21
185.575674
 31
0.0
 11
82.889108
 21
185.589095
 31
0.0
 11
82.920623
 21
185.624342
 31
0.0
 11
82.955662
 21
185.659637
 31
0.0
 11
83.178360
 21
185.673034
 31
0.0
 11
83.765085
 21
185.675142
 31
0.0
  0
LINE
  5
209
100
AcDbEntity
  8
Layer_1
 62
7
100
AcDbLine
 10
87.662693
 20
180.086024
 30
0.0
 11
87.662695
 21
180.086024
 31
0.0
  0
LINE
  5
20a
100
AcDbEntity
  8
Layer_1
 62
7
100
AcDbLine
 10
80.398823
 20
180.932544
 30
0.0
 11
80.812426
 21
181.346149
 31
0.0
  0
LINE
  5
20b
100
AcDbEntity
  8
Layer_1
 62
7
100
AcDbLine
 10
80.812426
 20
181.346149
 30
0.0
 11
80.812426
 21
184.443778
 31
0.0
  0
LINE
  5
20c
100
AcDbEntity
  8
Layer_1
 62
7
100
AcDbLine
 10
80.812426
 20
184.443778
 30
0.0
 11
80.812426
 21
187.541407
 31
0.0
  0
LINE
  5
20d
100
AcDbEntity
  8
Layer_1
 62
7
100
AcDbLine
 10
80.812426
 20
187.541407
 30
0.0
 11
81.174048
 21
187.903673
 31
0.0
  0
LINE
  5
20e
100
AcDbEntity
  8
Layer_1
 62
7
100
AcDbLine
 10
81.174048
 20
187.903673
 30
0.0
 11
81.535668
 21
188.265942
 31
0.0
  0
LINE
  5
20f
100
AcDbEntity
  8
Layer_1
 62
7
100
AcDbLine
 10
81.535668
 20
188.265942
 30
0.0
 11
82.228148
 21
188.265942
 31
0.0
  0
LINE
  5
210
100
AcDbEntity
  8
Layer_1
 62
7
100
AcDbLine
 10
82.228148
 20
188.265942
 30
0.0
 11
82.920626
 21
188.265942
 31
0.0
  0
LINE
  5
211
100
AcDbEntity
  8
Layer_1
 62
7
100
AcDbLine
 10
82.920626
 20
188.265942
 30
0.0
 11
82.920626
 21
188.970154
 31
0.0
  0
LINE
  5
212
100
AcDbEntity
  8
Layer_1
 62
7
100
AcDbLine
 10
82.920626
 20
188.970154
 30
0.0
 11
82.920626
 21
189.674366
 31
0.0
  0
LINE
  5
213
100
AcDbEntity
  8
Layer_1
 62
7
100
AcDbLine
 10
82.920626
 20
189.674366
 30
0.0
 11
83.091395
 21
189.846454
 31
0.0
  0
LINE
  5
214
100
AcDbEntity
  8
Layer_1
 62
7
100
AcDbLine
 10
83.091395
 20
189.846454
 30
0.0
 11
83.262162
 21
190.018542
 31
0.0
  0
LINE
  5
215
100
AcDbEntity
  8
Layer_1
 62
7
100
AcDbLine
 10
83.262162
 20
190.018542
 30
0.0
 11
84.005795
 21
190.018542
 31
0.0
  0
LINE
  5
216
100
AcDbEntity
  8
Layer_1
 62
7
100
AcDbLine
 10
84.005795
 20
190.018542
 30
0.0
 11
84.749426
 21
190.018542
 31
0.0
  0
LINE
  5
217
100
AcDbEntity
  8
Layer_1
 62
7
100
AcDbLine
 10
84.749426
 20
190.018542
 30
0.0
 11
84.749426
 21
189.704152
 31
0.0
  0
SPLINE
  5
218
100
AcDbEntity
  8
Layer_1
 62
7
100
AcDbSpline
 70
0
 71
3
 72
19
 73
15
 74
13
 40
0.000000
 40
0.000000
 40
0.000000
 40
0.000000
 40
0.332571
 40
0.490432
 40
0.552877
 40
0.683950
 40
0.943511
 40
1.493984
 40
1.973272
 40
2.200146
 40
2.304275
 40
2.486222
 40
2.667626
 40
2.849942
 40
2.849942
 40
2.849942
 40
2.849942
 10
87.289423
 20
182.484292
 30
0.0
 10
87.286473
 20
182.374491
 30
0.0
 10
87.282122
 20
182.212571
 30
0.0
 10
87.292116
 20
182.022295
 30
0.0
 10
87.238497
 20
181.916525
 30
0.0
 10
87.133818
 20
181.800798
 30
0.0
 10
87.152170
 20
181.464808
 30
0.0
 10
87.131002
 20
181.047576
 30
0.0
 10
87.141072
 20
180.625854
 30
0.0
 10
87.139269
 20
180.355385
 30
0.0
 10
87.183728
 20
180.186872
 30
0.0
 10
87.303850
 20
180.073648
 30
0.0
 10
87.488655
 20
180.018636
 30
0.0
 10
87.604583
 20
180.063524
 30
0.0
 10
87.662693
 20
180.086024
 30
0.0
 11
87.289423
 21
182.484292
 31
0.0
 11
87.286649
 21
182.151732
 31
0.0
 11
87.274535
 21
181.994337
 31
0.0
 11
87.247389
 21
181.938102
 31
0.0
 11
87.174523
 21
181.829149
 31
0.0
 11
87.143510
 21
181.571447
 31
0.0
 11
87.137023
 21
181.021012
 31
0.0
 11
87.139764
 21
180.541732
 31
0.0
 11
87.152820
 21
180.315233
 31
0.0
 11
87.183437
 21
180.215708
 31
0.0
 11
87.311435
 21
180.086398
 31
0.0
 11
87.486542
 21
180.039015
 31
0.0
 11
87.662693
 21
180.086024
 31
0.0
  0
LINE
  5
219
100
AcDbEntity
  8
Layer_1
 62
7
100
AcDbLine
 10
85.130431
 20
189.701033
 30
0.0
 11
85.130431
 21
190.018533
 31
0.0
  0
LINE
  5
21a
100
AcDbEntity
  8
Layer_1
 62
7
100
AcDbLine
 10
85.130431
 20
190.018533
 30
0.0
 11
90.799954
 21
190.018533
 31
0.0
  0
LINE
  5
21b
100
AcDbEntity
  8
Layer_1
 62
7
100
AcDbLine
 10
90.799954
 20
190.018533
 30
0.0
 11
96.469482
 21
190.018533
 31
0.0
  0
LINE
  5
21c
100
AcDbEntity
  8
Layer_1
 62
7
100
AcDbLine
 10
96.469482
 20
190.018533
 30
0.0
 11
96.853355
 21
189.637533
 31
0.0
  0
LINE
  5
21d
100
AcDbEntity
  8
Layer_1
 62
7
100
AcDbLine
 10
96.853355
 20
189.637533
 30
0.0
 11
97.237228
 21
189.256533
 31
0.0
  0
LINE
  5
21e
100
AcDbEntity
  8
Layer_1
 62
7
100
AcDbLine
 10
97.237228
 20
189.256533
 30
0.0
 11
97.973312
 21
189.256533
 31
0.0
  0
LINE
  5
21f
100
AcDbEntity
  8
Layer_1
 62
7
100
AcDbLine
 10
97.973312
 20
189.256533
 30
0.0
 11
98.709395
 21
189.256533
 31
0.0
  0
LINE
  5
220
100
AcDbEntity
  8
Layer_1
 62
7
100
AcDbLine
 10
98.709395
 20
189.256533
 30
0.0
 11
98.755508
 21
189.128305
 31
0.0
  0
SPLINE
  5
221
100
AcDbEntity
  8
Layer_1
 62
7
100
AcDbSpline
 70
0
 71
3
 72
31
 73
27
 74
25
 40
0.000000
 40
0.000000
 40
0.000000
 40
0.000000
 40
0.197204
 40
0.302696
 40
0.354350
 40
0.483727
 40
0.733168
 40
1.286828
 40
1.775159
 40
2.005504
 40
2.110237
 40
2.343109
 40
2.571018
 40
2.800874
 40
2.901803
 40
3.132046
 40
3.653573
 40
4.173073
 40
4.404032
 40
4.504481
 40
4.555111
 40
4.595448
 40
4.618321
 40
4.659093
 40
4.768366
 40
4.938620
 40
4.938620
 40
4.938620
 40
4.938620
 10
84.749426
 20
189.704152
 30
0.0
 10
84.747983
 20
189.639054
 30
0.0
 10
84.745769
 20
189.539132
 30
0.0
 10
84.746396
 20
189.416962
 30
0.0
 10
84.697442
 20
189.333412
 30
0.0
 10
84.592663
 20
189.227668
 30
0.0
 10
84.611913
 20
188.892271
 30
0.0
 10
84.590953
 20
188.476006
 30
0.0
 10
84.601152
 20
188.048636
 30
0.0
 10
84.599152
 20
187.773682
 30
0.0
 10
84.647806
 20
187.587336
 30
0.0
 10
84.811264
 20
187.456257
 30
0.0
 10
85.053747
 20
187.446205
 30
0.0
 10
85.223740
 20
187.565396
 30
0.0
 10
85.283466
 20
187.746386
 30
0.0
 10
85.276669
 20
188.033165
 30
0.0
 10
85.286598
 20
188.455518
 30
0.0
 10
85.277169
 20
188.879284
 30
0.0
 10
85.282815
 20
189.163983
 30
0.0
 10
85.244198
 20
189.289023
 30
0.0
 10
85.205195
 20
189.339218
 30
0.0
 10
85.183295
 20
189.371683
 30
0.0
 10
85.147706
 20
189.383389
 30
0.0
 10
85.138280
 20
189.448268
 30
0.0
 10
85.131413
 20
189.548968
 30
0.0
 10
85.130803
 20
189.643472
 30
0.0
 10
85.130431
 20
189.701033
 30
0.0
 11
84.749426
 21
189.704152
 31
0.0
 11
84.746265
 21
189.506973
 31
0.0
 11
84.734267
 21
189.402165
 31
0.0
 11
84.709652
 21
189.356753
 31
0.0
 11
84.633555
 21
189.252123
 31
0.0
 11
84.602776
 21
189.004588
 31
0.0
 11
84.597026
 21
188.450958
 31
0.0
 11
84.599754
 21
187.962635
 31
0.0
 11
84.612797
 21
187.732659
 31
0.0
 11
84.643437
 21
187.632508
 31
0.0
 11
84.820002
 21
187.480673
 31
0.0
 11
85.047749
 21
187.472092
 31
0.0
 11
85.231374
 21
187.610353
 31
0.0
 11
85.266179
 21
187.705091
 31
0.0
 11
85.280104
 21
187.934912
 31
0.0
 11
85.282636
 21
188.456433
 31
0.0
 11
85.280082
 21
188.975926
 31
0.0
 11
85.266344
 21
189.206477
 31
0.0
 11
85.232305
 21
189.300983
 31
0.0
 11
85.203419
 21
189.342564
 31
0.0
 11
85.176077
 21
189.372221
 31
0.0
 11
85.156198
 21
189.383533
 31
0.0
 11
85.142381
 21
189.421893
 31
0.0
 11
85.133543
 21
189.530808
 31
0.0
 11
85.130431
 21
189.701033
 31
0.0
  0
LINE
  5
222
100
AcDbEntity
  8
Layer_1
 62
7
100
AcDbLine
 10
99.472787
 20
188.570733
 30
0.0
 11
99.583031
 21
188.570733
 31
0.0
  0
LINE
  5
223
100
AcDbEntity
  8
Layer_1
 62
7
100
AcDbLine
 10
99.583031
 20
188.570733
 30
0.0
 11
99.583031
 21
189.513807
 31
0.0
  0
LINE
  5
224
100
AcDbEntity
  8
Layer_1
 62
7
100
AcDbLine
 10
99.583031
 20
189.513807
 30
0.0
 11
99.583031
 21
190.456878
 31
0.0
  0
LINE
  5
225
100
AcDbEntity
  8
Layer_1
 62
7
100
AcDbLine
 10
99.583031
 20
190.456878
 30
0.0
 11
99.453051
 21
190.439634
 31
0.0
  0
SPLINE
  5
226
100
AcDbEntity
  8
Layer_1
 62
7
100
AcDbSpline
 70
0
 71
3
 72
10
 73
6
 74
4
 40
0.000000
 40
0.000000
 40
0.000000
 40
0.000000
 40
0.317355
 40
0.655995
 40
0.944995
 40
0.944995
 40
0.944995
 40
0.944995
 10
98.755508
 20
189.128305
 30
0.0
 10
98.807851
 20
189.035943
 30
0.0
 10
98.916047
 20
188.845023
 30
0.0
 10
99.172498
 20
188.639388
 30
0.0
 10
99.378111
 20
188.592379
 30
0.0
 10
99.472787
 20
188.570733
 30
0.0
 11
98.755508
 21
189.128305
 31
0.0
 11
98.928879
 21
188.862492
 31
0.0
 11
99.196241
 21
188.654660
 31
0.0
 11
99.472787
 21
188.570733
 31
0.0
  0
LINE
  5
227
100
AcDbEntity
  8
Layer_1
 62
7
100
AcDbLine
 10
98.720769
 20
189.770880
 30
0.0
 11
98.692073
 21
189.662930
 31
0.0
  0
LINE
  5
228
100
AcDbEntity
  8
Layer_1
 62
7
100
AcDbLine
 10
98.692073
 20
189.662930
 30
0.0
 11
98.040026
 21
189.662930
 31
0.0
  0
LINE
  5
229
100
AcDbEntity
  8
Layer_1
 62
7
100
AcDbLine
 10
98.040026
 20
189.662930
 30
0.0
 11
97.387980
 21
189.662930
 31
0.0
  0
LINE
  5
22a
100
AcDbEntity
  8
Layer_1
 62
7
100
AcDbLine
 10
97.387980
 20
189.662930
 30
0.0
 11
97.004107
 21
190.043930
 31
0.0
  0
LINE
  5
22b
100
AcDbEntity
  8
Layer_1
 62
7
100
AcDbLine
 10
97.004107
 20
190.043930
 30
0.0
 11
96.620237
 21
190.424930
 31
0.0
  0
LINE
  5
22c
100
AcDbEntity
  8
Layer_1
 62
7
100
AcDbLine
 10
96.620237
 20
190.424930
 30
0.0
 11
89.870147
 21
190.424930
 31
0.0
  0
LINE
  5
22d
100
AcDbEntity
  8
Layer_1
 62
7
100
AcDbLine
 10
89.870147
 20
190.424930
 30
0.0
 11
83.120061
 21
190.424930
 31
0.0
  0
LINE
  5
22e
100
AcDbEntity
  8
Layer_1
 62
7
100
AcDbLine
 10
83.120061
 20
190.424930
 30
0.0
 11
82.973599
 21
190.285230
 31
0.0
  0
LINE
  5
22f
100
AcDbEntity
  8
Layer_1
 62
7
100
AcDbLine
 10
82.973599
 20
190.285230
 30
0.0
 11
82.827139
 21
190.145530
 31
0.0
  0
LINE
  5
230
100
AcDbEntity
  8
Layer_1
 62
7
100
AcDbLine
 10
82.827139
 20
190.145530
 30
0.0
 11
82.124584
 21
190.145530
 31
0.0
  0
LINE
  5
231
100
AcDbEntity
  8
Layer_1
 62
7
100
AcDbLine
 10
82.124584
 20
190.145530
 30
0.0
 11
81.422031
 21
190.145530
 31
0.0
  0
LINE
  5
232
100
AcDbEntity
  8
Layer_1
 62
7
100
AcDbLine
 10
81.422031
 20
190.145530
 30
0.0
 11
81.422031
 21
189.441490
 31
0.0
  0
LINE
  5
233
100
AcDbEntity
  8
Layer_1
 62
7
100
AcDbLine
 10
81.422031
 20
189.441490
 30
0.0
 11
81.422031
 21
188.737453
 31
0.0
  0
LINE
  5
234
100
AcDbEntity
  8
Layer_1
 62
7
100
AcDbLine
 10
81.422031
 20
188.737453
 30
0.0
 11
80.926731
 21
188.239895
 31
0.0
  0
LINE
  5
235
100
AcDbEntity
  8
Layer_1
 62
7
100
AcDbLine
 10
80.926731
 20
188.239895
 30
0.0
 11
80.431431
 21
187.742335
 31
0.0
  0
LINE
  5
236
100
AcDbEntity
  8
Layer_1
 62
7
100
AcDbLine
 10
80.431431
 20
187.742335
 30
0.0
 11
80.431431
 21
184.634636
 31
0.0
  0
LINE
  5
237
100
AcDbEntity
  8
Layer_1
 62
7
100
AcDbLine
 10
80.431431
 20
184.634636
 30
0.0
 11
80.431431
 21
181.526938
 31
0.0
  0
LINE
  5
238
100
AcDbEntity
  8
Layer_1
 62
7
100
AcDbLine
 10
80.431431
 20
181.526938
 30
0.0
 11
80.134333
 21
181.226134
 31
0.0
  0
LINE
  5
239
100
AcDbEntity
  8
Layer_1
 62
7
100
AcDbLine
 10
80.134333
 20
181.226134
 30
0.0
 11
79.837235
 21
180.925330
 31
0.0
  0
LINE
  5
23a
100
AcDbEntity
  8
Layer_1
 62
7
100
AcDbLine
 10
79.837235
 20
180.925330
 30
0.0
 11
77.079348
 21
180.925330
 31
0.0
  0
LINE
  5
23b
100
AcDbEntity
  8
Layer_1
 62
7
100
AcDbLine
 10
77.079348
 20
180.925330
 30
0.0
 11
74.321458
 21
180.925330
 31
0.0
  0
LINE
  5
23c
100
AcDbEntity
  8
Layer_1
 62
7
100
AcDbLine
 10
74.321458
 20
180.925330
 30
0.0
 11
74.137946
 21
181.110079
 31
0.0
  0
LINE
  5
23d
100
AcDbEntity
  8
Layer_1
 62
7
100
AcDbLine
 10
74.137946
 20
181.110079
 30
0.0
 11
73.954431
 21
181.294824
 31
0.0
  0
LINE
  5
23e
100
AcDbEntity
  8
Layer_1
 62
7
100
AcDbLine
 10
73.954431
 20
181.294824
 30
0.0
 11
73.954431
 21
181.440279
 31
0.0
  0
LINE
  5
23f
100
AcDbEntity
  8
Layer_1
 62
7
100
AcDbLine
 10
73.954431
 20
181.440279
 30
0.0
 11
73.954431
 21
181.585730
 31
0.0
  0
LINE
  5
240
100
AcDbEntity
  8
Layer_1
 62
7
100
AcDbLine
 10
73.954431
 20
181.585730
 30
0.0
 11
74.068731
 21
181.585730
 31
0.0
  0
LINE
  5
241
100
AcDbEntity
  8
Layer_1
 62
7
100
AcDbLine
 10
74.068731
 20
181.585730
 30
0.0
 11
74.183031
 21
181.585730
 31
0.0
  0
LINE
  5
242
100
AcDbEntity
  8
Layer_1
 62
7
100
AcDbLine
 10
74.183031
 20
181.585730
 30
0.0
 11
74.183031
 21
182.348041
 31
0.0
  0
LINE
  5
243
100
AcDbEntity
  8
Layer_1
 62
7
100
AcDbLine
 10
74.183031
 20
182.348041
 30
0.0
 11
74.183031
 21
183.110348
 31
0.0
  0
LINE
  5
244
100
AcDbEntity
  8
Layer_1
 62
7
100
AcDbLine
 10
74.183031
 20
183.110348
 30
0.0
 11
73.236881
 21
183.103688
 31
0.0
  0
LINE
  5
245
100
AcDbEntity
  8
Layer_1
 62
7
100
AcDbLine
 10
73.236881
 20
183.103688
 30
0.0
 11
72.290731
 21
183.097027
 31
0.0
  0
LINE
  5
246
100
AcDbEntity
  8
Layer_1
 62
7
100
AcDbLine
 10
72.290731
 20
183.097027
 30
0.0
 11
72.283930
 21
182.474942
 31
0.0
  0
LINE
  5
247
100
AcDbEntity
  8
Layer_1
 62
7
100
AcDbLine
 10
72.283930
 20
182.474942
 30
0.0
 11
72.277128
 21
181.852856
 31
0.0
  0
LINE
  5
248
100
AcDbEntity
  8
Layer_1
 62
7
100
AcDbLine
 10
72.277128
 20
181.852856
 30
0.0
 11
72.119577
 21
181.693892
 31
0.0
  0
LINE
  5
249
100
AcDbEntity
  8
Layer_1
 62
7
100
AcDbLine
 10
72.119577
 20
181.693892
 30
0.0
 11
71.962027
 21
181.534927
 31
0.0
  0
LINE
  5
24a
100
AcDbEntity
  8
Layer_1
 62
7
100
AcDbLine
 10
71.962027
 20
181.534927
 30
0.0
 11
71.218343
 21
181.534927
 31
0.0
  0
LINE
  5
24b
100
AcDbEntity
  8
Layer_1
 62
7
100
AcDbLine
 10
71.218343
 20
181.534927
 30
0.0
 11
70.474659
 21
181.534927
 31
0.0
  0
LINE
  5
24c
100
AcDbEntity
  8
Layer_1
 62
7
100
AcDbLine
 10
70.474659
 20
181.534927
 30
0.0
 11
70.474659
 21
181.801627
 31
0.0
  0
LINE
  5
24d
100
AcDbEntity
  8
Layer_1
 62
7
100
AcDbLine
 10
70.474659
 20
181.801627
 30
0.0
 11
70.474659
 21
182.068327
 31
0.0
  0
LINE
  5
24e
100
AcDbEntity
  8
Layer_1
 62
7
100
AcDbLine
 10
70.474659
 20
182.068327
 30
0.0
 11
66.728159
 21
182.068327
 31
0.0
  0
LINE
  5
24f
100
AcDbEntity
  8
Layer_1
 62
7
100
AcDbLine
 10
66.728159
 20
182.068327
 30
0.0
 11
62.981659
 21
182.068327
 31
0.0
  0
LINE
  5
250
100
AcDbEntity
  8
Layer_1
 62
7
100
AcDbLine
 10
62.981659
 20
182.068327
 30
0.0
 11
62.981659
 21
181.319027
 31
0.0
  0
LINE
  5
251
100
AcDbEntity
  8
Layer_1
 62
7
100
AcDbLine
 10
62.981659
 20
181.319027
 30
0.0
 11
62.981659
 21
180.569727
 31
0.0
  0
LINE
  5
252
100
AcDbEntity
  8
Layer_1
 62
7
100
AcDbLine
 10
62.981659
 20
180.569727
 30
0.0
 11
66.727301
 21
180.569727
 31
0.0
  0
LINE
  5
253
100
AcDbEntity
  8
Layer_1
 62
7
100
AcDbLine
 10
66.727301
 20
180.569727
 30
0.0
 11
70.472941
 21
180.569727
 31
0.0
  0
LINE
  5
254
100
AcDbEntity
  8
Layer_1
 62
7
100
AcDbLine
 10
70.472941
 20
180.569727
 30
0.0
 11
70.480166
 21
180.842777
 31
0.0
  0
LINE
  5
255
100
AcDbEntity
  8
Layer_1
 62
7
100
AcDbLine
 10
70.480166
 20
180.842777
 30
0.0
 11
70.487362
 21
181.115827
 31
0.0
  0
LINE
  5
256
100
AcDbEntity
  8
Layer_1
 62
7
100
AcDbLine
 10
70.487362
 20
181.115827
 30
0.0
 11
71.318715
 21
181.128527
 31
0.0
  0
LINE
  5
257
100
AcDbEntity
  8
Layer_1
 62
7
100
AcDbLine
 10
71.318715
 20
181.128527
 30
0.0
 11
72.150066
 21
181.141227
 31
0.0
  0
LINE
  5
258
100
AcDbEntity
  8
Layer_1
 62
7
100
AcDbLine
 10
72.150066
 20
181.141227
 30
0.0
 11
72.373318
 21
181.363477
 31
0.0
  0
LINE
  5
259
100
AcDbEntity
  8
Layer_1
 62
7
100
AcDbLine
 10
72.373318
 20
181.363477
 30
0.0
 11
72.596567
 21
181.585727
 31
0.0
  0
LINE
  5
25a
100
AcDbEntity
  8
Layer_1
 62
7
100
AcDbLine
 10
72.596567
 20
181.585727
 30
0.0
 11
73.072315
 21
181.585727
 31
0.0
  0
LINE
  5
25b
100
AcDbEntity
  8
Layer_1
 62
7
100
AcDbLine
 10
73.072315
 20
181.585727
 30
0.0
 11
73.548062
 21
181.585727
 31
0.0
  0
LINE
  5
25c
100
AcDbEntity
  8
Layer_1
 62
7
100
AcDbLine
 10
73.548062
 20
181.585727
 30
0.0
 11
73.548062
 21
181.364598
 31
0.0
  0
LINE
  5
25d
100
AcDbEntity
  8
Layer_1
 62
7
100
AcDbLine
 10
73.548062
 20
181.364598
 30
0.0
 11
73.548062
 21
181.143468
 31
0.0
  0
LINE
  5
25e
100
AcDbEntity
  8
Layer_1
 62
7
100
AcDbLine
 10
73.548062
 20
181.143468
 30
0.0
 11
73.860333
 21
180.831198
 31
0.0
  0
LINE
  5
25f
100
AcDbEntity
  8
Layer_1
 62
7
100
AcDbLine
 10
73.860333
 20
180.831198
 30
0.0
 11
74.172603
 21
180.518927
 31
0.0
  0
LINE
  5
260
100
AcDbEntity
  8
Layer_1
 62
7
100
AcDbLine
 10
74.172603
 20
180.518927
 30
0.0
 11
77.078930
 21
180.518927
 31
0.0
  0
LINE
  5
261
100
AcDbEntity
  8
Layer_1
 62
7
100
AcDbLine
 10
77.078930
 20
180.518927
 30
0.0
 11
79.985258
 21
180.518927
 31
0.0
  0
LINE
  5
262
100
AcDbEntity
  8
Layer_1
 62
7
100
AcDbLine
 10
79.985258
 20
180.518927
 30
0.0
 11
80.398860
 21
180.932530
 31
0.0
  0
LINE
  5
263
100
AcDbEntity
  8
Layer_1
 62
7
100
AcDbLine
 10
80.398860
 20
180.932530
 30
0.0
 11
80.398823
 21
180.932544
 31
0.0
  0
LINE
  5
264
100
AcDbEntity
  8
Layer_1
 62
7
100
AcDbLine
 10
77.104026
 20
182.347742
 30
0.0
 11
77.104026
 21
183.109742
 31
0.0
  0
LINE
  5
265
100
AcDbEntity
  8
Layer_1
 62
7
100
AcDbLine
 10
77.104026
 20
183.109742
 30
0.0
 11
76.735726
 21
183.109742
 31
0.0
  0
LINE
  5
266
100
AcDbEntity
  8
Layer_1
 62
7
100
AcDbLine
 10
76.735726
 20
183.109742
 30
0.0
 11
76.367426
 21
183.109742
 31
0.0
  0
LINE
  5
267
100
AcDbEntity
  8
Layer_1
 62
7
100
AcDbLine
 10
76.367426
 20
183.109742
 30
0.0
 11
76.367426
 21
183.376442
 31
0.0
  0
LINE
  5
268
100
AcDbEntity
  8
Layer_1
 62
7
100
AcDbLine
 10
76.367426
 20
183.376442
 30
0.0
 11
76.367426
 21
183.643142
 31
0.0
  0
LINE
  5
269
100
AcDbEntity
  8
Layer_1
 62
7
100
AcDbLine
 10
76.367426
 20
183.643142
 30
0.0
 11
77.345326
 21
183.643142
 31
0.0
  0
LINE
  5
26a
100
AcDbEntity
  8
Layer_1
 62
7
100
AcDbLine
 10
77.345326
 20
183.643142
 30
0.0
 11
78.323226
 21
183.643142
 31
0.0
  0
LINE
  5
26b
100
AcDbEntity
  8
Layer_1
 62
7
100
AcDbLine
 10
78.323226
 20
183.643142
 30
0.0
 11
78.323226
 21
183.274842
 31
0.0
  0
LINE
  5
26c
100
AcDbEntity
  8
Layer_1
 62
7
100
AcDbLine
 10
78.323226
 20
183.274842
 30
0.0
 11
78.323226
 21
182.906542
 31
0.0
  0
LINE
  5
26d
100
AcDbEntity
  8
Layer_1
 62
7
100
AcDbLine
 10
78.323226
 20
182.906542
 30
0.0
 11
79.072526
 21
182.906542
 31
0.0
  0
LINE
  5
26e
100
AcDbEntity
  8
Layer_1
 62
7
100
AcDbLine
 10
79.072526
 20
182.906542
 30
0.0
 11
79.821826
 21
182.906542
 31
0.0
  0
LINE
  5
26f
100
AcDbEntity
  8
Layer_1
 62
7
100
AcDbLine
 10
79.821826
 20
182.906542
 30
0.0
 11
79.821826
 21
183.846342
 31
0.0
  0
LINE
  5
270
100
AcDbEntity
  8
Layer_1
 62
7
100
AcDbLine
 10
79.821826
 20
183.846342
 30
0.0
 11
79.821826
 21
184.786142
 31
0.0
  0
LINE
  5
271
100
AcDbEntity
  8
Layer_1
 62
7
100
AcDbLine
 10
79.821826
 20
184.786142
 30
0.0
 11
79.072526
 21
184.786142
 31
0.0
  0
LINE
  5
272
100
AcDbEntity
  8
Layer_1
 62
7
100
AcDbLine
 10
79.072526
 20
184.786142
 30
0.0
 11
78.323226
 21
184.786142
 31
0.0
  0
LINE
  5
273
100
AcDbEntity
  8
Layer_1
 62
7
100
AcDbLine
 10
78.323226
 20
184.786142
 30
0.0
 11
78.323226
 21
184.417842
 31
0.0
  0
LINE
  5
274
100
AcDbEntity
  8
Layer_1
 62
7
100
AcDbLine
 10
78.323226
 20
184.417842
 30
0.0
 11
78.323226
 21
184.049542
 31
0.0
  0
LINE
  5
275
100
AcDbEntity
  8
Layer_1
 62
7
100
AcDbLine
 10
78.323226
 20
184.049542
 30
0.0
 11
77.345326
 21
184.049542
 31
0.0
  0
LINE
  5
276
100
AcDbEntity
  8
Layer_1
 62
7
100
AcDbLine
 10
77.345326
 20
184.049542
 30
0.0
 11
76.367426
 21
184.049542
 31
0.0
  0
LINE
  5
277
100
AcDbEntity
  8
Layer_1
 62
7
100
AcDbLine
 10
76.367426
 20
184.049542
 30
0.0
 11
76.367426
 21
184.417842
 31
0.0
  0
LINE
  5
278
100
AcDbEntity
  8
Layer_1
 62
7
100
AcDbLine
 10
76.367426
 20
184.417842
 30
0.0
 11
76.367426
 21
184.786142
 31
0.0
  0
LINE
  5
279
100
AcDbEntity
  8
Layer_1
 62
7
100
AcDbLine
 10
76.367426
 20
184.786142
 30
0.0
 11
76.469026
 21
184.786142
 31
0.0
  0
LINE
  5
27a
100
AcDbEntity
  8
Layer_1
 62
7
100
AcDbLine
 10
76.469026
 20
184.786142
 30
0.0
 11
76.570626
 21
184.786142
 31
0.0
  0
LINE
  5
27b
100
AcDbEntity
  8
Layer_1
 62
7
100
AcDbLine
 10
76.570626
 20
184.786142
 30
0.0
 11
76.570626
 21
185.586242
 31
0.0
  0
LINE
  5
27c
100
AcDbEntity
  8
Layer_1
 62
7
100
AcDbLine
 10
76.570626
 20
185.586242
 30
0.0
 11
76.570626
 21
186.386342
 31
0.0
  0
LINE
  5
27d
100
AcDbEntity
  8
Layer_1
 62
7
100
AcDbLine
 10
76.570626
 20
186.386342
 30
0.0
 11
76.176926
 21
186.386342
 31
0.0
  0
LINE
  5
27e
100
AcDbEntity
  8
Layer_1
 62
7
100
AcDbLine
 10
76.176926
 20
186.386342
 30
0.0
 11
75.783226
 21
186.386342
 31
0.0
  0
LINE
  5
27f
100
AcDbEntity
  8
Layer_1
 62
7
100
AcDbLine
 10
75.783226
 20
186.386342
 30
0.0
 11
75.783226
 21
185.586242
 31
0.0
  0
LINE
  5
280
100
AcDbEntity
  8
Layer_1
 62
7
100
AcDbLine
 10
75.783226
 20
185.586242
 30
0.0
 11
75.783226
 21
184.786142
 31
0.0
  0
LINE
  5
281
100
AcDbEntity
  8
Layer_1
 62
7
100
AcDbLine
 10
75.783226
 20
184.786142
 30
0.0
 11
75.872126
 21
184.786142
 31
0.0
  0
LINE
  5
282
100
AcDbEntity
  8
Layer_1
 62
7
100
AcDbLine
 10
75.872126
 20
184.786142
 30
0.0
 11
75.961026
 21
184.786142
 31
0.0
  0
LINE
  5
283
100
AcDbEntity
  8
Layer_1
 62
7
100
AcDbLine
 10
75.961026
 20
184.786142
 30
0.0
 11
75.961026
 21
184.417842
 31
0.0
  0
LINE
  5
284
100
AcDbEntity
  8
Layer_1
 62
7
100
AcDbLine
 10
75.961026
 20
184.417842
 30
0.0
 11
75.961026
 21
184.049542
 31
0.0
  0
LINE
  5
285
100
AcDbEntity
  8
Layer_1
 62
7
100
AcDbLine
 10
75.961026
 20
184.049542
 30
0.0
 11
73.217826
 21
184.049542
 31
0.0
  0
LINE
  5
286
100
AcDbEntity
  8
Layer_1
 62
7
100
AcDbLine
 10
73.217826
 20
184.049542
 30
0.0
 11
70.474626
 21
184.049542
 31
0.0
  0
LINE
  5
287
100
AcDbEntity
  8
Layer_1
 62
7
100
AcDbLine
 10
70.474626
 20
184.049542
 30
0.0
 11
70.474626
 21
184.189242
 31
0.0
  0
LINE
  5
288
100
AcDbEntity
  8
Layer_1
 62
7
100
AcDbLine
 10
70.474626
 20
184.189242
 30
0.0
 11
70.474626
 21
184.328942
 31
0.0
  0
LINE
  5
289
100
AcDbEntity
  8
Layer_1
 62
7
100
AcDbLine
 10
70.474626
 20
184.328942
 30
0.0
 11
67.236126
 21
184.328942
 31
0.0
  0
LINE
  5
28a
100
AcDbEntity
  8
Layer_1
 62
7
100
AcDbLine
 10
67.236126
 20
184.328942
 30
0.0
 11
63.997626
 21
184.328942
 31
0.0
  0
LINE
  5
28b
100
AcDbEntity
  8
Layer_1
 62
7
100
AcDbLine
 10
63.997626
 20
184.328942
 30
0.0
 11
63.997626
 21
183.833642
 31
0.0
  0
LINE
  5
28c
100
AcDbEntity
  8
Layer_1
 62
7
100
AcDbLine
 10
63.997626
 20
183.833642
 30
0.0
 11
63.997626
 21
183.338342
 31
0.0
  0
LINE
  5
28d
100
AcDbEntity
  8
Layer_1
 62
7
100
AcDbLine
 10
63.997626
 20
183.338342
 30
0.0
 11
67.236126
 21
183.338342
 31
0.0
  0
LINE
  5
28e
100
AcDbEntity
  8
Layer_1
 62
7
100
AcDbLine
 10
67.236126
 20
183.338342
 30
0.0
 11
70.474626
 21
183.338342
 31
0.0
  0
LINE
  5
28f
100
AcDbEntity
  8
Layer_1
 62
7
100
AcDbLine
 10
70.474626
 20
183.338342
 30
0.0
 11
70.474626
 21
183.490742
 31
0.0
  0
LINE
  5
290
100
AcDbEntity
  8
Layer_1
 62
7
100
AcDbLine
 10
70.474626
 20
183.490742
 30
0.0
 11
70.474626
 21
183.643142
 31
0.0
  0
LINE
  5
291
100
AcDbEntity
  8
Layer_1
 62
7
100
AcDbLine
 10
70.474626
 20
183.643142
 30
0.0
 11
73.217826
 21
183.643142
 31
0.0
  0
LINE
  5
292
100
AcDbEntity
  8
Layer_1
 62
7
100
AcDbLine
 10
73.217826
 20
183.643142
 30
0.0
 11
75.961026
 21
183.643142
 31
0.0
  0
LINE
  5
293
100
AcDbEntity
  8
Layer_1
 62
7
100
AcDbLine
 10
75.961026
 20
183.643142
 30
0.0
 11
75.961026
 21
183.376442
 31
0.0
  0
LINE
  5
294
100
AcDbEntity
  8
Layer_1
 62
7
100
AcDbLine
 10
75.961026
 20
183.376442
 30
0.0
 11
75.961026
 21
183.109742
 31
0.0
  0
LINE
  5
295
100
AcDbEntity
  8
Layer_1
 62
7
100
AcDbLine
 10
75.961026
 20
183.109742
 30
0.0
 11
75.592726
 21
183.109742
 31
0.0
  0
LINE
  5
296
100
AcDbEntity
  8
Layer_1
 62
7
100
AcDbLine
 10
75.592726
 20
183.109742
 30
0.0
 11
75.224426
 21
183.109742
 31
0.0
  0
LINE
  5
297
100
AcDbEntity
  8
Layer_1
 62
7
100
AcDbLine
 10
75.224426
 20
183.109742
 30
0.0
 11
75.224426
 21
182.347742
 31
0.0
  0
LINE
  5
298
100
AcDbEntity
  8
Layer_1
 62
7
100
AcDbLine
 10
75.224426
 20
182.347742
 30
0.0
 11
75.224426
 21
181.585742
 31
0.0
  0
LINE
  5
299
100
AcDbEntity
  8
Layer_1
 62
7
100
AcDbLine
 10
75.224426
 20
181.585742
 30
0.0
 11
76.164226
 21
181.585742
 31
0.0
  0
LINE
  5
29a
100
AcDbEntity
  8
Layer_1
 62
7
100
AcDbLine
 10
76.164226
 20
181.585742
 30
0.0
 11
77.104026
 21
181.585742
 31
0.0
  0
LINE
  5
29b
100
AcDbEntity
  8
Layer_1
 62
7
100
AcDbLine
 10
77.104026
 20
181.585742
 30
0.0
 11
77.104026
 21
182.347742
 31
0.0
  0
LINE
  5
29c
100
AcDbEntity
  8
Layer_1
 62
7
100
AcDbLine
 10
77.104026
 20
182.347742
 30
0.0
 11
77.104026
 21
182.347742
 31
0.0
  0
LINE
  5
29d
100
AcDbEntity
  8
Layer_1
 62
7
100
AcDbLine
 10
103.596226
 20
182.474742
 30
0.0
 11
103.596226
 21
183.211342
 31
0.0
  0
LINE
  5
29e
100
AcDbEntity
  8
Layer_1
 62
7
100
AcDbLine
 10
103.596226
 20
183.211342
 30
0.0
 11
103.227926
 21
183.211342
 31
0.0
  0
LINE
  5
29f
100
AcDbEntity
  8
Layer_1
 62
7
100
AcDbLine
 10
103.227926
 20
183.211342
 30
0.0
 11
102.859626
 21
183.211342
 31
0.0
  0
LINE
  5
2a0
100
AcDbEntity
  8
Layer_1
 62
7
100
AcDbLine
 10
102.859626
 20
183.211342
 30
0.0
 11
102.859626
 21
183.782842
 31
0.0
  0
LINE
  5
2a1
100
AcDbEntity
  8
Layer_1
 62
7
100
AcDbLine
 10
102.859626
 20
183.782842
 30
0.0
 11
102.859626
 21
184.354342
 31
0.0
  0
LINE
  5
2a2
100
AcDbEntity
  8
Layer_1
 62
7
100
AcDbLine
 10
102.859626
 20
184.354342
 30
0.0
 11
103.227926
 21
184.354342
 31
0.0
  0
LINE
  5
2a3
100
AcDbEntity
  8
Layer_1
 62
7
100
AcDbLine
 10
103.227926
 20
184.354342
 30
0.0
 11
103.596226
 21
184.354342
 31
0.0
  0
LINE
  5
2a4
100
AcDbEntity
  8
Layer_1
 62
7
100
AcDbLine
 10
103.596226
 20
184.354342
 30
0.0
 11
103.596226
 21
185.103642
 31
0.0
  0
LINE
  5
2a5
100
AcDbEntity
  8
Layer_1
 62
7
100
AcDbLine
 10
103.596226
 20
185.103642
 30
0.0
 11
103.596226
 21
185.852942
 31
0.0
  0
LINE
  5
2a6
100
AcDbEntity
  8
Layer_1
 62
7
100
AcDbLine
 10
103.596226
 20
185.852942
 30
0.0
 11
102.656426
 21
185.852942
 31
0.0
  0
LINE
  5
2a7
100
AcDbEntity
  8
Layer_1
 62
7
100
AcDbLine
 10
102.656426
 20
185.852942
 30
0.0
 11
101.716626
 21
185.852942
 31
0.0
  0
LINE
  5
2a8
100
AcDbEntity
  8
Layer_1
 62
7
100
AcDbLine
 10
101.716626
 20
185.852942
 30
0.0
 11
101.716626
 21
185.103642
 31
0.0
  0
LINE
  5
2a9
100
AcDbEntity
  8
Layer_1
 62
7
100
AcDbLine
 10
101.716626
 20
185.103642
 30
0.0
 11
101.716626
 21
184.354342
 31
0.0
  0
LINE
  5
2aa
100
AcDbEntity
  8
Layer_1
 62
7
100
AcDbLine
 10
101.716626
 20
184.354342
 30
0.0
 11
102.084926
 21
184.354342
 31
0.0
  0
LINE
  5
2ab
100
AcDbEntity
  8
Layer_1
 62
7
100
AcDbLine
 10
102.084926
 20
184.354342
 30
0.0
 11
102.453226
 21
184.354342
 31
0.0
  0
LINE
  5
2ac
100
AcDbEntity
  8
Layer_1
 62
7
100
AcDbLine
 10
102.453226
 20
184.354342
 30
0.0
 11
102.453226
 21
183.782842
 31
0.0
  0
LINE
  5
2ad
100
AcDbEntity
  8
Layer_1
 62
7
100
AcDbLine
 10
102.453226
 20
183.782842
 30
0.0
 11
102.453226
 21
183.211342
 31
0.0
  0
LINE
  5
2ae
100
AcDbEntity
  8
Layer_1
 62
7
100
AcDbLine
 10
102.453226
 20
183.211342
 30
0.0
 11
102.084926
 21
183.211342
 31
0.0
  0
LINE
  5
2af
100
AcDbEntity
  8
Layer_1
 62
7
100
AcDbLine
 10
102.084926
 20
183.211342
 30
0.0
 11
101.716626
 21
183.211342
 31
0.0
  0
LINE
  5
2b0
100
AcDbEntity
  8
Layer_1
 62
7
100
AcDbLine
 10
101.716626
 20
183.211342
 30
0.0
 11
101.716626
 21
182.474742
 31
0.0
  0
LINE
  5
2b1
100
AcDbEntity
  8
Layer_1
 62
7
100
AcDbLine
 10
101.716626
 20
182.474742
 30
0.0
 11
101.716626
 21
181.738142
 31
0.0
  0
LINE
  5
2b2
100
AcDbEntity
  8
Layer_1
 62
7
100
AcDbLine
 10
101.716626
 20
181.738142
 30
0.0
 11
102.656426
 21
181.738142
 31
0.0
  0
LINE
  5
2b3
100
AcDbEntity
  8
Layer_1
 62
7
100
AcDbLine
 10
102.656426
 20
181.738142
 30
0.0
 11
103.596226
 21
181.738142
 31
0.0
  0
LINE
  5
2b4
100
AcDbEntity
  8
Layer_1
 62
7
100
AcDbLine
 10
103.596226
 20
181.738142
 30
0.0
 11
103.596226
 21
182.474742
 31
0.0
  0
LINE
  5
2b5
100
AcDbEntity
  8
Layer_1
 62
7
100
AcDbLine
 10
103.596226
 20
182.474742
 30
0.0
 11
103.596226
 21
182.474742
 31
0.0
  0
LINE
  5
2b6
100
AcDbEntity
  8
Layer_1
 62
7
100
AcDbLine
 10
106.415626
 20
182.474177
 30
0.0
 11
106.415626
 21
183.210097
 31
0.0
  0
LINE
  5
2b7
100
AcDbEntity
  8
Layer_1
 62
7
100
AcDbLine
 10
106.415626
 20
183.210097
 30
0.0
 11
106.040976
 21
183.217124
 31
0.0
  0
LINE
  5
2b8
100
AcDbEntity
  8
Layer_1
 62
7
100
AcDbLine
 10
106.040976
 20
183.217124
 30
0.0
 11
105.666326
 21
183.224152
 31
0.0
  0
LINE
  5
2b9
100
AcDbEntity
  8
Layer_1
 62
7
100
AcDbLine
 10
105.666326
 20
183.224152
 30
0.0
 11
105.666326
 21
183.782952
 31
0.0
  0
LINE
  5
2ba
100
AcDbEntity
  8
Layer_1
 62
7
100
AcDbLine
 10
105.666326
 20
183.782952
 30
0.0
 11
105.666326
 21
184.341752
 31
0.0
  0
LINE
  5
2bb
100
AcDbEntity
  8
Layer_1
 62
7
100
AcDbLine
 10
105.666326
 20
184.341752
 30
0.0
 11
106.040976
 21
184.348779
 31
0.0
  0
LINE
  5
2bc
100
AcDbEntity
  8
Layer_1
 62
7
100
AcDbLine
 10
106.040976
 20
184.348779
 30
0.0
 11
106.415626
 21
184.355806
 31
0.0
  0
LINE
  5
2bd
100
AcDbEntity
  8
Layer_1
 62
7
100
AcDbLine
 10
106.415626
 20
184.355806
 30
0.0
 11
106.415626
 21
185.104426
 31
0.0
  0
LINE
  5
2be
100
AcDbEntity
  8
Layer_1
 62
7
100
AcDbLine
 10
106.415626
 20
185.104426
 30
0.0
 11
106.415626
 21
185.853046
 31
0.0
  0
LINE
  5
2bf
100
AcDbEntity
  8
Layer_1
 62
7
100
AcDbLine
 10
106.415626
 20
185.853046
 30
0.0
 11
105.463126
 21
185.853046
 31
0.0
  0
LINE
  5
2c0
100
AcDbEntity
  8
Layer_1
 62
7
100
AcDbLine
 10
105.463126
 20
185.853046
 30
0.0
 11
104.510626
 21
185.853046
 31
0.0
  0
LINE
  5
2c1
100
AcDbEntity
  8
Layer_1
 62
7
100
AcDbLine
 10
104.510626
 20
185.853046
 30
0.0
 11
104.510626
 21
185.104426
 31
0.0
  0
LINE
  5
2c2
100
AcDbEntity
  8
Layer_1
 62
7
100
AcDbLine
 10
104.510626
 20
185.104426
 30
0.0
 11
104.510626
 21
184.355806
 31
0.0
  0
LINE
  5
2c3
100
AcDbEntity
  8
Layer_1
 62
7
100
AcDbLine
 10
104.510626
 20
184.355806
 30
0.0
 11
104.885276
 21
184.348779
 31
0.0
  0
LINE
  5
2c4
100
AcDbEntity
  8
Layer_1
 62
7
100
AcDbLine
 10
104.885276
 20
184.348779
 30
0.0
 11
105.259926
 21
184.341752
 31
0.0
  0
LINE
  5
2c5
100
AcDbEntity
  8
Layer_1
 62
7
100
AcDbLine
 10
105.259926
 20
184.341752
 30
0.0
 11
105.259926
 21
183.782952
 31
0.0
  0
LINE
  5
2c6
100
AcDbEntity
  8
Layer_1
 62
7
100
AcDbLine
 10
105.259926
 20
183.782952
 30
0.0
 11
105.259926
 21
183.224152
 31
0.0
  0
LINE
  5
2c7
100
AcDbEntity
  8
Layer_1
 62
7
100
AcDbLine
 10
105.259926
 20
183.224152
 30
0.0
 11
104.885276
 21
183.217124
 31
0.0
  0
LINE
  5
2c8
100
AcDbEntity
  8
Layer_1
 62
7
100
AcDbLine
 10
104.885276
 20
183.217124
 30
0.0
 11
104.510626
 21
183.210097
 31
0.0
  0
LINE
  5
2c9
100
AcDbEntity
  8
Layer_1
 62
7
100
AcDbLine
 10
104.510626
 20
183.210097
 30
0.0
 11
104.510626
 21
182.474177
 31
0.0
  0
LINE
  5
2ca
100
AcDbEntity
  8
Layer_1
 62
7
100
AcDbLine
 10
104.510626
 20
182.474177
 30
0.0
 11
104.510626
 21
181.738254
 31
0.0
  0
LINE
  5
2cb
100
AcDbEntity
  8
Layer_1
 62
7
100
AcDbLine
 10
104.510626
 20
181.738254
 30
0.0
 11
105.463126
 21
181.738254
 31
0.0
  0
LINE
  5
2cc
100
AcDbEntity
  8
Layer_1
 62
7
100
AcDbLine
 10
105.463126
 20
181.738254
 30
0.0
 11
106.415626
 21
181.738254
 31
0.0
  0
LINE
  5
2cd
100
AcDbEntity
  8
Layer_1
 62
7
100
AcDbLine
 10
106.415626
 20
181.738254
 30
0.0
 11
106.415626
 21
182.474177
 31
0.0
  0
LINE
  5
2ce
100
AcDbEntity
  8
Layer_1
 62
7
100
AcDbLine
 10
106.415626
 20
182.474177
 30
0.0
 11
106.415626
 21
182.474177
 31
0.0
  0
LINE
  5
2cf
100
AcDbEntity
  8
Layer_1
 62
7
100
AcDbLine
 10
100.235430
 20
183.775656
 30
0.0
 11
100.675226
 21
184.212855
 31
0.0
  0
LINE
  5
2d0
100
AcDbEntity
  8
Layer_1
 62
7
100
AcDbLine
 10
100.675226
 20
184.212855
 30
0.0
 11
100.675226
 21
185.076720
 31
0.0
  0
LINE
  5
2d1
100
AcDbEntity
  8
Layer_1
 62
7
100
AcDbLine
 10
100.675226
 20
185.076720
 30
0.0
 11
100.675226
 21
185.940588
 31
0.0
  0
LINE
  5
2d2
100
AcDbEntity
  8
Layer_1
 62
7
100
AcDbLine
 10
100.675226
 20
185.940588
 30
0.0
 11
100.833242
 21
186.100021
 31
0.0
  0
LINE
  5
2d3
100
AcDbEntity
  8
Layer_1
 62
7
100
AcDbLine
 10
100.833242
 20
186.100021
 30
0.0
 11
100.991258
 21
186.259454
 31
0.0
  0
LINE
  5
2d4
100
AcDbEntity
  8
Layer_1
 62
7
100
AcDbLine
 10
100.991258
 20
186.259454
 30
0.0
 11
102.907950
 21
186.259454
 31
0.0
  0
LINE
  5
2d5
100
AcDbEntity
  8
Layer_1
 62
7
100
AcDbLine
 10
102.907950
 20
186.259454
 30
0.0
 11
104.824646
 21
186.259454
 31
0.0
  0
LINE
  5
2d6
100
AcDbEntity
  8
Layer_1
 62
7
100
AcDbLine
 10
104.824646
 20
186.259454
 30
0.0
 11
105.239134
 21
186.671200
 31
0.0
  0
LINE
  5
2d7
100
AcDbEntity
  8
Layer_1
 62
7
100
AcDbLine
 10
105.239134
 20
186.671200
 30
0.0
 11
105.653626
 21
187.082948
 31
0.0
  0
LINE
  5
2d8
100
AcDbEntity
  8
Layer_1
 62
7
100
AcDbLine
 10
105.653626
 20
187.082948
 30
0.0
 11
105.653626
 21
187.268100
 31
0.0
  0
LINE
  5
2d9
100
AcDbEntity
  8
Layer_1
 62
7
100
AcDbLine
 10
105.653626
 20
187.268100
 30
0.0
 11
105.653626
 21
187.453254
 31
0.0
  0
LINE
  5
2da
100
AcDbEntity
  8
Layer_1
 62
7
100
AcDbLine
 10
105.653626
 20
187.453254
 30
0.0
 11
106.034626
 21
187.453254
 31
0.0
  0
LINE
  5
2db
100
AcDbEntity
  8
Layer_1
 62
7
100
AcDbLine
 10
106.034626
 20
187.453254
 30
0.0
 11
106.415626
 21
187.453254
 31
0.0
  0
LINE
  5
2dc
100
AcDbEntity
  8
Layer_1
 62
7
100
AcDbLine
 10
106.415626
 20
187.453254
 30
0.0
 11
106.415626
 21
188.202554
 31
0.0
  0
LINE
  5
2dd
100
AcDbEntity
  8
Layer_1
 62
7
100
AcDbLine
 10
106.415626
 20
188.202554
 30
0.0
 11
106.415626
 21
188.951854
 31
0.0
  0
LINE
  5
2de
100
AcDbEntity
  8
Layer_1
 62
7
100
AcDbLine
 10
106.415626
 20
188.951854
 30
0.0
 11
105.463126
 21
188.951854
 31
0.0
  0
LINE
  5
2df
100
AcDbEntity
  8
Layer_1
 62
7
100
AcDbLine
 10
105.463126
 20
188.951854
 30
0.0
 11
104.510626
 21
188.951854
 31
0.0
  0
LINE
  5
2e0
100
AcDbEntity
  8
Layer_1
 62
7
100
AcDbLine
 10
104.510626
 20
188.951854
 30
0.0
 11
104.510626
 21
188.202554
 31
0.0
  0
LINE
  5
2e1
100
AcDbEntity
  8
Layer_1
 62
7
100
AcDbLine
 10
104.510626
 20
188.202554
 30
0.0
 11
104.510626
 21
187.453254
 31
0.0
  0
LINE
  5
2e2
100
AcDbEntity
  8
Layer_1
 62
7
100
AcDbLine
 10
104.510626
 20
187.453254
 30
0.0
 11
104.891626
 21
187.453254
 31
0.0
  0
LINE
  5
2e3
100
AcDbEntity
  8
Layer_1
 62
7
100
AcDbLine
 10
104.891626
 20
187.453254
 30
0.0
 11
105.272626
 21
187.453254
 31
0.0
  0
LINE
  5
2e4
100
AcDbEntity
  8
Layer_1
 62
7
100
AcDbLine
 10
105.272626
 20
187.453254
 30
0.0
 11
105.272626
 21
187.358385
 31
0.0
  0
SPLINE
  5
2e5
100
AcDbEntity
  8
Layer_1
 62
7
100
AcDbSpline
 70
0
 71
3
 72
10
 73
6
 74
4
 40
0.000000
 40
0.000000
 40
0.000000
 40
0.000000
 40
0.341662
 40
0.687266
 40
1.043710
 40
1.043710
 40
1.043710
 40
1.043710
 10
99.453051
 20
190.439634
 30
0.0
 10
99.341904
 20
190.409873
 30
0.0
 10
99.118328
 20
190.350007
 30
0.0
 10
98.850486
 20
190.101892
 30
0.0
 10
98.764451
 20
189.882348
 30
0.0
 10
98.720769
 20
189.770880
 30
0.0
 11
99.453051
 21
190.439634
 31
0.0
 11
99.131277
 21
190.324768
 31
0.0
 11
98.876079
 21
190.091710
 31
0.0
 11
98.720769
 21
189.770880
 31
0.0
  0
LINE
  5
2e6
100
AcDbEntity
  8
Layer_1
 62
7
100
AcDbLine
 10
104.974571
 20
186.964685
 30
0.0
 11
104.676521
 21
186.665854
 31
0.0
  0
LINE
  5
2e7
100
AcDbEntity
  8
Layer_1
 62
7
100
AcDbLine
 10
104.676521
 20
186.665854
 30
0.0
 11
102.760978
 21
186.665854
 31
0.0
  0
LINE
  5
2e8
100
AcDbEntity
  8
Layer_1
 62
7
100
AcDbLine
 10
102.760978
 20
186.665854
 30
0.0
 11
100.845434
 21
186.665854
 31
0.0
  0
LINE
  5
2e9
100
AcDbEntity
  8
Layer_1
 62
7
100
AcDbLine
 10
100.845434
 20
186.665854
 30
0.0
 11
100.569830
 21
186.394269
 31
0.0
  0
LINE
  5
2ea
100
AcDbEntity
  8
Layer_1
 62
7
100
AcDbLine
 10
100.569830
 20
186.394269
 30
0.0
 11
100.294226
 21
186.122681
 31
0.0
  0
LINE
  5
2eb
100
AcDbEntity
  8
Layer_1
 62
7
100
AcDbLine
 10
100.294226
 20
186.122681
 30
0.0
 11
100.294226
 21
185.270635
 31
0.0
  0
LINE
  5
2ec
100
AcDbEntity
  8
Layer_1
 62
7
100
AcDbLine
 10
100.294226
 20
185.270635
 30
0.0
 11
100.294226
 21
184.418589
 31
0.0
  0
LINE
  5
2ed
100
AcDbEntity
  8
Layer_1
 62
7
100
AcDbLine
 10
100.294226
 20
184.418589
 30
0.0
 11
99.932603
 21
184.056323
 31
0.0
  0
LINE
  5
2ee
100
AcDbEntity
  8
Layer_1
 62
7
100
AcDbLine
 10
99.932603
 20
184.056323
 30
0.0
 11
99.570983
 21
183.694054
 31
0.0
  0
LINE
  5
2ef
100
AcDbEntity
  8
Layer_1
 62
7
100
AcDbLine
 10
99.570983
 20
183.694054
 30
0.0
 11
97.549662
 21
183.694054
 31
0.0
  0
LINE
  5
2f0
100
AcDbEntity
  8
Layer_1
 62
7
100
AcDbLine
 10
97.549662
 20
183.694054
 30
0.0
 11
95.528342
 21
183.694054
 31
0.0
  0
LINE
  5
2f1
100
AcDbEntity
  8
Layer_1
 62
7
100
AcDbLine
 10
95.528342
 20
183.694054
 30
0.0
 11
95.123635
 21
184.105865
 31
0.0
  0
LINE
  5
2f2
100
AcDbEntity
  8
Layer_1
 62
7
100
AcDbLine
 10
95.123635
 20
184.105865
 30
0.0
 11
94.718926
 21
184.517675
 31
0.0
  0
LINE
  5
2f3
100
AcDbEntity
  8
Layer_1
 62
7
100
AcDbLine
 10
94.718926
 20
184.517675
 30
0.0
 11
94.522076
 21
184.527665
 31
0.0
  0
LINE
  5
2f4
100
AcDbEntity
  8
Layer_1
 62
7
100
AcDbLine
 10
94.522076
 20
184.527665
 30
0.0
 11
94.325226
 21
184.537656
 31
0.0
  0
LINE
  5
2f5
100
AcDbEntity
  8
Layer_1
 62
7
100
AcDbLine
 10
94.325226
 20
184.537656
 30
0.0
 11
94.325226
 21
184.954067
 31
0.0
  0
LINE
  5
2f6
100
AcDbEntity
  8
Layer_1
 62
7
100
AcDbLine
 10
94.325226
 20
184.954067
 30
0.0
 11
94.325226
 21
185.370477
 31
0.0
  0
LINE
  5
2f7
100
AcDbEntity
  8
Layer_1
 62
7
100
AcDbLine
 10
94.325226
 20
185.370477
 30
0.0
 11
92.483726
 21
185.370477
 31
0.0
  0
LINE
  5
2f8
100
AcDbEntity
  8
Layer_1
 62
7
100
AcDbLine
 10
92.483726
 20
185.370477
 30
0.0
 11
90.642226
 21
185.370477
 31
0.0
  0
LINE
  5
2f9
100
AcDbEntity
  8
Layer_1
 62
7
100
AcDbLine
 10
90.642226
 20
185.370477
 30
0.0
 11
90.642226
 21
185.154577
 31
0.0
  0
LINE
  5
2fa
100
AcDbEntity
  8
Layer_1
 62
7
100
AcDbLine
 10
90.642226
 20
185.154577
 30
0.0
 11
90.642226
 21
184.938677
 31
0.0
  0
LINE
  5
2fb
100
AcDbEntity
  8
Layer_1
 62
7
100
AcDbLine
 10
90.642226
 20
184.938677
 30
0.0
 11
89.175186
 21
184.938677
 31
0.0
  0
LINE
  5
2fc
100
AcDbEntity
  8
Layer_1
 62
7
100
AcDbLine
 10
89.175186
 20
184.938677
 30
0.0
 11
87.708153
 21
184.938677
 31
0.0
  0
LINE
  5
2fd
100
AcDbEntity
  8
Layer_1
 62
7
100
AcDbLine
 10
87.708153
 20
184.938677
 30
0.0
 11
87.066986
 21
185.580210
 31
0.0
  0
LINE
  5
2fe
100
AcDbEntity
  8
Layer_1
 62
7
100
AcDbLine
 10
87.066986
 20
185.580210
 30
0.0
 11
86.425826
 21
186.221744
 31
0.0
  0
LINE
  5
2ff
100
AcDbEntity
  8
Layer_1
 62
7
100
AcDbLine
 10
86.425826
 20
186.221744
 30
0.0
 11
86.425826
 21
186.864607
 31
0.0
  0
LINE
  5
300
100
AcDbEntity
  8
Layer_1
 62
7
100
AcDbLine
 10
86.425826
 20
186.864607
 30
0.0
 11
86.425826
 21
187.507466
 31
0.0
  0
LINE
  5
301
100
AcDbEntity
  8
Layer_1
 62
7
100
AcDbLine
 10
86.425826
 20
187.507466
 30
0.0
 11
86.495676
 21
187.599031
 31
0.0
  0
LINE
  5
302
100
AcDbEntity
  8
Layer_1
 62
7
100
AcDbLine
 10
86.495676
 20
187.599031
 30
0.0
 11
86.565526
 21
187.690595
 31
0.0
  0
LINE
  5
303
100
AcDbEntity
  8
Layer_1
 62
7
100
AcDbLine
 10
86.565526
 20
187.690595
 30
0.0
 11
86.565526
 21
188.441884
 31
0.0
  0
SPLINE
  5
304
100
AcDbEntity
  8
Layer_1
 62
7
100
AcDbSpline
 70
0
 71
3
 72
10
 73
6
 74
4
 40
0.000000
 40
0.000000
 40
0.000000
 40
0.000000
 40
0.081457
 40
0.218361
 40
0.503904
 40
0.503904
 40
0.503904
 40
0.503904
 10
105.272626
 20
187.358385
 30
0.0
 10
105.269224
 20
187.330886
 30
0.0
 10
105.260105
 20
187.257169
 30
0.0
 10
105.136306
 20
187.131978
 30
0.0
 10
105.039801
 20
187.032157
 30
0.0
 10
104.974571
 20
186.964685
 30
0.0
 11
105.272626
 21
187.358385
 31
0.0
 11
105.256224
 21
187.278597
 31
0.0
 11
105.173589
 21
187.169446
 31
0.0
 11
104.974571
 21
186.964685
 31
0.0
  0
LINE
  5
305
100
AcDbEntity
  8
Layer_1
 62
7
100
AcDbLine
 10
86.019426
 20
186.785680
 30
0.0
 11
86.019426
 21
186.047316
 31
0.0
  0
LINE
  5
306
100
AcDbEntity
  8
Layer_1
 62
7
100
AcDbLine
 10
86.019426
 20
186.047316
 30
0.0
 11
86.736976
 21
185.325036
 31
0.0
  0
SPLINE
  5
307
100
AcDbEntity
  8
Layer_1
 62
7
100
AcDbSpline
 70
0
 71
3
 72
28
 73
24
 74
22
 40
0.000000
 40
0.000000
 40
0.000000
 40
0.000000
 40
0.497995
 40
0.734266
 40
0.838232
 40
0.959087
 40
1.071378
 40
1.198877
 40
1.325847
 40
1.440405
 40
1.565726
 40
1.664624
 40
1.888710
 40
2.385853
 40
2.861806
 40
3.100743
 40
3.211009
 40
3.264206
 40
3.309893
 40
3.339527
 40
3.410149
 40
3.637766
 40
4.094426
 40
4.094426
 40
4.094426
 40
4.094426
 10
86.565526
 20
188.441884
 30
0.0
 10
86.563970
 20
188.607684
 30
0.0
 10
86.561677
 20
188.852147
 30
0.0
 10
86.563858
 20
189.132683
 30
0.0
 10
86.525332
 20
189.283733
 30
0.0
 10
86.453724
 20
189.375147
 30
0.0
 10
86.346426
 20
189.436036
 30
0.0
 10
86.222793
 20
189.448686
 30
0.0
 10
86.098459
 20
189.435669
 30
0.0
 10
85.989379
 20
189.374092
 30
0.0
 10
85.914594
 20
189.285408
 30
0.0
 10
85.866491
 20
189.141530
 30
0.0
 10
85.873004
 20
188.865169
 30
0.0
 10
85.864487
 20
188.468089
 30
0.0
 10
85.869157
 20
188.063001
 30
0.0
 10
85.871985
 20
187.789001
 30
0.0
 10
85.897260
 20
187.654323
 30
0.0
 10
85.933687
 20
187.594758
 30
0.0
 10
85.956093
 20
187.557406
 30
0.0
 10
85.999898
 20
187.531509
 30
0.0
 10
86.013413
 20
187.411421
 30
0.0
 10
86.018839
 20
187.170704
 30
0.0
 10
86.019191
 20
186.939786
 30
0.0
 10
86.019426
 20
186.785680
 30
0.0
 11
86.565526
 21
188.441884
 31
0.0
 11
86.562793
 21
188.939872
 31
0.0
 11
86.550066
 21
189.175800
 31
0.0
 11
86.520548
 21
189.275487
 31
0.0
 11
86.446574
 21
189.371058
 31
0.0
 11
86.348869
 21
189.426404
 31
0.0
 11
86.222626
 21
189.444248
 31
0.0
 11
86.096919
 21
189.426382
 31
0.0
 11
85.996770
 21
189.370761
 31
0.0
 11
85.916708
 21
189.274347
 31
0.0
 11
85.883414
 21
189.181222
 31
0.0
 11
85.869787
 21
188.957551
 31
0.0
 11
85.867121
 21
188.460415
 31
0.0
 11
85.869935
 21
187.984470
 31
0.0
 11
85.882135
 21
187.745845
 31
0.0
 11
85.909127
 21
187.638934
 31
0.0
 11
85.935000
 21
187.592452
 31
0.0
 11
85.962378
 21
187.555877
 31
0.0
 11
85.985327
 21
187.537128
 31
0.0
 11
86.006372
 21
187.469715
 31
0.0
 11
86.016688
 21
187.242332
 31
0.0
 11
86.019426
 21
186.785680
 31
0.0
  0
LINE
  5
308
100
AcDbEntity
  8
Layer_1
 62
7
100
AcDbLine
 10
89.130110
 20
184.532277
 30
0.0
 11
90.642226
 21
184.532277
 31
0.0
  0
LINE
  5
309
100
AcDbEntity
  8
Layer_1
 62
7
100
AcDbLine
 10
90.642226
 20
184.532277
 30
0.0
 11
90.642226
 21
184.316377
 31
0.0
  0
LINE
  5
30a
100
AcDbEntity
  8
Layer_1
 62
7
100
AcDbLine
 10
90.642226
 20
184.316377
 30
0.0
 11
90.642226
 21
184.100477
 31
0.0
  0
LINE
  5
30b
100
AcDbEntity
  8
Layer_1
 62
7
100
AcDbLine
 10
90.642226
 20
184.100477
 30
0.0
 11
92.483726
 21
184.100477
 31
0.0
  0
SPLINE
  5
30c
100
AcDbEntity
  8
Layer_1
 62
7
100
AcDbSpline
 70
0
 71
3
 72
13
 73
9
 74
7
 40
0.000000
 40
0.000000
 40
0.000000
 40
0.000000
 40
0.525142
 40
0.920219
 40
1.101696
 40
1.271892
 40
1.750533
 40
2.697083
 40
2.697083
 40
2.697083
 40
2.697083
 10
86.736976
 20
185.325036
 30
0.0
 10
86.860248
 20
185.199410
 30
0.0
 10
87.076262
 20
184.979273
 30
0.0
 10
87.347698
 20
184.743411
 30
0.0
 10
87.522606
 20
184.545582
 30
0.0
 10
87.814715
 20
184.546581
 30
0.0
 10
88.334425
 20
184.526912
 30
0.0
 10
88.812556
 20
184.530136
 30
0.0
 10
89.130110
 20
184.532277
 30
0.0
 11
86.736976
 21
185.325036
 31
0.0
 11
87.110281
 21
184.955691
 31
0.0
 11
87.397035
 21
184.683920
 31
0.0
 11
87.536260
 21
184.567515
 31
0.0
 11
87.705039
 21
184.545605
 31
0.0
 11
88.183564
 21
184.535026
 31
0.0
 11
89.130110
 21
184.532277
 31
0.0
  0
LINE
  5
30d
100
AcDbEntity
  8
Layer_1
 62
7
100
AcDbLine
 10
94.458296
 20
184.202077
 30
0.0
 11
94.591364
 21
184.202077
 31
0.0
  0
LINE
  5
30e
100
AcDbEntity
  8
Layer_1
 62
7
100
AcDbLine
 10
94.591364
 20
184.202077
 30
0.0
 11
95.004678
 21
183.789327
 31
0.0
  0
LINE
  5
30f
100
AcDbEntity
  8
Layer_1
 62
7
100
AcDbLine
 10
95.004678
 20
183.789327
 30
0.0
 11
95.417990
 21
183.376577
 31
0.0
  0
LINE
  5
310
100
AcDbEntity
  8
Layer_1
 62
7
100
AcDbLine
 10
95.417990
 20
183.376577
 30
0.0
 11
97.532258
 21
183.363595
 31
0.0
  0
SPLINE
  5
311
100
AcDbEntity
  8
Layer_1
 62
7
100
AcDbSpline
 70
0
 71
3
 72
13
 73
9
 74
7
 40
0.000000
 40
0.000000
 40
0.000000
 40
0.000000
 40
1.288346
 40
1.769719
 40
1.849964
 40
1.883969
 40
1.924925
 40
2.011105
 40
2.011105
 40
2.011105
 40
2.011105
 10
92.483726
 20
184.100477
 30
0.0
 10
92.927017
 20
184.109656
 30
0.0
 10
93.535939
 20
184.122265
 30
0.0
 10
94.090554
 20
184.085088
 30
0.0
 10
94.330398
 20
184.129062
 30
0.0
 10
94.327377
 20
184.192295
 30
0.0
 10
94.391143
 20
184.202474
 30
0.0
 10
94.431166
 20
184.202237
 30
0.0
 10
94.458296
 20
184.202077
 30
0.0
 11
92.483726
 21
184.100477
 31
0.0
 11
93.772070
 21
184.102484
 31
0.0
 11
94.253259
 21
184.115780
 31
0.0
 11
94.325226
 21
184.151277
 31
0.0
 11
94.333917
 21
184.184153
 31
0.0
 11
94.372180
 21
184.198759
 31
0.0
 11
94.458296
 21
184.202077
 31
0.0
  0
LINE
  5
312
100
AcDbEntity
  8
Layer_1
 62
7
100
AcDbLine
 10
100.235430
 20
183.775687
 30
0.0
 11
100.235430
 21
183.775656
 31
0.0
  0
LINE
  5
313
100
AcDbEntity
  8
Layer_1
 62
7
100
AcDbLine
 10
99.405226
 20
184.735454
 30
0.0
 11
99.405226
 21
185.370454
 31
0.0
  0
LINE
  5
314
100
AcDbEntity
  8
Layer_1
 62
7
100
AcDbLine
 10
99.405226
 20
185.370454
 30
0.0
 11
97.684048
 21
185.370454
 31
0.0
  0
LINE
  5
315
100
AcDbEntity
  8
Layer_1
 62
7
100
AcDbLine
 10
97.684048
 20
185.370454
 30
0.0
 11
95.962868
 21
185.370454
 31
0.0
  0
LINE
  5
316
100
AcDbEntity
  8
Layer_1
 62
7
100
AcDbLine
 10
95.962868
 20
185.370454
 30
0.0
 11
95.601818
 21
185.732404
 31
0.0
  0
LINE
  5
317
100
AcDbEntity
  8
Layer_1
 62
7
100
AcDbLine
 10
95.601818
 20
185.732404
 30
0.0
 11
95.240763
 21
186.094354
 31
0.0
  0
LINE
  5
318
100
AcDbEntity
  8
Layer_1
 62
7
100
AcDbLine
 10
95.240763
 20
186.094354
 30
0.0
 11
95.233848
 21
187.370614
 31
0.0
  0
LINE
  5
319
100
AcDbEntity
  8
Layer_1
 62
7
100
AcDbLine
 10
95.233848
 20
187.370614
 30
0.0
 11
95.226934
 21
188.646871
 31
0.0
  0
LINE
  5
31a
100
AcDbEntity
  8
Layer_1
 62
7
100
AcDbLine
 10
95.226934
 20
188.646871
 30
0.0
 11
94.852185
 21
189.021614
 31
0.0
  0
LINE
  5
31b
100
AcDbEntity
  8
Layer_1
 62
7
100
AcDbLine
 10
94.852185
 20
189.021614
 30
0.0
 11
94.477434
 21
189.396354
 31
0.0
  0
LINE
  5
31c
100
AcDbEntity
  8
Layer_1
 62
7
100
AcDbLine
 10
94.477434
 20
189.396354
 30
0.0
 11
91.651785
 21
189.413739
 31
0.0
  0
SPLINE
  5
31d
100
AcDbEntity
  8
Layer_1
 62
7
100
AcDbSpline
 70
0
 71
3
 72
13
 73
9
 74
7
 40
0.000000
 40
0.000000
 40
0.000000
 40
0.000000
 40
1.075207
 40
1.861591
 40
2.188913
 40
2.269132
 40
2.461140
 40
2.867378
 40
2.867378
 40
2.867378
 40
2.867378
 10
97.532258
 20
183.363595
 30
0.0
 10
97.890952
 20
183.356587
 30
0.0
 10
98.511989
 20
183.344454
 30
0.0
 10
99.239041
 20
183.378303
 30
0.0
 10
99.640495
 20
183.319305
 30
0.0
 10
99.836384
 20
183.375087
 30
0.0
 10
99.994099
 20
183.548388
 30
0.0
 10
100.137830
 20
183.683762
 30
0.0
 10
100.235430
 20
183.775687
 30
0.0
 11
97.532258
 21
183.363595
 31
0.0
 11
98.607439
 21
183.356222
 31
0.0
 11
99.393793
 21
183.349377
 31
0.0
 11
99.721080
 21
183.344545
 31
0.0
 11
99.797631
 21
183.368525
 31
0.0
 11
99.944780
 21
183.491871
 31
0.0
 11
100.235430
 21
183.775687
 31
0.0
  0
LINE
  5
31e
100
AcDbEntity
  8
Layer_1
 62
7
100
AcDbLine
 10
89.113445
 20
188.347391
 30
0.0
 11
89.121347
 21
189.002632
 31
0.0
  0
LINE
  5
31f
100
AcDbEntity
  8
Layer_1
 62
7
100
AcDbLine
 10
89.121347
 20
189.002632
 30
0.0
 11
91.716504
 21
189.002632
 31
0.0
  0
LINE
  5
320
100
AcDbEntity
  8
Layer_1
 62
7
100
AcDbLine
 10
91.716504
 20
189.002632
 30
0.0
 11
94.311659
 21
189.002632
 31
0.0
  0
LINE
  5
321
100
AcDbEntity
  8
Layer_1
 62
7
100
AcDbLine
 10
94.311659
 20
189.002632
 30
0.0
 11
94.572441
 21
188.742736
 31
0.0
  0
LINE
  5
322
100
AcDbEntity
  8
Layer_1
 62
7
100
AcDbLine
 10
94.572441
 20
188.742736
 30
0.0
 11
94.833226
 21
188.482841
 31
0.0
  0
LINE
  5
323
100
AcDbEntity
  8
Layer_1
 62
7
100
AcDbLine
 10
94.833226
 20
188.482841
 30
0.0
 11
94.833226
 21
187.201286
 31
0.0
  0
LINE
  5
324
100
AcDbEntity
  8
Layer_1
 62
7
100
AcDbLine
 10
94.833226
 20
187.201286
 30
0.0
 11
94.833226
 21
185.919735
 31
0.0
  0
LINE
  5
325
100
AcDbEntity
  8
Layer_1
 62
7
100
AcDbLine
 10
94.833226
 20
185.919735
 30
0.0
 11
95.277726
 21
185.472740
 31
0.0
  0
LINE
  5
326
100
AcDbEntity
  8
Layer_1
 62
7
100
AcDbLine
 10
95.277726
 20
185.472740
 30
0.0
 11
95.722226
 21
185.025743
 31
0.0
  0
LINE
  5
327
100
AcDbEntity
  8
Layer_1
 62
7
100
AcDbLine
 10
95.722226
 20
185.025743
 30
0.0
 11
95.722226
 21
184.580021
 31
0.0
  0
SPLINE
  5
328
100
AcDbEntity
  8
Layer_1
 62
7
100
AcDbSpline
 70
0
 71
3
 72
25
 73
21
 74
19
 40
0.000000
 40
0.000000
 40
0.000000
 40
0.000000
 40
1.436859
 40
2.487516
 40
2.924512
 40
3.036078
 40
3.146550
 40
3.272576
 40
3.378369
 40
3.606702
 40
4.075259
 40
4.543691
 40
4.772519
 40
4.879202
 40
5.073032
 40
5.255686
 40
5.439884
 40
5.598145
 40
5.825885
 40
6.344360
 40
6.344360
 40
6.344360
 40
6.344360
 10
91.651785
 20
189.413739
 30
0.0
 10
91.173221
 20
189.418586
 30
0.0
 10
90.344723
 20
189.426977
 30
0.0
 10
89.366670
 20
189.418405
 30
0.0
 10
88.838058
 20
189.444146
 30
0.0
 10
88.614282
 20
189.427719
 30
0.0
 10
88.516028
 20
189.358287
 30
0.0
 10
88.447457
 20
189.263993
 30
0.0
 10
88.409810
 20
189.113095
 30
0.0
 10
88.410611
 20
188.844620
 30
0.0
 10
88.404845
 20
188.456599
 30
0.0
 10
88.410364
 20
188.068287
 30
0.0
 10
88.410182
 20
187.799560
 30
0.0
 10
88.452377
 20
187.625677
 30
0.0
 10
88.568630
 20
187.500554
 30
0.0
 10
88.754996
 20
187.437208
 30
0.0
 10
88.929277
 20
187.488523
 30
0.0
 10
89.088697
 20
187.612479
 30
0.0
 10
89.107087
 20
187.934778
 30
0.0
 10
89.110838
 20
188.178235
 30
0.0
 10
89.113445
 20
188.347391
 30
0.0
 11
91.651785
 21
189.413739
 31
0.0
 11
90.214956
 21
189.423047
 31
0.0
 11
89.164327
 21
189.430725
 31
0.0
 11
88.727353
 21
189.435104
 31
0.0
 11
88.617120
 21
189.417907
 31
0.0
 11
88.524648
 21
189.357468
 31
0.0
 11
88.451523
 21
189.254826
 31
0.0
 11
88.422610
 21
189.153060
 31
0.0
 11
88.409927
 21
188.925080
 31
0.0
 11
88.407113
 21
188.456532
 31
0.0
 11
88.409937
 21
187.988108
 31
0.0
 11
88.422630
 21
187.759633
 31
0.0
 11
88.451523
 21
187.656937
 31
0.0
 11
88.580478
 21
187.512227
 31
0.0
 11
88.754437
 21
187.456544
 31
0.0
 11
88.932704
 21
187.502914
 31
0.0
 11
89.052449
 21
187.606390
 31
0.0
 11
89.100112
 21
187.829087
 31
0.0
 11
89.113445
 21
188.347391
 31
0.0
  0
LINE
  5
329
100
AcDbEntity
  8
Layer_1
 62
7
100
AcDbLine
 10
97.580659
 20
184.100432
 30
0.0
 11
99.405226
 21
184.100432
 31
0.0
  0
LINE
  5
32a
100
AcDbEntity
  8
Layer_1
 62
7
100
AcDbLine
 10
99.405226
 20
184.100432
 30
0.0
 11
99.405226
 21
184.735432
 31
0.0
  0
LINE
  5
32b
100
AcDbEntity
  8
Layer_1
 62
7
100
AcDbLine
 10
99.405226
 20
184.735432
 30
0.0
 11
99.405226
 21
184.735454
 31
0.0
  0
LINE
  5
32c
100
AcDbEntity
  8
Layer_1
 62
7
100
AcDbLine
 10
73.624226
 20
185.388124
 30
0.0
 11
73.624226
 21
185.989991
 31
0.0
  0
LINE
  5
32d
100
AcDbEntity
  8
Layer_1
 62
7
100
AcDbLine
 10
73.624226
 20
185.989991
 30
0.0
 11
74.150643
 21
186.518591
 31
0.0
  0
LINE
  5
32e
100
AcDbEntity
  8
Layer_1
 62
7
100
AcDbLine
 10
74.150643
 20
186.518591
 30
0.0
 11
74.677061
 21
187.047187
 31
0.0
  0
LINE
  5
32f
100
AcDbEntity
  8
Layer_1
 62
7
100
AcDbLine
 10
74.677061
 20
187.047187
 30
0.0
 11
76.493793
 21
187.040668
 31
0.0
  0
LINE
  5
330
100
AcDbEntity
  8
Layer_1
 62
7
100
AcDbLine
 10
76.493793
 20
187.040668
 30
0.0
 11
78.310526
 21
187.034149
 31
0.0
  0
LINE
  5
331
100
AcDbEntity
  8
Layer_1
 62
7
100
AcDbLine
 10
78.310526
 20
187.034149
 30
0.0
 11
78.317271
 21
186.303899
 31
0.0
  0
LINE
  5
332
100
AcDbEntity
  8
Layer_1
 62
7
100
AcDbLine
 10
78.317271
 20
186.303899
 30
0.0
 11
78.324016
 21
185.573649
 31
0.0
  0
LINE
  5
333
100
AcDbEntity
  8
Layer_1
 62
7
100
AcDbLine
 10
78.324016
 20
185.573649
 30
0.0
 11
79.072926
 21
185.573649
 31
0.0
  0
LINE
  5
334
100
AcDbEntity
  8
Layer_1
 62
7
100
AcDbLine
 10
79.072926
 20
185.573649
 30
0.0
 11
79.821837
 21
185.573649
 31
0.0
  0
LINE
  5
335
100
AcDbEntity
  8
Layer_1
 62
7
100
AcDbLine
 10
79.821837
 20
185.573649
 30
0.0
 11
79.821837
 21
186.526149
 31
0.0
  0
LINE
  5
336
100
AcDbEntity
  8
Layer_1
 62
7
100
AcDbLine
 10
79.821837
 20
186.526149
 30
0.0
 11
79.821837
 21
187.478649
 31
0.0
  0
LINE
  5
337
100
AcDbEntity
  8
Layer_1
 62
7
100
AcDbLine
 10
79.821837
 20
187.478649
 30
0.0
 11
79.074035
 21
187.478649
 31
0.0
  0
SPLINE
  5
338
100
AcDbEntity
  8
Layer_1
 62
7
100
AcDbSpline
 70
0
 71
3
 72
13
 73
9
 74
7
 40
0.000000
 40
0.000000
 40
0.000000
 40
0.000000
 40
0.226844
 40
0.393169
 40
0.463299
 40
0.722002
 40
1.383606
 40
2.304971
 40
2.304971
 40
2.304971
 40
2.304971
 10
95.722226
 20
184.580021
 30
0.0
 10
95.722255
 20
184.503537
 30
0.0
 10
95.722306
 20
184.370974
 30
0.0
 10
95.730269
 20
184.224038
 30
0.0
 10
95.733309
 20
184.039257
 30
0.0
 10
96.203437
 20
184.182040
 30
0.0
 10
96.711119
 20
184.064597
 30
0.0
 10
97.260748
 20
184.087248
 30
0.0
 10
97.580659
 20
184.100432
 30
0.0
 11
95.722226
 21
184.580021
 31
0.0
 11
95.724546
 21
184.353188
 31
0.0
 11
95.730629
 21
184.186975
 31
0.0
 11
95.739159
 21
184.117365
 31
0.0
 11
95.997721
 21
184.108836
 31
0.0
 11
96.659297
 21
184.102752
 31
0.0
 11
97.580659
 21
184.100432
 31
0.0
  0
LINE
  5
339
100
AcDbEntity
  8
Layer_1
 62
7
100
AcDbLine
 10
76.397457
 20
187.427849
 30
0.0
 11
74.500071
 21
187.427849
 31
0.0
  0
LINE
  5
33a
100
AcDbEntity
  8
Layer_1
 62
7
100
AcDbLine
 10
74.500071
 20
187.427849
 30
0.0
 11
73.979837
 21
186.907149
 31
0.0
  0
LINE
  5
33b
100
AcDbEntity
  8
Layer_1
 62
7
100
AcDbLine
 10
73.979837
 20
186.907149
 30
0.0
 11
73.459602
 21
186.386449
 31
0.0
  0
LINE
  5
33c
100
AcDbEntity
  8
Layer_1
 62
7
100
AcDbLine
 10
73.459602
 20
186.386449
 30
0.0
 11
73.148218
 21
186.386449
 31
0.0
  0
LINE
  5
33d
100
AcDbEntity
  8
Layer_1
 62
7
100
AcDbLine
 10
73.148218
 20
186.386449
 30
0.0
 11
72.836837
 21
186.386449
 31
0.0
  0
LINE
  5
33e
100
AcDbEntity
  8
Layer_1
 62
7
100
AcDbLine
 10
72.836837
 20
186.386449
 30
0.0
 11
72.836837
 21
186.208395
 31
0.0
  0
LINE
  5
33f
100
AcDbEntity
  8
Layer_1
 62
7
100
AcDbLine
 10
72.836837
 20
186.208395
 30
0.0
 11
72.836837
 21
186.030341
 31
0.0
  0
LINE
  5
340
100
AcDbEntity
  8
Layer_1
 62
7
100
AcDbLine
 10
72.836837
 20
186.030341
 30
0.0
 11
71.662087
 21
186.036945
 31
0.0
  0
LINE
  5
341
100
AcDbEntity
  8
Layer_1
 62
7
100
AcDbLine
 10
71.662087
 20
186.036945
 30
0.0
 11
70.487337
 21
186.043549
 31
0.0
  0
LINE
  5
342
100
AcDbEntity
  8
Layer_1
 62
7
100
AcDbLine
 10
70.487337
 20
186.043549
 30
0.0
 11
70.479717
 21
186.189599
 31
0.0
  0
LINE
  5
343
100
AcDbEntity
  8
Layer_1
 62
7
100
AcDbLine
 10
70.479717
 20
186.189599
 30
0.0
 11
70.472097
 21
186.335649
 31
0.0
  0
LINE
  5
344
100
AcDbEntity
  8
Layer_1
 62
7
100
AcDbLine
 10
70.472097
 20
186.335649
 30
0.0
 11
67.234864
 21
186.335649
 31
0.0
  0
LINE
  5
345
100
AcDbEntity
  8
Layer_1
 62
7
100
AcDbLine
 10
67.234864
 20
186.335649
 30
0.0
 11
63.997631
 21
186.335649
 31
0.0
  0
LINE
  5
346
100
AcDbEntity
  8
Layer_1
 62
7
100
AcDbLine
 10
63.997631
 20
186.335649
 30
0.0
 11
63.997631
 21
185.840349
 31
0.0
  0
LINE
  5
347
100
AcDbEntity
  8
Layer_1
 62
7
100
AcDbLine
 10
63.997631
 20
185.840349
 30
0.0
 11
63.997631
 21
185.345049
 31
0.0
  0
LINE
  5
348
100
AcDbEntity
  8
Layer_1
 62
7
100
AcDbLine
 10
63.997631
 20
185.345049
 30
0.0
 11
67.236131
 21
185.345049
 31
0.0
  0
LINE
  5
349
100
AcDbEntity
  8
Layer_1
 62
7
100
AcDbLine
 10
67.236131
 20
185.345049
 30
0.0
 11
70.474631
 21
185.345049
 31
0.0
  0
LINE
  5
34a
100
AcDbEntity
  8
Layer_1
 62
7
100
AcDbLine
 10
70.474631
 20
185.345049
 30
0.0
 11
70.474631
 21
185.484749
 31
0.0
  0
LINE
  5
34b
100
AcDbEntity
  8
Layer_1
 62
7
100
AcDbLine
 10
70.474631
 20
185.484749
 30
0.0
 11
70.474631
 21
185.624449
 31
0.0
  0
LINE
  5
34c
100
AcDbEntity
  8
Layer_1
 62
7
100
AcDbLine
 10
70.474631
 20
185.624449
 30
0.0
 11
71.655731
 21
185.624449
 31
0.0
  0
LINE
  5
34d
100
AcDbEntity
  8
Layer_1
 62
7
100
AcDbLine
 10
71.655731
 20
185.624449
 30
0.0
 11
72.836831
 21
185.624449
 31
0.0
  0
LINE
  5
34e
100
AcDbEntity
  8
Layer_1
 62
7
100
AcDbLine
 10
72.836831
 20
185.624449
 30
0.0
 11
72.836831
 21
185.205349
 31
0.0
  0
LINE
  5
34f
100
AcDbEntity
  8
Layer_1
 62
7
100
AcDbLine
 10
72.836831
 20
185.205349
 30
0.0
 11
72.836831
 21
184.786249
 31
0.0
  0
LINE
  5
350
100
AcDbEntity
  8
Layer_1
 62
7
100
AcDbLine
 10
72.836831
 20
184.786249
 30
0.0
 11
73.230531
 21
184.786249
 31
0.0
  0
LINE
  5
351
100
AcDbEntity
  8
Layer_1
 62
7
100
AcDbLine
 10
73.230531
 20
184.786249
 30
0.0
 11
73.624231
 21
184.786249
 31
0.0
  0
LINE
  5
352
100
AcDbEntity
  8
Layer_1
 62
7
100
AcDbLine
 10
73.624231
 20
184.786249
 30
0.0
 11
73.624231
 21
185.388119
 31
0.0
  0
LINE
  5
353
100
AcDbEntity
  8
Layer_1
 62
7
100
AcDbLine
 10
73.624231
 20
185.388119
 30
0.0
 11
73.624226
 21
185.388124
 31
0.0
  0
SPLINE
  5
354
100
AcDbEntity
  8
Layer_1
 62
7
100
AcDbSpline
 70
0
 71
3
 72
13
 73
9
 74
7
 40
0.000000
 40
0.000000
 40
0.000000
 40
0.000000
 40
0.405152
 40
0.666012
 40
0.764610
 40
0.990573
 40
1.634461
 40
2.678182
 40
2.678182
 40
2.678182
 40
2.678182
 10
79.074035
 20
187.478649
 30
0.0
 10
78.939135
 20
187.476859
 30
0.0
 10
78.717379
 20
187.473916
 30
0.0
 10
78.461427
 20
187.477800
 30
0.0
 10
78.268764
 20
187.444659
 30
0.0
 10
77.945421
 20
187.434434
 30
0.0
 10
77.308091
 20
187.429040
 30
0.0
 10
76.745437
 20
187.428304
 30
0.0
 10
76.397457
 20
187.427849
 30
0.0
 11
79.074035
 21
187.478649
 31
0.0
 11
78.668895
 21
187.475620
 31
0.0
 11
78.408179
 21
187.466946
 31
0.0
 11
78.310537
 21
187.453249
 31
0.0
 11
78.085005
 21
187.439301
 31
0.0
 11
77.441174
 21
187.430753
 31
0.0
 11
76.397457
 21
187.427849
 31
0.0
  0
LINE
  5
355
100
AcDbEntity
  8
Layer_1
 62
7
100
AcDbLine
 10
90.552959
 20
186.333030
 30
0.0
 11
90.882792
 21
186.665854
 31
0.0
  0
LINE
  5
356
100
AcDbEntity
  8
Layer_1
 62
7
100
AcDbLine
 10
90.882792
 20
186.665854
 30
0.0
 11
92.604009
 21
186.665854
 31
0.0
  0
LINE
  5
357
100
AcDbEntity
  8
Layer_1
 62
7
100
AcDbLine
 10
92.604009
 20
186.665854
 30
0.0
 11
94.325226
 21
186.665854
 31
0.0
  0
LINE
  5
358
100
AcDbEntity
  8
Layer_1
 62
7
100
AcDbLine
 10
94.325226
 20
186.665854
 30
0.0
 11
94.325226
 21
187.288154
 31
0.0
  0
LINE
  5
359
100
AcDbEntity
  8
Layer_1
 62
7
100
AcDbLine
 10
94.325226
 20
187.288154
 30
0.0
 11
94.325226
 21
187.910454
 31
0.0
  0
LINE
  5
35a
100
AcDbEntity
  8
Layer_1
 62
7
100
AcDbLine
 10
94.325226
 20
187.910454
 30
0.0
 11
92.483726
 21
187.910454
 31
0.0
  0
LINE
  5
35b
100
AcDbEntity
  8
Layer_1
 62
7
100
AcDbLine
 10
92.483726
 20
187.910454
 30
0.0
 11
90.642226
 21
187.910454
 31
0.0
  0
LINE
  5
35c
100
AcDbEntity
  8
Layer_1
 62
7
100
AcDbLine
 10
90.642226
 20
187.910454
 30
0.0
 11
90.642226
 21
187.459946
 31
0.0
  0
LINE
  5
35d
100
AcDbEntity
  8
Layer_1
 62
7
100
AcDbLine
 10
90.642226
 20
187.459946
 30
0.0
 11
90.642226
 21
187.009435
 31
0.0
  0
LINE
  5
35e
100
AcDbEntity
  8
Layer_1
 62
7
100
AcDbLine
 10
90.642226
 20
187.009435
 30
0.0
 11
90.306028
 21
186.672546
 31
0.0
  0
LINE
  5
35f
100
AcDbEntity
  8
Layer_1
 62
7
100
AcDbLine
 10
90.306028
 20
186.672546
 30
0.0
 11
89.969831
 21
186.335654
 31
0.0
  0
LINE
  5
360
100
AcDbEntity
  8
Layer_1
 62
7
100
AcDbLine
 10
89.969831
 20
186.335654
 30
0.0
 11
88.966977
 21
186.335654
 31
0.0
  0
LINE
  5
361
100
AcDbEntity
  8
Layer_1
 62
7
100
AcDbLine
 10
88.966977
 20
186.335654
 30
0.0
 11
87.964123
 21
186.335654
 31
0.0
  0
LINE
  5
362
100
AcDbEntity
  8
Layer_1
 62
7
100
AcDbLine
 10
87.964123
 20
186.335654
 30
0.0
 11
87.829974
 21
186.468138
 31
0.0
  0
LINE
  5
363
100
AcDbEntity
  8
Layer_1
 62
7
100
AcDbLine
 10
87.829974
 20
186.468138
 30
0.0
 11
87.695826
 21
186.600619
 31
0.0
  0
LINE
  5
364
100
AcDbEntity
  8
Layer_1
 62
7
100
AcDbLine
 10
87.695826
 20
186.600619
 30
0.0
 11
87.695826
 21
187.055019
 31
0.0
  0
SPLINE
  5
365
100
AcDbEntity
  8
Layer_1
 62
7
100
AcDbSpline
 70
0
 71
3
 72
10
 73
6
 74
4
 40
0.000000
 40
0.000000
 40
0.000000
 40
0.000000
 40
0.107185
 40
0.305605
 40
0.553008
 40
0.553008
 40
0.553008
 40
0.553008
 10
90.141391
 20
185.964730
 30
0.0
 10
90.170548
 20
185.985429
 30
0.0
 10
90.253679
 20
186.044447
 30
0.0
 10
90.387927
 20
186.171478
 30
0.0
 10
90.494061
 20
186.275374
 30
0.0
 10
90.552959
 20
186.333030
 30
0.0
 11
90.141391
 21
185.964730
 31
0.0
 11
90.227761
 21
186.028203
 31
0.0
 11
90.375621
 21
186.160520
 31
0.0
 11
90.552959
 21
186.333030
 31
0.0
  0
LINE
  5
366
100
AcDbEntity
  8
Layer_1
 62
7
100
AcDbLine
 10
87.289426
 20
186.989510
 30
0.0
 11
87.289426
 21
186.455796
 31
0.0
  0
LINE
  5
367
100
AcDbEntity
  8
Layer_1
 62
7
100
AcDbLine
 10
87.289426
 20
186.455796
 30
0.0
 11
87.524376
 21
186.215275
 31
0.0
  0
SPLINE
  5
368
100
AcDbEntity
  8
Layer_1
 62
7
100
AcDbSpline
 70
0
 71
3
 72
28
 73
24
 74
22
 40
0.000000
 40
0.000000
 40
0.000000
 40
0.000000
 40
0.318511
 40
0.458893
 40
0.541132
 40
0.681008
 40
0.949762
 40
1.506755
 40
2.030971
 40
2.272035
 40
2.422259
 40
2.549955
 40
2.694344
 40
2.820651
 40
2.981303
 40
3.239484
 40
3.810385
 40
4.354518
 40
4.600809
 40
4.729806
 40
4.793682
 40
4.959964
 40
5.302185
 40
5.302185
 40
5.302185
 40
5.302185
 10
87.695826
 20
187.055019
 30
0.0
 10
87.697668
 20
187.159608
 30
0.0
 10
87.700323
 20
187.310294
 30
0.0
 10
87.696307
 20
187.499571
 30
0.0
 10
87.771159
 20
187.597843
 30
0.0
 10
87.848813
 20
187.744485
 30
0.0
 10
87.841329
 20
188.075618
 30
0.0
 10
87.848051
 20
188.522920
 30
0.0
 10
87.833567
 20
188.956316
 30
0.0
 10
87.820921
 20
189.275900
 30
0.0
 10
87.691525
 20
189.408287
 30
0.0
 10
87.553427
 20
189.448227
 30
0.0
 10
87.418667
 20
189.445930
 30
0.0
 10
87.280055
 20
189.397680
 30
0.0
 10
87.149841
 20
189.253823
 30
0.0
 10
87.142440
 20
188.909656
 30
0.0
 10
87.129491
 20
188.455700
 30
0.0
 10
87.153104
 20
188.015351
 30
0.0
 10
87.131210
 20
187.683137
 30
0.0
 10
87.243679
 20
187.578019
 30
0.0
 10
87.291095
 20
187.466244
 30
0.0
 10
87.282915
 20
187.271278
 30
0.0
 10
87.286807
 20
187.102857
 30
0.0
 10
87.289426
 20
186.989510
 30
0.0
 11
87.695826
 21
187.055019
 31
0.0
 11
87.698434
 21
187.373520
 31
0.0
 11
87.714812
 21
187.512943
 31
0.0
 11
87.757787
 21
187.583060
 31
0.0
 11
87.820479
 21
187.708099
 31
0.0
 11
87.844676
 21
187.975762
 31
0.0
 11
87.843642
 21
188.532754
 31
0.0
 11
87.829439
 21
189.056777
 31
0.0
 11
87.784689
 21
189.293652
 31
0.0
 11
87.679601
 21
189.401000
 31
0.0
 11
87.558211
 21
189.440635
 31
0.0
 11
87.413853
 21
189.437655
 31
0.0
 11
87.295677
 21
189.393069
 31
0.0
 11
87.187395
 21
189.274393
 31
0.0
 11
87.144622
 21
189.019780
 31
0.0
 11
87.137065
 21
188.448929
 31
0.0
 11
87.142853
 21
187.904827
 31
0.0
 11
87.173660
 21
187.660470
 31
0.0
 11
87.249652
 21
187.556232
 31
0.0
 11
87.274982
 21
187.497593
 31
0.0
 11
87.286623
 21
187.331719
 31
0.0
 11
87.289426
 21
186.989510
 31
0.0
  0
LINE
  5
369
100
AcDbEntity
  8
Layer_1
 62
7
100
AcDbLine
 10
90.141391
 20
185.964724
 30
0.0
 11
90.141391
 21
185.964730
 31
0.0
  0
LINE
  5
36a
100
AcDbEntity
  8
Layer_1
 62
7
100
AcDbLine
 10
99.410548
 20
186.875404
 30
0.0
 11
99.417914
 21
187.084954
 31
0.0
  0
LINE
  5
36b
100
AcDbEntity
  8
Layer_1
 62
7
100
AcDbLine
 10
99.417914
 20
187.084954
 30
0.0
 11
100.625337
 21
187.091558
 31
0.0
  0
LINE
  5
36c
100
AcDbEntity
  8
Layer_1
 62
7
100
AcDbLine
 10
100.625337
 20
187.091558
 30
0.0
 11
101.832757
 21
187.098162
 31
0.0
  0
LINE
  5
36d
100
AcDbEntity
  8
Layer_1
 62
7
100
AcDbLine
 10
101.832757
 20
187.098162
 30
0.0
 11
102.008954
 21
187.275720
 31
0.0
  0
LINE
  5
36e
100
AcDbEntity
  8
Layer_1
 62
7
100
AcDbLine
 10
102.008954
 20
187.275720
 30
0.0
 11
102.185154
 21
187.453277
 31
0.0
  0
LINE
  5
36f
100
AcDbEntity
  8
Layer_1
 62
7
100
AcDbLine
 10
102.185154
 20
187.453277
 30
0.0
 11
102.890684
 21
187.453277
 31
0.0
  0
LINE
  5
370
100
AcDbEntity
  8
Layer_1
 62
7
100
AcDbLine
 10
102.890684
 20
187.453277
 30
0.0
 11
103.596214
 21
187.453277
 31
0.0
  0
LINE
  5
371
100
AcDbEntity
  8
Layer_1
 62
7
100
AcDbLine
 10
103.596214
 20
187.453277
 30
0.0
 11
103.596214
 21
188.202577
 31
0.0
  0
LINE
  5
372
100
AcDbEntity
  8
Layer_1
 62
7
100
AcDbLine
 10
103.596214
 20
188.202577
 30
0.0
 11
103.596214
 21
188.951877
 31
0.0
  0
LINE
  5
373
100
AcDbEntity
  8
Layer_1
 62
7
100
AcDbLine
 10
103.596214
 20
188.951877
 30
0.0
 11
102.903683
 21
188.951877
 31
0.0
  0
LINE
  5
374
100
AcDbEntity
  8
Layer_1
 62
7
100
AcDbLine
 10
102.903683
 20
188.951877
 30
0.0
 11
102.211152
 21
188.951877
 31
0.0
  0
LINE
  5
375
100
AcDbEntity
  8
Layer_1
 62
7
100
AcDbLine
 10
102.211152
 20
188.951877
 30
0.0
 11
101.894033
 21
189.271053
 31
0.0
  0
SPLINE
  5
376
100
AcDbEntity
  8
Layer_1
 62
7
100
AcDbSpline
 70
0
 71
3
 72
16
 73
12
 74
10
 40
0.000000
 40
0.000000
 40
0.000000
 40
0.000000
 40
0.176323
 40
0.315521
 40
0.387917
 40
0.564494
 40
0.977783
 40
1.538510
 40
2.224641
 40
2.581506
 40
2.721472
 40
2.721472
 40
2.721472
 40
2.721472
 10
87.524376
 20
186.215275
 30
0.0
 10
87.565847
 20
186.173368
 30
0.0
 10
87.640058
 20
186.098378
 30
0.0
 10
87.734806
 20
186.012763
 30
0.0
 10
87.834777
 20
185.923702
 30
0.0
 10
88.073902
 20
185.960592
 30
0.0
 10
88.444424
 20
185.923037
 30
0.0
 10
89.003946
 20
185.932402
 30
0.0
 10
89.535610
 20
185.936143
 30
0.0
 10
89.932112
 20
185.927729
 30
0.0
 10
90.095392
 20
185.956593
 30
0.0
 10
90.141391
 20
185.964724
 30
0.0
 11
87.524376
 21
186.215275
 31
0.0
 11
87.649682
 21
186.091226
 31
0.0
 11
87.752340
 21
185.997219
 31
0.0
 11
87.810126
 21
185.953607
 31
0.0
 11
87.986368
 21
185.942737
 31
0.0
 11
88.399576
 21
185.934563
 31
0.0
 11
88.960291
 21
185.930860
 31
0.0
 11
89.646420
 21
185.932648
 31
0.0
 11
90.003137
 21
185.942901
 31
0.0
 11
90.141391
 21
185.964724
 31
0.0
  0
LINE
  5
377
100
AcDbEntity
  8
Layer_1
 62
7
100
AcDbLine
 10
101.185943
 20
189.663077
 30
0.0
 11
100.896570
 21
189.675777
 31
0.0
  0
LINE
  5
378
100
AcDbEntity
  8
Layer_1
 62
7
100
AcDbLine
 10
100.896570
 20
189.675777
 30
0.0
 11
100.867176
 21
189.791872
 31
0.0
  0
SPLINE
  5
379
100
AcDbEntity
  8
Layer_1
 62
7
100
AcDbSpline
 70
0
 71
3
 72
13
 73
9
 74
7
 40
0.000000
 40
0.000000
 40
0.000000
 40
0.000000
 40
0.234470
 40
0.416718
 40
0.507465
 40
0.574858
 40
0.698030
 40
0.851110
 40
0.851110
 40
0.851110
 40
0.851110
 10
101.894033
 20
189.271053
 30
0.0
 10
101.839019
 20
189.326981
 30
0.0
 10
101.741243
 20
189.426379
 30
0.0
 10
101.615818
 20
189.536301
 30
0.0
 10
101.537162
 20
189.624845
 30
0.0
 10
101.441629
 20
189.640668
 30
0.0
 10
101.329255
 20
189.655101
 30
0.0
 10
101.237042
 20
189.660233
 30
0.0
 10
101.185943
 20
189.663077
 30
0.0
 11
101.894033
 21
189.271053
 31
0.0
 11
101.727337
 21
189.435944
 31
0.0
 11
101.595159
 21
189.561416
 31
0.0
 11
101.526114
 21
189.620303
 31
0.0
 11
101.460871
 21
189.637191
 31
0.0
 11
101.338662
 21
189.652558
 31
0.0
 11
101.185943
 21
189.663077
 31
0.0
  0
LINE
  5
37a
100
AcDbEntity
  8
Layer_1
 62
7
100
AcDbLine
 10
100.144794
 20
190.439781
 30
0.0
 11
100.014814
 21
190.457025
 31
0.0
  0
LINE
  5
37b
100
AcDbEntity
  8
Layer_1
 62
7
100
AcDbLine
 10
100.014814
 20
190.457025
 30
0.0
 11
100.014814
 21
189.513954
 31
0.0
  0
LINE
  5
37c
100
AcDbEntity
  8
Layer_1
 62
7
100
AcDbLine
 10
100.014814
 20
189.513954
 30
0.0
 11
100.014814
 21
188.570880
 31
0.0
  0
LINE
  5
37d
100
AcDbEntity
  8
Layer_1
 62
7
100
AcDbLine
 10
100.014814
 20
188.570880
 30
0.0
 11
100.125059
 21
188.570880
 31
0.0
  0
SPLINE
  5
37e
100
AcDbEntity
  8
Layer_1
 62
7
100
AcDbSpline
 70
0
 71
3
 72
10
 73
6
 74
4
 40
0.000000
 40
0.000000
 40
0.000000
 40
0.000000
 40
0.341785
 40
0.682146
 40
1.021085
 40
1.021085
 40
1.021085
 40
1.021085
 10
100.867176
 20
189.791872
 30
0.0
 10
100.825148
 20
189.898816
 30
0.0
 10
100.741267
 20
190.112258
 30
0.0
 10
100.475640
 20
190.351176
 30
0.0
 10
100.254922
 20
190.410287
 30
0.0
 10
100.144794
 20
190.439781
 30
0.0
 11
100.867176
 21
189.791872
 31
0.0
 11
100.717601
 21
190.099190
 31
0.0
 11
100.464223
 21
190.326446
 31
0.0
 11
100.144794
 21
190.439781
 31
0.0
  0
LINE
  5
37f
100
AcDbEntity
  8
Layer_1
 62
7
100
AcDbLine
 10
100.837509
 20
189.128743
 30
0.0
 11
100.883517
 21
189.256680
 31
0.0
  0
LINE
  5
380
100
AcDbEntity
  8
Layer_1
 62
7
100
AcDbLine
 10
100.883517
 20
189.256680
 30
0.0
 11
101.103811
 21
189.256680
 31
0.0
  0
LINE
  5
381
100
AcDbEntity
  8
Layer_1
 62
7
100
AcDbLine
 10
101.103811
 20
189.256680
 30
0.0
 11
101.324105
 21
189.256680
 31
0.0
  0
LINE
  5
382
100
AcDbEntity
  8
Layer_1
 62
7
100
AcDbLine
 10
101.324105
 20
189.256680
 30
0.0
 11
101.520794
 21
189.058834
 31
0.0
  0
LINE
  5
383
100
AcDbEntity
  8
Layer_1
 62
7
100
AcDbLine
 10
101.520794
 20
189.058834
 30
0.0
 11
101.717478
 21
188.860987
 31
0.0
  0
LINE
  5
384
100
AcDbEntity
  8
Layer_1
 62
7
100
AcDbLine
 10
101.717478
 20
188.860987
 30
0.0
 11
101.710704
 21
188.188884
 31
0.0
  0
LINE
  5
385
100
AcDbEntity
  8
Layer_1
 62
7
100
AcDbLine
 10
101.710704
 20
188.188884
 30
0.0
 11
101.703931
 21
187.516780
 31
0.0
  0
LINE
  5
386
100
AcDbEntity
  8
Layer_1
 62
7
100
AcDbLine
 10
101.703931
 20
187.516780
 30
0.0
 11
100.554581
 21
187.510176
 31
0.0
  0
LINE
  5
387
100
AcDbEntity
  8
Layer_1
 62
7
100
AcDbLine
 10
100.554581
 20
187.510176
 30
0.0
 11
99.405231
 21
187.503572
 31
0.0
  0
LINE
  5
388
100
AcDbEntity
  8
Layer_1
 62
7
100
AcDbLine
 10
99.405231
 20
187.503572
 30
0.0
 11
99.405231
 21
187.707029
 31
0.0
  0
LINE
  5
389
100
AcDbEntity
  8
Layer_1
 62
7
100
AcDbLine
 10
99.405231
 20
187.707029
 30
0.0
 11
99.405231
 21
187.910488
 31
0.0
  0
LINE
  5
38a
100
AcDbEntity
  8
Layer_1
 62
7
100
AcDbLine
 10
99.405231
 20
187.910488
 30
0.0
 11
97.563731
 21
187.910488
 31
0.0
  0
LINE
  5
38b
100
AcDbEntity
  8
Layer_1
 62
7
100
AcDbLine
 10
97.563731
 20
187.910488
 30
0.0
 11
95.722231
 21
187.910488
 31
0.0
  0
LINE
  5
38c
100
AcDbEntity
  8
Layer_1
 62
7
100
AcDbLine
 10
95.722231
 20
187.910488
 30
0.0
 11
95.722231
 21
187.288188
 31
0.0
  0
LINE
  5
38d
100
AcDbEntity
  8
Layer_1
 62
7
100
AcDbLine
 10
95.722231
 20
187.288188
 30
0.0
 11
95.722231
 21
186.665888
 31
0.0
  0
LINE
  5
38e
100
AcDbEntity
  8
Layer_1
 62
7
100
AcDbLine
 10
95.722231
 20
186.665888
 30
0.0
 11
97.562704
 21
186.665888
 31
0.0
  0
LINE
  5
38f
100
AcDbEntity
  8
Layer_1
 62
7
100
AcDbLine
 10
97.562704
 20
186.665888
 30
0.0
 11
99.403177
 21
186.665888
 31
0.0
  0
LINE
  5
390
100
AcDbEntity
  8
Layer_1
 62
7
100
AcDbLine
 10
99.403177
 20
186.665888
 30
0.0
 11
99.410543
 21
186.875438
 31
0.0
  0
LINE
  5
391
100
AcDbEntity
  8
Layer_1
 62
7
100
AcDbLine
 10
99.410543
 20
186.875438
 30
0.0
 11
99.410548
 21
186.875404
 31
0.0
  0
SPLINE
  5
392
100
AcDbEntity
  8
Layer_1
 62
7
100
AcDbSpline
 70
0
 71
3
 72
10
 73
6
 74
4
 40
0.000000
 40
0.000000
 40
0.000000
 40
0.000000
 40
0.287784
 40
0.623616
 40
0.942119
 40
0.942119
 40
0.942119
 40
0.942119
 10
100.125059
 20
188.570880
 30
0.0
 10
100.219448
 20
188.592144
 30
0.0
 10
100.423984
 20
188.638221
 30
0.0
 10
100.678832
 20
188.844624
 30
0.0
 10
100.785559
 20
189.035724
 30
0.0
 10
100.837509
 20
189.128743
 30
0.0
 11
100.125059
 21
188.570880
 31
0.0
 11
100.400592
 21
188.653954
 31
0.0
 11
100.665008
 21
188.860998
 31
0.0
 11
100.837509
 21
189.128743
 31
0.0
  0
ENDSEC
  0
SECTION
  2
OBJECTS
  0
DICTIONARY
  5
C
330
0
100
AcDbDictionary
  3
ACAD_GROUP
350
D
  3
ACAD_MLINESTYLE
350
17
  0
DICTIONARY
  5
D
330
C
100
AcDbDictionary
  0
DICTIONARY
  5
1A
330
C
100
AcDbDictionary
  0
DICTIONARY
  5
17
330
C
100
AcDbDictionary
  3
STANDARD
350
18
  0
DICTIONARY
  5
19
330
C
100
AcDbDictionary
  0
ENDSEC
  0
EOF
