<?xml version="1.0" encoding="UTF-8" standalone="no"?>
<!-- Created with Inkscape (http://www.inkscape.org/) -->

<svg
   xmlns:dc="http://purl.org/dc/elements/1.1/"
   xmlns:cc="http://creativecommons.org/ns#"
   xmlns:rdf="http://www.w3.org/1999/02/22-rdf-syntax-ns#"
   xmlns:svg="http://www.w3.org/2000/svg"
   xmlns="http://www.w3.org/2000/svg"
   xmlns:sodipodi="http://sodipodi.sourceforge.net/DTD/sodipodi-0.dtd"
   xmlns:inkscape="http://www.inkscape.org/namespaces/inkscape"
   width="210mm"
   height="297mm"
   viewBox="0 0 744.09448819 1052.3622047"
   id="svg2"
   version="1.1"
   inkscape:version="0.91 r13725"
   sodipodi:docname="cct.svg">
  <defs
     id="defs4" />
  <sodipodi:namedview
     id="base"
     pagecolor="#ffffff"
     bordercolor="#666666"
     borderopacity="1.0"
     inkscape:pageopacity="0.0"
     inkscape:pageshadow="2"
     inkscape:zoom="0.98994949"
     inkscape:cx="651.56429"
     inkscape:cy="419.57084"
     inkscape:document-units="px"
     inkscape:current-layer="layer1"
     showgrid="false"
     inkscape:window-width="1920"
     inkscape:window-height="1017"
     inkscape:window-x="-8"
     inkscape:window-y="-8"
     inkscape:window-maximized="1" />
  <metadata
     id="metadata7">
    <rdf:RDF>
      <cc:Work
         rdf:about="">
        <dc:format>image/svg+xml</dc:format>
        <dc:type
           rdf:resource="http://purl.org/dc/dcmitype/StillImage" />
        <dc:title></dc:title>
      </cc:Work>
    </rdf:RDF>
  </metadata>
  <g
     inkscape:label="Layer 1"
     inkscape:groupmode="layer"
     id="layer1">
    <path
       style="fill:#000000"
       d="m 217.22324,397.47316 0,-29.925 85.275,0 85.275,0 0,29.925 0,29.925 -85.275,0 -85.275,0 0,-29.925 z m 163.43263,26.22325 c 0.77881,-0.13376 1.58063,-0.53113 2.14326,-1.06216 0.55477,-0.52361 0.85273,-0.98292 1.12327,-1.73151 l 0.20584,-0.56958 0.0261,-22.41 c 0.0175,-15.0522 -0.005,-22.6464 -0.067,-23.13 -0.1865,-1.44348 -1.09079,-2.68661 -2.40824,-3.31064 l -0.61088,-0.28936 -62.19189,0 -62.19189,0 -0.62811,0.30859 c -1.2411,0.60976 -2.04062,1.74795 -2.19023,3.11801 -0.0975,0.8931 -0.29256,1.3237 -0.71996,1.58948 l -0.32792,0.20392 -15.9975,0.0235 -15.9975,0.0235 0,21.01403 0,21.01402 16.04497,0 c 14.96927,0 16.0599,0.0103 16.2675,0.15337 0.48337,0.33314 0.61823,0.62975 0.72825,1.60163 0.10769,0.95134 0.48368,1.72638 1.15967,2.3905 0.57895,0.56877 1.15271,0.87611 1.93461,1.03626 0.75207,0.15404 122.80283,0.18018 123.69763,0.0265 z"
       id="path4216"
       inkscape:connector-curvature="0" />
    <path
       inkscape:connector-curvature="0"
       id="path4244"
       d="m 217.22324,397.47316 0,-29.925 85.275,0 85.275,0 0,29.925 0,29.925 -85.275,0 -85.275,0 0,-29.925 z m 45.63,21.465 0,-0.99 1.845,0 1.845,0 0,0.99 0,0.99 3.33,0 3.33,0 0,-2.655 0,-2.655 -3.32696,0 -3.32695,0 -0.0256,0.9675 -0.0255,0.9675 -1.8,0 -1.8,0 -0.0255,-0.9675 -0.0255,-0.9675 -3.37195,0 -3.37196,0 0,2.655 0,2.655 3.375,0 3.375,0 0,-0.99 z m 104.23946,-0.4275 0.0255,-0.9675 1.5975,-0.0246 1.5975,-0.0246 0,0.99208 0,0.99208 3.375,0 3.375,0 0,-2.13818 0,-2.13817 2.25,-2.24865 2.25,-2.24865 0,-16.33832 0,-16.33833 -2.00708,-1.99985 -2.00708,-1.99985 -45.21643,0 -45.21645,0 -2.30123,2.295 -2.30123,2.295 -2.49525,0 -2.49525,0 0,1.53 0,1.53 -3.105,0 -3.105,0 0,-0.9 0,-0.9 -1.395,0 -1.395,0 0,0.9 0,0.9 -3.825,0 -3.825,0 0,-0.9 0,-0.9 -1.395,0 -1.395,0 0,2.205 0,2.205 -4.185,0 -4.185,0 0,-0.99 0,-0.99 -13.275,0 -13.275,0 0,2.655 0,2.655 13.275,0 13.275,0 0,-0.94336 0,-0.94336 4.4775,-0.0423 c 2.46263,-0.0233 4.97247,-0.0669 5.57742,-0.0969 l 1.09993,-0.0546 0.0251,-1.18725 0.0251,-1.18725 3.78,0 3.78,0 0.0251,1.1925 0.0251,1.1925 1.39239,0 1.39239,0 0,-1.215 0,-1.215 3.105,0 3.105,0 0,1.08 0,1.08 2.655,0 2.655,0 0,-2.49689 0,-2.49688 2.40687,-2.40812 2.40688,-2.40811 44.68471,0 44.68471,0 1.59842,1.59656 1.59841,1.59656 0,15.70522 0,15.70522 -2.04676,2.04822 -2.04677,2.04822 -2.90323,0 -2.90324,0 0,0.945 0,0.945 -1.62,0 -1.62,0 0,-0.945 0,-0.945 -2.85797,0 -2.85797,0 -3.23953,-3.24589 c -1.78174,-1.78524 -3.3489,-3.30399 -3.48256,-3.375 -0.17235,-0.0916 -0.55846,-0.12911 -1.3275,-0.12911 l -1.08447,0 0,-1.44 0,-1.44 -6.525,0 c -6.465,0 -6.525,0.002 -6.525,0.18 0,0.15729 -0.06,0.18 -0.47564,0.18 l -0.47565,0 -1.56946,-1.57833 c -0.8632,-0.86808 -1.65153,-1.59498 -1.75186,-1.61533 -0.10031,-0.0204 -4.29314,-0.0549 -9.31739,-0.0768 l -9.135,-0.0397 -1.3275,1.3209 -1.3275,1.32089 0,1.64869 c 0,1.62018 -0.004,1.65323 -0.22142,1.91183 -0.12178,0.14472 -0.2455,0.39357 -0.27494,0.55299 -0.0294,0.15942 -0.0412,1.42385 -0.0261,2.80985 0.0256,2.35447 0.0393,2.53606 0.20744,2.76452 0.60747,0.82523 1.92396,0.60173 2.2134,-0.37578 0.0593,-0.20022 0.0836,-1.25847 0.0655,-2.84595 l -0.0289,-2.52721 -0.2475,-0.32428 c -0.24431,-0.3201 -0.2475,-0.34153 -0.2475,-1.6594 l 0,-1.33512 0.9225,-0.91759 0.9225,-0.91758 1.62,-0.0511 c 0.891,-0.0281 4.84046,-0.0708 8.77659,-0.0949 l 7.15659,-0.0438 1.5677,1.57656 1.5677,1.57657 0.70321,0 0.70321,0 0,1.53 0,1.53 6.525,0 c 4.29,0 6.525,-0.0308 6.525,-0.09 0,-0.0538 0.35235,-0.09 0.87704,-0.09 l 0.87703,0 3.21797,3.21703 3.21796,3.21703 0,2.09297 0,2.09297 3.32696,0 3.32695,0 0.0256,-0.9675 z m -46.75196,-1.96692 2.6325,-2.66846 0,-2.41856 0,-2.41856 5.625,0 5.625,0 0,-2.25 0,-2.25 -6.525,0 -6.525,0 0,2.25 0,2.25 0.225,0 0.225,0 0,2.09316 0,2.09316 -2.27315,2.27184 -2.27315,2.27184 -6.3433,0 -6.34329,0 -1.37355,-1.37141 c -1.29978,-1.29775 -1.37356,-1.39017 -1.37356,-1.72062 0,-0.25967 0.0692,-0.42805 0.27,-0.65672 l 0.27,-0.30751 0,-2.78374 0,-2.78374 -0.27822,-0.31687 c -0.60677,-0.69108 -1.60615,-0.57346 -2.02599,0.23843 -0.0991,0.19165 -0.12579,0.78883 -0.12579,2.8156 0,2.66593 0.0378,2.98209 0.39106,3.2751 0.11474,0.0952 0.14894,0.28094 0.14894,0.80917 l 0,0.68566 1.77666,1.77832 1.77665,1.77833 6.93084,0.002 6.93085,0.002 2.6325,-2.66846 z m -14.22489,-2.28162 c 0.59716,-0.36411 0.60933,-0.42137 0.64116,-3.01474 0.0324,-2.64434 0.004,-2.96925 -0.29702,-3.41307 -0.19868,-0.29278 -0.21598,-0.415 -0.24283,-1.71527 l -0.0289,-1.40003 -2.24932,-2.25042 -2.24933,-2.25043 -3.93817,0 -3.93818,0 0,-1.305 0,-1.305 -2.655,0 -2.655,0 0,3.33 0,3.33 2.655,0 2.655,0 0,-1.305 0,-1.305 3.6667,0 3.66669,0 1.82331,1.82168 1.8233,1.82167 0,1.13731 c 0,0.92242 -0.0266,1.1594 -0.14093,1.25426 -0.37389,0.3103 -0.39907,0.51279 -0.39907,3.20951 0,2.33978 0.0161,2.62336 0.16445,2.90002 0.31568,0.58861 1.12656,0.80803 1.69816,0.45951 z m 4.5,0 c 0.59715,-0.36411 0.60933,-0.42137 0.64115,-3.01474 0.0326,-2.65421 0.005,-2.96846 -0.30342,-3.42253 -0.21727,-0.32017 -0.22034,-0.35224 -0.22034,-2.30516 0,-1.54784 -0.0282,-2.03356 -0.12918,-2.2235 -0.071,-0.13367 -2.37963,-2.49078 -5.1302,-5.23803 l -5.00103,-4.995 -3.30729,-0.045 -3.3073,-0.045 -0.024,-2.4525 -0.0239,-2.4525 -2.65356,0 -2.65355,0 0,3.375 0,3.375 2.655,0 c 2.595,0 2.655,-0.004 2.655,-0.18 0,-0.17639 0.06,-0.18 2.99219,-0.18 l 2.99218,0 4.74781,4.74718 4.74782,4.74718 0,1.8118 c 0,1.5761 -0.0194,1.82787 -0.14894,1.93532 -0.3528,0.29258 -0.39106,0.61049 -0.39106,3.24953 0,2.29467 0.0163,2.57715 0.16446,2.85344 0.31567,0.58861 1.12655,0.80803 1.69815,0.45951 z m -25.73813,-2.99948 1.46552,-1.46553 0,-10.97585 0,-10.97585 1.28134,-1.28362 1.28133,-1.28363 2.45367,0 2.45366,0 0,-2.49524 0,-2.49524 0.60509,-0.60976 0.60508,-0.60976 2.63492,0 2.63491,0 0,1.11398 c 0,0.90126 -0.0269,1.13631 -0.14093,1.23094 -0.37389,0.3103 -0.39907,0.51279 -0.39907,3.20951 0,2.33978 0.0161,2.62336 0.16445,2.90002 0.42238,0.78756 1.62334,0.83279 2.08324,0.0785 0.17153,-0.28134 0.18164,-0.44824 0.18164,-2.99792 0,-2.53322 -0.011,-2.71807 -0.17834,-2.9925 -0.0981,-0.16088 -0.21944,-0.2925 -0.26967,-0.2925 -0.0569,0 -0.0913,-0.42414 -0.0913,-1.125 l 0,-1.125 20.08886,0 20.08888,0 1.36018,1.35 1.36018,1.35 2.60817,0 2.60817,0 0.16339,0.45435 c 0.34762,0.96672 1.64555,1.97565 2.54154,1.97565 l 0.39063,0 0,-3.3416 0,-3.34159 -0.46056,0.0611 c -1.21875,0.16168 -2.2607,1.11323 -2.5947,2.3696 l -0.10168,0.3825 -2.3104,0 -2.3104,0 -1.36018,-1.35 -1.36017,-1.35 -23.91764,0 -23.91763,0 -0.51896,0.495 -0.51895,0.495 -2.48937,0 -2.48936,0 0,2.49463 0,2.49462 -1.755,1.763 -1.755,1.76301 0,11.01153 0,11.01153 -1.05271,1.06584 -1.05271,1.06584 -9.77204,0 -9.77205,0 -0.65024,-0.65462 -0.65025,-0.65461 0,-0.51539 0,-0.51538 0.405,0 0.405,0 0,-2.7011 0,-2.70109 -3.3525,0.0236 -3.3525,0.0236 -0.0241,2.20424 -0.0241,2.20424 -0.55825,0.56326 -0.55825,0.56326 -2.6351,0 -2.6351,0 0,-0.945 0,-0.945 -13.275,0 -13.275,0 0,2.655 0,2.655 13.27196,0 13.27195,0 0.0256,-0.9675 0.0255,-0.9675 2.94574,-0.045 2.94573,-0.045 0.79105,-0.7875 0.79104,-0.7875 1.68572,0 1.68572,0 0,0.78353 0,0.78353 1.10647,1.10647 1.10647,1.10647 10.29801,0 10.29801,0 1.46552,-1.46552 z m -11.67448,-5.01448 0,-2.7 -1.305,0 -1.305,0 0,-0.945 0,-0.945 3.465,0 3.465,0 0,1.305 0,1.305 2.655,0 2.655,0 0,-3.33 0,-3.33 -2.655,0 -2.655,0 0,1.305 0,1.305 -3.465,0 -3.465,0 0,-1.305 0,-1.305 0.36,0 0.36,0 0,-2.835 0,-2.835 -1.395,0 -1.395,0 0,2.835 0,2.835 0.315,0 0.315,0 0,1.305 0,1.305 -9.72,0 -9.72,0 0,-0.495 0,-0.495 -11.475,0 -11.475,0 0,1.755 0,1.755 11.475,0 11.475,0 0,-0.54 0,-0.54 9.72,0 9.72,0 0,0.945 0,0.945 -1.305,0 -1.305,0 0,2.7 0,2.7 3.33,0 3.33,0 0,-2.7 z m 93.87,-0.45 0,-2.61 -1.305,0 -1.305,0 0,-2.025 0,-2.025 1.305,0 1.305,0 0,-2.655 0,-2.655 -3.33,0 -3.33,0 0,2.655 0,2.655 1.305,0 1.305,0 0,2.025 0,2.025 -1.305,0 -1.305,0 0,2.61 0,2.61 3.33,0 3.33,0 0,-2.61 z m 9.99,0.002 0,-2.60759 -1.3275,-0.0249 -1.3275,-0.0249 0,-1.98 0,-1.98 1.3275,-0.0249 1.3275,-0.0249 0,-2.65259 0,-2.65259 -3.375,0 -3.375,0 0,2.65259 0,2.65259 1.3275,0.0249 1.3275,0.0249 0,1.98 0,1.98 -1.3275,0.0249 -1.3275,0.0249 0,2.60759 0,2.6076 3.375,0 3.375,0 0,-2.6076 z m -21.89833,-4.61154 1.55833,-1.54913 0,-3.06094 0,-3.06095 0.5599,-0.56492 0.5599,-0.56492 6.79143,0 6.79144,0 1.46866,-1.45894 1.46867,-1.45895 0,-0.65605 0,-0.65606 1.35,0 1.35,0 0,-2.655 0,-2.655 -3.375,0 -3.375,0 0,2.655 0,2.655 1.35,0 1.35,0 0,0.33615 c 0,0.30894 -0.0855,0.42184 -1.0561,1.395 l -1.05608,1.05885 -6.78736,0 -6.78736,0 -0.97655,0.96231 -0.97655,0.96232 0,3.01906 0,3.01906 -1.28134,1.28362 -1.28133,1.28363 -7.16216,0 -7.16216,0 -1.434,-1.45917 -1.43401,-1.45917 -0.6975,-0.0354 -0.6975,-0.0354 0,-1.47547 0,-1.47547 -6.525,0 -6.525,0 0,0.765 0,0.765 -5.19817,0 -5.19815,0 -2.27185,-2.27315 -2.27183,-2.27315 0,-2.27786 0,-2.27785 0.2475,-0.32444 0.2475,-0.32444 0,-2.66205 c 0,-2.37741 -0.017,-2.69325 -0.15937,-2.95371 -0.22575,-0.41312 -0.55207,-0.59797 -1.05563,-0.59797 -0.49716,0 -0.8294,0.18453 -1.08396,0.60201 -0.1631,0.26749 -0.17539,0.46922 -0.1757,2.88401 -2.7e-4,2.2316 0.0206,2.64056 0.14884,2.91076 0.082,0.1729 0.20354,0.33523 0.27,0.36073 0.0973,0.0373 0.12082,0.55652 0.12082,2.66261 l 0,2.61625 2.5425,2.55926 c 1.40406,1.41332 2.67218,2.61518 2.83211,2.68413 0.23622,0.10184 1.27748,0.12486 5.6475,0.12486 l 5.35789,0 0,0.765 0,0.765 6.525,0 c 6.465,0 6.525,-0.002 6.525,-0.18 0,-0.1571 0.06,-0.18 0.47151,-0.18 l 0.4715,0 1.4645,1.4625 1.46449,1.4625 7.4915,0.046 c 4.12033,0.0253 7.61037,0.0557 7.75567,0.0675 0.23228,0.0189 0.45229,-0.16555 1.8225,-1.52767 z m -2.94167,-3.40086 0,-2.25 -6.09866,0 -6.09867,0 -1.27931,-1.2825 -1.27933,-1.2825 -0.0245,-4.52218 -0.0245,-4.52217 -1.32785,-1.32783 -1.32786,-1.32782 -10.01214,-0.0616 c -5.50669,-0.0339 -10.16966,-0.068 -10.36216,-0.0757 -0.42018,-0.0169 -0.7544,0.20154 -0.97735,0.63878 -0.13872,0.27204 -0.15736,0.60712 -0.15736,2.8286 0,2.21972 0.0188,2.55732 0.15736,2.83321 0.32913,0.65509 1.11375,0.90624 1.70497,0.54575 0.59659,-0.36376 0.60941,-0.42369 0.64042,-2.99224 l 0.028,-2.32172 9.19544,0 9.19543,0 0.92403,0.92089 0.92404,0.92089 0,4.54094 0,4.54093 1.575,1.58384 1.575,1.58385 0,1.57933 c 0,0.86863 0.027,1.60633 0.06,1.63933 0.033,0.033 2.96925,0.06 6.525,0.06 l 6.465,0 0,-2.25 z m -91.35,-2.31261 0,-2.1326 1.86526,-1.87299 1.86526,-1.87298 6.43724,0.0231 6.43724,0.0231 0.0239,2.5875 0.0239,2.5875 2.65362,0 2.65362,0 0,-3.375 0,-3.375 -2.64969,0 c -1.66938,0 -2.67027,0.0333 -2.70531,0.09 -0.0363,0.0587 -2.39371,0.09 -6.77863,0.09 l -6.72302,0 -1.84335,1.845 -1.84335,1.845 -1.10333,0 -1.10332,0 0,0.6309 0,0.6309 -4.1625,-0.0234 -4.1625,-0.0234 -0.027,-0.5175 -0.027,-0.5175 -11.47051,0 -11.47051,0 0,1.755 0,1.755 11.475,0 11.475,0 0,-0.495 0,-0.495 4.185,0 4.185,0 0,1.485 0,1.485 1.395,0 1.395,0 0,-2.13261 z m 58.52539,-2.04309 c 0.15929,-0.0691 0.81553,-0.65638 1.45831,-1.305 l 1.1687,-1.1793 6.0988,0 6.0988,0 0,-2.205 0,-2.205 -6.525,0 -6.525,0 0,1.59629 0,1.5963 -1.19125,1.1937 -1.19125,1.19371 -3.55342,0 -3.55342,0 -0.47533,-0.46943 -0.47533,-0.46942 0,-1.61008 c 0,-1.57546 0.005,-1.6157 0.21955,-1.87101 0.306,-0.36365 0.33691,-0.7056 0.30421,-3.36506 -0.0314,-2.55167 -0.0668,-2.7394 -0.58125,-3.07646 -0.33138,-0.21713 -1.04606,-0.2024 -1.36036,0.0281 -0.53551,0.39263 -0.56185,0.54946 -0.56201,3.34538 0,2.6475 0.0258,2.85346 0.39893,3.1631 0.11973,0.0994 0.14093,0.4015 0.14093,2.00807 l 0,1.89111 0.8325,0.85224 c 0.45787,0.46873 0.9135,0.88596 1.0125,0.92717 0.099,0.0412 1.93293,0.0775 4.07539,0.0806 3.14581,0.005 3.95112,-0.0185 4.185,-0.11999 z m 32.84347,-3.2268 0.0261,-0.7425 4.27827,-0.0234 4.27826,-0.0234 0.62432,-0.62914 0.62433,-0.62914 2.49991,0 2.49991,0 0,-2.655 0,-2.655 -2.45385,0 -2.45385,0 -1.12365,-1.13094 c -0.61801,-0.62201 -1.20465,-1.17889 -1.30365,-1.2375 -0.099,-0.0586 -0.6414,-0.12681 -1.20533,-0.15156 l -1.02534,-0.045 -0.10415,-0.41136 c -0.3015,-1.19077 -1.35536,-2.13598 -2.55962,-2.29574 l -0.46056,-0.0611 0,3.34159 0,3.3416 0.39063,0 c 0.90056,0 2.17148,-0.99516 2.52443,-1.97668 l 0.16302,-0.45332 0.78057,0 0.78057,0 0.69693,0.70103 0.69691,0.70103 -0.024,2.38147 -0.024,2.38147 -4.0725,0.0234 -4.0725,0.0234 0,-0.72091 0,-0.72092 -6.525,0 -6.525,0 0,2.205 0,2.205 6.52136,0 6.52136,0 0.0261,-0.7425 z"
       style="fill:none;stroke:#000000;stroke-width:0.35433072;stroke-miterlimit:4;stroke-dasharray:none;stroke-opacity:1" />
  </g>
</svg>
