  0
SECTION
  2
HEADER
  9
$ACADVER
  1
AC1014
  9
$HANDSEED
  5
FFFF
  9
$MEASUREMENT
 70
     1
  0
ENDSEC
  0
SECTION
  2
TABLES
  0
TABLE
  2
VPORT
  5
8
330
0
100
AcDbSymbolTable
 70
     4
  0
VPORT
  5
2E
330
8
100
AcDbSymbolTableRecord
100
AcDbViewportTableRecord
  2
*ACTIVE
 70
     0
 10
0.0
 20
0.0
 11
1.0
 21
1.0
 12
210.0
 22
148.5
 13
0.0
 23
0.0
 14
10.0
 24
10.0
 15
10.0
 25
10.0
 16
0.0
 26
0.0
 36
1.0
 17
0.0
 27
0.0
 37
0.0
 40
341.0
 41
1.24
 42
50.0
 43
0.0
 44
0.0
 50
0.0
 51
0.0
 71
     0
 72
   100
 73
     1
 74
     3
 75
     0
 76
     0
 77
     0
 78
     0
  0
ENDTAB
  0
TABLE
  2
LTYPE
  5
5
330
0
100
AcDbSymbolTable
 70
     1
  0
LTYPE
  5
14
330
5
100
AcDbSymbolTableRecord
100
AcDbLinetypeTableRecord
  2
BYBLOCK
 70
     0
  3

 72
    65
 73
     0
 40
0.0
  0
LTYPE
  5
15
330
5
100
AcDbSymbolTableRecord
100
AcDbLinetypeTableRecord
  2
BYLAYER
 70
     0
  3

 72
    65
 73
     0
 40
0.0
  0
LTYPE
  5
16
330
5
100
AcDbSymbolTableRecord
100
AcDbLinetypeTableRecord
  2
CONTINUOUS
 70
     0
  3
Solid line
 72
    65
 73
     0
 40
0.0
  0
ENDTAB
  0
TABLE
  2
LAYER
  5
2
100
AcDbSymbolTable
 70
2
  0
LAYER
  5
50
100
AcDbSymbolTableRecord
100
AcDbLayerTableRecord
  2
0
 70
0
  6
CONTINUOUS
  0
LAYER
  5
51
100
AcDbSymbolTableRecord
100
AcDbLayerTableRecord
  2
Layer_1
 70
0
  6
CONTINUOUS
  0
ENDTAB
  0
TABLE
  2
STYLE
  5
3
330
0
100
AcDbSymbolTable
 70
     1
  0
STYLE
  5
11
330
3
100
AcDbSymbolTableRecord
100
AcDbTextStyleTableRecord
  2
STANDARD
 70
     0
 40
0.0
 41
1.0
 50
0.0
 71
     0
 42
2.5
  3
txt
  4

  0
ENDTAB
  0
TABLE
  2
VIEW
  5
6
330
0
100
AcDbSymbolTable
 70
     0
  0
ENDTAB
  0
TABLE
  2
UCS
  5
7
330
0
100
AcDbSymbolTable
 70
     0
  0
ENDTAB
  0
TABLE
  2
APPID
  5
9
330
0
100
AcDbSymbolTable
 70
     2
  0
APPID
  5
12
330
9
100
AcDbSymbolTableRecord
100
AcDbRegAppTableRecord
  2
ACAD
 70
     0
  0
ENDTAB
  0
TABLE
  2
DIMSTYLE
  5
A
330
0
100
AcDbSymbolTable
 70
     1
  0
DIMSTYLE
105
27
330
A
100
AcDbSymbolTableRecord
100
AcDbDimStyleTableRecord
  2
ISO-25
 70
     0
  3

  4

  5

  6

  7

 40
1.0
 41
2.5
 42
0.625
 43
3.75
 44
1.25
 45
0.0
 46
0.0
 47
0.0
 48
0.0
140
2.5
141
2.5
142
0.0
143
0.03937007874016
144
1.0
145
0.0
146
1.0
147
0.625
 71
     0
 72
     0
 73
     0
 74
     0
 75
     0
 76
     0
 77
     1
 78
     8
170
     0
171
     3
172
     1
173
     0
174
     0
175
     0
176
     0
177
     0
178
     0
270
     2
271
     2
272
     2
273
     2
274
     3
340
11
275
     0
280
     0
281
     0
282
     0
283
     0
284
     8
285
     0
286
     0
287
     3
288
     0
  0
ENDTAB
  0
TABLE
  2
BLOCK_RECORD
  5
1
330
0
100
AcDbSymbolTable
 70
     1
  0
BLOCK_RECORD
  5
1F
330
1
100
AcDbSymbolTableRecord
100
AcDbBlockTableRecord
  2
*MODEL_SPACE
  0
BLOCK_RECORD
  5
1B
330
1
100
AcDbSymbolTableRecord
100
AcDbBlockTableRecord
  2
*PAPER_SPACE
  0
ENDTAB
  0
ENDSEC
  0
SECTION
  2
BLOCKS
  0
BLOCK
  5
20
330
1F
100
AcDbEntity
  8
0
100
AcDbBlockBegin
  2
*MODEL_SPACE
 70
     0
 10
0.0
 20
0.0
 30
0.0
  3
*MODEL_SPACE
  1

  0
ENDBLK
  5
21
330
1F
100
AcDbEntity
  8
0
100
AcDbBlockEnd
  0
BLOCK
  5
1C
330
1B
100
AcDbEntity
 67
     1
  8
0
100
AcDbBlockBegin
  2
*PAPER_SPACE
  1

  0
ENDBLK
  5
1D
330
1B
100
AcDbEntity
 67
     1
  8
0
100
AcDbBlockEnd
  0
ENDSEC
  0
SECTION
  2
ENTITIES
  0
LINE
  5
100
100
AcDbEntity
  8
Layer_1
 62
7
100
AcDbLine
 10
129.981091
 20
91.071436
 30
0.0
 11
129.981091
 21
99.516936
 31
0.0
  0
LINE
  5
101
100
AcDbEntity
  8
Layer_1
 62
7
100
AcDbLine
 10
129.981091
 20
99.516936
 30
0.0
 11
154.047591
 21
99.516936
 31
0.0
  0
LINE
  5
102
100
AcDbEntity
  8
Layer_1
 62
7
100
AcDbLine
 10
154.047591
 20
99.516936
 30
0.0
 11
178.114091
 21
99.516936
 31
0.0
  0
LINE
  5
103
100
AcDbEntity
  8
Layer_1
 62
7
100
AcDbLine
 10
178.114091
 20
99.516936
 30
0.0
 11
178.114091
 21
91.071436
 31
0.0
  0
LINE
  5
104
100
AcDbEntity
  8
Layer_1
 62
7
100
AcDbLine
 10
178.114091
 20
91.071436
 30
0.0
 11
178.114091
 21
82.625936
 31
0.0
  0
LINE
  5
105
100
AcDbEntity
  8
Layer_1
 62
7
100
AcDbLine
 10
178.114091
 20
82.625936
 30
0.0
 11
154.047591
 21
82.625936
 31
0.0
  0
LINE
  5
106
100
AcDbEntity
  8
Layer_1
 62
7
100
AcDbLine
 10
154.047591
 20
82.625936
 30
0.0
 11
129.981091
 21
82.625936
 31
0.0
  0
LINE
  5
107
100
AcDbEntity
  8
Layer_1
 62
7
100
AcDbLine
 10
129.981091
 20
82.625936
 30
0.0
 11
129.981091
 21
91.071436
 31
0.0
  0
LINE
  5
108
100
AcDbEntity
  8
Layer_1
 62
7
100
AcDbLine
 10
129.981091
 20
91.071436
 30
0.0
 11
129.981091
 21
91.071436
 31
0.0
  0
LINE
  5
109
100
AcDbEntity
  8
Layer_1
 62
7
100
AcDbLine
 10
142.858891
 20
85.013536
 30
0.0
 11
142.858891
 21
85.292936
 31
0.0
  0
LINE
  5
10a
100
AcDbEntity
  8
Layer_1
 62
7
100
AcDbLine
 10
142.858891
 20
85.292936
 30
0.0
 11
143.379591
 21
85.292936
 31
0.0
  0
LINE
  5
10b
100
AcDbEntity
  8
Layer_1
 62
7
100
AcDbLine
 10
143.379591
 20
85.292936
 30
0.0
 11
143.900291
 21
85.292936
 31
0.0
  0
LINE
  5
10c
100
AcDbEntity
  8
Layer_1
 62
7
100
AcDbLine
 10
143.900291
 20
85.292936
 30
0.0
 11
143.900291
 21
85.013536
 31
0.0
  0
LINE
  5
10d
100
AcDbEntity
  8
Layer_1
 62
7
100
AcDbLine
 10
143.900291
 20
85.013536
 30
0.0
 11
143.900291
 21
84.734136
 31
0.0
  0
LINE
  5
10e
100
AcDbEntity
  8
Layer_1
 62
7
100
AcDbLine
 10
143.900291
 20
84.734136
 30
0.0
 11
144.840091
 21
84.734136
 31
0.0
  0
LINE
  5
10f
100
AcDbEntity
  8
Layer_1
 62
7
100
AcDbLine
 10
144.840091
 20
84.734136
 30
0.0
 11
145.779891
 21
84.734136
 31
0.0
  0
LINE
  5
110
100
AcDbEntity
  8
Layer_1
 62
7
100
AcDbLine
 10
145.779891
 20
84.734136
 30
0.0
 11
145.779891
 21
85.483436
 31
0.0
  0
LINE
  5
111
100
AcDbEntity
  8
Layer_1
 62
7
100
AcDbLine
 10
145.779891
 20
85.483436
 30
0.0
 11
145.779891
 21
86.232736
 31
0.0
  0
LINE
  5
112
100
AcDbEntity
  8
Layer_1
 62
7
100
AcDbLine
 10
145.779891
 20
86.232736
 30
0.0
 11
144.840949
 21
86.232736
 31
0.0
  0
LINE
  5
113
100
AcDbEntity
  8
Layer_1
 62
7
100
AcDbLine
 10
144.840949
 20
86.232736
 30
0.0
 11
143.902009
 21
86.232736
 31
0.0
  0
LINE
  5
114
100
AcDbEntity
  8
Layer_1
 62
7
100
AcDbLine
 10
143.902009
 20
86.232736
 30
0.0
 11
143.894785
 21
85.959686
 31
0.0
  0
LINE
  5
115
100
AcDbEntity
  8
Layer_1
 62
7
100
AcDbLine
 10
143.894785
 20
85.959686
 30
0.0
 11
143.887588
 21
85.686636
 31
0.0
  0
LINE
  5
116
100
AcDbEntity
  8
Layer_1
 62
7
100
AcDbLine
 10
143.887588
 20
85.686636
 30
0.0
 11
143.379588
 21
85.686636
 31
0.0
  0
LINE
  5
117
100
AcDbEntity
  8
Layer_1
 62
7
100
AcDbLine
 10
143.379588
 20
85.686636
 30
0.0
 11
142.871588
 21
85.686636
 31
0.0
  0
LINE
  5
118
100
AcDbEntity
  8
Layer_1
 62
7
100
AcDbLine
 10
142.871588
 20
85.686636
 30
0.0
 11
142.864391
 21
85.959686
 31
0.0
  0
LINE
  5
119
100
AcDbEntity
  8
Layer_1
 62
7
100
AcDbLine
 10
142.864391
 20
85.959686
 30
0.0
 11
142.857166
 21
86.232736
 31
0.0
  0
LINE
  5
11a
100
AcDbEntity
  8
Layer_1
 62
7
100
AcDbLine
 10
142.857166
 20
86.232736
 30
0.0
 11
141.905527
 21
86.232736
 31
0.0
  0
LINE
  5
11b
100
AcDbEntity
  8
Layer_1
 62
7
100
AcDbLine
 10
141.905527
 20
86.232736
 30
0.0
 11
140.953885
 21
86.232736
 31
0.0
  0
LINE
  5
11c
100
AcDbEntity
  8
Layer_1
 62
7
100
AcDbLine
 10
140.953885
 20
86.232736
 30
0.0
 11
140.953885
 21
85.483436
 31
0.0
  0
LINE
  5
11d
100
AcDbEntity
  8
Layer_1
 62
7
100
AcDbLine
 10
140.953885
 20
85.483436
 30
0.0
 11
140.953885
 21
84.734136
 31
0.0
  0
LINE
  5
11e
100
AcDbEntity
  8
Layer_1
 62
7
100
AcDbLine
 10
140.953885
 20
84.734136
 30
0.0
 11
141.906385
 21
84.734136
 31
0.0
  0
LINE
  5
11f
100
AcDbEntity
  8
Layer_1
 62
7
100
AcDbLine
 10
141.906385
 20
84.734136
 30
0.0
 11
142.858885
 21
84.734136
 31
0.0
  0
LINE
  5
120
100
AcDbEntity
  8
Layer_1
 62
7
100
AcDbLine
 10
142.858885
 20
84.734136
 30
0.0
 11
142.858885
 21
85.013536
 31
0.0
  0
LINE
  5
121
100
AcDbEntity
  8
Layer_1
 62
7
100
AcDbLine
 10
142.858885
 20
85.013536
 30
0.0
 11
142.858891
 21
85.013536
 31
0.0
  0
LINE
  5
122
100
AcDbEntity
  8
Layer_1
 62
7
100
AcDbLine
 10
172.277583
 20
85.134186
 30
0.0
 11
172.284779
 21
85.407236
 31
0.0
  0
LINE
  5
123
100
AcDbEntity
  8
Layer_1
 62
7
100
AcDbLine
 10
172.284779
 20
85.407236
 30
0.0
 11
172.735629
 21
85.414179
 31
0.0
  0
LINE
  5
124
100
AcDbEntity
  8
Layer_1
 62
7
100
AcDbLine
 10
172.735629
 20
85.414179
 30
0.0
 11
173.186479
 21
85.421121
 31
0.0
  0
LINE
  5
125
100
AcDbEntity
  8
Layer_1
 62
7
100
AcDbLine
 10
173.186479
 20
85.421121
 30
0.0
 11
173.186479
 21
85.141134
 31
0.0
  0
LINE
  5
126
100
AcDbEntity
  8
Layer_1
 62
7
100
AcDbLine
 10
173.186479
 20
85.141134
 30
0.0
 11
173.186479
 21
84.861147
 31
0.0
  0
LINE
  5
127
100
AcDbEntity
  8
Layer_1
 62
7
100
AcDbLine
 10
173.186479
 20
84.861147
 30
0.0
 11
174.138979
 21
84.861147
 31
0.0
  0
LINE
  5
128
100
AcDbEntity
  8
Layer_1
 62
7
100
AcDbLine
 10
174.138979
 20
84.861147
 30
0.0
 11
175.091479
 21
84.861147
 31
0.0
  0
LINE
  5
129
100
AcDbEntity
  8
Layer_1
 62
7
100
AcDbLine
 10
175.091479
 20
84.861147
 30
0.0
 11
175.091479
 21
85.464589
 31
0.0
  0
LINE
  5
12a
100
AcDbEntity
  8
Layer_1
 62
7
100
AcDbLine
 10
175.091479
 20
85.464589
 30
0.0
 11
175.091479
 21
86.068028
 31
0.0
  0
LINE
  5
12b
100
AcDbEntity
  8
Layer_1
 62
7
100
AcDbLine
 10
175.091479
 20
86.068028
 30
0.0
 11
175.726479
 21
86.702647
 31
0.0
  0
LINE
  5
12c
100
AcDbEntity
  8
Layer_1
 62
7
100
AcDbLine
 10
175.726479
 20
86.702647
 30
0.0
 11
176.361479
 21
87.337266
 31
0.0
  0
LINE
  5
12d
100
AcDbEntity
  8
Layer_1
 62
7
100
AcDbLine
 10
176.361479
 20
87.337266
 30
0.0
 11
176.361479
 21
91.948303
 31
0.0
  0
LINE
  5
12e
100
AcDbEntity
  8
Layer_1
 62
7
100
AcDbLine
 10
176.361479
 20
91.948303
 30
0.0
 11
176.361479
 21
96.559343
 31
0.0
  0
LINE
  5
12f
100
AcDbEntity
  8
Layer_1
 62
7
100
AcDbLine
 10
176.361479
 20
96.559343
 30
0.0
 11
175.795037
 21
97.123745
 31
0.0
  0
LINE
  5
130
100
AcDbEntity
  8
Layer_1
 62
7
100
AcDbLine
 10
175.795037
 20
97.123745
 30
0.0
 11
175.228594
 21
97.688147
 31
0.0
  0
LINE
  5
131
100
AcDbEntity
  8
Layer_1
 62
7
100
AcDbLine
 10
175.228594
 20
97.688147
 30
0.0
 11
162.467513
 21
97.688147
 31
0.0
  0
LINE
  5
132
100
AcDbEntity
  8
Layer_1
 62
7
100
AcDbLine
 10
162.467513
 20
97.688147
 30
0.0
 11
149.706426
 21
97.688147
 31
0.0
  0
LINE
  5
133
100
AcDbEntity
  8
Layer_1
 62
7
100
AcDbLine
 10
149.706426
 20
97.688147
 30
0.0
 11
149.056968
 21
97.040447
 31
0.0
  0
LINE
  5
134
100
AcDbEntity
  8
Layer_1
 62
7
100
AcDbLine
 10
149.056968
 20
97.040447
 30
0.0
 11
148.407509
 21
96.392747
 31
0.0
  0
LINE
  5
135
100
AcDbEntity
  8
Layer_1
 62
7
100
AcDbLine
 10
148.407509
 20
96.392747
 30
0.0
 11
147.703294
 21
96.392747
 31
0.0
  0
LINE
  5
136
100
AcDbEntity
  8
Layer_1
 62
7
100
AcDbLine
 10
147.703294
 20
96.392747
 30
0.0
 11
146.999079
 21
96.392747
 31
0.0
  0
LINE
  5
137
100
AcDbEntity
  8
Layer_1
 62
7
100
AcDbLine
 10
146.999079
 20
96.392747
 30
0.0
 11
146.999079
 21
95.960947
 31
0.0
  0
LINE
  5
138
100
AcDbEntity
  8
Layer_1
 62
7
100
AcDbLine
 10
146.999079
 20
95.960947
 30
0.0
 11
146.999079
 21
95.529147
 31
0.0
  0
LINE
  5
139
100
AcDbEntity
  8
Layer_1
 62
7
100
AcDbLine
 10
146.999079
 20
95.529147
 30
0.0
 11
146.122779
 21
95.529147
 31
0.0
  0
LINE
  5
13a
100
AcDbEntity
  8
Layer_1
 62
7
100
AcDbLine
 10
146.122779
 20
95.529147
 30
0.0
 11
145.246479
 21
95.529147
 31
0.0
  0
LINE
  5
13b
100
AcDbEntity
  8
Layer_1
 62
7
100
AcDbLine
 10
145.246479
 20
95.529147
 30
0.0
 11
145.246479
 21
95.783147
 31
0.0
  0
LINE
  5
13c
100
AcDbEntity
  8
Layer_1
 62
7
100
AcDbLine
 10
145.246479
 20
95.783147
 30
0.0
 11
145.246479
 21
96.037147
 31
0.0
  0
LINE
  5
13d
100
AcDbEntity
  8
Layer_1
 62
7
100
AcDbLine
 10
145.246479
 20
96.037147
 30
0.0
 11
144.852779
 21
96.037147
 31
0.0
  0
LINE
  5
13e
100
AcDbEntity
  8
Layer_1
 62
7
100
AcDbLine
 10
144.852779
 20
96.037147
 30
0.0
 11
144.459079
 21
96.037147
 31
0.0
  0
LINE
  5
13f
100
AcDbEntity
  8
Layer_1
 62
7
100
AcDbLine
 10
144.459079
 20
96.037147
 30
0.0
 11
144.459079
 21
95.783147
 31
0.0
  0
LINE
  5
140
100
AcDbEntity
  8
Layer_1
 62
7
100
AcDbLine
 10
144.459079
 20
95.783147
 30
0.0
 11
144.459079
 21
95.529147
 31
0.0
  0
LINE
  5
141
100
AcDbEntity
  8
Layer_1
 62
7
100
AcDbLine
 10
144.459079
 20
95.529147
 30
0.0
 11
143.379579
 21
95.529147
 31
0.0
  0
LINE
  5
142
100
AcDbEntity
  8
Layer_1
 62
7
100
AcDbLine
 10
143.379579
 20
95.529147
 30
0.0
 11
142.300079
 21
95.529147
 31
0.0
  0
LINE
  5
143
100
AcDbEntity
  8
Layer_1
 62
7
100
AcDbLine
 10
142.300079
 20
95.529147
 30
0.0
 11
142.300079
 21
95.783147
 31
0.0
  0
LINE
  5
144
100
AcDbEntity
  8
Layer_1
 62
7
100
AcDbLine
 10
142.300079
 20
95.783147
 30
0.0
 11
142.300079
 21
96.037147
 31
0.0
  0
LINE
  5
145
100
AcDbEntity
  8
Layer_1
 62
7
100
AcDbLine
 10
142.300079
 20
96.037147
 30
0.0
 11
141.906379
 21
96.037147
 31
0.0
  0
LINE
  5
146
100
AcDbEntity
  8
Layer_1
 62
7
100
AcDbLine
 10
141.906379
 20
96.037147
 30
0.0
 11
141.512679
 21
96.037147
 31
0.0
  0
LINE
  5
147
100
AcDbEntity
  8
Layer_1
 62
7
100
AcDbLine
 10
141.512679
 20
96.037147
 30
0.0
 11
141.512679
 21
95.414847
 31
0.0
  0
LINE
  5
148
100
AcDbEntity
  8
Layer_1
 62
7
100
AcDbLine
 10
141.512679
 20
95.414847
 30
0.0
 11
141.512679
 21
94.792547
 31
0.0
  0
LINE
  5
149
100
AcDbEntity
  8
Layer_1
 62
7
100
AcDbLine
 10
141.512679
 20
94.792547
 30
0.0
 11
140.331579
 21
94.792547
 31
0.0
  0
LINE
  5
14a
100
AcDbEntity
  8
Layer_1
 62
7
100
AcDbLine
 10
140.331579
 20
94.792547
 30
0.0
 11
139.150479
 21
94.792547
 31
0.0
  0
LINE
  5
14b
100
AcDbEntity
  8
Layer_1
 62
7
100
AcDbLine
 10
139.150479
 20
94.792547
 30
0.0
 11
139.150479
 21
95.071947
 31
0.0
  0
LINE
  5
14c
100
AcDbEntity
  8
Layer_1
 62
7
100
AcDbLine
 10
139.150479
 20
95.071947
 30
0.0
 11
139.150479
 21
95.351347
 31
0.0
  0
LINE
  5
14d
100
AcDbEntity
  8
Layer_1
 62
7
100
AcDbLine
 10
139.150479
 20
95.351347
 30
0.0
 11
135.403979
 21
95.351347
 31
0.0
  0
LINE
  5
14e
100
AcDbEntity
  8
Layer_1
 62
7
100
AcDbLine
 10
135.403979
 20
95.351347
 30
0.0
 11
131.657479
 21
95.351347
 31
0.0
  0
LINE
  5
14f
100
AcDbEntity
  8
Layer_1
 62
7
100
AcDbLine
 10
131.657479
 20
95.351347
 30
0.0
 11
131.657479
 21
94.602047
 31
0.0
  0
LINE
  5
150
100
AcDbEntity
  8
Layer_1
 62
7
100
AcDbLine
 10
131.657479
 20
94.602047
 30
0.0
 11
131.657479
 21
93.852747
 31
0.0
  0
LINE
  5
151
100
AcDbEntity
  8
Layer_1
 62
7
100
AcDbLine
 10
131.657479
 20
93.852747
 30
0.0
 11
135.403979
 21
93.852747
 31
0.0
  0
LINE
  5
152
100
AcDbEntity
  8
Layer_1
 62
7
100
AcDbLine
 10
135.403979
 20
93.852747
 30
0.0
 11
139.150479
 21
93.852747
 31
0.0
  0
LINE
  5
153
100
AcDbEntity
  8
Layer_1
 62
7
100
AcDbLine
 10
139.150479
 20
93.852747
 30
0.0
 11
139.150479
 21
94.118984
 31
0.0
  0
LINE
  5
154
100
AcDbEntity
  8
Layer_1
 62
7
100
AcDbLine
 10
139.150479
 20
94.118984
 30
0.0
 11
139.150479
 21
94.385222
 31
0.0
  0
LINE
  5
155
100
AcDbEntity
  8
Layer_1
 62
7
100
AcDbLine
 10
139.150479
 20
94.385222
 30
0.0
 11
140.414129
 21
94.397160
 31
0.0
  0
LINE
  5
156
100
AcDbEntity
  8
Layer_1
 62
7
100
AcDbLine
 10
141.988201
 20
94.424507
 30
0.0
 11
142.298626
 21
94.439916
 31
0.0
  0
LINE
  5
157
100
AcDbEntity
  8
Layer_1
 62
7
100
AcDbLine
 10
142.298626
 20
94.439916
 30
0.0
 11
142.305710
 21
94.774985
 31
0.0
  0
LINE
  5
158
100
AcDbEntity
  8
Layer_1
 62
7
100
AcDbLine
 10
142.305710
 20
94.774985
 30
0.0
 11
142.312794
 21
95.110053
 31
0.0
  0
LINE
  5
159
100
AcDbEntity
  8
Layer_1
 62
7
100
AcDbLine
 10
142.312794
 20
95.110053
 30
0.0
 11
143.379594
 21
95.110053
 31
0.0
  0
LINE
  5
15a
100
AcDbEntity
  8
Layer_1
 62
7
100
AcDbLine
 10
143.379594
 20
95.110053
 30
0.0
 11
144.446394
 21
95.110053
 31
0.0
  0
LINE
  5
15b
100
AcDbEntity
  8
Layer_1
 62
7
100
AcDbLine
 10
144.446394
 20
95.110053
 30
0.0
 11
144.453477
 21
94.773503
 31
0.0
  0
LINE
  5
15c
100
AcDbEntity
  8
Layer_1
 62
7
100
AcDbLine
 10
144.453477
 20
94.773503
 30
0.0
 11
144.460561
 21
94.436953
 31
0.0
  0
LINE
  5
15d
100
AcDbEntity
  8
Layer_1
 62
7
100
AcDbLine
 10
144.460561
 20
94.436953
 30
0.0
 11
144.853525
 21
94.436953
 31
0.0
  0
LINE
  5
15e
100
AcDbEntity
  8
Layer_1
 62
7
100
AcDbLine
 10
144.853525
 20
94.436953
 30
0.0
 11
145.246488
 21
94.436953
 31
0.0
  0
LINE
  5
15f
100
AcDbEntity
  8
Layer_1
 62
7
100
AcDbLine
 10
145.246488
 20
94.436953
 30
0.0
 11
145.246488
 21
94.779853
 31
0.0
  0
LINE
  5
160
100
AcDbEntity
  8
Layer_1
 62
7
100
AcDbLine
 10
145.246488
 20
94.779853
 30
0.0
 11
145.246488
 21
95.122753
 31
0.0
  0
LINE
  5
161
100
AcDbEntity
  8
Layer_1
 62
7
100
AcDbLine
 10
145.246488
 20
95.122753
 30
0.0
 11
146.122788
 21
95.122753
 31
0.0
  0
LINE
  5
162
100
AcDbEntity
  8
Layer_1
 62
7
100
AcDbLine
 10
146.122788
 20
95.122753
 30
0.0
 11
146.999088
 21
95.122753
 31
0.0
  0
LINE
  5
163
100
AcDbEntity
  8
Layer_1
 62
7
100
AcDbLine
 10
146.999088
 20
95.122753
 30
0.0
 11
146.999088
 21
94.817953
 31
0.0
  0
LINE
  5
164
100
AcDbEntity
  8
Layer_1
 62
7
100
AcDbLine
 10
146.999088
 20
94.817953
 30
0.0
 11
146.999088
 21
94.513153
 31
0.0
  0
LINE
  5
165
100
AcDbEntity
  8
Layer_1
 62
7
100
AcDbLine
 10
146.999088
 20
94.513153
 30
0.0
 11
147.748388
 21
94.513153
 31
0.0
  0
LINE
  5
166
100
AcDbEntity
  8
Layer_1
 62
7
100
AcDbLine
 10
147.748388
 20
94.513153
 30
0.0
 11
148.497688
 21
94.513153
 31
0.0
  0
LINE
  5
167
100
AcDbEntity
  8
Layer_1
 62
7
100
AcDbLine
 10
148.497688
 20
94.513153
 30
0.0
 11
148.497688
 21
95.217831
 31
0.0
  0
LINE
  5
168
100
AcDbEntity
  8
Layer_1
 62
7
100
AcDbLine
 10
148.497688
 20
95.217831
 30
0.0
 11
148.497688
 21
95.922506
 31
0.0
  0
LINE
  5
169
100
AcDbEntity
  8
Layer_1
 62
7
100
AcDbLine
 10
148.497688
 20
95.922506
 30
0.0
 11
149.176960
 21
96.602131
 31
0.0
  0
LINE
  5
16a
100
AcDbEntity
  8
Layer_1
 62
7
100
AcDbLine
 10
149.176960
 20
96.602131
 30
0.0
 11
149.856235
 21
97.281753
 31
0.0
  0
LINE
  5
16b
100
AcDbEntity
  8
Layer_1
 62
7
100
AcDbLine
 10
149.856235
 20
97.281753
 30
0.0
 11
162.467253
 21
97.281753
 31
0.0
  0
LINE
  5
16c
100
AcDbEntity
  8
Layer_1
 62
7
100
AcDbLine
 10
162.467253
 20
97.281753
 30
0.0
 11
175.078271
 21
97.281753
 31
0.0
  0
LINE
  5
16d
100
AcDbEntity
  8
Layer_1
 62
7
100
AcDbLine
 10
175.078271
 20
97.281753
 30
0.0
 11
175.529381
 21
96.831168
 31
0.0
  0
LINE
  5
16e
100
AcDbEntity
  8
Layer_1
 62
7
100
AcDbLine
 10
175.529381
 20
96.831168
 30
0.0
 11
175.980488
 21
96.380584
 31
0.0
  0
LINE
  5
16f
100
AcDbEntity
  8
Layer_1
 62
7
100
AcDbLine
 10
175.980488
 20
96.380584
 30
0.0
 11
175.980488
 21
91.948221
 31
0.0
  0
LINE
  5
170
100
AcDbEntity
  8
Layer_1
 62
7
100
AcDbLine
 10
175.980488
 20
91.948221
 30
0.0
 11
175.980488
 21
87.515859
 31
0.0
  0
LINE
  5
171
100
AcDbEntity
  8
Layer_1
 62
7
100
AcDbLine
 10
175.980488
 20
87.515859
 30
0.0
 11
175.402847
 21
86.937806
 31
0.0
  0
LINE
  5
172
100
AcDbEntity
  8
Layer_1
 62
7
100
AcDbLine
 10
175.402847
 20
86.937806
 30
0.0
 11
174.825203
 21
86.359753
 31
0.0
  0
LINE
  5
173
100
AcDbEntity
  8
Layer_1
 62
7
100
AcDbLine
 10
174.825203
 20
86.359753
 30
0.0
 11
174.005847
 21
86.359753
 31
0.0
  0
LINE
  5
174
100
AcDbEntity
  8
Layer_1
 62
7
100
AcDbLine
 10
174.005847
 20
86.359753
 30
0.0
 11
173.186488
 21
86.359753
 31
0.0
  0
LINE
  5
175
100
AcDbEntity
  8
Layer_1
 62
7
100
AcDbLine
 10
173.186488
 20
86.359753
 30
0.0
 11
173.186488
 21
86.093053
 31
0.0
  0
LINE
  5
176
100
AcDbEntity
  8
Layer_1
 62
7
100
AcDbLine
 10
173.186488
 20
86.093053
 30
0.0
 11
173.186488
 21
85.826353
 31
0.0
  0
LINE
  5
177
100
AcDbEntity
  8
Layer_1
 62
7
100
AcDbLine
 10
173.186488
 20
85.826353
 30
0.0
 11
172.729288
 21
85.826353
 31
0.0
  0
LINE
  5
178
100
AcDbEntity
  8
Layer_1
 62
7
100
AcDbLine
 10
172.729288
 20
85.826353
 30
0.0
 11
172.272088
 21
85.826353
 31
0.0
  0
LINE
  5
179
100
AcDbEntity
  8
Layer_1
 62
7
100
AcDbLine
 10
172.272088
 20
85.826353
 30
0.0
 11
172.272088
 21
86.093053
 31
0.0
  0
LINE
  5
17a
100
AcDbEntity
  8
Layer_1
 62
7
100
AcDbLine
 10
172.272088
 20
86.093053
 30
0.0
 11
172.272088
 21
86.359753
 31
0.0
  0
LINE
  5
17b
100
AcDbEntity
  8
Layer_1
 62
7
100
AcDbLine
 10
172.272088
 20
86.359753
 30
0.0
 11
171.465505
 21
86.359753
 31
0.0
  0
LINE
  5
17c
100
AcDbEntity
  8
Layer_1
 62
7
100
AcDbLine
 10
171.465505
 20
86.359753
 30
0.0
 11
170.658923
 21
86.359753
 31
0.0
  0
LINE
  5
17d
100
AcDbEntity
  8
Layer_1
 62
7
100
AcDbLine
 10
170.658923
 20
86.359753
 30
0.0
 11
169.744655
 21
87.275815
 31
0.0
  0
SPLINE
  5
17e
100
AcDbEntity
  8
Layer_1
 62
7
100
AcDbSpline
 70
0
 71
3
 72
10
 73
6
 74
4
 40
0.000000
 40
0.000000
 40
0.000000
 40
0.000000
 40
0.679094
 40
1.244679
 40
1.574340
 40
1.574340
 40
1.574340
 40
1.574340
 10
140.414129
 20
94.397160
 30
0.0
 10
140.640478
 20
94.399745
 30
0.0
 10
141.055341
 20
94.404483
 30
0.0
 10
141.580084
 20
94.412074
 30
0.0
 10
141.878364
 20
94.421161
 30
0.0
 10
141.988201
 20
94.424507
 30
0.0
 11
140.414129
 21
94.397160
 31
0.0
 11
141.093175
 21
94.405291
 31
0.0
 11
141.658675
 21
94.415115
 31
0.0
 11
141.988201
 21
94.424507
 31
0.0
  0
LINE
  5
17f
100
AcDbEntity
  8
Layer_1
 62
7
100
AcDbLine
 10
168.387149
 20
88.264753
 30
0.0
 11
168.081088
 21
88.264753
 31
0.0
  0
LINE
  5
180
100
AcDbEntity
  8
Layer_1
 62
7
100
AcDbLine
 10
168.081088
 20
88.264753
 30
0.0
 11
168.081088
 21
88.671153
 31
0.0
  0
LINE
  5
181
100
AcDbEntity
  8
Layer_1
 62
7
100
AcDbLine
 10
168.081088
 20
88.671153
 30
0.0
 11
168.081088
 21
89.077553
 31
0.0
  0
LINE
  5
182
100
AcDbEntity
  8
Layer_1
 62
7
100
AcDbLine
 10
168.081088
 20
89.077553
 30
0.0
 11
166.239588
 21
89.077553
 31
0.0
  0
SPLINE
  5
183
100
AcDbEntity
  8
Layer_1
 62
7
100
AcDbSpline
 70
0
 71
3
 72
13
 73
9
 74
7
 40
0.000000
 40
0.000000
 40
0.000000
 40
0.000000
 40
0.662095
 40
1.153803
 40
1.368864
 40
1.442425
 40
1.564344
 40
1.747166
 40
1.747166
 40
1.747166
 40
1.747166
 10
169.744655
 20
87.275815
 30
0.0
 10
169.589974
 20
87.434587
 30
0.0
 10
169.320419
 20
87.711271
 30
0.0
 10
168.979447
 20
88.003867
 30
0.0
 10
168.810391
 20
88.219539
 30
0.0
 10
168.675499
 20
88.255298
 30
0.0
 10
168.549739
 20
88.263178
 30
0.0
 10
168.448116
 20
88.264162
 30
0.0
 10
168.387149
 20
88.264753
 30
0.0
 11
169.744655
 21
87.275815
 31
0.0
 11
169.274736
 21
87.742233
 31
0.0
 11
168.921635
 21
88.084427
 31
0.0
 11
168.761799
 21
88.228315
 31
0.0
 11
168.691281
 21
88.249252
 31
0.0
 11
168.569934
 21
88.261051
 31
0.0
 11
168.387149
 21
88.264753
 31
0.0
  0
LINE
  5
184
100
AcDbEntity
  8
Layer_1
 62
7
100
AcDbLine
 10
164.263852
 20
88.975953
 30
0.0
 11
164.129613
 21
88.975953
 31
0.0
  0
LINE
  5
185
100
AcDbEntity
  8
Layer_1
 62
7
100
AcDbLine
 10
164.129613
 20
88.975953
 30
0.0
 11
163.686676
 21
89.421393
 31
0.0
  0
SPLINE
  5
186
100
AcDbEntity
  8
Layer_1
 62
7
100
AcDbSpline
 70
0
 71
3
 72
13
 73
9
 74
7
 40
0.000000
 40
0.000000
 40
0.000000
 40
0.000000
 40
1.288346
 40
1.769719
 40
1.849964
 40
1.884003
 40
1.925237
 40
2.012236
 40
2.012236
 40
2.012236
 40
2.012236
 10
166.239588
 20
89.077553
 30
0.0
 10
165.796343
 20
89.068367
 30
0.0
 10
165.187487
 20
89.055749
 30
0.0
 10
164.632660
 20
89.092956
 30
0.0
 10
164.392944
 20
89.048959
 30
0.0
 10
164.395880
 20
88.985599
 30
0.0
 10
164.331567
 20
88.975600
 30
0.0
 10
164.291223
 20
88.975810
 30
0.0
 10
164.263852
 20
88.975953
 30
0.0
 11
166.239588
 21
89.077553
 31
0.0
 11
164.951243
 21
89.075546
 31
0.0
 11
164.470055
 21
89.062250
 31
0.0
 11
164.398088
 21
89.026753
 31
0.0
 11
164.389353
 21
88.993853
 31
0.0
 11
164.350788
 21
88.979259
 31
0.0
 11
164.263852
 21
88.975953
 31
0.0
  0
LINE
  5
187
100
AcDbEntity
  8
Layer_1
 62
7
100
AcDbLine
 10
160.562688
 20
89.898921
 30
0.0
 11
157.984588
 21
89.910125
 31
0.0
  0
LINE
  5
188
100
AcDbEntity
  8
Layer_1
 62
7
100
AcDbLine
 10
157.984588
 20
89.910125
 30
0.0
 11
157.609938
 21
89.537338
 31
0.0
  0
LINE
  5
189
100
AcDbEntity
  8
Layer_1
 62
7
100
AcDbLine
 10
157.609938
 20
89.537338
 30
0.0
 11
157.235288
 21
89.164554
 31
0.0
  0
LINE
  5
18a
100
AcDbEntity
  8
Layer_1
 62
7
100
AcDbLine
 10
157.235288
 20
89.164554
 30
0.0
 11
157.235288
 21
88.699257
 31
0.0
  0
SPLINE
  5
18b
100
AcDbEntity
  8
Layer_1
 62
7
100
AcDbSpline
 70
0
 71
3
 72
13
 73
9
 74
7
 40
0.000000
 40
0.000000
 40
0.000000
 40
0.000000
 40
0.322429
 40
0.564035
 40
0.673125
 40
1.052408
 40
1.997140
 40
3.302812
 40
3.302812
 40
3.302812
 40
3.302812
 10
163.686676
 20
89.421393
 30
0.0
 10
163.610262
 20
89.497403
 30
0.0
 10
163.476588
 20
89.630369
 30
0.0
 10
163.313703
 20
89.780913
 30
0.0
 10
163.125026
 20
89.946029
 30
0.0
 10
162.601694
 20
89.820978
 30
0.0
 10
161.759009
 20
89.924548
 30
0.0
 10
161.001937
 20
89.908331
 30
0.0
 10
160.562688
 20
89.898921
 30
0.0
 11
163.686676
 21
89.421393
 31
0.0
 11
163.456514
 21
89.647193
 31
0.0
 11
163.278892
 21
89.810973
 31
0.0
 11
163.192262
 21
89.877275
 31
0.0
 11
162.813040
 21
89.884078
 31
0.0
 11
161.868341
 21
89.891854
 31
0.0
 11
160.562688
 21
89.898921
 31
0.0
  0
LINE
  5
18c
100
AcDbEntity
  8
Layer_1
 62
7
100
AcDbLine
 10
157.789539
 20
87.339662
 30
0.0
 11
157.781382
 21
88.052897
 31
0.0
  0
LINE
  5
18d
100
AcDbEntity
  8
Layer_1
 62
7
100
AcDbLine
 10
157.781382
 20
88.052897
 30
0.0
 11
157.711532
 21
88.144416
 31
0.0
  0
SPLINE
  5
18e
100
AcDbEntity
  8
Layer_1
 62
7
100
AcDbSpline
 70
0
 71
3
 72
25
 73
21
 74
19
 40
0.000000
 40
0.000000
 40
0.000000
 40
0.000000
 40
0.326900
 40
0.469810
 40
0.552815
 40
0.611882
 40
0.674498
 40
0.728364
 40
0.867184
 40
1.152089
 40
1.521538
 40
2.004876
 40
2.219142
 40
2.309338
 40
2.568673
 40
2.816689
 40
3.074369
 40
3.208823
 40
3.483499
 40
3.878299
 40
3.878299
 40
3.878299
 40
3.878299
 10
157.235288
 20
88.699257
 30
0.0
 10
157.233528
 20
88.591742
 30
0.0
 10
157.230999
 20
88.437226
 30
0.0
 10
157.234620
 20
88.244847
 30
0.0
 10
157.177406
 20
88.165870
 30
0.0
 10
157.137150
 20
88.111086
 30
0.0
 10
157.111223
 20
88.058248
 30
0.0
 10
157.084480
 20
87.976833
 30
0.0
 10
157.092333
 20
87.815195
 30
0.0
 10
157.083204
 20
87.552460
 30
0.0
 10
157.086921
 20
87.171998
 30
0.0
 10
157.099002
 20
86.818780
 30
0.0
 10
157.092946
 20
86.552454
 30
0.0
 10
157.162372
 20
86.373736
 30
0.0
 10
157.360161
 20
86.263065
 30
0.0
 10
157.627640
 20
86.306801
 30
0.0
 10
157.781112
 20
86.492660
 30
0.0
 10
157.785026
 20
86.717902
 30
0.0
 10
157.793680
 20
86.984439
 30
0.0
 10
157.791075
 20
87.207890
 30
0.0
 10
157.789539
 20
87.339662
 30
0.0
 11
157.235288
 21
88.699257
 31
0.0
 11
157.232723
 21
88.372366
 31
0.0
 11
157.216271
 21
88.230407
 31
0.0
 11
157.172798
 21
88.159696
 31
0.0
 11
157.139253
 21
88.111080
 31
0.0
 11
157.111376
 21
88.055011
 31
0.0
 11
157.095204
 21
88.003630
 31
0.0
 11
157.088660
 21
87.864965
 31
0.0
 11
157.086010
 21
87.580071
 31
0.0
 11
157.087838
 21
87.210628
 31
0.0
 11
157.095682
 21
86.727353
 31
0.0
 11
157.111720
 21
86.513688
 31
0.0
 11
157.146382
 21
86.430419
 31
0.0
 11
157.366378
 21
86.293098
 31
0.0
 11
157.610894
 21
86.334610
 31
0.0
 11
157.771053
 21
86.536472
 31
0.0
 11
157.784419
 21
86.670260
 31
0.0
 11
157.790735
 21
86.944864
 31
0.0
 11
157.789539
 21
87.339662
 31
0.0
  0
LINE
  5
18f
100
AcDbEntity
  8
Layer_1
 62
7
100
AcDbLine
 10
157.641682
 20
88.612736
 30
0.0
 11
157.641682
 21
88.989536
 31
0.0
  0
LINE
  5
190
100
AcDbEntity
  8
Layer_1
 62
7
100
AcDbLine
 10
157.641682
 20
88.989536
 30
0.0
 11
157.902032
 21
89.248501
 31
0.0
  0
LINE
  5
191
100
AcDbEntity
  8
Layer_1
 62
7
100
AcDbLine
 10
157.902032
 20
89.248501
 30
0.0
 11
158.162382
 21
89.507462
 31
0.0
  0
LINE
  5
192
100
AcDbEntity
  8
Layer_1
 62
7
100
AcDbLine
 10
158.162382
 20
89.507462
 30
0.0
 11
158.619582
 21
89.521884
 31
0.0
  0
SPLINE
  5
193
100
AcDbEntity
  8
Layer_1
 62
7
100
AcDbSpline
 70
0
 71
3
 72
10
 73
6
 74
4
 40
0.000000
 40
0.000000
 40
0.000000
 40
0.000000
 40
0.092760
 40
0.216878
 40
0.483537
 40
0.483537
 40
0.483537
 40
0.483537
 10
157.711532
 20
88.144416
 30
0.0
 10
157.692813
 20
88.169775
 30
0.0
 10
157.649048
 20
88.229066
 30
0.0
 10
157.641711
 20
88.395850
 30
0.0
 10
157.641694
 20
88.524766
 30
0.0
 10
157.641682
 20
88.612736
 30
0.0
 11
157.711532
 21
88.144416
 31
0.0
 11
157.662780
 21
88.223332
 31
0.0
 11
157.644470
 21
88.346092
 31
0.0
 11
157.641682
 21
88.612736
 31
0.0
  0
LINE
  5
194
100
AcDbEntity
  8
Layer_1
 62
7
100
AcDbLine
 10
161.096531
 20
89.548667
 30
0.0
 11
163.116280
 21
89.561028
 31
0.0
  0
LINE
  5
195
100
AcDbEntity
  8
Layer_1
 62
7
100
AcDbLine
 10
163.116280
 20
89.561028
 30
0.0
 11
163.558720
 21
89.116088
 31
0.0
  0
LINE
  5
196
100
AcDbEntity
  8
Layer_1
 62
7
100
AcDbLine
 10
163.558720
 20
89.116088
 30
0.0
 11
164.001159
 21
88.671145
 31
0.0
  0
LINE
  5
197
100
AcDbEntity
  8
Layer_1
 62
7
100
AcDbLine
 10
164.001159
 20
88.671145
 30
0.0
 11
164.199621
 21
88.671145
 31
0.0
  0
LINE
  5
198
100
AcDbEntity
  8
Layer_1
 62
7
100
AcDbLine
 10
164.199621
 20
88.671145
 30
0.0
 11
164.398082
 21
88.671145
 31
0.0
  0
LINE
  5
199
100
AcDbEntity
  8
Layer_1
 62
7
100
AcDbLine
 10
164.398082
 20
88.671145
 30
0.0
 11
164.398082
 21
88.239345
 31
0.0
  0
LINE
  5
19a
100
AcDbEntity
  8
Layer_1
 62
7
100
AcDbLine
 10
164.398082
 20
88.239345
 30
0.0
 11
164.398082
 21
87.807545
 31
0.0
  0
LINE
  5
19b
100
AcDbEntity
  8
Layer_1
 62
7
100
AcDbLine
 10
164.398082
 20
87.807545
 30
0.0
 11
166.239582
 21
87.807545
 31
0.0
  0
SPLINE
  5
19c
100
AcDbEntity
  8
Layer_1
 62
7
100
AcDbSpline
 70
0
 71
3
 72
10
 73
6
 74
4
 40
0.000000
 40
0.000000
 40
0.000000
 40
0.000000
 40
0.507152
 40
1.397071
 40
2.477111
 40
2.477111
 40
2.477111
 40
2.477111
 10
158.619582
 20
89.521884
 30
0.0
 10
158.788604
 20
89.525072
 30
0.0
 10
159.254213
 20
89.533854
 30
0.0
 10
160.079895
 20
89.541254
 30
0.0
 10
160.736528
 20
89.546042
 30
0.0
 10
161.096531
 20
89.548667
 30
0.0
 11
158.619582
 21
89.521884
 31
0.0
 11
159.126656
 21
89.530841
 31
0.0
 11
160.016522
 21
89.540462
 31
0.0
 11
161.096531
 21
89.548667
 31
0.0
  0
LINE
  5
19d
100
AcDbEntity
  8
Layer_1
 62
7
100
AcDbLine
 10
168.328602
 20
87.858345
 30
0.0
 11
168.576120
 21
87.858345
 31
0.0
  0
LINE
  5
19e
100
AcDbEntity
  8
Layer_1
 62
7
100
AcDbLine
 10
168.576120
 20
87.858345
 30
0.0
 11
169.484302
 21
86.950427
 31
0.0
  0
LINE
  5
19f
100
AcDbEntity
  8
Layer_1
 62
7
100
AcDbLine
 10
169.484302
 20
86.950427
 30
0.0
 11
170.392482
 21
86.042510
 31
0.0
  0
LINE
  5
1a0
100
AcDbEntity
  8
Layer_1
 62
7
100
AcDbLine
 10
170.392482
 20
86.042510
 30
0.0
 11
170.392482
 21
85.451827
 31
0.0
  0
LINE
  5
1a1
100
AcDbEntity
  8
Layer_1
 62
7
100
AcDbLine
 10
170.392482
 20
85.451827
 30
0.0
 11
170.392482
 21
84.861145
 31
0.0
  0
LINE
  5
1a2
100
AcDbEntity
  8
Layer_1
 62
7
100
AcDbLine
 10
170.392482
 20
84.861145
 30
0.0
 11
171.331424
 21
84.861145
 31
0.0
  0
LINE
  5
1a3
100
AcDbEntity
  8
Layer_1
 62
7
100
AcDbLine
 10
171.331424
 20
84.861145
 30
0.0
 11
172.270364
 21
84.861145
 31
0.0
  0
LINE
  5
1a4
100
AcDbEntity
  8
Layer_1
 62
7
100
AcDbLine
 10
172.270364
 20
84.861145
 30
0.0
 11
172.277560
 21
85.134195
 31
0.0
  0
LINE
  5
1a5
100
AcDbEntity
  8
Layer_1
 62
7
100
AcDbLine
 10
172.277560
 20
85.134195
 30
0.0
 11
172.277583
 21
85.134186
 31
0.0
  0
LINE
  5
1a6
100
AcDbEntity
  8
Layer_1
 62
7
100
AcDbLine
 10
159.083141
 20
85.689295
 30
0.0
 11
159.826091
 21
86.442393
 31
0.0
  0
LINE
  5
1a7
100
AcDbEntity
  8
Layer_1
 62
7
100
AcDbLine
 10
159.826091
 20
86.442393
 30
0.0
 11
159.826091
 21
87.124965
 31
0.0
  0
LINE
  5
1a8
100
AcDbEntity
  8
Layer_1
 62
7
100
AcDbLine
 10
159.826091
 20
87.124965
 30
0.0
 11
159.826091
 21
87.807536
 31
0.0
  0
LINE
  5
1a9
100
AcDbEntity
  8
Layer_1
 62
7
100
AcDbLine
 10
159.826091
 20
87.807536
 30
0.0
 11
161.413591
 21
87.807536
 31
0.0
  0
LINE
  5
1aa
100
AcDbEntity
  8
Layer_1
 62
7
100
AcDbLine
 10
161.413591
 20
87.807536
 30
0.0
 11
163.001091
 21
87.807536
 31
0.0
  0
LINE
  5
1ab
100
AcDbEntity
  8
Layer_1
 62
7
100
AcDbLine
 10
163.001091
 20
87.807536
 30
0.0
 11
163.001091
 21
88.442536
 31
0.0
  0
LINE
  5
1ac
100
AcDbEntity
  8
Layer_1
 62
7
100
AcDbLine
 10
163.001091
 20
88.442536
 30
0.0
 11
163.001091
 21
89.077536
 31
0.0
  0
LINE
  5
1ad
100
AcDbEntity
  8
Layer_1
 62
7
100
AcDbLine
 10
163.001091
 20
89.077536
 30
0.0
 11
161.159591
 21
89.077536
 31
0.0
  0
LINE
  5
1ae
100
AcDbEntity
  8
Layer_1
 62
7
100
AcDbLine
 10
161.159591
 20
89.077536
 30
0.0
 11
159.318091
 21
89.077536
 31
0.0
  0
LINE
  5
1af
100
AcDbEntity
  8
Layer_1
 62
7
100
AcDbLine
 10
159.318091
 20
89.077536
 30
0.0
 11
159.318091
 21
88.442536
 31
0.0
  0
LINE
  5
1b0
100
AcDbEntity
  8
Layer_1
 62
7
100
AcDbLine
 10
159.318091
 20
88.442536
 30
0.0
 11
159.318091
 21
87.807536
 31
0.0
  0
LINE
  5
1b1
100
AcDbEntity
  8
Layer_1
 62
7
100
AcDbLine
 10
159.318091
 20
87.807536
 30
0.0
 11
159.381591
 21
87.807536
 31
0.0
  0
LINE
  5
1b2
100
AcDbEntity
  8
Layer_1
 62
7
100
AcDbLine
 10
159.381591
 20
87.807536
 30
0.0
 11
159.445091
 21
87.807536
 31
0.0
  0
LINE
  5
1b3
100
AcDbEntity
  8
Layer_1
 62
7
100
AcDbLine
 10
159.445091
 20
87.807536
 30
0.0
 11
159.445091
 21
87.216800
 31
0.0
  0
LINE
  5
1b4
100
AcDbEntity
  8
Layer_1
 62
7
100
AcDbLine
 10
159.445091
 20
87.216800
 30
0.0
 11
159.445091
 21
86.626064
 31
0.0
  0
LINE
  5
1b5
100
AcDbEntity
  8
Layer_1
 62
7
100
AcDbLine
 10
159.445091
 20
86.626064
 30
0.0
 11
158.803557
 21
85.984900
 31
0.0
  0
LINE
  5
1b6
100
AcDbEntity
  8
Layer_1
 62
7
100
AcDbLine
 10
158.803557
 20
85.984900
 30
0.0
 11
158.162024
 21
85.343736
 31
0.0
  0
LINE
  5
1b7
100
AcDbEntity
  8
Layer_1
 62
7
100
AcDbLine
 10
158.162024
 20
85.343736
 30
0.0
 11
156.371804
 21
85.343736
 31
0.0
  0
LINE
  5
1b8
100
AcDbEntity
  8
Layer_1
 62
7
100
AcDbLine
 10
156.371804
 20
85.343736
 30
0.0
 11
154.581586
 21
85.343736
 31
0.0
  0
LINE
  5
1b9
100
AcDbEntity
  8
Layer_1
 62
7
100
AcDbLine
 10
154.581586
 20
85.343736
 30
0.0
 11
154.193940
 21
85.730778
 31
0.0
  0
SPLINE
  5
1ba
100
AcDbEntity
  8
Layer_1
 62
7
100
AcDbSpline
 70
0
 71
3
 72
13
 73
9
 74
7
 40
0.000000
 40
0.000000
 40
0.000000
 40
0.000000
 40
1.015534
 40
1.633189
 40
1.842033
 40
1.876023
 40
1.962746
 40
2.092771
 40
2.092771
 40
2.092771
 40
2.092771
 10
166.239582
 20
87.807545
 30
0.0
 10
166.579747
 20
87.802481
 30
0.0
 10
167.126803
 20
87.794339
 30
0.0
 10
167.729329
 20
87.837842
 30
0.0
 10
168.028798
 20
87.804916
 30
0.0
 10
168.127769
 20
87.856009
 30
0.0
 10
168.213958
 20
87.854125
 30
0.0
 10
168.285616
 20
87.856762
 30
0.0
 10
168.328602
 20
87.858345
 30
0.0
 11
166.239582
 21
87.807545
 31
0.0
 11
167.255112
 21
87.810417
 31
0.0
 11
167.872708
 21
87.818934
 31
0.0
 11
168.081082
 21
87.832945
 31
0.0
 11
168.112348
 21
87.846278
 31
0.0
 11
168.198618
 21
87.855133
 31
0.0
 11
168.328602
 21
87.858345
 31
0.0
  0
LINE
  5
1bb
100
AcDbEntity
  8
Layer_1
 62
7
100
AcDbLine
 10
153.882491
 20
86.401717
 30
0.0
 11
153.958691
 21
86.488503
 31
0.0
  0
LINE
  5
1bc
100
AcDbEntity
  8
Layer_1
 62
7
100
AcDbLine
 10
153.958691
 20
86.488503
 30
0.0
 11
153.958691
 21
87.274136
 31
0.0
  0
LINE
  5
1bd
100
AcDbEntity
  8
Layer_1
 62
7
100
AcDbLine
 10
153.958691
 20
87.274136
 30
0.0
 11
153.958691
 21
88.059769
 31
0.0
  0
LINE
  5
1be
100
AcDbEntity
  8
Layer_1
 62
7
100
AcDbLine
 10
153.958691
 20
88.059769
 30
0.0
 11
153.880171
 21
88.149197
 31
0.0
  0
SPLINE
  5
1bf
100
AcDbEntity
  8
Layer_1
 62
7
100
AcDbSpline
 70
0
 71
3
 72
13
 73
9
 74
7
 40
0.000000
 40
0.000000
 40
0.000000
 40
0.000000
 40
0.375831
 40
0.544338
 40
0.632365
 40
0.699031
 40
0.762403
 40
0.837727
 40
0.837727
 40
0.837727
 40
0.837727
 10
154.193940
 20
85.730778
 30
0.0
 10
154.107767
 20
85.819909
 30
0.0
 10
153.982958
 20
85.949003
 30
0.0
 10
153.825738
 20
86.100332
 30
0.0
 10
153.802459
 20
86.209297
 30
0.0
 10
153.810131
 20
86.282283
 30
0.0
 10
153.836619
 20
86.346635
 30
0.0
 10
153.866346
 20
86.382331
 30
0.0
 10
153.882491
 20
86.401717
 30
0.0
 11
154.193940
 21
85.730778
 31
0.0
 11
153.930404
 21
85.998729
 31
0.0
 11
153.825275
 21
86.130421
 31
0.0
 11
153.806291
 21
86.216376
 31
0.0
 11
153.813453
 21
86.282657
 31
0.0
 11
153.837548
 21
86.341268
 31
0.0
 11
153.882491
 21
86.401717
 31
0.0
  0
LINE
  5
1c0
100
AcDbEntity
  8
Layer_1
 62
7
100
AcDbLine
 10
153.425291
 20
86.134610
 30
0.0
 11
153.425291
 21
85.941102
 31
0.0
  0
LINE
  5
1c1
100
AcDbEntity
  8
Layer_1
 62
7
100
AcDbLine
 10
153.425291
 20
85.941102
 30
0.0
 11
153.926704
 21
85.439220
 31
0.0
  0
LINE
  5
1c2
100
AcDbEntity
  8
Layer_1
 62
7
100
AcDbLine
 10
153.926704
 20
85.439220
 30
0.0
 11
154.428114
 21
84.937336
 31
0.0
  0
LINE
  5
1c3
100
AcDbEntity
  8
Layer_1
 62
7
100
AcDbLine
 10
154.428114
 20
84.937336
 30
0.0
 11
156.384151
 21
84.936772
 31
0.0
  0
LINE
  5
1c4
100
AcDbEntity
  8
Layer_1
 62
7
100
AcDbLine
 10
156.384151
 20
84.936772
 30
0.0
 11
158.340191
 21
84.936207
 31
0.0
  0
LINE
  5
1c5
100
AcDbEntity
  8
Layer_1
 62
7
100
AcDbLine
 10
158.340191
 20
84.936207
 30
0.0
 11
159.083141
 21
85.689306
 31
0.0
  0
LINE
  5
1c6
100
AcDbEntity
  8
Layer_1
 62
7
100
AcDbLine
 10
159.083141
 20
85.689306
 30
0.0
 11
159.083141
 21
85.689295
 31
0.0
  0
SPLINE
  5
1c7
100
AcDbEntity
  8
Layer_1
 62
7
100
AcDbSpline
 70
0
 71
3
 72
19
 73
15
 74
13
 40
0.000000
 40
0.000000
 40
0.000000
 40
0.000000
 40
0.231621
 40
0.443993
 40
0.674135
 40
0.779326
 40
1.023036
 40
1.471262
 40
2.026951
 40
2.288258
 40
2.419561
 40
2.465223
 40
2.537268
 40
2.656818
 40
2.656818
 40
2.656818
 40
2.656818
 10
153.880171
 20
88.149197
 30
0.0
 10
153.817805
 20
88.200102
 30
0.0
 10
153.698256
 20
88.297682
 30
0.0
 10
153.455821
 20
88.264191
 30
0.0
 10
153.307357
 20
88.126591
 30
0.0
 10
153.278359
 20
87.932389
 30
0.0
 10
153.275163
 20
87.668036
 30
0.0
 10
153.268650
 20
87.249023
 30
0.0
 10
153.285308
 20
86.837804
 30
0.0
 10
153.273118
 20
86.503260
 30
0.0
 10
153.365478
 20
86.385865
 30
0.0
 10
153.417265
 20
86.319295
 30
0.0
 10
153.423322
 20
86.237240
 30
0.0
 10
153.424534
 20
86.174043
 30
0.0
 10
153.425291
 20
86.134610
 30
0.0
 11
153.880171
 21
88.149197
 31
0.0
 11
153.682154
 21
88.269354
 31
0.0
 11
153.471238
 21
88.244531
 31
0.0
 11
153.308391
 21
88.081907
 31
0.0
 11
153.286757
 21
87.978965
 31
0.0
 11
153.275879
 21
87.735498
 31
0.0
 11
153.272891
 21
87.287282
 31
0.0
 11
153.279349
 21
86.731630
 31
0.0
 11
153.310333
 21
86.472167
 31
0.0
 11
153.383257
 21
86.362976
 31
0.0
 11
153.408546
 21
86.324957
 31
0.0
 11
153.421589
 21
86.254103
 31
0.0
 11
153.425291
 21
86.134610
 31
0.0
  0
LINE
  5
1c8
100
AcDbEntity
  8
Layer_1
 62
7
100
AcDbLine
 10
155.097153
 20
88.631377
 30
0.0
 11
155.088996
 21
89.026496
 31
0.0
  0
LINE
  5
1c9
100
AcDbEntity
  8
Layer_1
 62
7
100
AcDbLine
 10
155.088996
 20
89.026496
 30
0.0
 11
154.454188
 21
89.661615
 31
0.0
  0
LINE
  5
1ca
100
AcDbEntity
  8
Layer_1
 62
7
100
AcDbLine
 10
154.454188
 20
89.661615
 30
0.0
 11
153.819377
 21
90.296736
 31
0.0
  0
LINE
  5
1cb
100
AcDbEntity
  8
Layer_1
 62
7
100
AcDbLine
 10
153.819377
 20
90.296736
 30
0.0
 11
152.707938
 21
90.296736
 31
0.0
  0
LINE
  5
1cc
100
AcDbEntity
  8
Layer_1
 62
7
100
AcDbLine
 10
152.707938
 20
90.296736
 30
0.0
 11
151.596496
 21
90.296736
 31
0.0
  0
LINE
  5
1cd
100
AcDbEntity
  8
Layer_1
 62
7
100
AcDbLine
 10
151.596496
 20
90.296736
 30
0.0
 11
151.596496
 21
90.665036
 31
0.0
  0
LINE
  5
1ce
100
AcDbEntity
  8
Layer_1
 62
7
100
AcDbLine
 10
151.596496
 20
90.665036
 30
0.0
 11
151.596496
 21
91.033336
 31
0.0
  0
LINE
  5
1cf
100
AcDbEntity
  8
Layer_1
 62
7
100
AcDbLine
 10
151.596496
 20
91.033336
 30
0.0
 11
150.847196
 21
91.033336
 31
0.0
  0
LINE
  5
1d0
100
AcDbEntity
  8
Layer_1
 62
7
100
AcDbLine
 10
150.847196
 20
91.033336
 30
0.0
 11
150.097896
 21
91.033336
 31
0.0
  0
LINE
  5
1d1
100
AcDbEntity
  8
Layer_1
 62
7
100
AcDbLine
 10
150.097896
 20
91.033336
 30
0.0
 11
150.097896
 21
90.093536
 31
0.0
  0
LINE
  5
1d2
100
AcDbEntity
  8
Layer_1
 62
7
100
AcDbLine
 10
150.097896
 20
90.093536
 30
0.0
 11
150.097896
 21
89.153736
 31
0.0
  0
LINE
  5
1d3
100
AcDbEntity
  8
Layer_1
 62
7
100
AcDbLine
 10
150.097896
 20
89.153736
 30
0.0
 11
150.847196
 21
89.153736
 31
0.0
  0
LINE
  5
1d4
100
AcDbEntity
  8
Layer_1
 62
7
100
AcDbLine
 10
150.847196
 20
89.153736
 30
0.0
 11
151.596496
 21
89.153736
 31
0.0
  0
LINE
  5
1d5
100
AcDbEntity
  8
Layer_1
 62
7
100
AcDbLine
 10
151.596496
 20
89.153736
 30
0.0
 11
151.596496
 21
89.522036
 31
0.0
  0
LINE
  5
1d6
100
AcDbEntity
  8
Layer_1
 62
7
100
AcDbLine
 10
151.596496
 20
89.522036
 30
0.0
 11
151.596496
 21
89.890336
 31
0.0
  0
LINE
  5
1d7
100
AcDbEntity
  8
Layer_1
 62
7
100
AcDbLine
 10
151.596496
 20
89.890336
 30
0.0
 11
152.631321
 21
89.890336
 31
0.0
  0
LINE
  5
1d8
100
AcDbEntity
  8
Layer_1
 62
7
100
AcDbLine
 10
152.631321
 20
89.890336
 30
0.0
 11
153.666142
 21
89.890336
 31
0.0
  0
LINE
  5
1d9
100
AcDbEntity
  8
Layer_1
 62
7
100
AcDbLine
 10
153.666142
 20
89.890336
 30
0.0
 11
154.180721
 21
89.376217
 31
0.0
  0
LINE
  5
1da
100
AcDbEntity
  8
Layer_1
 62
7
100
AcDbLine
 10
154.180721
 20
89.376217
 30
0.0
 11
154.695296
 21
88.862102
 31
0.0
  0
LINE
  5
1db
100
AcDbEntity
  8
Layer_1
 62
7
100
AcDbLine
 10
154.695296
 20
88.862102
 30
0.0
 11
154.695296
 21
88.541128
 31
0.0
  0
SPLINE
  5
1dc
100
AcDbEntity
  8
Layer_1
 62
7
100
AcDbSpline
 70
0
 71
3
 72
16
 73
12
 74
10
 40
0.000000
 40
0.000000
 40
0.000000
 40
0.000000
 40
0.158404
 40
0.387593
 40
0.910807
 40
1.464389
 40
1.735518
 40
1.888033
 40
1.978536
 40
2.113033
 40
2.383410
 40
2.383410
 40
2.383410
 40
2.383410
 10
155.068561
 20
86.333218
 30
0.0
 10
155.114392
 20
86.364121
 30
0.0
 10
155.226536
 20
86.439734
 30
0.0
 10
155.241389
 20
86.770823
 30
0.0
 10
155.252627
 20
87.190609
 30
0.0
 10
155.249087
 20
87.640828
 30
0.0
 10
155.252767
 20
87.973688
 30
0.0
 10
155.177643
 20
88.129979
 30
0.0
 10
155.111055
 20
88.238661
 30
0.0
 10
155.103489
 20
88.408142
 30
0.0
 10
155.099690
 20
88.541991
 30
0.0
 10
155.097153
 20
88.631377
 30
0.0
 11
155.068561
 21
86.333218
 31
0.0
 11
155.188380
 21
86.436828
 31
0.0
 11
155.236056
 21
86.661004
 31
0.0
 11
155.249510
 21
87.184045
 31
0.0
 11
155.250720
 21
87.737626
 31
0.0
 11
155.227207
 21
88.007733
 31
0.0
 11
155.165685
 21
88.147289
 31
0.0
 11
155.124680
 21
88.227970
 31
0.0
 11
155.105828
 21
88.361139
 31
0.0
 11
155.097153
 21
88.631377
 31
0.0
  0
LINE
  5
1dd
100
AcDbEntity
  8
Layer_1
 62
7
100
AcDbLine
 10
155.068566
 20
86.333218
 30
0.0
 11
155.068561
 21
86.333218
 31
0.0
  0
SPLINE
  5
1de
100
AcDbEntity
  8
Layer_1
 62
7
100
AcDbSpline
 70
0
 71
3
 72
19
 73
15
 74
13
 40
0.000000
 40
0.000000
 40
0.000000
 40
0.000000
 40
0.201549
 40
0.308855
 40
0.360886
 40
0.490262
 40
0.739704
 40
1.293364
 40
1.781694
 40
2.012040
 40
2.116773
 40
2.298721
 40
2.480126
 40
2.662442
 40
2.662442
 40
2.662442
 40
2.662442
 10
154.695296
 20
88.541128
 30
0.0
 10
154.693814
 20
88.474591
 30
0.0
 10
154.691541
 20
88.372631
 30
0.0
 10
154.692473
 20
88.248237
 30
0.0
 10
154.643516
 20
88.163837
 30
0.0
 10
154.538454
 20
88.058108
 30
0.0
 10
154.557849
 20
87.722626
 30
0.0
 10
154.536793
 20
87.306449
 30
0.0
 10
154.547053
 20
86.878937
 30
0.0
 10
154.544988
 20
86.604194
 30
0.0
 10
154.589386
 20
86.434200
 30
0.0
 10
154.709742
 20
86.320846
 30
0.0
 10
154.894524
 20
86.265829
 30
0.0
 10
155.010455
 20
86.310718
 30
0.0
 10
155.068566
 20
86.333218
 30
0.0
 11
154.695296
 21
88.541128
 31
0.0
 11
154.692155
 21
88.339603
 31
0.0
 11
154.680175
 21
88.232968
 31
0.0
 11
154.655523
 21
88.187148
 31
0.0
 11
154.579426
 21
88.082518
 31
0.0
 11
154.548647
 21
87.834983
 31
0.0
 11
154.542896
 21
87.281352
 31
0.0
 11
154.545625
 21
86.793029
 31
0.0
 11
154.558667
 21
86.563053
 31
0.0
 11
154.589308
 21
86.462902
 31
0.0
 11
154.717308
 21
86.333592
 31
0.0
 11
154.892415
 21
86.286209
 31
0.0
 11
155.068566
 21
86.333218
 31
0.0
  0
LINE
  5
1df
100
AcDbEntity
  8
Layer_1
 62
7
100
AcDbLine
 10
154.887377
 20
90.906336
 30
0.0
 11
153.475978
 21
92.316036
 31
0.0
  0
LINE
  5
1e0
100
AcDbEntity
  8
Layer_1
 62
7
100
AcDbLine
 10
153.475978
 20
92.316036
 30
0.0
 11
152.542584
 21
92.328736
 31
0.0
  0
LINE
  5
1e1
100
AcDbEntity
  8
Layer_1
 62
7
100
AcDbLine
 10
152.542584
 20
92.328736
 30
0.0
 11
151.609191
 21
92.341436
 31
0.0
  0
LINE
  5
1e2
100
AcDbEntity
  8
Layer_1
 62
7
100
AcDbLine
 10
151.609191
 20
92.341436
 30
0.0
 11
151.602417
 21
93.033586
 31
0.0
  0
LINE
  5
1e3
100
AcDbEntity
  8
Layer_1
 62
7
100
AcDbLine
 10
151.602417
 20
93.033586
 30
0.0
 11
151.595672
 21
93.725736
 31
0.0
  0
LINE
  5
1e4
100
AcDbEntity
  8
Layer_1
 62
7
100
AcDbLine
 10
151.595672
 20
93.725736
 30
0.0
 11
150.846779
 21
93.725736
 31
0.0
  0
LINE
  5
1e5
100
AcDbEntity
  8
Layer_1
 62
7
100
AcDbLine
 10
150.846779
 20
93.725736
 30
0.0
 11
150.097888
 21
93.725736
 31
0.0
  0
LINE
  5
1e6
100
AcDbEntity
  8
Layer_1
 62
7
100
AcDbLine
 10
150.097888
 20
93.725736
 30
0.0
 11
150.097888
 21
92.773236
 31
0.0
  0
LINE
  5
1e7
100
AcDbEntity
  8
Layer_1
 62
7
100
AcDbLine
 10
150.097888
 20
92.773236
 30
0.0
 11
150.097888
 21
91.820736
 31
0.0
  0
LINE
  5
1e8
100
AcDbEntity
  8
Layer_1
 62
7
100
AcDbLine
 10
150.097888
 20
91.820736
 30
0.0
 11
150.847188
 21
91.820736
 31
0.0
  0
SPLINE
  5
1e9
100
AcDbEntity
  8
Layer_1
 62
7
100
AcDbSpline
 70
0
 71
3
 72
22
 73
18
 74
16
 40
0.000000
 40
0.000000
 40
0.000000
 40
0.000000
 40
0.158403
 40
0.387592
 40
0.910806
 40
1.465675
 40
1.736864
 40
1.891193
 40
1.987821
 40
2.159276
 40
2.552829
 40
2.897770
 40
3.091249
 40
3.183384
 40
3.494362
 40
4.237747
 40
5.252729
 40
5.252729
 40
5.252729
 40
5.252729
 10
156.338561
 20
86.333218
 30
0.0
 10
156.384392
 20
86.364121
 30
0.0
 10
156.496534
 20
86.439735
 30
0.0
 10
156.511389
 20
86.770816
 30
0.0
 10
156.522621
 20
87.191086
 30
0.0
 10
156.519115
 20
87.641519
 30
0.0
 10
156.522777
 20
87.975885
 30
0.0
 10
156.444950
 20
88.133733
 30
0.0
 10
156.370978
 20
88.256013
 30
0.0
 10
156.377058
 20
88.484639
 30
0.0
 10
156.370886
 20
88.783112
 30
0.0
 10
156.369605
 20
89.095337
 30
0.0
 10
156.366384
 20
89.304797
 30
0.0
 10
156.324578
 20
89.503635
 30
0.0
 10
155.989436
 20
89.741511
 30
0.0
 10
155.556593
 20
90.260693
 30
0.0
 10
155.132295
 20
90.670045
 30
0.0
 10
154.887377
 20
90.906336
 30
0.0
 11
156.338561
 21
86.333218
 31
0.0
 11
156.458379
 21
86.436828
 31
0.0
 11
156.506055
 21
86.661004
 31
0.0
 11
156.519507
 21
87.184045
 31
0.0
 11
156.520739
 21
87.738913
 31
0.0
 11
156.496807
 21
88.009044
 31
0.0
 11
156.433876
 21
88.149959
 31
0.0
 11
156.390501
 21
88.236305
 31
0.0
 11
156.374186
 21
88.406982
 31
0.0
 11
156.371691
 21
88.800526
 31
0.0
 11
156.368572
 21
89.145454
 31
0.0
 11
156.357351
 21
89.338607
 31
0.0
 11
156.335233
 21
89.428048
 31
0.0
 11
156.123462
 21
89.655777
 31
0.0
 11
155.603304
 21
90.186866
 31
0.0
 11
154.887377
 21
90.906336
 31
0.0
  0
LINE
  5
1ea
100
AcDbEntity
  8
Layer_1
 62
7
100
AcDbLine
 10
152.440950
 20
91.922336
 30
0.0
 11
153.285410
 21
91.922336
 31
0.0
  0
LINE
  5
1eb
100
AcDbEntity
  8
Layer_1
 62
7
100
AcDbLine
 10
153.285410
 20
91.922336
 30
0.0
 11
154.625348
 21
90.582576
 31
0.0
  0
LINE
  5
1ec
100
AcDbEntity
  8
Layer_1
 62
7
100
AcDbLine
 10
154.625348
 20
90.582576
 30
0.0
 11
155.965288
 21
89.242817
 31
0.0
  0
LINE
  5
1ed
100
AcDbEntity
  8
Layer_1
 62
7
100
AcDbLine
 10
155.965288
 20
89.242817
 30
0.0
 11
155.965288
 21
88.731486
 31
0.0
  0
SPLINE
  5
1ee
100
AcDbEntity
  8
Layer_1
 62
7
100
AcDbSpline
 70
0
 71
3
 72
13
 73
9
 74
7
 40
0.000000
 40
0.000000
 40
0.000000
 40
0.000000
 40
0.519764
 40
0.718244
 40
0.765525
 40
0.815259
 40
1.038360
 40
1.625089
 40
1.625089
 40
1.625089
 40
1.625089
 10
150.847188
 20
91.820736
 30
0.0
 10
151.011416
 20
91.835691
 30
0.0
 10
151.238357
 20
91.856357
 30
0.0
 10
151.535343
 20
91.791411
 30
0.0
 10
151.596470
 20
91.872720
 30
0.0
 10
151.669991
 20
91.953737
 30
0.0
 10
151.995714
 20
91.884115
 30
0.0
 10
152.253896
 20
91.906279
 30
0.0
 10
152.440950
 20
91.922336
 30
0.0
 11
150.847188
 21
91.820736
 31
0.0
 11
151.366947
 21
91.822868
 31
0.0
 11
151.564973
 21
91.836290
 31
0.0
 11
151.596488
 21
91.871536
 31
0.0
 11
151.631527
 21
91.906831
 31
0.0
 11
151.854225
 21
91.920228
 31
0.0
 11
152.440950
 21
91.922336
 31
0.0
  0
LINE
  5
1ef
100
AcDbEntity
  8
Layer_1
 62
7
100
AcDbLine
 10
156.338558
 20
86.333218
 30
0.0
 11
156.338561
 21
86.333218
 31
0.0
  0
LINE
  5
1f0
100
AcDbEntity
  8
Layer_1
 62
7
100
AcDbLine
 10
149.074688
 20
87.179738
 30
0.0
 11
149.488291
 21
87.593343
 31
0.0
  0
LINE
  5
1f1
100
AcDbEntity
  8
Layer_1
 62
7
100
AcDbLine
 10
149.488291
 20
87.593343
 30
0.0
 11
149.488291
 21
90.690972
 31
0.0
  0
LINE
  5
1f2
100
AcDbEntity
  8
Layer_1
 62
7
100
AcDbLine
 10
149.488291
 20
90.690972
 30
0.0
 11
149.488291
 21
93.788601
 31
0.0
  0
LINE
  5
1f3
100
AcDbEntity
  8
Layer_1
 62
7
100
AcDbLine
 10
149.488291
 20
93.788601
 30
0.0
 11
149.849913
 21
94.150867
 31
0.0
  0
LINE
  5
1f4
100
AcDbEntity
  8
Layer_1
 62
7
100
AcDbLine
 10
149.849913
 20
94.150867
 30
0.0
 11
150.211533
 21
94.513136
 31
0.0
  0
LINE
  5
1f5
100
AcDbEntity
  8
Layer_1
 62
7
100
AcDbLine
 10
150.211533
 20
94.513136
 30
0.0
 11
150.904013
 21
94.513136
 31
0.0
  0
LINE
  5
1f6
100
AcDbEntity
  8
Layer_1
 62
7
100
AcDbLine
 10
150.904013
 20
94.513136
 30
0.0
 11
151.596491
 21
94.513136
 31
0.0
  0
LINE
  5
1f7
100
AcDbEntity
  8
Layer_1
 62
7
100
AcDbLine
 10
151.596491
 20
94.513136
 30
0.0
 11
151.596491
 21
95.217348
 31
0.0
  0
LINE
  5
1f8
100
AcDbEntity
  8
Layer_1
 62
7
100
AcDbLine
 10
151.596491
 20
95.217348
 30
0.0
 11
151.596491
 21
95.921560
 31
0.0
  0
LINE
  5
1f9
100
AcDbEntity
  8
Layer_1
 62
7
100
AcDbLine
 10
151.596491
 20
95.921560
 30
0.0
 11
151.767261
 21
96.093648
 31
0.0
  0
LINE
  5
1fa
100
AcDbEntity
  8
Layer_1
 62
7
100
AcDbLine
 10
151.767261
 20
96.093648
 30
0.0
 11
151.938028
 21
96.265736
 31
0.0
  0
LINE
  5
1fb
100
AcDbEntity
  8
Layer_1
 62
7
100
AcDbLine
 10
151.938028
 20
96.265736
 30
0.0
 11
152.681661
 21
96.265736
 31
0.0
  0
LINE
  5
1fc
100
AcDbEntity
  8
Layer_1
 62
7
100
AcDbLine
 10
152.681661
 20
96.265736
 30
0.0
 11
153.425291
 21
96.265736
 31
0.0
  0
LINE
  5
1fd
100
AcDbEntity
  8
Layer_1
 62
7
100
AcDbLine
 10
153.425291
 20
96.265736
 30
0.0
 11
153.425291
 21
95.951346
 31
0.0
  0
SPLINE
  5
1fe
100
AcDbEntity
  8
Layer_1
 62
7
100
AcDbSpline
 70
0
 71
3
 72
19
 73
15
 74
13
 40
0.000000
 40
0.000000
 40
0.000000
 40
0.000000
 40
0.332571
 40
0.490432
 40
0.552877
 40
0.683950
 40
0.943511
 40
1.493984
 40
1.973272
 40
2.200146
 40
2.304275
 40
2.486222
 40
2.667626
 40
2.849942
 40
2.849942
 40
2.849942
 40
2.849942
 10
155.965288
 20
88.731486
 30
0.0
 10
155.962338
 20
88.621686
 30
0.0
 10
155.957987
 20
88.459766
 30
0.0
 10
155.967981
 20
88.269490
 30
0.0
 10
155.914362
 20
88.163719
 30
0.0
 10
155.809684
 20
88.047993
 30
0.0
 10
155.828035
 20
87.712003
 30
0.0
 10
155.806868
 20
87.294771
 30
0.0
 10
155.816937
 20
86.873049
 30
0.0
 10
155.815134
 20
86.602579
 30
0.0
 10
155.859593
 20
86.434066
 30
0.0
 10
155.979716
 20
86.320842
 30
0.0
 10
156.164520
 20
86.265830
 30
0.0
 10
156.280449
 20
86.310718
 30
0.0
 10
156.338558
 20
86.333218
 30
0.0
 11
155.965288
 21
88.731486
 31
0.0
 11
155.962514
 21
88.398927
 31
0.0
 11
155.950400
 21
88.241532
 31
0.0
 11
155.923254
 21
88.185296
 31
0.0
 11
155.850388
 21
88.076343
 31
0.0
 11
155.819375
 21
87.818641
 31
0.0
 11
155.812888
 21
87.268207
 31
0.0
 11
155.815629
 21
86.788927
 31
0.0
 11
155.828685
 21
86.562428
 31
0.0
 11
155.859302
 21
86.462902
 31
0.0
 11
155.987300
 21
86.333592
 31
0.0
 11
156.162407
 21
86.286209
 31
0.0
 11
156.338558
 21
86.333218
 31
0.0
  0
LINE
  5
1ff
100
AcDbEntity
  8
Layer_1
 62
7
100
AcDbLine
 10
153.806296
 20
95.948228
 30
0.0
 11
153.806296
 21
96.265728
 31
0.0
  0
LINE
  5
200
100
AcDbEntity
  8
Layer_1
 62
7
100
AcDbLine
 10
153.806296
 20
96.265728
 30
0.0
 11
159.475819
 21
96.265728
 31
0.0
  0
LINE
  5
201
100
AcDbEntity
  8
Layer_1
 62
7
100
AcDbLine
 10
159.475819
 20
96.265728
 30
0.0
 11
165.145347
 21
96.265728
 31
0.0
  0
LINE
  5
202
100
AcDbEntity
  8
Layer_1
 62
7
100
AcDbLine
 10
165.145347
 20
96.265728
 30
0.0
 11
165.529220
 21
95.884728
 31
0.0
  0
LINE
  5
203
100
AcDbEntity
  8
Layer_1
 62
7
100
AcDbLine
 10
165.529220
 20
95.884728
 30
0.0
 11
165.913094
 21
95.503728
 31
0.0
  0
LINE
  5
204
100
AcDbEntity
  8
Layer_1
 62
7
100
AcDbLine
 10
165.913094
 20
95.503728
 30
0.0
 11
166.649177
 21
95.503728
 31
0.0
  0
LINE
  5
205
100
AcDbEntity
  8
Layer_1
 62
7
100
AcDbLine
 10
166.649177
 20
95.503728
 30
0.0
 11
167.385261
 21
95.503728
 31
0.0
  0
LINE
  5
206
100
AcDbEntity
  8
Layer_1
 62
7
100
AcDbLine
 10
167.385261
 20
95.503728
 30
0.0
 11
167.431373
 21
95.375500
 31
0.0
  0
SPLINE
  5
207
100
AcDbEntity
  8
Layer_1
 62
7
100
AcDbSpline
 70
0
 71
3
 72
31
 73
27
 74
25
 40
0.000000
 40
0.000000
 40
0.000000
 40
0.000000
 40
0.197204
 40
0.302696
 40
0.354350
 40
0.483727
 40
0.733168
 40
1.286828
 40
1.775159
 40
2.005504
 40
2.110237
 40
2.343109
 40
2.571018
 40
2.800874
 40
2.901803
 40
3.132046
 40
3.653573
 40
4.173073
 40
4.404032
 40
4.504481
 40
4.555111
 40
4.595448
 40
4.618321
 40
4.659093
 40
4.768366
 40
4.938620
 40
4.938620
 40
4.938620
 40
4.938620
 10
153.425291
 20
95.951346
 30
0.0
 10
153.423848
 20
95.886248
 30
0.0
 10
153.421634
 20
95.786327
 30
0.0
 10
153.422261
 20
95.664156
 30
0.0
 10
153.373307
 20
95.580607
 30
0.0
 10
153.268528
 20
95.474863
 30
0.0
 10
153.287778
 20
95.139466
 30
0.0
 10
153.266818
 20
94.723201
 30
0.0
 10
153.277017
 20
94.295830
 30
0.0
 10
153.275017
 20
94.020877
 30
0.0
 10
153.323671
 20
93.834531
 30
0.0
 10
153.487129
 20
93.703451
 30
0.0
 10
153.729612
 20
93.693400
 30
0.0
 10
153.899605
 20
93.812590
 30
0.0
 10
153.959331
 20
93.993581
 30
0.0
 10
153.952535
 20
94.280359
 30
0.0
 10
153.962463
 20
94.702713
 30
0.0
 10
153.953035
 20
95.126479
 30
0.0
 10
153.958681
 20
95.411178
 30
0.0
 10
153.920063
 20
95.536217
 30
0.0
 10
153.881061
 20
95.586413
 30
0.0
 10
153.859161
 20
95.618878
 30
0.0
 10
153.823572
 20
95.630584
 30
0.0
 10
153.814145
 20
95.695462
 30
0.0
 10
153.807278
 20
95.796162
 30
0.0
 10
153.806668
 20
95.890667
 30
0.0
 10
153.806296
 20
95.948228
 30
0.0
 11
153.425291
 21
95.951346
 31
0.0
 11
153.422131
 21
95.754168
 31
0.0
 11
153.410132
 21
95.649360
 31
0.0
 11
153.385517
 21
95.603948
 31
0.0
 11
153.309420
 21
95.499318
 31
0.0
 11
153.278641
 21
95.251783
 31
0.0
 11
153.272891
 21
94.698152
 31
0.0
 11
153.275619
 21
94.209829
 31
0.0
 11
153.288662
 21
93.979853
 31
0.0
 11
153.319302
 21
93.879702
 31
0.0
 11
153.495867
 21
93.727867
 31
0.0
 11
153.723615
 21
93.719287
 31
0.0
 11
153.907239
 21
93.857548
 31
0.0
 11
153.942045
 21
93.952285
 31
0.0
 11
153.955969
 21
94.182106
 31
0.0
 11
153.958502
 21
94.703628
 31
0.0
 11
153.955948
 21
95.223121
 31
0.0
 11
153.942209
 21
95.453671
 31
0.0
 11
153.908170
 21
95.548178
 31
0.0
 11
153.879284
 21
95.589759
 31
0.0
 11
153.851943
 21
95.619415
 31
0.0
 11
153.832063
 21
95.630728
 31
0.0
 11
153.818246
 21
95.669087
 31
0.0
 11
153.809408
 21
95.778002
 31
0.0
 11
153.806296
 21
95.948228
 31
0.0
  0
LINE
  5
208
100
AcDbEntity
  8
Layer_1
 62
7
100
AcDbLine
 10
168.148652
 20
94.817928
 30
0.0
 11
168.258896
 21
94.817928
 31
0.0
  0
LINE
  5
209
100
AcDbEntity
  8
Layer_1
 62
7
100
AcDbLine
 10
168.258896
 20
94.817928
 30
0.0
 11
168.258896
 21
95.761001
 31
0.0
  0
LINE
  5
20a
100
AcDbEntity
  8
Layer_1
 62
7
100
AcDbLine
 10
168.258896
 20
95.761001
 30
0.0
 11
168.258896
 21
96.704072
 31
0.0
  0
LINE
  5
20b
100
AcDbEntity
  8
Layer_1
 62
7
100
AcDbLine
 10
168.258896
 20
96.704072
 30
0.0
 11
168.128916
 21
96.686829
 31
0.0
  0
SPLINE
  5
20c
100
AcDbEntity
  8
Layer_1
 62
7
100
AcDbSpline
 70
0
 71
3
 72
10
 73
6
 74
4
 40
0.000000
 40
0.000000
 40
0.000000
 40
0.000000
 40
0.317355
 40
0.655995
 40
0.944995
 40
0.944995
 40
0.944995
 40
0.944995
 10
167.431373
 20
95.375500
 30
0.0
 10
167.483716
 20
95.283137
 30
0.0
 10
167.591912
 20
95.092218
 30
0.0
 10
167.848364
 20
94.886582
 30
0.0
 10
168.053976
 20
94.839573
 30
0.0
 10
168.148652
 20
94.817928
 30
0.0
 11
167.431373
 21
95.375500
 31
0.0
 11
167.604744
 21
95.109686
 31
0.0
 11
167.872106
 21
94.901855
 31
0.0
 11
168.148652
 21
94.817928
 31
0.0
  0
LINE
  5
20d
100
AcDbEntity
  8
Layer_1
 62
7
100
AcDbLine
 10
167.396634
 20
96.018075
 30
0.0
 11
167.367938
 21
95.910125
 31
0.0
  0
LINE
  5
20e
100
AcDbEntity
  8
Layer_1
 62
7
100
AcDbLine
 10
167.367938
 20
95.910125
 30
0.0
 11
166.715892
 21
95.910125
 31
0.0
  0
LINE
  5
20f
100
AcDbEntity
  8
Layer_1
 62
7
100
AcDbLine
 10
166.715892
 20
95.910125
 30
0.0
 11
166.063845
 21
95.910125
 31
0.0
  0
LINE
  5
210
100
AcDbEntity
  8
Layer_1
 62
7
100
AcDbLine
 10
166.063845
 20
95.910125
 30
0.0
 11
165.679972
 21
96.291125
 31
0.0
  0
LINE
  5
211
100
AcDbEntity
  8
Layer_1
 62
7
100
AcDbLine
 10
165.679972
 20
96.291125
 30
0.0
 11
165.296102
 21
96.672125
 31
0.0
  0
LINE
  5
212
100
AcDbEntity
  8
Layer_1
 62
7
100
AcDbLine
 10
165.296102
 20
96.672125
 30
0.0
 11
158.546013
 21
96.672125
 31
0.0
  0
LINE
  5
213
100
AcDbEntity
  8
Layer_1
 62
7
100
AcDbLine
 10
158.546013
 20
96.672125
 30
0.0
 11
151.795926
 21
96.672125
 31
0.0
  0
LINE
  5
214
100
AcDbEntity
  8
Layer_1
 62
7
100
AcDbLine
 10
151.795926
 20
96.672125
 30
0.0
 11
151.649464
 21
96.532425
 31
0.0
  0
LINE
  5
215
100
AcDbEntity
  8
Layer_1
 62
7
100
AcDbLine
 10
151.649464
 20
96.532425
 30
0.0
 11
151.503005
 21
96.392725
 31
0.0
  0
LINE
  5
216
100
AcDbEntity
  8
Layer_1
 62
7
100
AcDbLine
 10
151.503005
 20
96.392725
 30
0.0
 11
150.800449
 21
96.392725
 31
0.0
  0
LINE
  5
217
100
AcDbEntity
  8
Layer_1
 62
7
100
AcDbLine
 10
150.800449
 20
96.392725
 30
0.0
 11
150.097896
 21
96.392725
 31
0.0
  0
LINE
  5
218
100
AcDbEntity
  8
Layer_1
 62
7
100
AcDbLine
 10
150.097896
 20
96.392725
 30
0.0
 11
150.097896
 21
95.688685
 31
0.0
  0
LINE
  5
219
100
AcDbEntity
  8
Layer_1
 62
7
100
AcDbLine
 10
150.097896
 20
95.688685
 30
0.0
 11
150.097896
 21
94.984648
 31
0.0
  0
LINE
  5
21a
100
AcDbEntity
  8
Layer_1
 62
7
100
AcDbLine
 10
150.097896
 20
94.984648
 30
0.0
 11
149.602596
 21
94.487090
 31
0.0
  0
LINE
  5
21b
100
AcDbEntity
  8
Layer_1
 62
7
100
AcDbLine
 10
149.602596
 20
94.487090
 30
0.0
 11
149.107296
 21
93.989529
 31
0.0
  0
LINE
  5
21c
100
AcDbEntity
  8
Layer_1
 62
7
100
AcDbLine
 10
149.107296
 20
93.989529
 30
0.0
 11
149.107296
 21
90.881831
 31
0.0
  0
LINE
  5
21d
100
AcDbEntity
  8
Layer_1
 62
7
100
AcDbLine
 10
149.107296
 20
90.881831
 30
0.0
 11
149.107296
 21
87.774132
 31
0.0
  0
LINE
  5
21e
100
AcDbEntity
  8
Layer_1
 62
7
100
AcDbLine
 10
149.107296
 20
87.774132
 30
0.0
 11
148.810198
 21
87.473328
 31
0.0
  0
LINE
  5
21f
100
AcDbEntity
  8
Layer_1
 62
7
100
AcDbLine
 10
148.810198
 20
87.473328
 30
0.0
 11
148.513100
 21
87.172525
 31
0.0
  0
LINE
  5
220
100
AcDbEntity
  8
Layer_1
 62
7
100
AcDbLine
 10
148.513100
 20
87.172525
 30
0.0
 11
145.755213
 21
87.172525
 31
0.0
  0
LINE
  5
221
100
AcDbEntity
  8
Layer_1
 62
7
100
AcDbLine
 10
145.755213
 20
87.172525
 30
0.0
 11
142.997324
 21
87.172525
 31
0.0
  0
LINE
  5
222
100
AcDbEntity
  8
Layer_1
 62
7
100
AcDbLine
 10
142.997324
 20
87.172525
 30
0.0
 11
142.813811
 21
87.357273
 31
0.0
  0
LINE
  5
223
100
AcDbEntity
  8
Layer_1
 62
7
100
AcDbLine
 10
142.813811
 20
87.357273
 30
0.0
 11
142.630296
 21
87.542019
 31
0.0
  0
LINE
  5
224
100
AcDbEntity
  8
Layer_1
 62
7
100
AcDbLine
 10
142.630296
 20
87.542019
 30
0.0
 11
142.630296
 21
87.687473
 31
0.0
  0
LINE
  5
225
100
AcDbEntity
  8
Layer_1
 62
7
100
AcDbLine
 10
142.630296
 20
87.687473
 30
0.0
 11
142.630296
 21
87.832925
 31
0.0
  0
LINE
  5
226
100
AcDbEntity
  8
Layer_1
 62
7
100
AcDbLine
 10
142.630296
 20
87.832925
 30
0.0
 11
142.744596
 21
87.832925
 31
0.0
  0
LINE
  5
227
100
AcDbEntity
  8
Layer_1
 62
7
100
AcDbLine
 10
142.744596
 20
87.832925
 30
0.0
 11
142.858896
 21
87.832925
 31
0.0
  0
LINE
  5
228
100
AcDbEntity
  8
Layer_1
 62
7
100
AcDbLine
 10
142.858896
 20
87.832925
 30
0.0
 11
142.858896
 21
88.595235
 31
0.0
  0
LINE
  5
229
100
AcDbEntity
  8
Layer_1
 62
7
100
AcDbLine
 10
142.858896
 20
88.595235
 30
0.0
 11
142.858896
 21
89.357543
 31
0.0
  0
LINE
  5
22a
100
AcDbEntity
  8
Layer_1
 62
7
100
AcDbLine
 10
142.858896
 20
89.357543
 30
0.0
 11
141.912746
 21
89.350882
 31
0.0
  0
LINE
  5
22b
100
AcDbEntity
  8
Layer_1
 62
7
100
AcDbLine
 10
141.912746
 20
89.350882
 30
0.0
 11
140.966596
 21
89.344222
 31
0.0
  0
LINE
  5
22c
100
AcDbEntity
  8
Layer_1
 62
7
100
AcDbLine
 10
140.966596
 20
89.344222
 30
0.0
 11
140.959795
 21
88.722136
 31
0.0
  0
LINE
  5
22d
100
AcDbEntity
  8
Layer_1
 62
7
100
AcDbLine
 10
140.959795
 20
88.722136
 30
0.0
 11
140.952965
 21
88.100051
 31
0.0
  0
LINE
  5
22e
100
AcDbEntity
  8
Layer_1
 62
7
100
AcDbLine
 10
140.952965
 20
88.100051
 30
0.0
 11
140.795415
 21
87.941086
 31
0.0
  0
LINE
  5
22f
100
AcDbEntity
  8
Layer_1
 62
7
100
AcDbLine
 10
140.795415
 20
87.941086
 30
0.0
 11
140.637864
 21
87.782122
 31
0.0
  0
LINE
  5
230
100
AcDbEntity
  8
Layer_1
 62
7
100
AcDbLine
 10
140.637864
 20
87.782122
 30
0.0
 11
139.894180
 21
87.782122
 31
0.0
  0
LINE
  5
231
100
AcDbEntity
  8
Layer_1
 62
7
100
AcDbLine
 10
139.894180
 20
87.782122
 30
0.0
 11
139.150496
 21
87.782122
 31
0.0
  0
LINE
  5
232
100
AcDbEntity
  8
Layer_1
 62
7
100
AcDbLine
 10
139.150496
 20
87.782122
 30
0.0
 11
139.150496
 21
88.048822
 31
0.0
  0
LINE
  5
233
100
AcDbEntity
  8
Layer_1
 62
7
100
AcDbLine
 10
139.150496
 20
88.048822
 30
0.0
 11
139.150496
 21
88.315522
 31
0.0
  0
LINE
  5
234
100
AcDbEntity
  8
Layer_1
 62
7
100
AcDbLine
 10
139.150496
 20
88.315522
 30
0.0
 11
135.403996
 21
88.315522
 31
0.0
  0
LINE
  5
235
100
AcDbEntity
  8
Layer_1
 62
7
100
AcDbLine
 10
135.403996
 20
88.315522
 30
0.0
 11
131.657496
 21
88.315522
 31
0.0
  0
LINE
  5
236
100
AcDbEntity
  8
Layer_1
 62
7
100
AcDbLine
 10
131.657496
 20
88.315522
 30
0.0
 11
131.657496
 21
87.566222
 31
0.0
  0
LINE
  5
237
100
AcDbEntity
  8
Layer_1
 62
7
100
AcDbLine
 10
131.657496
 20
87.566222
 30
0.0
 11
131.657496
 21
86.816922
 31
0.0
  0
LINE
  5
238
100
AcDbEntity
  8
Layer_1
 62
7
100
AcDbLine
 10
131.657496
 20
86.816922
 30
0.0
 11
135.403138
 21
86.816922
 31
0.0
  0
LINE
  5
239
100
AcDbEntity
  8
Layer_1
 62
7
100
AcDbLine
 10
135.403138
 20
86.816922
 30
0.0
 11
139.148778
 21
86.816922
 31
0.0
  0
LINE
  5
23a
100
AcDbEntity
  8
Layer_1
 62
7
100
AcDbLine
 10
139.148778
 20
86.816922
 30
0.0
 11
139.156003
 21
87.089972
 31
0.0
  0
LINE
  5
23b
100
AcDbEntity
  8
Layer_1
 62
7
100
AcDbLine
 10
139.156003
 20
87.089972
 30
0.0
 11
139.163199
 21
87.363022
 31
0.0
  0
LINE
  5
23c
100
AcDbEntity
  8
Layer_1
 62
7
100
AcDbLine
 10
139.163199
 20
87.363022
 30
0.0
 11
139.994553
 21
87.375722
 31
0.0
  0
LINE
  5
23d
100
AcDbEntity
  8
Layer_1
 62
7
100
AcDbLine
 10
139.994553
 20
87.375722
 30
0.0
 11
140.825903
 21
87.388422
 31
0.0
  0
LINE
  5
23e
100
AcDbEntity
  8
Layer_1
 62
7
100
AcDbLine
 10
140.825903
 20
87.388422
 30
0.0
 11
141.049155
 21
87.610672
 31
0.0
  0
LINE
  5
23f
100
AcDbEntity
  8
Layer_1
 62
7
100
AcDbLine
 10
141.049155
 20
87.610672
 30
0.0
 11
141.272404
 21
87.832922
 31
0.0
  0
LINE
  5
240
100
AcDbEntity
  8
Layer_1
 62
7
100
AcDbLine
 10
141.272404
 20
87.832922
 30
0.0
 11
141.748152
 21
87.832922
 31
0.0
  0
LINE
  5
241
100
AcDbEntity
  8
Layer_1
 62
7
100
AcDbLine
 10
141.748152
 20
87.832922
 30
0.0
 11
142.223899
 21
87.832922
 31
0.0
  0
LINE
  5
242
100
AcDbEntity
  8
Layer_1
 62
7
100
AcDbLine
 10
142.223899
 20
87.832922
 30
0.0
 11
142.223899
 21
87.611792
 31
0.0
  0
LINE
  5
243
100
AcDbEntity
  8
Layer_1
 62
7
100
AcDbLine
 10
142.223899
 20
87.611792
 30
0.0
 11
142.223899
 21
87.390663
 31
0.0
  0
LINE
  5
244
100
AcDbEntity
  8
Layer_1
 62
7
100
AcDbLine
 10
142.223899
 20
87.390663
 30
0.0
 11
142.536170
 21
87.078392
 31
0.0
  0
LINE
  5
245
100
AcDbEntity
  8
Layer_1
 62
7
100
AcDbLine
 10
142.536170
 20
87.078392
 30
0.0
 11
142.848440
 21
86.766122
 31
0.0
  0
LINE
  5
246
100
AcDbEntity
  8
Layer_1
 62
7
100
AcDbLine
 10
142.848440
 20
86.766122
 30
0.0
 11
145.754767
 21
86.766122
 31
0.0
  0
LINE
  5
247
100
AcDbEntity
  8
Layer_1
 62
7
100
AcDbLine
 10
145.754767
 20
86.766122
 30
0.0
 11
148.661095
 21
86.766122
 31
0.0
  0
LINE
  5
248
100
AcDbEntity
  8
Layer_1
 62
7
100
AcDbLine
 10
148.661095
 20
86.766122
 30
0.0
 11
149.074697
 21
87.179724
 31
0.0
  0
LINE
  5
249
100
AcDbEntity
  8
Layer_1
 62
7
100
AcDbLine
 10
149.074697
 20
87.179724
 30
0.0
 11
149.074688
 21
87.179738
 31
0.0
  0
LINE
  5
24a
100
AcDbEntity
  8
Layer_1
 62
7
100
AcDbLine
 10
145.779891
 20
88.594936
 30
0.0
 11
145.779891
 21
89.356936
 31
0.0
  0
LINE
  5
24b
100
AcDbEntity
  8
Layer_1
 62
7
100
AcDbLine
 10
145.779891
 20
89.356936
 30
0.0
 11
145.411591
 21
89.356936
 31
0.0
  0
LINE
  5
24c
100
AcDbEntity
  8
Layer_1
 62
7
100
AcDbLine
 10
145.411591
 20
89.356936
 30
0.0
 11
145.043291
 21
89.356936
 31
0.0
  0
LINE
  5
24d
100
AcDbEntity
  8
Layer_1
 62
7
100
AcDbLine
 10
145.043291
 20
89.356936
 30
0.0
 11
145.043291
 21
89.623636
 31
0.0
  0
LINE
  5
24e
100
AcDbEntity
  8
Layer_1
 62
7
100
AcDbLine
 10
145.043291
 20
89.623636
 30
0.0
 11
145.043291
 21
89.890336
 31
0.0
  0
LINE
  5
24f
100
AcDbEntity
  8
Layer_1
 62
7
100
AcDbLine
 10
145.043291
 20
89.890336
 30
0.0
 11
146.021191
 21
89.890336
 31
0.0
  0
LINE
  5
250
100
AcDbEntity
  8
Layer_1
 62
7
100
AcDbLine
 10
146.021191
 20
89.890336
 30
0.0
 11
146.999091
 21
89.890336
 31
0.0
  0
LINE
  5
251
100
AcDbEntity
  8
Layer_1
 62
7
100
AcDbLine
 10
146.999091
 20
89.890336
 30
0.0
 11
146.999091
 21
89.522036
 31
0.0
  0
LINE
  5
252
100
AcDbEntity
  8
Layer_1
 62
7
100
AcDbLine
 10
146.999091
 20
89.522036
 30
0.0
 11
146.999091
 21
89.153736
 31
0.0
  0
LINE
  5
253
100
AcDbEntity
  8
Layer_1
 62
7
100
AcDbLine
 10
146.999091
 20
89.153736
 30
0.0
 11
147.748391
 21
89.153736
 31
0.0
  0
LINE
  5
254
100
AcDbEntity
  8
Layer_1
 62
7
100
AcDbLine
 10
147.748391
 20
89.153736
 30
0.0
 11
148.497691
 21
89.153736
 31
0.0
  0
LINE
  5
255
100
AcDbEntity
  8
Layer_1
 62
7
100
AcDbLine
 10
148.497691
 20
89.153736
 30
0.0
 11
148.497691
 21
90.093536
 31
0.0
  0
LINE
  5
256
100
AcDbEntity
  8
Layer_1
 62
7
100
AcDbLine
 10
148.497691
 20
90.093536
 30
0.0
 11
148.497691
 21
91.033336
 31
0.0
  0
LINE
  5
257
100
AcDbEntity
  8
Layer_1
 62
7
100
AcDbLine
 10
148.497691
 20
91.033336
 30
0.0
 11
147.748391
 21
91.033336
 31
0.0
  0
LINE
  5
258
100
AcDbEntity
  8
Layer_1
 62
7
100
AcDbLine
 10
147.748391
 20
91.033336
 30
0.0
 11
146.999091
 21
91.033336
 31
0.0
  0
LINE
  5
259
100
AcDbEntity
  8
Layer_1
 62
7
100
AcDbLine
 10
146.999091
 20
91.033336
 30
0.0
 11
146.999091
 21
90.665036
 31
0.0
  0
LINE
  5
25a
100
AcDbEntity
  8
Layer_1
 62
7
100
AcDbLine
 10
146.999091
 20
90.665036
 30
0.0
 11
146.999091
 21
90.296736
 31
0.0
  0
LINE
  5
25b
100
AcDbEntity
  8
Layer_1
 62
7
100
AcDbLine
 10
146.999091
 20
90.296736
 30
0.0
 11
146.021191
 21
90.296736
 31
0.0
  0
LINE
  5
25c
100
AcDbEntity
  8
Layer_1
 62
7
100
AcDbLine
 10
146.021191
 20
90.296736
 30
0.0
 11
145.043291
 21
90.296736
 31
0.0
  0
LINE
  5
25d
100
AcDbEntity
  8
Layer_1
 62
7
100
AcDbLine
 10
145.043291
 20
90.296736
 30
0.0
 11
145.043291
 21
90.665036
 31
0.0
  0
LINE
  5
25e
100
AcDbEntity
  8
Layer_1
 62
7
100
AcDbLine
 10
145.043291
 20
90.665036
 30
0.0
 11
145.043291
 21
91.033336
 31
0.0
  0
LINE
  5
25f
100
AcDbEntity
  8
Layer_1
 62
7
100
AcDbLine
 10
145.043291
 20
91.033336
 30
0.0
 11
145.144891
 21
91.033336
 31
0.0
  0
LINE
  5
260
100
AcDbEntity
  8
Layer_1
 62
7
100
AcDbLine
 10
145.144891
 20
91.033336
 30
0.0
 11
145.246491
 21
91.033336
 31
0.0
  0
LINE
  5
261
100
AcDbEntity
  8
Layer_1
 62
7
100
AcDbLine
 10
145.246491
 20
91.033336
 30
0.0
 11
145.246491
 21
91.833436
 31
0.0
  0
LINE
  5
262
100
AcDbEntity
  8
Layer_1
 62
7
100
AcDbLine
 10
145.246491
 20
91.833436
 30
0.0
 11
145.246491
 21
92.633536
 31
0.0
  0
LINE
  5
263
100
AcDbEntity
  8
Layer_1
 62
7
100
AcDbLine
 10
145.246491
 20
92.633536
 30
0.0
 11
144.852791
 21
92.633536
 31
0.0
  0
LINE
  5
264
100
AcDbEntity
  8
Layer_1
 62
7
100
AcDbLine
 10
144.852791
 20
92.633536
 30
0.0
 11
144.459091
 21
92.633536
 31
0.0
  0
LINE
  5
265
100
AcDbEntity
  8
Layer_1
 62
7
100
AcDbLine
 10
144.459091
 20
92.633536
 30
0.0
 11
144.459091
 21
91.833436
 31
0.0
  0
LINE
  5
266
100
AcDbEntity
  8
Layer_1
 62
7
100
AcDbLine
 10
144.459091
 20
91.833436
 30
0.0
 11
144.459091
 21
91.033336
 31
0.0
  0
LINE
  5
267
100
AcDbEntity
  8
Layer_1
 62
7
100
AcDbLine
 10
144.459091
 20
91.033336
 30
0.0
 11
144.547991
 21
91.033336
 31
0.0
  0
LINE
  5
268
100
AcDbEntity
  8
Layer_1
 62
7
100
AcDbLine
 10
144.547991
 20
91.033336
 30
0.0
 11
144.636891
 21
91.033336
 31
0.0
  0
LINE
  5
269
100
AcDbEntity
  8
Layer_1
 62
7
100
AcDbLine
 10
144.636891
 20
91.033336
 30
0.0
 11
144.636891
 21
90.665036
 31
0.0
  0
LINE
  5
26a
100
AcDbEntity
  8
Layer_1
 62
7
100
AcDbLine
 10
144.636891
 20
90.665036
 30
0.0
 11
144.636891
 21
90.296736
 31
0.0
  0
LINE
  5
26b
100
AcDbEntity
  8
Layer_1
 62
7
100
AcDbLine
 10
144.636891
 20
90.296736
 30
0.0
 11
141.893691
 21
90.296736
 31
0.0
  0
LINE
  5
26c
100
AcDbEntity
  8
Layer_1
 62
7
100
AcDbLine
 10
141.893691
 20
90.296736
 30
0.0
 11
139.150491
 21
90.296736
 31
0.0
  0
LINE
  5
26d
100
AcDbEntity
  8
Layer_1
 62
7
100
AcDbLine
 10
139.150491
 20
90.296736
 30
0.0
 11
139.150491
 21
90.436436
 31
0.0
  0
LINE
  5
26e
100
AcDbEntity
  8
Layer_1
 62
7
100
AcDbLine
 10
139.150491
 20
90.436436
 30
0.0
 11
139.150491
 21
90.576136
 31
0.0
  0
LINE
  5
26f
100
AcDbEntity
  8
Layer_1
 62
7
100
AcDbLine
 10
139.150491
 20
90.576136
 30
0.0
 11
135.911991
 21
90.576136
 31
0.0
  0
LINE
  5
270
100
AcDbEntity
  8
Layer_1
 62
7
100
AcDbLine
 10
135.911991
 20
90.576136
 30
0.0
 11
132.673491
 21
90.576136
 31
0.0
  0
LINE
  5
271
100
AcDbEntity
  8
Layer_1
 62
7
100
AcDbLine
 10
132.673491
 20
90.576136
 30
0.0
 11
132.673491
 21
90.080836
 31
0.0
  0
LINE
  5
272
100
AcDbEntity
  8
Layer_1
 62
7
100
AcDbLine
 10
132.673491
 20
90.080836
 30
0.0
 11
132.673491
 21
89.585536
 31
0.0
  0
LINE
  5
273
100
AcDbEntity
  8
Layer_1
 62
7
100
AcDbLine
 10
132.673491
 20
89.585536
 30
0.0
 11
135.911991
 21
89.585536
 31
0.0
  0
LINE
  5
274
100
AcDbEntity
  8
Layer_1
 62
7
100
AcDbLine
 10
135.911991
 20
89.585536
 30
0.0
 11
139.150491
 21
89.585536
 31
0.0
  0
LINE
  5
275
100
AcDbEntity
  8
Layer_1
 62
7
100
AcDbLine
 10
139.150491
 20
89.585536
 30
0.0
 11
139.150491
 21
89.737936
 31
0.0
  0
LINE
  5
276
100
AcDbEntity
  8
Layer_1
 62
7
100
AcDbLine
 10
139.150491
 20
89.737936
 30
0.0
 11
139.150491
 21
89.890336
 31
0.0
  0
LINE
  5
277
100
AcDbEntity
  8
Layer_1
 62
7
100
AcDbLine
 10
139.150491
 20
89.890336
 30
0.0
 11
141.893691
 21
89.890336
 31
0.0
  0
LINE
  5
278
100
AcDbEntity
  8
Layer_1
 62
7
100
AcDbLine
 10
141.893691
 20
89.890336
 30
0.0
 11
144.636891
 21
89.890336
 31
0.0
  0
LINE
  5
279
100
AcDbEntity
  8
Layer_1
 62
7
100
AcDbLine
 10
144.636891
 20
89.890336
 30
0.0
 11
144.636891
 21
89.623636
 31
0.0
  0
LINE
  5
27a
100
AcDbEntity
  8
Layer_1
 62
7
100
AcDbLine
 10
144.636891
 20
89.623636
 30
0.0
 11
144.636891
 21
89.356936
 31
0.0
  0
LINE
  5
27b
100
AcDbEntity
  8
Layer_1
 62
7
100
AcDbLine
 10
144.636891
 20
89.356936
 30
0.0
 11
144.268591
 21
89.356936
 31
0.0
  0
LINE
  5
27c
100
AcDbEntity
  8
Layer_1
 62
7
100
AcDbLine
 10
144.268591
 20
89.356936
 30
0.0
 11
143.900291
 21
89.356936
 31
0.0
  0
LINE
  5
27d
100
AcDbEntity
  8
Layer_1
 62
7
100
AcDbLine
 10
143.900291
 20
89.356936
 30
0.0
 11
143.900291
 21
88.594936
 31
0.0
  0
LINE
  5
27e
100
AcDbEntity
  8
Layer_1
 62
7
100
AcDbLine
 10
143.900291
 20
88.594936
 30
0.0
 11
143.900291
 21
87.832936
 31
0.0
  0
LINE
  5
27f
100
AcDbEntity
  8
Layer_1
 62
7
100
AcDbLine
 10
143.900291
 20
87.832936
 30
0.0
 11
144.840091
 21
87.832936
 31
0.0
  0
LINE
  5
280
100
AcDbEntity
  8
Layer_1
 62
7
100
AcDbLine
 10
144.840091
 20
87.832936
 30
0.0
 11
145.779891
 21
87.832936
 31
0.0
  0
LINE
  5
281
100
AcDbEntity
  8
Layer_1
 62
7
100
AcDbLine
 10
145.779891
 20
87.832936
 30
0.0
 11
145.779891
 21
88.594936
 31
0.0
  0
LINE
  5
282
100
AcDbEntity
  8
Layer_1
 62
7
100
AcDbLine
 10
145.779891
 20
88.594936
 30
0.0
 11
145.779891
 21
88.594936
 31
0.0
  0
LINE
  5
283
100
AcDbEntity
  8
Layer_1
 62
7
100
AcDbLine
 10
172.272091
 20
88.721936
 30
0.0
 11
172.272091
 21
89.458536
 31
0.0
  0
LINE
  5
284
100
AcDbEntity
  8
Layer_1
 62
7
100
AcDbLine
 10
172.272091
 20
89.458536
 30
0.0
 11
171.903791
 21
89.458536
 31
0.0
  0
LINE
  5
285
100
AcDbEntity
  8
Layer_1
 62
7
100
AcDbLine
 10
171.903791
 20
89.458536
 30
0.0
 11
171.535491
 21
89.458536
 31
0.0
  0
LINE
  5
286
100
AcDbEntity
  8
Layer_1
 62
7
100
AcDbLine
 10
171.535491
 20
89.458536
 30
0.0
 11
171.535491
 21
90.030036
 31
0.0
  0
LINE
  5
287
100
AcDbEntity
  8
Layer_1
 62
7
100
AcDbLine
 10
171.535491
 20
90.030036
 30
0.0
 11
171.535491
 21
90.601536
 31
0.0
  0
LINE
  5
288
100
AcDbEntity
  8
Layer_1
 62
7
100
AcDbLine
 10
171.535491
 20
90.601536
 30
0.0
 11
171.903791
 21
90.601536
 31
0.0
  0
LINE
  5
289
100
AcDbEntity
  8
Layer_1
 62
7
100
AcDbLine
 10
171.903791
 20
90.601536
 30
0.0
 11
172.272091
 21
90.601536
 31
0.0
  0
LINE
  5
28a
100
AcDbEntity
  8
Layer_1
 62
7
100
AcDbLine
 10
172.272091
 20
90.601536
 30
0.0
 11
172.272091
 21
91.350836
 31
0.0
  0
LINE
  5
28b
100
AcDbEntity
  8
Layer_1
 62
7
100
AcDbLine
 10
172.272091
 20
91.350836
 30
0.0
 11
172.272091
 21
92.100136
 31
0.0
  0
LINE
  5
28c
100
AcDbEntity
  8
Layer_1
 62
7
100
AcDbLine
 10
172.272091
 20
92.100136
 30
0.0
 11
171.332291
 21
92.100136
 31
0.0
  0
LINE
  5
28d
100
AcDbEntity
  8
Layer_1
 62
7
100
AcDbLine
 10
171.332291
 20
92.100136
 30
0.0
 11
170.392491
 21
92.100136
 31
0.0
  0
LINE
  5
28e
100
AcDbEntity
  8
Layer_1
 62
7
100
AcDbLine
 10
170.392491
 20
92.100136
 30
0.0
 11
170.392491
 21
91.350836
 31
0.0
  0
LINE
  5
28f
100
AcDbEntity
  8
Layer_1
 62
7
100
AcDbLine
 10
170.392491
 20
91.350836
 30
0.0
 11
170.392491
 21
90.601536
 31
0.0
  0
LINE
  5
290
100
AcDbEntity
  8
Layer_1
 62
7
100
AcDbLine
 10
170.392491
 20
90.601536
 30
0.0
 11
170.760791
 21
90.601536
 31
0.0
  0
LINE
  5
291
100
AcDbEntity
  8
Layer_1
 62
7
100
AcDbLine
 10
170.760791
 20
90.601536
 30
0.0
 11
171.129091
 21
90.601536
 31
0.0
  0
LINE
  5
292
100
AcDbEntity
  8
Layer_1
 62
7
100
AcDbLine
 10
171.129091
 20
90.601536
 30
0.0
 11
171.129091
 21
90.030036
 31
0.0
  0
LINE
  5
293
100
AcDbEntity
  8
Layer_1
 62
7
100
AcDbLine
 10
171.129091
 20
90.030036
 30
0.0
 11
171.129091
 21
89.458536
 31
0.0
  0
LINE
  5
294
100
AcDbEntity
  8
Layer_1
 62
7
100
AcDbLine
 10
171.129091
 20
89.458536
 30
0.0
 11
170.760791
 21
89.458536
 31
0.0
  0
LINE
  5
295
100
AcDbEntity
  8
Layer_1
 62
7
100
AcDbLine
 10
170.760791
 20
89.458536
 30
0.0
 11
170.392491
 21
89.458536
 31
0.0
  0
LINE
  5
296
100
AcDbEntity
  8
Layer_1
 62
7
100
AcDbLine
 10
170.392491
 20
89.458536
 30
0.0
 11
170.392491
 21
88.721936
 31
0.0
  0
LINE
  5
297
100
AcDbEntity
  8
Layer_1
 62
7
100
AcDbLine
 10
170.392491
 20
88.721936
 30
0.0
 11
170.392491
 21
87.985336
 31
0.0
  0
LINE
  5
298
100
AcDbEntity
  8
Layer_1
 62
7
100
AcDbLine
 10
170.392491
 20
87.985336
 30
0.0
 11
171.332291
 21
87.985336
 31
0.0
  0
LINE
  5
299
100
AcDbEntity
  8
Layer_1
 62
7
100
AcDbLine
 10
171.332291
 20
87.985336
 30
0.0
 11
172.272091
 21
87.985336
 31
0.0
  0
LINE
  5
29a
100
AcDbEntity
  8
Layer_1
 62
7
100
AcDbLine
 10
172.272091
 20
87.985336
 30
0.0
 11
172.272091
 21
88.721936
 31
0.0
  0
LINE
  5
29b
100
AcDbEntity
  8
Layer_1
 62
7
100
AcDbLine
 10
172.272091
 20
88.721936
 30
0.0
 11
172.272091
 21
88.721936
 31
0.0
  0
LINE
  5
29c
100
AcDbEntity
  8
Layer_1
 62
7
100
AcDbLine
 10
175.091491
 20
88.721372
 30
0.0
 11
175.091491
 21
89.457291
 31
0.0
  0
LINE
  5
29d
100
AcDbEntity
  8
Layer_1
 62
7
100
AcDbLine
 10
175.091491
 20
89.457291
 30
0.0
 11
174.716841
 21
89.464319
 31
0.0
  0
LINE
  5
29e
100
AcDbEntity
  8
Layer_1
 62
7
100
AcDbLine
 10
174.716841
 20
89.464319
 30
0.0
 11
174.342191
 21
89.471346
 31
0.0
  0
LINE
  5
29f
100
AcDbEntity
  8
Layer_1
 62
7
100
AcDbLine
 10
174.342191
 20
89.471346
 30
0.0
 11
174.342191
 21
90.030146
 31
0.0
  0
LINE
  5
2a0
100
AcDbEntity
  8
Layer_1
 62
7
100
AcDbLine
 10
174.342191
 20
90.030146
 30
0.0
 11
174.342191
 21
90.588946
 31
0.0
  0
LINE
  5
2a1
100
AcDbEntity
  8
Layer_1
 62
7
100
AcDbLine
 10
174.342191
 20
90.588946
 30
0.0
 11
174.716841
 21
90.595973
 31
0.0
  0
LINE
  5
2a2
100
AcDbEntity
  8
Layer_1
 62
7
100
AcDbLine
 10
174.716841
 20
90.595973
 30
0.0
 11
175.091491
 21
90.603001
 31
0.0
  0
LINE
  5
2a3
100
AcDbEntity
  8
Layer_1
 62
7
100
AcDbLine
 10
175.091491
 20
90.603001
 30
0.0
 11
175.091491
 21
91.351621
 31
0.0
  0
LINE
  5
2a4
100
AcDbEntity
  8
Layer_1
 62
7
100
AcDbLine
 10
175.091491
 20
91.351621
 30
0.0
 11
175.091491
 21
92.100240
 31
0.0
  0
LINE
  5
2a5
100
AcDbEntity
  8
Layer_1
 62
7
100
AcDbLine
 10
175.091491
 20
92.100240
 30
0.0
 11
174.138991
 21
92.100240
 31
0.0
  0
LINE
  5
2a6
100
AcDbEntity
  8
Layer_1
 62
7
100
AcDbLine
 10
174.138991
 20
92.100240
 30
0.0
 11
173.186491
 21
92.100240
 31
0.0
  0
LINE
  5
2a7
100
AcDbEntity
  8
Layer_1
 62
7
100
AcDbLine
 10
173.186491
 20
92.100240
 30
0.0
 11
173.186491
 21
91.351621
 31
0.0
  0
LINE
  5
2a8
100
AcDbEntity
  8
Layer_1
 62
7
100
AcDbLine
 10
173.186491
 20
91.351621
 30
0.0
 11
173.186491
 21
90.603001
 31
0.0
  0
LINE
  5
2a9
100
AcDbEntity
  8
Layer_1
 62
7
100
AcDbLine
 10
173.186491
 20
90.603001
 30
0.0
 11
173.561141
 21
90.595973
 31
0.0
  0
LINE
  5
2aa
100
AcDbEntity
  8
Layer_1
 62
7
100
AcDbLine
 10
173.561141
 20
90.595973
 30
0.0
 11
173.935791
 21
90.588946
 31
0.0
  0
LINE
  5
2ab
100
AcDbEntity
  8
Layer_1
 62
7
100
AcDbLine
 10
173.935791
 20
90.588946
 30
0.0
 11
173.935791
 21
90.030146
 31
0.0
  0
LINE
  5
2ac
100
AcDbEntity
  8
Layer_1
 62
7
100
AcDbLine
 10
173.935791
 20
90.030146
 30
0.0
 11
173.935791
 21
89.471346
 31
0.0
  0
LINE
  5
2ad
100
AcDbEntity
  8
Layer_1
 62
7
100
AcDbLine
 10
173.935791
 20
89.471346
 30
0.0
 11
173.561141
 21
89.464319
 31
0.0
  0
LINE
  5
2ae
100
AcDbEntity
  8
Layer_1
 62
7
100
AcDbLine
 10
173.561141
 20
89.464319
 30
0.0
 11
173.186491
 21
89.457291
 31
0.0
  0
LINE
  5
2af
100
AcDbEntity
  8
Layer_1
 62
7
100
AcDbLine
 10
173.186491
 20
89.457291
 30
0.0
 11
173.186491
 21
88.721372
 31
0.0
  0
LINE
  5
2b0
100
AcDbEntity
  8
Layer_1
 62
7
100
AcDbLine
 10
173.186491
 20
88.721372
 30
0.0
 11
173.186491
 21
87.985449
 31
0.0
  0
LINE
  5
2b1
100
AcDbEntity
  8
Layer_1
 62
7
100
AcDbLine
 10
173.186491
 20
87.985449
 30
0.0
 11
174.138991
 21
87.985449
 31
0.0
  0
LINE
  5
2b2
100
AcDbEntity
  8
Layer_1
 62
7
100
AcDbLine
 10
174.138991
 20
87.985449
 30
0.0
 11
175.091491
 21
87.985449
 31
0.0
  0
LINE
  5
2b3
100
AcDbEntity
  8
Layer_1
 62
7
100
AcDbLine
 10
175.091491
 20
87.985449
 30
0.0
 11
175.091491
 21
88.721372
 31
0.0
  0
LINE
  5
2b4
100
AcDbEntity
  8
Layer_1
 62
7
100
AcDbLine
 10
175.091491
 20
88.721372
 30
0.0
 11
175.091491
 21
88.721372
 31
0.0
  0
LINE
  5
2b5
100
AcDbEntity
  8
Layer_1
 62
7
100
AcDbLine
 10
168.911295
 20
90.022851
 30
0.0
 11
169.351091
 21
90.460050
 31
0.0
  0
LINE
  5
2b6
100
AcDbEntity
  8
Layer_1
 62
7
100
AcDbLine
 10
169.351091
 20
90.460050
 30
0.0
 11
169.351091
 21
91.323915
 31
0.0
  0
LINE
  5
2b7
100
AcDbEntity
  8
Layer_1
 62
7
100
AcDbLine
 10
169.351091
 20
91.323915
 30
0.0
 11
169.351091
 21
92.187783
 31
0.0
  0
LINE
  5
2b8
100
AcDbEntity
  8
Layer_1
 62
7
100
AcDbLine
 10
169.351091
 20
92.187783
 30
0.0
 11
169.509107
 21
92.347216
 31
0.0
  0
LINE
  5
2b9
100
AcDbEntity
  8
Layer_1
 62
7
100
AcDbLine
 10
169.509107
 20
92.347216
 30
0.0
 11
169.667123
 21
92.506649
 31
0.0
  0
LINE
  5
2ba
100
AcDbEntity
  8
Layer_1
 62
7
100
AcDbLine
 10
169.667123
 20
92.506649
 30
0.0
 11
171.583816
 21
92.506649
 31
0.0
  0
LINE
  5
2bb
100
AcDbEntity
  8
Layer_1
 62
7
100
AcDbLine
 10
171.583816
 20
92.506649
 30
0.0
 11
173.500511
 21
92.506649
 31
0.0
  0
LINE
  5
2bc
100
AcDbEntity
  8
Layer_1
 62
7
100
AcDbLine
 10
173.500511
 20
92.506649
 30
0.0
 11
173.915002
 21
92.918394
 31
0.0
  0
LINE
  5
2bd
100
AcDbEntity
  8
Layer_1
 62
7
100
AcDbLine
 10
173.915002
 20
92.918394
 30
0.0
 11
174.329491
 21
93.330142
 31
0.0
  0
LINE
  5
2be
100
AcDbEntity
  8
Layer_1
 62
7
100
AcDbLine
 10
174.329491
 20
93.330142
 30
0.0
 11
174.329491
 21
93.515294
 31
0.0
  0
LINE
  5
2bf
100
AcDbEntity
  8
Layer_1
 62
7
100
AcDbLine
 10
174.329491
 20
93.515294
 30
0.0
 11
174.329491
 21
93.700449
 31
0.0
  0
LINE
  5
2c0
100
AcDbEntity
  8
Layer_1
 62
7
100
AcDbLine
 10
174.329491
 20
93.700449
 30
0.0
 11
174.710491
 21
93.700449
 31
0.0
  0
LINE
  5
2c1
100
AcDbEntity
  8
Layer_1
 62
7
100
AcDbLine
 10
174.710491
 20
93.700449
 30
0.0
 11
175.091491
 21
93.700449
 31
0.0
  0
LINE
  5
2c2
100
AcDbEntity
  8
Layer_1
 62
7
100
AcDbLine
 10
175.091491
 20
93.700449
 30
0.0
 11
175.091491
 21
94.449749
 31
0.0
  0
LINE
  5
2c3
100
AcDbEntity
  8
Layer_1
 62
7
100
AcDbLine
 10
175.091491
 20
94.449749
 30
0.0
 11
175.091491
 21
95.199049
 31
0.0
  0
LINE
  5
2c4
100
AcDbEntity
  8
Layer_1
 62
7
100
AcDbLine
 10
175.091491
 20
95.199049
 30
0.0
 11
174.138991
 21
95.199049
 31
0.0
  0
LINE
  5
2c5
100
AcDbEntity
  8
Layer_1
 62
7
100
AcDbLine
 10
174.138991
 20
95.199049
 30
0.0
 11
173.186491
 21
95.199049
 31
0.0
  0
LINE
  5
2c6
100
AcDbEntity
  8
Layer_1
 62
7
100
AcDbLine
 10
173.186491
 20
95.199049
 30
0.0
 11
173.186491
 21
94.449749
 31
0.0
  0
LINE
  5
2c7
100
AcDbEntity
  8
Layer_1
 62
7
100
AcDbLine
 10
173.186491
 20
94.449749
 30
0.0
 11
173.186491
 21
93.700449
 31
0.0
  0
LINE
  5
2c8
100
AcDbEntity
  8
Layer_1
 62
7
100
AcDbLine
 10
173.186491
 20
93.700449
 30
0.0
 11
173.567491
 21
93.700449
 31
0.0
  0
LINE
  5
2c9
100
AcDbEntity
  8
Layer_1
 62
7
100
AcDbLine
 10
173.567491
 20
93.700449
 30
0.0
 11
173.948491
 21
93.700449
 31
0.0
  0
LINE
  5
2ca
100
AcDbEntity
  8
Layer_1
 62
7
100
AcDbLine
 10
173.948491
 20
93.700449
 30
0.0
 11
173.948491
 21
93.605580
 31
0.0
  0
SPLINE
  5
2cb
100
AcDbEntity
  8
Layer_1
 62
7
100
AcDbSpline
 70
0
 71
3
 72
10
 73
6
 74
4
 40
0.000000
 40
0.000000
 40
0.000000
 40
0.000000
 40
0.341662
 40
0.687266
 40
1.043710
 40
1.043710
 40
1.043710
 40
1.043710
 10
168.128916
 20
96.686829
 30
0.0
 10
168.017769
 20
96.657067
 30
0.0
 10
167.794193
 20
96.597202
 30
0.0
 10
167.526351
 20
96.349087
 30
0.0
 10
167.440316
 20
96.129542
 30
0.0
 10
167.396634
 20
96.018075
 30
0.0
 11
168.128916
 21
96.686829
 31
0.0
 11
167.807142
 21
96.571963
 31
0.0
 11
167.551944
 21
96.338905
 31
0.0
 11
167.396634
 21
96.018075
 31
0.0
  0
LINE
  5
2cc
100
AcDbEntity
  8
Layer_1
 62
7
100
AcDbLine
 10
173.650436
 20
93.211880
 30
0.0
 11
173.352387
 21
92.913049
 31
0.0
  0
LINE
  5
2cd
100
AcDbEntity
  8
Layer_1
 62
7
100
AcDbLine
 10
173.352387
 20
92.913049
 30
0.0
 11
171.436843
 21
92.913049
 31
0.0
  0
LINE
  5
2ce
100
AcDbEntity
  8
Layer_1
 62
7
100
AcDbLine
 10
171.436843
 20
92.913049
 30
0.0
 11
169.521299
 21
92.913049
 31
0.0
  0
LINE
  5
2cf
100
AcDbEntity
  8
Layer_1
 62
7
100
AcDbLine
 10
169.521299
 20
92.913049
 30
0.0
 11
169.245695
 21
92.641464
 31
0.0
  0
LINE
  5
2d0
100
AcDbEntity
  8
Layer_1
 62
7
100
AcDbLine
 10
169.245695
 20
92.641464
 30
0.0
 11
168.970091
 21
92.369876
 31
0.0
  0
LINE
  5
2d1
100
AcDbEntity
  8
Layer_1
 62
7
100
AcDbLine
 10
168.970091
 20
92.369876
 30
0.0
 11
168.970091
 21
91.517830
 31
0.0
  0
LINE
  5
2d2
100
AcDbEntity
  8
Layer_1
 62
7
100
AcDbLine
 10
168.970091
 20
91.517830
 30
0.0
 11
168.970091
 21
90.665784
 31
0.0
  0
LINE
  5
2d3
100
AcDbEntity
  8
Layer_1
 62
7
100
AcDbLine
 10
168.970091
 20
90.665784
 30
0.0
 11
168.608468
 21
90.303518
 31
0.0
  0
LINE
  5
2d4
100
AcDbEntity
  8
Layer_1
 62
7
100
AcDbLine
 10
168.608468
 20
90.303518
 30
0.0
 11
168.246848
 21
89.941249
 31
0.0
  0
LINE
  5
2d5
100
AcDbEntity
  8
Layer_1
 62
7
100
AcDbLine
 10
168.246848
 20
89.941249
 30
0.0
 11
166.225528
 21
89.941249
 31
0.0
  0
LINE
  5
2d6
100
AcDbEntity
  8
Layer_1
 62
7
100
AcDbLine
 10
166.225528
 20
89.941249
 30
0.0
 11
164.204207
 21
89.941249
 31
0.0
  0
LINE
  5
2d7
100
AcDbEntity
  8
Layer_1
 62
7
100
AcDbLine
 10
164.204207
 20
89.941249
 30
0.0
 11
163.799500
 21
90.353059
 31
0.0
  0
LINE
  5
2d8
100
AcDbEntity
  8
Layer_1
 62
7
100
AcDbLine
 10
163.799500
 20
90.353059
 30
0.0
 11
163.394791
 21
90.764869
 31
0.0
  0
LINE
  5
2d9
100
AcDbEntity
  8
Layer_1
 62
7
100
AcDbLine
 10
163.394791
 20
90.764869
 30
0.0
 11
163.197941
 21
90.774860
 31
0.0
  0
LINE
  5
2da
100
AcDbEntity
  8
Layer_1
 62
7
100
AcDbLine
 10
163.197941
 20
90.774860
 30
0.0
 11
163.001091
 21
90.784851
 31
0.0
  0
LINE
  5
2db
100
AcDbEntity
  8
Layer_1
 62
7
100
AcDbLine
 10
163.001091
 20
90.784851
 30
0.0
 11
163.001091
 21
91.201261
 31
0.0
  0
LINE
  5
2dc
100
AcDbEntity
  8
Layer_1
 62
7
100
AcDbLine
 10
163.001091
 20
91.201261
 30
0.0
 11
163.001091
 21
91.617672
 31
0.0
  0
LINE
  5
2dd
100
AcDbEntity
  8
Layer_1
 62
7
100
AcDbLine
 10
163.001091
 20
91.617672
 30
0.0
 11
161.159591
 21
91.617672
 31
0.0
  0
LINE
  5
2de
100
AcDbEntity
  8
Layer_1
 62
7
100
AcDbLine
 10
161.159591
 20
91.617672
 30
0.0
 11
159.318091
 21
91.617672
 31
0.0
  0
LINE
  5
2df
100
AcDbEntity
  8
Layer_1
 62
7
100
AcDbLine
 10
159.318091
 20
91.617672
 30
0.0
 11
159.318091
 21
91.401772
 31
0.0
  0
LINE
  5
2e0
100
AcDbEntity
  8
Layer_1
 62
7
100
AcDbLine
 10
159.318091
 20
91.401772
 30
0.0
 11
159.318091
 21
91.185872
 31
0.0
  0
LINE
  5
2e1
100
AcDbEntity
  8
Layer_1
 62
7
100
AcDbLine
 10
159.318091
 20
91.185872
 30
0.0
 11
157.851052
 21
91.185872
 31
0.0
  0
LINE
  5
2e2
100
AcDbEntity
  8
Layer_1
 62
7
100
AcDbLine
 10
157.851052
 20
91.185872
 30
0.0
 11
156.384018
 21
91.185872
 31
0.0
  0
LINE
  5
2e3
100
AcDbEntity
  8
Layer_1
 62
7
100
AcDbLine
 10
156.384018
 20
91.185872
 30
0.0
 11
155.742852
 21
91.827405
 31
0.0
  0
LINE
  5
2e4
100
AcDbEntity
  8
Layer_1
 62
7
100
AcDbLine
 10
155.742852
 20
91.827405
 30
0.0
 11
155.101691
 21
92.468938
 31
0.0
  0
LINE
  5
2e5
100
AcDbEntity
  8
Layer_1
 62
7
100
AcDbLine
 10
155.101691
 20
92.468938
 30
0.0
 11
155.101691
 21
93.111801
 31
0.0
  0
LINE
  5
2e6
100
AcDbEntity
  8
Layer_1
 62
7
100
AcDbLine
 10
155.101691
 20
93.111801
 30
0.0
 11
155.101691
 21
93.754661
 31
0.0
  0
LINE
  5
2e7
100
AcDbEntity
  8
Layer_1
 62
7
100
AcDbLine
 10
155.101691
 20
93.754661
 30
0.0
 11
155.171541
 21
93.846225
 31
0.0
  0
LINE
  5
2e8
100
AcDbEntity
  8
Layer_1
 62
7
100
AcDbLine
 10
155.171541
 20
93.846225
 30
0.0
 11
155.241391
 21
93.937789
 31
0.0
  0
LINE
  5
2e9
100
AcDbEntity
  8
Layer_1
 62
7
100
AcDbLine
 10
155.241391
 20
93.937789
 30
0.0
 11
155.241391
 21
94.689079
 31
0.0
  0
SPLINE
  5
2ea
100
AcDbEntity
  8
Layer_1
 62
7
100
AcDbSpline
 70
0
 71
3
 72
10
 73
6
 74
4
 40
0.000000
 40
0.000000
 40
0.000000
 40
0.000000
 40
0.081457
 40
0.218361
 40
0.503904
 40
0.503904
 40
0.503904
 40
0.503904
 10
173.948491
 20
93.605580
 30
0.0
 10
173.945089
 20
93.578081
 30
0.0
 10
173.935970
 20
93.504364
 30
0.0
 10
173.812171
 20
93.379173
 30
0.0
 10
173.715666
 20
93.279352
 30
0.0
 10
173.650436
 20
93.211880
 30
0.0
 11
173.948491
 21
93.605580
 31
0.0
 11
173.932089
 21
93.525791
 31
0.0
 11
173.849454
 21
93.416640
 31
0.0
 11
173.650436
 21
93.211880
 31
0.0
  0
LINE
  5
2eb
100
AcDbEntity
  8
Layer_1
 62
7
100
AcDbLine
 10
154.695291
 20
93.032875
 30
0.0
 11
154.695291
 21
92.294511
 31
0.0
  0
LINE
  5
2ec
100
AcDbEntity
  8
Layer_1
 62
7
100
AcDbLine
 10
154.695291
 20
92.294511
 30
0.0
 11
155.412841
 21
91.572231
 31
0.0
  0
SPLINE
  5
2ed
100
AcDbEntity
  8
Layer_1
 62
7
100
AcDbSpline
 70
0
 71
3
 72
28
 73
24
 74
22
 40
0.000000
 40
0.000000
 40
0.000000
 40
0.000000
 40
0.497995
 40
0.734266
 40
0.838232
 40
0.959087
 40
1.071378
 40
1.198877
 40
1.325847
 40
1.440405
 40
1.565726
 40
1.664624
 40
1.888710
 40
2.385853
 40
2.861806
 40
3.100743
 40
3.211009
 40
3.264206
 40
3.309893
 40
3.339527
 40
3.410149
 40
3.637766
 40
4.094426
 40
4.094426
 40
4.094426
 40
4.094426
 10
155.241391
 20
94.689079
 30
0.0
 10
155.239836
 20
94.854879
 30
0.0
 10
155.237543
 20
95.099341
 30
0.0
 10
155.239723
 20
95.379878
 30
0.0
 10
155.201197
 20
95.530927
 30
0.0
 10
155.129590
 20
95.622342
 30
0.0
 10
155.022291
 20
95.683230
 30
0.0
 10
154.898658
 20
95.695881
 30
0.0
 10
154.774324
 20
95.682864
 30
0.0
 10
154.665244
 20
95.621287
 30
0.0
 10
154.590460
 20
95.532602
 30
0.0
 10
154.542356
 20
95.388725
 30
0.0
 10
154.548869
 20
95.112364
 30
0.0
 10
154.540352
 20
94.715284
 30
0.0
 10
154.545022
 20
94.310195
 30
0.0
 10
154.547850
 20
94.036196
 30
0.0
 10
154.573125
 20
93.901517
 30
0.0
 10
154.609552
 20
93.841953
 30
0.0
 10
154.631959
 20
93.804600
 30
0.0
 10
154.675763
 20
93.778704
 30
0.0
 10
154.689278
 20
93.658615
 30
0.0
 10
154.694705
 20
93.417899
 30
0.0
 10
154.695056
 20
93.186981
 30
0.0
 10
154.695291
 20
93.032875
 30
0.0
 11
155.241391
 21
94.689079
 31
0.0
 11
155.238659
 21
95.187067
 31
0.0
 11
155.225932
 21
95.422994
 31
0.0
 11
155.196413
 21
95.522682
 31
0.0
 11
155.122439
 21
95.618253
 31
0.0
 11
155.024734
 21
95.673599
 31
0.0
 11
154.898491
 21
95.691442
 31
0.0
 11
154.772784
 21
95.673576
 31
0.0
 11
154.672635
 21
95.617955
 31
0.0
 11
154.592573
 21
95.521541
 31
0.0
 11
154.559279
 21
95.428416
 31
0.0
 11
154.545652
 21
95.204745
 31
0.0
 11
154.542987
 21
94.707610
 31
0.0
 11
154.545801
 21
94.231665
 31
0.0
 11
154.558000
 21
93.993040
 31
0.0
 11
154.584993
 21
93.886129
 31
0.0
 11
154.610866
 21
93.839646
 31
0.0
 11
154.638244
 21
93.803072
 31
0.0
 11
154.661193
 21
93.784323
 31
0.0
 11
154.682237
 21
93.716910
 31
0.0
 11
154.692553
 21
93.489527
 31
0.0
 11
154.695291
 21
93.032875
 31
0.0
  0
LINE
  5
2ee
100
AcDbEntity
  8
Layer_1
 62
7
100
AcDbLine
 10
157.805975
 20
90.779472
 30
0.0
 11
159.318091
 21
90.779472
 31
0.0
  0
LINE
  5
2ef
100
AcDbEntity
  8
Layer_1
 62
7
100
AcDbLine
 10
159.318091
 20
90.779472
 30
0.0
 11
159.318091
 21
90.563572
 31
0.0
  0
LINE
  5
2f0
100
AcDbEntity
  8
Layer_1
 62
7
100
AcDbLine
 10
159.318091
 20
90.563572
 30
0.0
 11
159.318091
 21
90.347672
 31
0.0
  0
LINE
  5
2f1
100
AcDbEntity
  8
Layer_1
 62
7
100
AcDbLine
 10
159.318091
 20
90.347672
 30
0.0
 11
161.159591
 21
90.347672
 31
0.0
  0
SPLINE
  5
2f2
100
AcDbEntity
  8
Layer_1
 62
7
100
AcDbSpline
 70
0
 71
3
 72
13
 73
9
 74
7
 40
0.000000
 40
0.000000
 40
0.000000
 40
0.000000
 40
0.525142
 40
0.920219
 40
1.101696
 40
1.271892
 40
1.750533
 40
2.697083
 40
2.697083
 40
2.697083
 40
2.697083
 10
155.412841
 20
91.572231
 30
0.0
 10
155.536114
 20
91.446605
 30
0.0
 10
155.752128
 20
91.226467
 30
0.0
 10
156.023563
 20
90.990606
 30
0.0
 10
156.198472
 20
90.792776
 30
0.0
 10
156.490580
 20
90.793775
 30
0.0
 10
157.010290
 20
90.774106
 30
0.0
 10
157.488421
 20
90.777330
 30
0.0
 10
157.805975
 20
90.779472
 30
0.0
 11
155.412841
 21
91.572231
 31
0.0
 11
155.786147
 21
91.202885
 31
0.0
 11
156.072900
 21
90.931115
 31
0.0
 11
156.212125
 21
90.814710
 31
0.0
 11
156.380905
 21
90.792800
 31
0.0
 11
156.859429
 21
90.782220
 31
0.0
 11
157.805975
 21
90.779472
 31
0.0
  0
LINE
  5
2f3
100
AcDbEntity
  8
Layer_1
 62
7
100
AcDbLine
 10
163.134161
 20
90.449272
 30
0.0
 11
163.267229
 21
90.449272
 31
0.0
  0
LINE
  5
2f4
100
AcDbEntity
  8
Layer_1
 62
7
100
AcDbLine
 10
163.267229
 20
90.449272
 30
0.0
 11
163.680544
 21
90.036522
 31
0.0
  0
LINE
  5
2f5
100
AcDbEntity
  8
Layer_1
 62
7
100
AcDbLine
 10
163.680544
 20
90.036522
 30
0.0
 11
164.093855
 21
89.623772
 31
0.0
  0
LINE
  5
2f6
100
AcDbEntity
  8
Layer_1
 62
7
100
AcDbLine
 10
164.093855
 20
89.623772
 30
0.0
 11
166.208123
 21
89.610789
 31
0.0
  0
SPLINE
  5
2f7
100
AcDbEntity
  8
Layer_1
 62
7
100
AcDbSpline
 70
0
 71
3
 72
13
 73
9
 74
7
 40
0.000000
 40
0.000000
 40
0.000000
 40
0.000000
 40
1.288346
 40
1.769719
 40
1.849964
 40
1.883969
 40
1.924925
 40
2.011105
 40
2.011105
 40
2.011105
 40
2.011105
 10
161.159591
 20
90.347672
 30
0.0
 10
161.602883
 20
90.356851
 30
0.0
 10
162.211804
 20
90.369460
 30
0.0
 10
162.766419
 20
90.332283
 30
0.0
 10
163.006263
 20
90.376257
 30
0.0
 10
163.003242
 20
90.439489
 30
0.0
 10
163.067008
 20
90.449669
 30
0.0
 10
163.107031
 20
90.449432
 30
0.0
 10
163.134161
 20
90.449272
 30
0.0
 11
161.159591
 21
90.347672
 31
0.0
 11
162.447935
 21
90.349678
 31
0.0
 11
162.929124
 21
90.362974
 31
0.0
 11
163.001091
 21
90.398472
 31
0.0
 11
163.009782
 21
90.431347
 31
0.0
 11
163.048045
 21
90.445954
 31
0.0
 11
163.134161
 21
90.449272
 31
0.0
  0
LINE
  5
2f8
100
AcDbEntity
  8
Layer_1
 62
7
100
AcDbLine
 10
168.911295
 20
90.022882
 30
0.0
 11
168.911295
 21
90.022851
 31
0.0
  0
LINE
  5
2f9
100
AcDbEntity
  8
Layer_1
 62
7
100
AcDbLine
 10
168.081091
 20
90.982649
 30
0.0
 11
168.081091
 21
91.617649
 31
0.0
  0
LINE
  5
2fa
100
AcDbEntity
  8
Layer_1
 62
7
100
AcDbLine
 10
168.081091
 20
91.617649
 30
0.0
 11
166.359913
 21
91.617649
 31
0.0
  0
LINE
  5
2fb
100
AcDbEntity
  8
Layer_1
 62
7
100
AcDbLine
 10
166.359913
 20
91.617649
 30
0.0
 11
164.638733
 21
91.617649
 31
0.0
  0
LINE
  5
2fc
100
AcDbEntity
  8
Layer_1
 62
7
100
AcDbLine
 10
164.638733
 20
91.617649
 30
0.0
 11
164.277681
 21
91.979599
 31
0.0
  0
LINE
  5
2fd
100
AcDbEntity
  8
Layer_1
 62
7
100
AcDbLine
 10
164.277681
 20
91.979599
 30
0.0
 11
163.916628
 21
92.341549
 31
0.0
  0
LINE
  5
2fe
100
AcDbEntity
  8
Layer_1
 62
7
100
AcDbLine
 10
163.916628
 20
92.341549
 30
0.0
 11
163.909714
 21
93.617809
 31
0.0
  0
LINE
  5
2ff
100
AcDbEntity
  8
Layer_1
 62
7
100
AcDbLine
 10
163.909714
 20
93.617809
 30
0.0
 11
163.902799
 21
94.894065
 31
0.0
  0
LINE
  5
300
100
AcDbEntity
  8
Layer_1
 62
7
100
AcDbLine
 10
163.902799
 20
94.894065
 30
0.0
 11
163.528050
 21
95.268809
 31
0.0
  0
LINE
  5
301
100
AcDbEntity
  8
Layer_1
 62
7
100
AcDbLine
 10
163.528050
 20
95.268809
 30
0.0
 11
163.153299
 21
95.643549
 31
0.0
  0
LINE
  5
302
100
AcDbEntity
  8
Layer_1
 62
7
100
AcDbLine
 10
163.153299
 20
95.643549
 30
0.0
 11
160.327650
 21
95.660934
 31
0.0
  0
SPLINE
  5
303
100
AcDbEntity
  8
Layer_1
 62
7
100
AcDbSpline
 70
0
 71
3
 72
13
 73
9
 74
7
 40
0.000000
 40
0.000000
 40
0.000000
 40
0.000000
 40
1.075207
 40
1.861591
 40
2.188913
 40
2.269132
 40
2.461140
 40
2.867378
 40
2.867378
 40
2.867378
 40
2.867378
 10
166.208123
 20
89.610789
 30
0.0
 10
166.566818
 20
89.603782
 30
0.0
 10
167.187854
 20
89.591649
 30
0.0
 10
167.914907
 20
89.625498
 30
0.0
 10
168.316361
 20
89.566499
 30
0.0
 10
168.512249
 20
89.622281
 30
0.0
 10
168.669965
 20
89.795583
 30
0.0
 10
168.813695
 20
89.930956
 30
0.0
 10
168.911295
 20
90.022882
 30
0.0
 11
166.208123
 21
89.610789
 31
0.0
 11
167.283304
 21
89.603417
 31
0.0
 11
168.069658
 21
89.596572
 31
0.0
 11
168.396945
 21
89.591739
 31
0.0
 11
168.473497
 21
89.615720
 31
0.0
 11
168.620645
 21
89.739065
 31
0.0
 11
168.911295
 21
90.022882
 31
0.0
  0
LINE
  5
304
100
AcDbEntity
  8
Layer_1
 62
7
100
AcDbLine
 10
157.789310
 20
94.594585
 30
0.0
 11
157.797212
 21
95.249826
 31
0.0
  0
LINE
  5
305
100
AcDbEntity
  8
Layer_1
 62
7
100
AcDbLine
 10
157.797212
 20
95.249826
 30
0.0
 11
160.392370
 21
95.249826
 31
0.0
  0
LINE
  5
306
100
AcDbEntity
  8
Layer_1
 62
7
100
AcDbLine
 10
160.392370
 20
95.249826
 30
0.0
 11
162.987524
 21
95.249826
 31
0.0
  0
LINE
  5
307
100
AcDbEntity
  8
Layer_1
 62
7
100
AcDbLine
 10
162.987524
 20
95.249826
 30
0.0
 11
163.248306
 21
94.989931
 31
0.0
  0
LINE
  5
308
100
AcDbEntity
  8
Layer_1
 62
7
100
AcDbLine
 10
163.248306
 20
94.989931
 30
0.0
 11
163.509091
 21
94.730035
 31
0.0
  0
LINE
  5
309
100
AcDbEntity
  8
Layer_1
 62
7
100
AcDbLine
 10
163.509091
 20
94.730035
 30
0.0
 11
163.509091
 21
93.448481
 31
0.0
  0
LINE
  5
30a
100
AcDbEntity
  8
Layer_1
 62
7
100
AcDbLine
 10
163.509091
 20
93.448481
 30
0.0
 11
163.509091
 21
92.166930
 31
0.0
  0
LINE
  5
30b
100
AcDbEntity
  8
Layer_1
 62
7
100
AcDbLine
 10
163.509091
 20
92.166930
 30
0.0
 11
163.953591
 21
91.719935
 31
0.0
  0
LINE
  5
30c
100
AcDbEntity
  8
Layer_1
 62
7
100
AcDbLine
 10
163.953591
 20
91.719935
 30
0.0
 11
164.398091
 21
91.272937
 31
0.0
  0
LINE
  5
30d
100
AcDbEntity
  8
Layer_1
 62
7
100
AcDbLine
 10
164.398091
 20
91.272937
 30
0.0
 11
164.398091
 21
90.827215
 31
0.0
  0
SPLINE
  5
30e
100
AcDbEntity
  8
Layer_1
 62
7
100
AcDbSpline
 70
0
 71
3
 72
25
 73
21
 74
19
 40
0.000000
 40
0.000000
 40
0.000000
 40
0.000000
 40
1.436859
 40
2.487516
 40
2.924512
 40
3.036078
 40
3.146550
 40
3.272576
 40
3.378369
 40
3.606702
 40
4.075259
 40
4.543691
 40
4.772518
 40
4.879205
 40
5.073035
 40
5.255689
 40
5.439887
 40
5.598148
 40
5.825888
 40
6.344363
 40
6.344363
 40
6.344363
 40
6.344363
 10
160.327650
 20
95.660934
 30
0.0
 10
159.849087
 20
95.665781
 30
0.0
 10
159.020588
 20
95.674171
 30
0.0
 10
158.042535
 20
95.665600
 30
0.0
 10
157.513923
 20
95.691340
 30
0.0
 10
157.290147
 20
95.674914
 30
0.0
 10
157.191893
 20
95.605481
 30
0.0
 10
157.123322
 20
95.511188
 30
0.0
 10
157.085676
 20
95.360290
 30
0.0
 10
157.086477
 20
95.091814
 30
0.0
 10
157.080709
 20
94.703792
 30
0.0
 10
157.086233
 20
94.315484
 30
0.0
 10
157.086025
 20
94.046751
 30
0.0
 10
157.128249
 20
93.872874
 30
0.0
 10
157.244492
 20
93.747747
 30
0.0
 10
157.430862
 20
93.684403
 30
0.0
 10
157.605143
 20
93.735718
 30
0.0
 10
157.764562
 20
93.859673
 30
0.0
 10
157.782952
 20
94.181973
 30
0.0
 10
157.786704
 20
94.425430
 30
0.0
 10
157.789310
 20
94.594585
 30
0.0
 11
160.327650
 21
95.660934
 31
0.0
 11
158.890822
 21
95.670242
 31
0.0
 11
157.840192
 21
95.677919
 31
0.0
 11
157.403219
 21
95.682298
 31
0.0
 11
157.292986
 21
95.665101
 31
0.0
 11
157.200513
 21
95.604663
 31
0.0
 11
157.127389
 21
95.502020
 31
0.0
 11
157.098475
 21
95.400255
 31
0.0
 11
157.085792
 21
95.172275
 31
0.0
 11
157.082978
 21
94.703726
 31
0.0
 11
157.085796
 21
94.235303
 31
0.0
 11
157.098482
 21
94.006827
 31
0.0
 11
157.127389
 21
93.904132
 31
0.0
 11
157.256344
 21
93.759422
 31
0.0
 11
157.430302
 21
93.703739
 31
0.0
 11
157.608569
 21
93.750109
 31
0.0
 11
157.728315
 21
93.853585
 31
0.0
 11
157.775977
 21
94.076282
 31
0.0
 11
157.789310
 21
94.594585
 31
0.0
  0
LINE
  5
30f
100
AcDbEntity
  8
Layer_1
 62
7
100
AcDbLine
 10
166.256524
 20
90.347626
 30
0.0
 11
168.081091
 21
90.347626
 31
0.0
  0
LINE
  5
310
100
AcDbEntity
  8
Layer_1
 62
7
100
AcDbLine
 10
168.081091
 20
90.347626
 30
0.0
 11
168.081091
 21
90.982626
 31
0.0
  0
LINE
  5
311
100
AcDbEntity
  8
Layer_1
 62
7
100
AcDbLine
 10
168.081091
 20
90.982626
 30
0.0
 11
168.081091
 21
90.982649
 31
0.0
  0
LINE
  5
312
100
AcDbEntity
  8
Layer_1
 62
7
100
AcDbLine
 10
142.300091
 20
91.635319
 30
0.0
 11
142.300091
 21
92.237186
 31
0.0
  0
LINE
  5
313
100
AcDbEntity
  8
Layer_1
 62
7
100
AcDbLine
 10
142.300091
 20
92.237186
 30
0.0
 11
142.826509
 21
92.765785
 31
0.0
  0
LINE
  5
314
100
AcDbEntity
  8
Layer_1
 62
7
100
AcDbLine
 10
142.826509
 20
92.765785
 30
0.0
 11
143.352926
 21
93.294382
 31
0.0
  0
LINE
  5
315
100
AcDbEntity
  8
Layer_1
 62
7
100
AcDbLine
 10
143.352926
 20
93.294382
 30
0.0
 11
145.169659
 21
93.287863
 31
0.0
  0
LINE
  5
316
100
AcDbEntity
  8
Layer_1
 62
7
100
AcDbLine
 10
145.169659
 20
93.287863
 30
0.0
 11
146.986391
 21
93.281343
 31
0.0
  0
LINE
  5
317
100
AcDbEntity
  8
Layer_1
 62
7
100
AcDbLine
 10
146.986391
 20
93.281343
 30
0.0
 11
146.993136
 21
92.551093
 31
0.0
  0
LINE
  5
318
100
AcDbEntity
  8
Layer_1
 62
7
100
AcDbLine
 10
146.993136
 20
92.551093
 30
0.0
 11
146.999881
 21
91.820843
 31
0.0
  0
LINE
  5
319
100
AcDbEntity
  8
Layer_1
 62
7
100
AcDbLine
 10
146.999881
 20
91.820843
 30
0.0
 11
147.748792
 21
91.820843
 31
0.0
  0
LINE
  5
31a
100
AcDbEntity
  8
Layer_1
 62
7
100
AcDbLine
 10
147.748792
 20
91.820843
 30
0.0
 11
148.497702
 21
91.820843
 31
0.0
  0
LINE
  5
31b
100
AcDbEntity
  8
Layer_1
 62
7
100
AcDbLine
 10
148.497702
 20
91.820843
 30
0.0
 11
148.497702
 21
92.773343
 31
0.0
  0
LINE
  5
31c
100
AcDbEntity
  8
Layer_1
 62
7
100
AcDbLine
 10
148.497702
 20
92.773343
 30
0.0
 11
148.497702
 21
93.725843
 31
0.0
  0
LINE
  5
31d
100
AcDbEntity
  8
Layer_1
 62
7
100
AcDbLine
 10
148.497702
 20
93.725843
 30
0.0
 11
147.749901
 21
93.725843
 31
0.0
  0
SPLINE
  5
31e
100
AcDbEntity
  8
Layer_1
 62
7
100
AcDbSpline
 70
0
 71
3
 72
13
 73
9
 74
7
 40
0.000000
 40
0.000000
 40
0.000000
 40
0.000000
 40
0.226844
 40
0.393169
 40
0.463299
 40
0.722002
 40
1.383606
 40
2.304971
 40
2.304971
 40
2.304971
 40
2.304971
 10
164.398091
 20
90.827215
 30
0.0
 10
164.398120
 20
90.750731
 30
0.0
 10
164.398171
 20
90.618169
 30
0.0
 10
164.406134
 20
90.471232
 30
0.0
 10
164.409174
 20
90.286451
 30
0.0
 10
164.879302
 20
90.429234
 30
0.0
 10
165.386984
 20
90.311792
 30
0.0
 10
165.936613
 20
90.334443
 30
0.0
 10
166.256524
 20
90.347626
 30
0.0
 11
164.398091
 21
90.827215
 31
0.0
 11
164.400411
 21
90.600383
 31
0.0
 11
164.406495
 21
90.434170
 31
0.0
 11
164.415024
 21
90.364560
 31
0.0
 11
164.673587
 21
90.356030
 31
0.0
 11
165.335163
 21
90.349947
 31
0.0
 11
166.256524
 21
90.347626
 31
0.0
  0
LINE
  5
31f
100
AcDbEntity
  8
Layer_1
 62
7
100
AcDbLine
 10
145.073322
 20
93.675043
 30
0.0
 11
143.175936
 21
93.675043
 31
0.0
  0
LINE
  5
320
100
AcDbEntity
  8
Layer_1
 62
7
100
AcDbLine
 10
143.175936
 20
93.675043
 30
0.0
 11
142.655702
 21
93.154343
 31
0.0
  0
LINE
  5
321
100
AcDbEntity
  8
Layer_1
 62
7
100
AcDbLine
 10
142.655702
 20
93.154343
 30
0.0
 11
142.135468
 21
92.633643
 31
0.0
  0
LINE
  5
322
100
AcDbEntity
  8
Layer_1
 62
7
100
AcDbLine
 10
142.135468
 20
92.633643
 30
0.0
 11
141.824083
 21
92.633643
 31
0.0
  0
LINE
  5
323
100
AcDbEntity
  8
Layer_1
 62
7
100
AcDbLine
 10
141.824083
 20
92.633643
 30
0.0
 11
141.512702
 21
92.633643
 31
0.0
  0
LINE
  5
324
100
AcDbEntity
  8
Layer_1
 62
7
100
AcDbLine
 10
141.512702
 20
92.633643
 30
0.0
 11
141.512702
 21
92.455589
 31
0.0
  0
LINE
  5
325
100
AcDbEntity
  8
Layer_1
 62
7
100
AcDbLine
 10
141.512702
 20
92.455589
 30
0.0
 11
141.512702
 21
92.277535
 31
0.0
  0
LINE
  5
326
100
AcDbEntity
  8
Layer_1
 62
7
100
AcDbLine
 10
141.512702
 20
92.277535
 30
0.0
 11
140.337952
 21
92.284139
 31
0.0
  0
LINE
  5
327
100
AcDbEntity
  8
Layer_1
 62
7
100
AcDbLine
 10
140.337952
 20
92.284139
 30
0.0
 11
139.163202
 21
92.290743
 31
0.0
  0
LINE
  5
328
100
AcDbEntity
  8
Layer_1
 62
7
100
AcDbLine
 10
139.163202
 20
92.290743
 30
0.0
 11
139.155582
 21
92.436793
 31
0.0
  0
LINE
  5
329
100
AcDbEntity
  8
Layer_1
 62
7
100
AcDbLine
 10
139.155582
 20
92.436793
 30
0.0
 11
139.147962
 21
92.582843
 31
0.0
  0
LINE
  5
32a
100
AcDbEntity
  8
Layer_1
 62
7
100
AcDbLine
 10
139.147962
 20
92.582843
 30
0.0
 11
135.910729
 21
92.582843
 31
0.0
  0
LINE
  5
32b
100
AcDbEntity
  8
Layer_1
 62
7
100
AcDbLine
 10
135.910729
 20
92.582843
 30
0.0
 11
132.673496
 21
92.582843
 31
0.0
  0
LINE
  5
32c
100
AcDbEntity
  8
Layer_1
 62
7
100
AcDbLine
 10
132.673496
 20
92.582843
 30
0.0
 11
132.673496
 21
92.087543
 31
0.0
  0
LINE
  5
32d
100
AcDbEntity
  8
Layer_1
 62
7
100
AcDbLine
 10
132.673496
 20
92.087543
 30
0.0
 11
132.673496
 21
91.592243
 31
0.0
  0
LINE
  5
32e
100
AcDbEntity
  8
Layer_1
 62
7
100
AcDbLine
 10
132.673496
 20
91.592243
 30
0.0
 11
135.911996
 21
91.592243
 31
0.0
  0
LINE
  5
32f
100
AcDbEntity
  8
Layer_1
 62
7
100
AcDbLine
 10
135.911996
 20
91.592243
 30
0.0
 11
139.150496
 21
91.592243
 31
0.0
  0
LINE
  5
330
100
AcDbEntity
  8
Layer_1
 62
7
100
AcDbLine
 10
139.150496
 20
91.592243
 30
0.0
 11
139.150496
 21
91.731943
 31
0.0
  0
LINE
  5
331
100
AcDbEntity
  8
Layer_1
 62
7
100
AcDbLine
 10
139.150496
 20
91.731943
 30
0.0
 11
139.150496
 21
91.871643
 31
0.0
  0
LINE
  5
332
100
AcDbEntity
  8
Layer_1
 62
7
100
AcDbLine
 10
139.150496
 20
91.871643
 30
0.0
 11
140.331596
 21
91.871643
 31
0.0
  0
LINE
  5
333
100
AcDbEntity
  8
Layer_1
 62
7
100
AcDbLine
 10
140.331596
 20
91.871643
 30
0.0
 11
141.512696
 21
91.871643
 31
0.0
  0
LINE
  5
334
100
AcDbEntity
  8
Layer_1
 62
7
100
AcDbLine
 10
141.512696
 20
91.871643
 30
0.0
 11
141.512696
 21
91.452543
 31
0.0
  0
LINE
  5
335
100
AcDbEntity
  8
Layer_1
 62
7
100
AcDbLine
 10
141.512696
 20
91.452543
 30
0.0
 11
141.512696
 21
91.033443
 31
0.0
  0
LINE
  5
336
100
AcDbEntity
  8
Layer_1
 62
7
100
AcDbLine
 10
141.512696
 20
91.033443
 30
0.0
 11
141.906396
 21
91.033443
 31
0.0
  0
LINE
  5
337
100
AcDbEntity
  8
Layer_1
 62
7
100
AcDbLine
 10
141.906396
 20
91.033443
 30
0.0
 11
142.300096
 21
91.033443
 31
0.0
  0
LINE
  5
338
100
AcDbEntity
  8
Layer_1
 62
7
100
AcDbLine
 10
142.300096
 20
91.033443
 30
0.0
 11
142.300096
 21
91.635313
 31
0.0
  0
LINE
  5
339
100
AcDbEntity
  8
Layer_1
 62
7
100
AcDbLine
 10
142.300096
 20
91.635313
 30
0.0
 11
142.300091
 21
91.635319
 31
0.0
  0
SPLINE
  5
33a
100
AcDbEntity
  8
Layer_1
 62
7
100
AcDbSpline
 70
0
 71
3
 72
13
 73
9
 74
7
 40
0.000000
 40
0.000000
 40
0.000000
 40
0.000000
 40
0.405152
 40
0.666012
 40
0.764610
 40
0.990573
 40
1.634461
 40
2.678182
 40
2.678182
 40
2.678182
 40
2.678182
 10
147.749901
 20
93.725843
 30
0.0
 10
147.615001
 20
93.724053
 30
0.0
 10
147.393244
 20
93.721111
 30
0.0
 10
147.137292
 20
93.724995
 30
0.0
 10
146.944629
 20
93.691854
 30
0.0
 10
146.621286
 20
93.681628
 30
0.0
 10
145.983956
 20
93.676235
 30
0.0
 10
145.421302
 20
93.675499
 30
0.0
 10
145.073322
 20
93.675043
 30
0.0
 11
147.749901
 21
93.725843
 31
0.0
 11
147.344760
 21
93.722814
 31
0.0
 11
147.084044
 21
93.714140
 31
0.0
 11
146.986402
 21
93.700443
 31
0.0
 11
146.760870
 21
93.686495
 31
0.0
 11
146.117039
 21
93.677947
 31
0.0
 11
145.073322
 21
93.675043
 31
0.0
  0
LINE
  5
33b
100
AcDbEntity
  8
Layer_1
 62
7
100
AcDbLine
 10
159.228824
 20
92.580224
 30
0.0
 11
159.558657
 21
92.913049
 31
0.0
  0
LINE
  5
33c
100
AcDbEntity
  8
Layer_1
 62
7
100
AcDbLine
 10
159.558657
 20
92.913049
 30
0.0
 11
161.279874
 21
92.913049
 31
0.0
  0
LINE
  5
33d
100
AcDbEntity
  8
Layer_1
 62
7
100
AcDbLine
 10
161.279874
 20
92.913049
 30
0.0
 11
163.001091
 21
92.913049
 31
0.0
  0
LINE
  5
33e
100
AcDbEntity
  8
Layer_1
 62
7
100
AcDbLine
 10
163.001091
 20
92.913049
 30
0.0
 11
163.001091
 21
93.535349
 31
0.0
  0
LINE
  5
33f
100
AcDbEntity
  8
Layer_1
 62
7
100
AcDbLine
 10
163.001091
 20
93.535349
 30
0.0
 11
163.001091
 21
94.157649
 31
0.0
  0
LINE
  5
340
100
AcDbEntity
  8
Layer_1
 62
7
100
AcDbLine
 10
163.001091
 20
94.157649
 30
0.0
 11
161.159591
 21
94.157649
 31
0.0
  0
LINE
  5
341
100
AcDbEntity
  8
Layer_1
 62
7
100
AcDbLine
 10
161.159591
 20
94.157649
 30
0.0
 11
159.318091
 21
94.157649
 31
0.0
  0
LINE
  5
342
100
AcDbEntity
  8
Layer_1
 62
7
100
AcDbLine
 10
159.318091
 20
94.157649
 30
0.0
 11
159.318091
 21
93.707140
 31
0.0
  0
LINE
  5
343
100
AcDbEntity
  8
Layer_1
 62
7
100
AcDbLine
 10
159.318091
 20
93.707140
 30
0.0
 11
159.318091
 21
93.256629
 31
0.0
  0
LINE
  5
344
100
AcDbEntity
  8
Layer_1
 62
7
100
AcDbLine
 10
159.318091
 20
93.256629
 30
0.0
 11
158.981894
 21
92.919740
 31
0.0
  0
LINE
  5
345
100
AcDbEntity
  8
Layer_1
 62
7
100
AcDbLine
 10
158.981894
 20
92.919740
 30
0.0
 11
158.645696
 21
92.582849
 31
0.0
  0
LINE
  5
346
100
AcDbEntity
  8
Layer_1
 62
7
100
AcDbLine
 10
158.645696
 20
92.582849
 30
0.0
 11
157.642842
 21
92.582849
 31
0.0
  0
LINE
  5
347
100
AcDbEntity
  8
Layer_1
 62
7
100
AcDbLine
 10
157.642842
 20
92.582849
 30
0.0
 11
156.639988
 21
92.582849
 31
0.0
  0
LINE
  5
348
100
AcDbEntity
  8
Layer_1
 62
7
100
AcDbLine
 10
156.639988
 20
92.582849
 30
0.0
 11
156.505839
 21
92.715333
 31
0.0
  0
LINE
  5
349
100
AcDbEntity
  8
Layer_1
 62
7
100
AcDbLine
 10
156.505839
 20
92.715333
 30
0.0
 11
156.371691
 21
92.847813
 31
0.0
  0
LINE
  5
34a
100
AcDbEntity
  8
Layer_1
 62
7
100
AcDbLine
 10
156.371691
 20
92.847813
 30
0.0
 11
156.371691
 21
93.302214
 31
0.0
  0
SPLINE
  5
34b
100
AcDbEntity
  8
Layer_1
 62
7
100
AcDbSpline
 70
0
 71
3
 72
10
 73
6
 74
4
 40
0.000000
 40
0.000000
 40
0.000000
 40
0.000000
 40
0.107185
 40
0.305605
 40
0.553008
 40
0.553008
 40
0.553008
 40
0.553008
 10
158.817256
 20
92.211924
 30
0.0
 10
158.846413
 20
92.232624
 30
0.0
 10
158.929544
 20
92.291641
 30
0.0
 10
159.063792
 20
92.418673
 30
0.0
 10
159.169926
 20
92.522569
 30
0.0
 10
159.228824
 20
92.580224
 30
0.0
 11
158.817256
 21
92.211924
 31
0.0
 11
158.903627
 21
92.275398
 31
0.0
 11
159.051486
 21
92.407715
 31
0.0
 11
159.228824
 21
92.580224
 31
0.0
  0
LINE
  5
34c
100
AcDbEntity
  8
Layer_1
 62
7
100
AcDbLine
 10
155.965291
 20
93.236704
 30
0.0
 11
155.965291
 21
92.702991
 31
0.0
  0
LINE
  5
34d
100
AcDbEntity
  8
Layer_1
 62
7
100
AcDbLine
 10
155.965291
 20
92.702991
 30
0.0
 11
156.200241
 21
92.462470
 31
0.0
  0
SPLINE
  5
34e
100
AcDbEntity
  8
Layer_1
 62
7
100
AcDbSpline
 70
0
 71
3
 72
28
 73
24
 74
22
 40
0.000000
 40
0.000000
 40
0.000000
 40
0.000000
 40
0.318511
 40
0.458893
 40
0.541132
 40
0.681008
 40
0.949762
 40
1.506755
 40
2.030971
 40
2.272035
 40
2.422259
 40
2.549955
 40
2.694344
 40
2.820651
 40
2.981303
 40
3.239484
 40
3.810385
 40
4.354518
 40
4.600809
 40
4.729806
 40
4.793682
 40
4.959964
 40
5.302185
 40
5.302185
 40
5.302185
 40
5.302185
 10
156.371691
 20
93.302214
 30
0.0
 10
156.373533
 20
93.406803
 30
0.0
 10
156.376188
 20
93.557489
 30
0.0
 10
156.372172
 20
93.746765
 30
0.0
 10
156.447025
 20
93.845038
 30
0.0
 10
156.524678
 20
93.991680
 30
0.0
 10
156.517194
 20
94.322813
 30
0.0
 10
156.523916
 20
94.770115
 30
0.0
 10
156.509432
 20
95.203511
 30
0.0
 10
156.496786
 20
95.523095
 30
0.0
 10
156.367390
 20
95.655482
 30
0.0
 10
156.229292
 20
95.695422
 30
0.0
 10
156.094532
 20
95.693125
 30
0.0
 10
155.955920
 20
95.644874
 30
0.0
 10
155.825706
 20
95.501017
 30
0.0
 10
155.818306
 20
95.156851
 30
0.0
 10
155.805356
 20
94.702895
 30
0.0
 10
155.828969
 20
94.262545
 30
0.0
 10
155.807076
 20
93.930332
 30
0.0
 10
155.919544
 20
93.825213
 30
0.0
 10
155.966961
 20
93.713438
 30
0.0
 10
155.958781
 20
93.518473
 30
0.0
 10
155.962672
 20
93.350051
 30
0.0
 10
155.965291
 20
93.236704
 30
0.0
 11
156.371691
 21
93.302214
 31
0.0
 11
156.374299
 21
93.620714
 31
0.0
 11
156.390677
 21
93.760137
 31
0.0
 11
156.433653
 21
93.830254
 31
0.0
 11
156.496344
 21
93.955294
 31
0.0
 11
156.520542
 21
94.222957
 31
0.0
 11
156.519507
 21
94.779949
 31
0.0
 11
156.505304
 21
95.303972
 31
0.0
 11
156.460554
 21
95.540846
 31
0.0
 11
156.355466
 21
95.648194
 31
0.0
 11
156.234076
 21
95.687829
 31
0.0
 11
156.089718
 21
95.684850
 31
0.0
 11
155.971542
 21
95.640264
 31
0.0
 11
155.863260
 21
95.521587
 31
0.0
 11
155.820487
 21
95.266974
 31
0.0
 11
155.812930
 21
94.696123
 31
0.0
 11
155.818718
 21
94.152021
 31
0.0
 11
155.849525
 21
93.907664
 31
0.0
 11
155.925517
 21
93.803426
 31
0.0
 11
155.950847
 21
93.744788
 31
0.0
 11
155.962488
 21
93.578914
 31
0.0
 11
155.965291
 21
93.236704
 31
0.0
  0
LINE
  5
34f
100
AcDbEntity
  8
Layer_1
 62
7
100
AcDbLine
 10
158.817256
 20
92.211919
 30
0.0
 11
158.817256
 21
92.211924
 31
0.0
  0
LINE
  5
350
100
AcDbEntity
  8
Layer_1
 62
7
100
AcDbLine
 10
168.086413
 20
93.122599
 30
0.0
 11
168.093779
 21
93.332149
 31
0.0
  0
LINE
  5
351
100
AcDbEntity
  8
Layer_1
 62
7
100
AcDbLine
 10
168.093779
 20
93.332149
 30
0.0
 11
169.301202
 21
93.338753
 31
0.0
  0
LINE
  5
352
100
AcDbEntity
  8
Layer_1
 62
7
100
AcDbLine
 10
169.301202
 20
93.338753
 30
0.0
 11
170.508622
 21
93.345357
 31
0.0
  0
LINE
  5
353
100
AcDbEntity
  8
Layer_1
 62
7
100
AcDbLine
 10
170.508622
 20
93.345357
 30
0.0
 11
170.684819
 21
93.522914
 31
0.0
  0
LINE
  5
354
100
AcDbEntity
  8
Layer_1
 62
7
100
AcDbLine
 10
170.684819
 20
93.522914
 30
0.0
 11
170.861019
 21
93.700472
 31
0.0
  0
LINE
  5
355
100
AcDbEntity
  8
Layer_1
 62
7
100
AcDbLine
 10
170.861019
 20
93.700472
 30
0.0
 11
171.566549
 21
93.700472
 31
0.0
  0
LINE
  5
356
100
AcDbEntity
  8
Layer_1
 62
7
100
AcDbLine
 10
171.566549
 20
93.700472
 30
0.0
 11
172.272079
 21
93.700472
 31
0.0
  0
LINE
  5
357
100
AcDbEntity
  8
Layer_1
 62
7
100
AcDbLine
 10
172.272079
 20
93.700472
 30
0.0
 11
172.272079
 21
94.449772
 31
0.0
  0
LINE
  5
358
100
AcDbEntity
  8
Layer_1
 62
7
100
AcDbLine
 10
172.272079
 20
94.449772
 30
0.0
 11
172.272079
 21
95.199072
 31
0.0
  0
LINE
  5
359
100
AcDbEntity
  8
Layer_1
 62
7
100
AcDbLine
 10
172.272079
 20
95.199072
 30
0.0
 11
171.579548
 21
95.199072
 31
0.0
  0
LINE
  5
35a
100
AcDbEntity
  8
Layer_1
 62
7
100
AcDbLine
 10
171.579548
 20
95.199072
 30
0.0
 11
170.887017
 21
95.199072
 31
0.0
  0
LINE
  5
35b
100
AcDbEntity
  8
Layer_1
 62
7
100
AcDbLine
 10
170.887017
 20
95.199072
 30
0.0
 11
170.569898
 21
95.518248
 31
0.0
  0
SPLINE
  5
35c
100
AcDbEntity
  8
Layer_1
 62
7
100
AcDbSpline
 70
0
 71
3
 72
16
 73
12
 74
10
 40
0.000000
 40
0.000000
 40
0.000000
 40
0.000000
 40
0.176323
 40
0.315521
 40
0.387917
 40
0.564494
 40
0.977783
 40
1.538510
 40
2.224641
 40
2.581506
 40
2.721472
 40
2.721472
 40
2.721472
 40
2.721472
 10
156.200241
 20
92.462470
 30
0.0
 10
156.241712
 20
92.420563
 30
0.0
 10
156.315924
 20
92.345573
 30
0.0
 10
156.410672
 20
92.259957
 30
0.0
 10
156.510643
 20
92.170896
 30
0.0
 10
156.749767
 20
92.207786
 30
0.0
 10
157.120289
 20
92.170232
 30
0.0
 10
157.679812
 20
92.179596
 30
0.0
 10
158.211475
 20
92.183337
 30
0.0
 10
158.607978
 20
92.174923
 30
0.0
 10
158.771257
 20
92.203787
 30
0.0
 10
158.817256
 20
92.211919
 30
0.0
 11
156.200241
 21
92.462470
 31
0.0
 11
156.325547
 21
92.338421
 31
0.0
 11
156.428205
 21
92.244414
 31
0.0
 11
156.485991
 21
92.200802
 31
0.0
 11
156.662233
 21
92.189931
 31
0.0
 11
157.075441
 21
92.181757
 31
0.0
 11
157.636156
 21
92.178055
 31
0.0
 11
158.322285
 21
92.179842
 31
0.0
 11
158.679002
 21
92.190095
 31
0.0
 11
158.817256
 21
92.211919
 31
0.0
  0
LINE
  5
35d
100
AcDbEntity
  8
Layer_1
 62
7
100
AcDbLine
 10
169.861809
 20
95.910272
 30
0.0
 11
169.572435
 21
95.922972
 31
0.0
  0
LINE
  5
35e
100
AcDbEntity
  8
Layer_1
 62
7
100
AcDbLine
 10
169.572435
 20
95.922972
 30
0.0
 11
169.543041
 21
96.039066
 31
0.0
  0
SPLINE
  5
35f
100
AcDbEntity
  8
Layer_1
 62
7
100
AcDbSpline
 70
0
 71
3
 72
13
 73
9
 74
7
 40
0.000000
 40
0.000000
 40
0.000000
 40
0.000000
 40
0.234470
 40
0.416718
 40
0.507465
 40
0.574858
 40
0.698030
 40
0.851110
 40
0.851110
 40
0.851110
 40
0.851110
 10
170.569898
 20
95.518248
 30
0.0
 10
170.514884
 20
95.574175
 30
0.0
 10
170.417109
 20
95.673573
 30
0.0
 10
170.291683
 20
95.783495
 30
0.0
 10
170.213027
 20
95.872040
 30
0.0
 10
170.117494
 20
95.887862
 30
0.0
 10
170.005120
 20
95.902295
 30
0.0
 10
169.912907
 20
95.907428
 30
0.0
 10
169.861809
 20
95.910272
 30
0.0
 11
170.569898
 21
95.518248
 31
0.0
 11
170.403203
 21
95.683138
 31
0.0
 11
170.271025
 21
95.808610
 31
0.0
 11
170.201979
 21
95.867498
 31
0.0
 11
170.136737
 21
95.884385
 31
0.0
 11
170.014527
 21
95.899753
 31
0.0
 11
169.861809
 21
95.910272
 31
0.0
  0
LINE
  5
360
100
AcDbEntity
  8
Layer_1
 62
7
100
AcDbLine
 10
168.820660
 20
96.686975
 30
0.0
 11
168.690679
 21
96.704219
 31
0.0
  0
LINE
  5
361
100
AcDbEntity
  8
Layer_1
 62
7
100
AcDbLine
 10
168.690679
 20
96.704219
 30
0.0
 11
168.690679
 21
95.761148
 31
0.0
  0
LINE
  5
362
100
AcDbEntity
  8
Layer_1
 62
7
100
AcDbLine
 10
168.690679
 20
95.761148
 30
0.0
 11
168.690679
 21
94.818074
 31
0.0
  0
LINE
  5
363
100
AcDbEntity
  8
Layer_1
 62
7
100
AcDbLine
 10
168.690679
 20
94.818074
 30
0.0
 11
168.800924
 21
94.818074
 31
0.0
  0
SPLINE
  5
364
100
AcDbEntity
  8
Layer_1
 62
7
100
AcDbSpline
 70
0
 71
3
 72
10
 73
6
 74
4
 40
0.000000
 40
0.000000
 40
0.000000
 40
0.000000
 40
0.341785
 40
0.682146
 40
1.021084
 40
1.021084
 40
1.021084
 40
1.021084
 10
169.543041
 20
96.039066
 30
0.0
 10
169.501013
 20
96.146010
 30
0.0
 10
169.417131
 20
96.359452
 30
0.0
 10
169.151504
 20
96.598371
 30
0.0
 10
168.930787
 20
96.657482
 30
0.0
 10
168.820660
 20
96.686975
 30
0.0
 11
169.543041
 21
96.039066
 31
0.0
 11
169.393465
 21
96.346384
 31
0.0
 11
169.140087
 21
96.573640
 31
0.0
 11
168.820660
 21
96.686975
 31
0.0
  0
LINE
  5
365
100
AcDbEntity
  8
Layer_1
 62
7
100
AcDbLine
 10
169.513374
 20
95.375937
 30
0.0
 11
169.559382
 21
95.503874
 31
0.0
  0
LINE
  5
366
100
AcDbEntity
  8
Layer_1
 62
7
100
AcDbLine
 10
169.559382
 20
95.503874
 30
0.0
 11
169.779676
 21
95.503874
 31
0.0
  0
LINE
  5
367
100
AcDbEntity
  8
Layer_1
 62
7
100
AcDbLine
 10
169.779676
 20
95.503874
 30
0.0
 11
169.999970
 21
95.503874
 31
0.0
  0
LINE
  5
368
100
AcDbEntity
  8
Layer_1
 62
7
100
AcDbLine
 10
169.999970
 20
95.503874
 30
0.0
 11
170.196660
 21
95.306028
 31
0.0
  0
LINE
  5
369
100
AcDbEntity
  8
Layer_1
 62
7
100
AcDbLine
 10
170.196660
 20
95.306028
 30
0.0
 11
170.393343
 21
95.108182
 31
0.0
  0
LINE
  5
36a
100
AcDbEntity
  8
Layer_1
 62
7
100
AcDbLine
 10
170.393343
 20
95.108182
 30
0.0
 11
170.386570
 21
94.436078
 31
0.0
  0
LINE
  5
36b
100
AcDbEntity
  8
Layer_1
 62
7
100
AcDbLine
 10
170.386570
 20
94.436078
 30
0.0
 11
170.379796
 21
93.763974
 31
0.0
  0
LINE
  5
36c
100
AcDbEntity
  8
Layer_1
 62
7
100
AcDbLine
 10
170.379796
 20
93.763974
 30
0.0
 11
169.230446
 21
93.757370
 31
0.0
  0
LINE
  5
36d
100
AcDbEntity
  8
Layer_1
 62
7
100
AcDbLine
 10
169.230446
 20
93.757370
 30
0.0
 11
168.081096
 21
93.750766
 31
0.0
  0
LINE
  5
36e
100
AcDbEntity
  8
Layer_1
 62
7
100
AcDbLine
 10
168.081096
 20
93.750766
 30
0.0
 11
168.081096
 21
93.954223
 31
0.0
  0
LINE
  5
36f
100
AcDbEntity
  8
Layer_1
 62
7
100
AcDbLine
 10
168.081096
 20
93.954223
 30
0.0
 11
168.081096
 21
94.157683
 31
0.0
  0
LINE
  5
370
100
AcDbEntity
  8
Layer_1
 62
7
100
AcDbLine
 10
168.081096
 20
94.157683
 30
0.0
 11
166.239596
 21
94.157683
 31
0.0
  0
LINE
  5
371
100
AcDbEntity
  8
Layer_1
 62
7
100
AcDbLine
 10
166.239596
 20
94.157683
 30
0.0
 11
164.398096
 21
94.157683
 31
0.0
  0
LINE
  5
372
100
AcDbEntity
  8
Layer_1
 62
7
100
AcDbLine
 10
164.398096
 20
94.157683
 30
0.0
 11
164.398096
 21
93.535383
 31
0.0
  0
LINE
  5
373
100
AcDbEntity
  8
Layer_1
 62
7
100
AcDbLine
 10
164.398096
 20
93.535383
 30
0.0
 11
164.398096
 21
92.913083
 31
0.0
  0
LINE
  5
374
100
AcDbEntity
  8
Layer_1
 62
7
100
AcDbLine
 10
164.398096
 20
92.913083
 30
0.0
 11
166.238569
 21
92.913083
 31
0.0
  0
LINE
  5
375
100
AcDbEntity
  8
Layer_1
 62
7
100
AcDbLine
 10
166.238569
 20
92.913083
 30
0.0
 11
168.079042
 21
92.913083
 31
0.0
  0
LINE
  5
376
100
AcDbEntity
  8
Layer_1
 62
7
100
AcDbLine
 10
168.079042
 20
92.913083
 30
0.0
 11
168.086408
 21
93.122633
 31
0.0
  0
LINE
  5
377
100
AcDbEntity
  8
Layer_1
 62
7
100
AcDbLine
 10
168.086408
 20
93.122633
 30
0.0
 11
168.086413
 21
93.122599
 31
0.0
  0
SPLINE
  5
378
100
AcDbEntity
  8
Layer_1
 62
7
100
AcDbSpline
 70
0
 71
3
 72
10
 73
6
 74
4
 40
0.000000
 40
0.000000
 40
0.000000
 40
0.000000
 40
0.287784
 40
0.623616
 40
0.942119
 40
0.942119
 40
0.942119
 40
0.942119
 10
168.800924
 20
94.818074
 30
0.0
 10
168.895313
 20
94.839338
 30
0.0
 10
169.099850
 20
94.885416
 30
0.0
 10
169.354697
 20
95.091819
 30
0.0
 10
169.461424
 20
95.282918
 30
0.0
 10
169.513374
 20
95.375937
 30
0.0
 11
168.800924
 21
94.818074
 31
0.0
 11
169.076457
 21
94.901148
 31
0.0
 11
169.340873
 21
95.108192
 31
0.0
 11
169.513374
 21
95.375937
 31
0.0
  0
ENDSEC
  0
SECTION
  2
OBJECTS
  0
DICTIONARY
  5
C
330
0
100
AcDbDictionary
  3
ACAD_GROUP
350
D
  3
ACAD_MLINESTYLE
350
17
  0
DICTIONARY
  5
D
330
C
100
AcDbDictionary
  0
DICTIONARY
  5
1A
330
C
100
AcDbDictionary
  0
DICTIONARY
  5
17
330
C
100
AcDbDictionary
  3
STANDARD
350
18
  0
DICTIONARY
  5
19
330
C
100
AcDbDictionary
  0
ENDSEC
  0
EOF
