<?xml version="1.0" encoding="UTF-8" standalone="no"?>
<!-- Created with Inkscape (http://www.inkscape.org/) -->

<svg
   xmlns:dc="http://purl.org/dc/elements/1.1/"
   xmlns:cc="http://creativecommons.org/ns#"
   xmlns:rdf="http://www.w3.org/1999/02/22-rdf-syntax-ns#"
   xmlns:svg="http://www.w3.org/2000/svg"
   xmlns="http://www.w3.org/2000/svg"
   xmlns:sodipodi="http://sodipodi.sourceforge.net/DTD/sodipodi-0.dtd"
   xmlns:inkscape="http://www.inkscape.org/namespaces/inkscape"
   width="210mm"
   height="297mm"
   viewBox="0 0 744.09448819 1052.3622047"
   id="svg2"
   version="1.1"
   inkscape:version="0.91 r13725"
   sodipodi:docname="ckt.svg">
  <sodipodi:namedview
     id="base"
     pagecolor="#ffffff"
     bordercolor="#666666"
     borderopacity="1.0"
     inkscape:pageopacity="0.0"
     inkscape:pageshadow="2"
     inkscape:zoom="3.959798"
     inkscape:cx="294.22604"
     inkscape:cy="498.09252"
     inkscape:document-units="px"
     inkscape:current-layer="layer1"
     showgrid="false"
     inkscape:window-width="1920"
     inkscape:window-height="1017"
     inkscape:window-x="-8"
     inkscape:window-y="-8"
     inkscape:window-maximized="1" />
  <defs
     id="defs4">
    <marker
       orient="auto"
       id="DistanceX"
       style="overflow:visible"
       refX="0.0"
       refY="0.0">
      <path
         id="path3984"
         d="M 3,-3 L -3,3 M 0,-5 L  0,5"
         style="stroke:#000000; stroke-width:0.5" />
    </marker>
    <pattern
       id="Hatch"
       x="0"
       y="0"
       patternUnits="userSpaceOnUse"
       width="8"
       height="8">
      <path
         id="path3987"
         d="M8 4 l-4,4"
         stroke-width="0.25"
         stroke="#000000"
         linecap="square" />
      <path
         id="path3989"
         d="M6 2 l-4,4"
         stroke-width="0.25"
         stroke="#000000"
         linecap="square" />
      <path
         id="path3991"
         d="M4 0 l-4,4"
         stroke-width="0.25"
         stroke="#000000"
         linecap="square" />
    </pattern>
    <symbol
       id="*MODEL_SPACE" />
    <symbol
       id="*PAPER_SPACE" />
  </defs>
  <metadata
     id="metadata7">
    <rdf:RDF>
      <cc:Work
         rdf:about="">
        <dc:format>image/svg+xml</dc:format>
        <dc:type
           rdf:resource="http://purl.org/dc/dcmitype/StillImage" />
        <dc:title></dc:title>
      </cc:Work>
    </rdf:RDF>
  </metadata>
  <g
     id="layer1"
     inkscape:groupmode="layer"
     inkscape:label="Layer 1">
    <path
       style="color:#000000;font-style:normal;font-variant:normal;font-weight:normal;font-stretch:normal;font-size:medium;line-height:normal;font-family:sans-serif;text-indent:0;text-align:start;text-decoration:none;text-decoration-line:none;text-decoration-style:solid;text-decoration-color:#000000;letter-spacing:normal;word-spacing:normal;text-transform:none;direction:ltr;block-progression:tb;writing-mode:lr-tb;baseline-shift:baseline;text-anchor:start;white-space:normal;clip-rule:nonzero;display:inline;overflow:visible;visibility:visible;opacity:1;isolation:auto;mix-blend-mode:normal;color-interpolation:sRGB;color-interpolation-filters:linearRGB;solid-color:#000000;solid-opacity:1;fill-opacity:1;fill-rule:nonzero;stroke:none;stroke-width:1;stroke-linecap:butt;stroke-linejoin:miter;stroke-miterlimit:4;stroke-dasharray:none;stroke-dashoffset:0;stroke-opacity:1;color-rendering:auto;image-rendering:auto;shape-rendering:auto;text-rendering:auto;enable-background:accumulate"
       d="m 210.29688,535.86523 0,30.42579 0,30.42382 85.77539,0 85.77343,0 0,-30.42382 0,-30.42579 -85.77343,0 -85.77539,0 z m 1,1 84.77539,0 84.77343,0 0,29.42579 0,29.42382 -84.77343,0 -84.77539,0 0,-29.42382 0,-29.42579 z m 69.18554,5.48047 -2.44726,2.44141 -2.1543,2.14844 -2.28906,0 -2.9961,0 0,2.02929 0,1.03125 -2.60351,0 -2.60547,0 0,-0.40039 0,-1.40039 -1.89453,0 -1.89649,0 0,1.40039 0,0.40039 -3.32422,0 -3.32421,0 0,-0.40039 0,-1.40039 -1.89649,0 -1.89453,0 0,2.70508 0,1.70508 -3.68555,0 -3.68359,0 0,-0.49024 0,-1.49023 -13.77539,0 -13.77539,0 0,3.15625 0,3.1543 13.77539,0 13.77539,0 0,-1.44336 0,-0.44727 3.98242,-0.0391 c 2.46531,-0.0233 4.94636,-0.0635 5.5957,-0.0957 l 1.56641,-0.0781 0.0352,-1.6543 0.0137,-0.69726 3.29101,0 3.29102,0 0.0137,0.70312 0.0352,1.68164 1.88281,0 1.89258,0 0,-1.71484 0,-0.71484 2.60547,0 2.60351,0 0,0.58007 0,1.58008 3.15625,0 3.1543,0 0,-2.99609 0,-2.29102 2.25977,-2.26171 2.26171,-2.26172 44.47657,0 44.47851,0 1.45117,1.45117 1.45313,1.44922 0,15.49804 0,15.49805 -1.90039,1.90234 -1.90039,1.90235 -2.69727,0 -3.40234,0 0,1.44531 0,0.44336 -1.1211,0 -1.11914,0 0,-0.44336 0,-1.44531 -3.35742,0 -2.65039,0 -3.09375,-3.09961 c -0.89257,-0.89432 -1.73116,-1.72145 -2.36523,-2.33594 -0.31704,-0.30724 -0.58343,-0.56185 -0.78125,-0.74609 -0.0989,-0.0921 -0.18032,-0.16697 -0.2461,-0.22461 -0.0658,-0.0576 -0.045,-0.0691 -0.20898,-0.15625 -0.39567,-0.21029 -0.7772,-0.1875 -1.5625,-0.1875 l -0.58398,0 0,-0.94141 0,-1.93945 -7.0254,0 c -3.23255,0 -4.86001,1.9e-4 -5.70117,0.0234 -0.42058,0.0116 -0.62753,0.019 -0.82812,0.0664 -0.1003,0.0237 -0.23796,0.0585 -0.36524,0.21094 -0.0196,0.0235 -0.005,0.034 -0.0195,0.0586 -0.044,0.004 -0.007,0 -0.0859,0 l -0.26757,0 -1.42383,-1.42968 c -0.43606,-0.43853 -0.85269,-0.84091 -1.17774,-1.14063 -0.16252,-0.14986 -0.30142,-0.27333 -0.41406,-0.36719 -0.0563,-0.0469 -0.10457,-0.0874 -0.1543,-0.12304 -0.0497,-0.0356 -0.0275,-0.0756 -0.26171,-0.12305 -0.0827,-0.0167 -0.0722,-0.009 -0.0899,-0.01 -0.0177,-0.001 -0.0357,-0.003 -0.0566,-0.004 -0.042,-0.002 -0.0957,-0.002 -0.16406,-0.004 -0.13677,-0.003 -0.32865,-0.007 -0.57227,-0.01 -0.48723,-0.006 -1.17856,-0.0126 -2.02343,-0.0195 -1.68975,-0.0139 -3.99515,-0.0282 -6.50782,-0.0391 l -9.34179,-0.041 -1.47461,1.46875 -1.47461,1.46679 0,1.85547 c 0,0.80968 -0.006,1.23009 -0.0274,1.41016 -0.0209,0.18007 0.0248,0.0592 -0.0781,0.18164 -0.19551,0.23267 -0.32494,0.46979 -0.38281,0.7832 -0.0276,0.14992 -0.0222,0.21817 -0.0274,0.38672 -0.005,0.16855 -0.009,0.3876 -0.0117,0.64453 -0.005,0.51386 -0.004,1.17893 0.004,1.875 0.0128,1.17807 0.0226,1.80878 0.0527,2.21094 0.0151,0.20108 0.0343,0.35007 0.0762,0.49219 0.0419,0.14212 0.11692,0.27159 0.17578,0.35156 0.83747,1.13769 2.69497,0.82407 3.0957,-0.5293 0.0462,-0.15613 0.0455,-0.24971 0.0566,-0.41406 0.0112,-0.16434 0.0197,-0.37046 0.0254,-0.61914 0.0114,-0.49735 0.013,-1.16338 0.004,-1.96094 l -0.0312,-2.69336 -0.34766,-0.45507 c -0.11952,-0.15661 -0.0971,-0.0919 -0.11719,-0.22657 -0.0201,-0.13467 -0.0273,-0.47233 -0.0273,-1.13086 l 0,-1.12695 0.77539,-0.76953 0.78125,-0.7793 1.42383,-0.0449 c 0.86042,-0.0271 4.82911,-0.0716 8.76367,-0.0957 l 6.94727,-0.041 1.41992,1.42774 1.71484,1.72265 0.91016,0 0.20312,0 0,1.03125 0,2.0293 7.02539,0 c 2.1462,0 3.77941,-0.008 4.87891,-0.0234 0.54975,-0.008 0.96459,-0.0158 1.25,-0.0273 0.14271,-0.006 0.25095,-0.0114 0.33789,-0.0195 0.0435,-0.004 0.0801,-0.007 0.13086,-0.0176 0.0254,-0.005 0.0511,-0.008 0.11133,-0.0332 0.015,-0.006 0.0328,-0.0153 0.0547,-0.0273 6.1e-4,-3.4e-4 0.001,-0.002 0.002,-0.002 0.0183,-0.003 0.0203,-0.004 0.0527,-0.008 0.12494,-0.0128 0.33314,-0.0215 0.58399,-0.0215 l 0.66992,0 3.07031,3.07031 3.07227,3.07032 0,1.88671 0,2.5918 3.82617,0 2.81445,0 -0.006,0.25391 0.16993,-0.25391 0.83593,0 0.0391,-1.45312 0.008,-0.33008 0.004,-0.1582 1.11915,-0.0176 1.08984,-0.0176 0,0.48437 0,1.49219 3.875,0 3.875,0 0,-2.63672 0,-1.93164 2.10351,-2.10156 2.39649,-2.39648 0,-16.54493 0,-16.54492 -2.1543,-2.14648 -2.1543,-2.14649 -45.42187,0 -45.42383,0 z m 0.41406,1 45.00977,0 45.00977,0 1.86132,1.85352 1.85938,1.85351 0,16.13086 0,16.13086 -2.10352,2.10352 -2.39648,2.39453 0,2.3457 0,1.63672 -2.875,0 -2.875,0 0,-0.49219 0,-1.49804 -2.10547,0.0312 -1.07617,0.0176 0.006,-0.2461 -0.16602,0.24805 -0.83984,0.0137 -0.0391,1.44531 -0.01,0.43946 -0.002,0.041 -2.8418,0 -2.82617,0 0,-1.5918 0,-2.30078 -3.36524,-3.36328 -3.36328,-3.36328 -1.08398,0 c -0.27385,0 -0.50509,0.009 -0.6875,0.0273 -0.0912,0.009 -0.16722,0.0194 -0.25586,0.043 -0.0299,0.008 -0.0726,0.0271 -0.11328,0.0449 -0.0552,0.005 -0.13681,0.009 -0.25781,0.0137 -0.26772,0.0109 -0.67741,0.0198 -1.22266,0.0273 -1.0905,0.015 -2.72143,0.0234 -4.86524,0.0234 l -6.02539,0 0,-1.0293 0,-2.03125 -1.20312,0 -0.49414,0 -1.42188,-1.42773 -1.71484,-1.72657 -7.36719,0.0449 c -3.9377,0.0241 -7.86748,0.0666 -8.78906,0.0957 l -1.81641,0.0586 -1.0625,1.05469 -1.07031,1.06445 0,1.54297 c 0,0.65934 -0.005,0.99376 0.0371,1.2793 0.0426,0.28554 0.18772,0.5201 0.3125,0.68359 l 0.14648,0.19336 0.0274,2.36133 c 0.009,0.78992 0.007,1.44708 -0.004,1.92578 -0.005,0.23935 -0.012,0.43422 -0.0215,0.57422 -0.01,0.14 -0.0361,0.25329 -0.0195,0.19727 -0.17795,0.60097 -0.95215,0.7334 -1.33008,0.22265 -0.0252,-0.0343 -0.0147,-0.0132 -0.0234,-0.043 -0.009,-0.0298 -0.0265,-0.11602 -0.0391,-0.2832 -0.0251,-0.33437 -0.036,-0.97203 -0.0488,-2.14844 -0.008,-0.68992 -0.009,-1.3488 -0.004,-1.85351 0.002,-0.25236 0.007,-0.46637 0.0117,-0.62305 0.005,-0.15668 0.0227,-0.30653 0.01,-0.23633 8.8e-4,-0.005 0.11863,-0.26595 0.16601,-0.32226 0.11449,-0.13618 0.27116,-0.40284 0.30664,-0.70899 0.0355,-0.30614 0.0332,-0.71489 0.0332,-1.52539 l 0,-1.43945 1.17969,-1.17578 1.17968,-1.17383 8.92774,0.0391 c 2.51158,0.0109 4.81609,0.0252 6.5039,0.0391 0.84391,0.007 1.53343,0.0131 2.01758,0.0195 0.24207,0.003 0.4331,0.007 0.56445,0.01 0.0311,6.8e-4 0.0461,0.001 0.0703,0.002 0.0141,0.0112 0.0196,0.0147 0.0371,0.0293 0.0904,0.0753 0.22195,0.19107 0.37695,0.33399 0.31,0.28584 0.71934,0.68177 1.14648,1.11132 l 1.7168,1.72461 0.68359,0 c 0.21693,0 0.3432,0.0235 0.57032,-0.0625 0.0919,-0.0348 0.19296,-0.13803 0.27148,-0.24218 0.0788,-0.009 0.17243,-0.0226 0.48438,-0.0312 0.80509,-0.0223 2.44138,-0.0234 5.67382,-0.0234 l 6.0254,0 0,0.93945 0,1.94141 1.58398,0 c 0.75278,0 1.14472,0.0974 1.09375,0.0703 -0.13061,-0.0694 -0.0329,-0.0186 0.0195,0.0273 0.0525,0.046 0.12801,0.11499 0.22266,0.20313 0.18929,0.17629 0.4534,0.426 0.76758,0.73047 0.62835,0.60894 1.46434,1.43525 2.35351,2.32617 l 3.38477,3.39258 3.0664,0 2.35742,0 0,0.44531 0,1.44336 2.11914,0 2.1211,0 0,-1.44336 0,-0.44531 2.40234,0 3.11133,0 2.19336,-2.19531 2.19336,-2.19532 0,-15.91211 0,-15.91211 -1.74609,-1.74218 -1.74414,-1.74414 -44.89258,0 -44.89063,0 -2.55469,2.55468 -2.55273,2.55469 0,2.70508 0,1.99609 -2.1543,0 -2.15625,0 0,-0.58008 0,-1.58007 -3.60351,0 -3.60547,0 0,1.71484 0,0.71484 -0.89258,0 -0.90234,0 -0.0156,-0.70312 -0.0351,-1.68164 -4.26954,0 -4.26953,0 -0.0351,1.67773 -0.0156,0.72071 -0.63476,0.0312 c -0.56056,0.0278 -3.09671,0.0724 -5.55664,0.0957 l -4.97266,0.0488 0,1.4375 0,0.44336 -12.77539,0 -12.77539,0 0,-2.1543 0,-2.15625 12.77539,0 12.77539,0 0,0.49023 0,1.49024 4.68359,0 4.68555,0 0,-2.70508 0,-1.70508 0.89453,0 0.89649,0 0,0.40039 0,1.40039 4.32421,0 4.32422,0 0,-1.40039 0,-0.40039 0.89649,0 0.89453,0 0,0.40039 0,1.40039 3.60547,0 3.60351,0 0,-2.03125 0,-1.02929 1.9961,0 2.70117,0 2.44922,-2.44141 2.15429,-2.14844 z m 66.0293,2.41602 -1.02539,0.13672 c -1.43545,0.19043 -2.62749,1.29101 -3.01172,2.73633 l -0.004,0.0117 -1.92579,0 -2.10351,0 -1.21485,-1.20507 -1.50585,-1.4961 -24.125,0 -24.11719,0 -0.66406,0.63281 -0.37305,0.35743 -2.28906,0 -2.99024,0 0,2.99414 0,2.28906 -1.60937,1.61719 -1.90039,1.9082 0,11.21875 0,10.80664 -0.90821,0.91992 -0.90625,0.91602 -9.5625,0 -9.56445,0 -0.50391,-0.50586 -0.5039,-0.50977 0,-0.30859 0,-0.0156 0.80859,0 0,-3.20117 0,-3.20507 -3.85547,0.0273 -3.84375,0.0273 -0.0293,2.69532 -0.0215,2.00195 -0.41601,0.41992 -0.41211,0.41406 -2.42578,0 -2.13477,0 0,-0.44531 0,-1.44336 -13.77539,0 -13.77539,0 0,3.1543 0,3.15429 13.77148,0 13.75977,0 0.0391,-1.45312 0.0117,-0.48828 2.4668,-0.0371 3.14843,-0.0488 0.9336,-0.92969 0.64453,-0.64258 1.47851,0 1.18555,0 0,0.28321 0,0.99023 1.25391,1.25391 1.25195,1.25195 10.50586,0 10.50586,0 1.61133,-1.61133 0.54297,-0.54297 0.002,0 1.06641,-1.06835 0,-11.1836 0,-10.76953 1.13476,-1.13672 1.13477,-1.13672 2.24804,0 2.95313,0 0,-2.99609 0,-2.28906 0.45898,-0.46289 0.45899,-0.46094 2.42773,0 2.13477,0 0,0.61328 c 0,0.44566 -0.01,0.7241 -0.0254,0.86133 -0.0157,0.13723 -0.0202,0.0546 0.0645,-0.0156 -0.22383,0.18576 -0.45659,0.54268 -0.51758,1.03321 -0.061,0.49052 -0.0625,1.21063 -0.0625,2.56054 0,1.17104 0.003,1.82636 0.0274,2.25196 0.0241,0.4256 0.093,0.69037 0.19726,0.88476 0.60519,1.12842 2.28524,1.19573 2.95117,0.10352 0.10637,-0.17447 0.20064,-0.45094 0.22657,-0.87891 0.0259,-0.42796 0.0273,-1.10536 0.0273,-2.38086 0,-1.26733 -0.002,-1.94437 -0.0273,-2.37304 -0.0256,-0.42868 -0.1175,-0.70325 -0.22461,-0.87891 -0.0652,-0.10693 -0.13314,-0.20077 -0.21094,-0.28516 -0.0139,-0.0151 -0.0339,-0.0302 -0.0488,-0.0449 -0.002,-0.0192 -0.004,-0.0196 -0.006,-0.043 -0.0137,-0.1694 -0.0215,-0.44095 -0.0215,-0.7832 l 0,-0.625 19.58789,0 19.88281,0 1.21484,1.20312 1.50586,1.4961 2.81446,0 2.25586,0 0.0449,0.12304 c 0.22211,0.6177 0.68906,1.15684 1.22851,1.57618 0.53945,0.41933 1.14754,0.73046 1.78321,0.73046 l 0.89062,0 0,-3.84179 0,-3.91211 z m 0.53125,0 0,3.91211 0,3.84179 0.89063,0 c 0.63445,10e-6 1.24051,-0.30774 1.77539,-0.72656 0.53487,-0.41882 0.99582,-0.96208 1.21875,-1.58203 l 0.0449,-0.12109 0.42773,0 0.57227,0 0.55078,0.55273 0.55078,0.55274 -0.0234,2.17187 -0.0176,1.89063 -3.58204,0.0195 -3.56835,0.0215 0,-0.21875 0,-1.2207 -7.0254,0 -7.02539,0 0,2.70508 0,2.70507 7.02149,0 7.0039,0 0.043,-1.2246 0.01,-0.26368 3.79883,-0.0195 4.48437,-0.0254 0.76953,-0.77539 0.47852,-0.48242 2.29101,0 3,0 0,-3.1543 0,-3.15429 -2.95312,0 -2.24609,0 -0.97657,-0.98438 c -0.31217,-0.31419 -0.61637,-0.61103 -0.85742,-0.83984 -0.12052,-0.11441 -0.22577,-0.2114 -0.31055,-0.28711 -0.0848,-0.0757 -0.0992,-0.1063 -0.23632,-0.1875 -0.16039,-0.0949 -0.21371,-0.0865 -0.30664,-0.10547 -0.0929,-0.019 -0.19663,-0.034 -0.31446,-0.0488 -0.23566,-0.0296 -0.52135,-0.0535 -0.8164,-0.0664 l -0.6543,-0.0293 -0.0137,-0.0508 c -0.3541,-1.3985 -1.55708,-2.4794 -2.97852,-2.66797 l -1.02539,-0.13672 z m -1.53125,1.17773 0,2.73438 0,2.79297 c -0.27237,-0.0324 -0.67757,-0.17452 -1.05859,-0.47071 -0.42042,-0.3268 -0.77684,-0.77598 -0.90235,-1.125 l -0.2832,-0.78515 -2.95898,0 -2.40235,0 -1.21289,-1.20508 -1.50781,-1.49414 -20.29492,0 -20.58789,0 0,1.625 c 0,0.35861 0.008,0.64735 0.0254,0.86523 0.009,0.10894 0.0184,0.19583 0.0391,0.28907 0.0103,0.0466 0.0202,0.094 0.0586,0.17187 0.0192,0.0389 0.0437,0.0886 0.10938,0.15234 0.0657,0.0638 0.20052,0.14649 0.35937,0.14649 -0.2058,0 -0.23187,-0.0627 -0.25,-0.0762 0,0 -0.002,0 -0.002,0 0.0199,0.0216 0.0608,0.0749 0.0937,0.1289 0.0602,0.0988 0.0583,0.0523 0.0801,0.41797 0.0218,0.36566 0.0254,1.04662 0.0254,2.3125 0,1.27418 -0.003,1.95708 -0.0254,2.32031 -0.022,0.36324 -0.0188,0.3111 -0.084,0.41797 -0.25386,0.41637 -0.97527,0.39202 -1.21484,-0.0547 -0.0441,-0.0823 -0.0591,-0.0984 -0.0801,-0.46875 -0.021,-0.3703 -0.0254,-1.02657 -0.0254,-2.19532 0,-1.3468 0.0116,-2.07502 0.0566,-2.4375 0.0451,-0.36247 0.012,-0.26218 0.16211,-0.38672 0.1987,-0.16489 0.26477,-0.41135 0.29102,-0.64062 0.0262,-0.22927 0.0312,-0.51901 0.0312,-0.97461 l 0,-1.61328 -3.13477,0 -2.84375,0 -0.75195,0.75586 -0.75,0.75586 0,2.70117 0,1.99609 -1.95313,0 -2.66211,0 -1.42773,1.42969 -1.42773,1.43164 0,11.18164 0,10.76953 -1.31836,1.31836 -0.54493,0.54492 -0.77343,0.77344 -10.0918,0 -10.0918,0 -0.95898,-0.95898 -0.96094,-0.96094 0,-0.57617 0,-1.28321 -2.18555,0 -1.89062,0 -0.9375,0.9336 -0.64844,0.64453 -2.74414,0.043 -3.42578,0.0508 -0.0371,1.44727 -0.0137,0.48046 -12.78516,0 -12.77148,0 0,-2.15429 0,-2.1543 12.77539,0 12.77539,0 0,0.44336 0,1.44531 3.13477,0 2.84374,0 0.70508,-0.71093 0.70118,-0.70704 0.0254,-2.40625 0.0195,-1.71289 2.86132,-0.0215 2.84766,-0.0195 0,2.19726 0,2.20117 -0.80859,0 0,1.01563 0,0.7207 0.79492,0.80078 0.79687,0.80274 9.98047,0 9.98047,0 1.19922,-1.21485 1.19727,-1.21093 0,-11.2168 0,-10.80469 1.60937,-1.61718 1.90039,-1.91016 0,-2.70117 0,-1.99414 1.99024,0 2.68945,0 0.66406,-0.63282 0.37305,-0.35742 23.7168,0 23.71289,0 1.21289,1.20508 1.50781,1.49609 2.51562,0 2.69532,0 0.19922,-0.7539 c 0.27274,-1.02594 1.11814,-1.77596 2.07226,-1.95313 z m 2.53125,0 c 0.94134,0.17614 1.79601,0.92854 2.03516,1.87305 l 0.19531,0.77148 1.39648,0.0606 c 0.26888,0.0118 0.53506,0.0352 0.73633,0.0605 0.10064,0.0127 0.186,0.026 0.24024,0.0371 0.0542,0.0111 0.10697,0.05 -0.004,-0.0156 -0.0877,-0.0519 0.008,0.01 0.0801,0.0742 0.0724,0.0646 0.17134,0.15574 0.28711,0.26563 0.23153,0.21978 0.5301,0.51249 0.83594,0.82031 l 1.27148,1.2793 2.66211,0 1.95312,0 0,2.15429 0,2.1543 -2,0 -2.70898,0 -0.76953,0.77734 -0.47852,0.48243 -4.07226,0.0234 -4.75781,0.0254 -0.043,1.22266 -0.01,0.25976 -6.03906,0 -6.02149,0 0,-1.70507 0,-1.70508 6.02539,0 6.0254,0 0,0.2207 0,1.22461 4.57421,-0.0273 4.56446,-0.0254 0.0293,-2.875 0.0274,-2.58985 -0.84571,-0.84961 -0.84375,-0.84765 -0.98828,0 -1.13086,0 -0.2832,0.7832 c -0.13002,0.36157 -0.48057,0.80867 -0.89453,1.13281 -0.37483,0.2935 -0.77364,0.4328 -1.04883,0.46485 l 0,-2.79297 0,-2.73438 z m -49.37109,2.48047 c -0.62089,0 -1.18863,0.31513 -1.50977,0.8418 -0.10773,0.17668 -0.19528,0.44993 -0.2207,0.86719 -0.0254,0.41725 -0.0291,1.0691 -0.0293,2.27734 -2.7e-4,2.23472 -0.006,2.69723 0.19727,3.125 0.056,0.11813 0.12121,0.22589 0.19336,0.32227 0.0207,0.0276 0.0817,0.0567 0.0996,0.084 0.008,0.0511 0.0196,0.14728 0.0273,0.31836 0.0171,0.37776 0.0234,1.0328 0.0234,2.08398 l 0,2.82422 2.6875,2.70508 c 0.70513,0.70978 1.37491,1.36485 1.89258,1.85547 0.25883,0.24531 0.47971,0.4506 0.65039,0.60156 0.0853,0.0755 0.15728,0.13672 0.2207,0.1875 0.0634,0.0508 0.0725,0.0809 0.22461,0.14649 0.1754,0.0756 0.30529,0.0835 0.52344,0.10156 0.21814,0.0181 0.51464,0.0297 0.9375,0.0391 0.84571,0.0187 2.19887,0.0254 4.38476,0.0254 l 4.85742,0 0,0.26367 0,1.26563 7.02539,0 c 3.23256,0 4.86002,-1.9e-4 5.70118,-0.0234 0.42058,-0.0116 0.62753,-0.019 0.82812,-0.0664 0.1003,-0.0237 0.23796,-0.0585 0.36524,-0.21093 0.0196,-0.0235 0.005,-0.034 0.0195,-0.0586 0.0432,-0.004 0.006,0 0.082,0 l 0.26562,0 1.31836,1.31641 1.60938,1.60742 7.69531,0.0469 c 2.0598,0.0126 3.9621,0.0268 5.36719,0.0391 0.70254,0.006 1.28232,0.0107 1.69336,0.0156 0.20552,0.002 0.36858,0.006 0.48437,0.008 0.1158,0.002 0.22752,0.006 0.17383,0.002 0.12995,0.0106 0.30865,-0.0193 0.44727,-0.0859 0.13861,-0.0666 0.25509,-0.15328 0.39843,-0.27343 0.10845,-0.0909 0.36804,-0.35508 0.51758,-0.4961 l 0,0.0332 0.85156,-0.84765 1.70704,-1.69531 0,-3.26954 0,-2.85546 0.41406,-0.41797 0.41406,-0.41797 6.58203,0 6.99805,0 1.61523,-1.60352 1.61524,-1.60547 0,-0.86523 0,-0.15625 0.85156,0 1.84961,0 0,-3.1543 0,-3.15429 -3.875,0 -3.875,0 0,3.15429 0,3.1543 1.84961,0 0.77148,0 c -0.10675,0.13853 -0.35704,0.40267 -0.83203,0.87891 l -0.9082,0.9121 -6.58008,0 -6.99219,0 -1.12304,1.10547 -1.125,1.10938 0,3.22851 0,2.8125 -1.13672,1.13672 -1.13477,1.13672 -6.95508,0 -6.95117,0 -1.28711,-1.30859 -1.57031,-1.59961 -0.89258,-0.0449 -0.22265,-0.0117 0,-1 0,-1.97461 -7.0254,0 -7.02539,0 0,1.26562 0,0.26368 -4.69726,0 -4.99219,0 -2.125,-2.12696 -2.125,-2.125 0,-2.07226 0,-2.10743 0.14453,-0.1914 0.34961,-0.45899 0,-2.83007 c 0,-1.1899 -0.002,-1.86409 -0.0254,-2.29883 -0.0235,-0.43474 -0.0874,-0.69702 -0.19531,-0.89453 -0.29288,-0.53597 -0.86822,-0.85938 -1.49414,-0.85938 z m 4.46679,0 c -0.33129,0.007 -0.66019,0.0602 -0.95898,0.2793 -0.2902,0.21277 -0.59174,0.56829 -0.67969,1.0918 -0.0879,0.5235 -0.0878,1.25672 -0.0879,2.65625 0,1.32537 0.003,2.03581 0.0645,2.52148 0.0612,0.48567 0.2915,0.84135 0.51563,1.02734 -0.0603,-0.05 -0.0923,-0.12974 -0.0898,-0.12109 0.002,0.009 0.0164,0.0807 0.0254,0.20898 0.018,0.25648 0.0254,0.73407 0.0254,1.53516 l 0,2.09375 0.97461,0.99805 c 0.23504,0.24062 0.46763,0.46823 0.66015,0.64453 0.0963,0.0882 0.18262,0.16303 0.25782,0.22461 0.0752,0.0616 0.0843,0.0969 0.25976,0.16992 0.12657,0.0527 0.13213,0.0385 0.16602,0.043 0.0339,0.004 0.0664,0.007 0.10351,0.01 0.0742,0.006 0.16632,0.0109 0.2793,0.0156 0.22597,0.01 0.53275,0.018 0.9043,0.0254 0.74309,0.0147 1.73865,0.0238 2.8125,0.0254 1.57421,0.002 2.56469,-0.001 3.20117,-0.0195 0.63648,-0.0183 0.88733,-0.0121 1.18359,-0.14063 l 0.30274,-0.13086 0,-0.0703 c 0.005,-0.004 0.0105,-0.006 0.0156,-0.01 0.10558,-0.0842 0.22829,-0.188 0.36524,-0.31055 0.27389,-0.24511 0.60347,-0.55948 0.93164,-0.89062 l 1.02148,-1.03126 5.89063,0 6.59961,0 0,-2.70507 0,-2.70508 -7.0254,0 -7.02539,0 0,2.0957 0,1.39063 -1.04492,1.04687 -1.04492,1.04688 -3.3457,0 -3.34766,0 -0.33008,-0.32617 -0.32617,-0.32227 0,-1.40039 c 0,-0.7872 0.005,-1.1973 0.0254,-1.37305 0.0207,-0.17575 -0.024,-0.0566 0.0762,-0.17578 0.19737,-0.23455 0.34826,-0.58771 0.39453,-1.09961 0.0463,-0.5119 0.0437,-1.26182 0.0274,-2.59375 -0.0157,-1.27799 -0.0236,-1.95972 -0.11719,-2.45508 -0.0936,-0.49536 -0.40103,-0.84423 -0.68945,-1.0332 -0.30785,-0.20171 -0.63941,-0.24317 -0.97071,-0.23633 z m 4.42969,0.0332 c -0.60369,-0.0243 -1.15916,0.35476 -1.44336,0.91211 -0.10298,0.20196 -0.1621,0.46143 -0.18554,0.88282 -0.0235,0.42138 -0.0274,1.05973 -0.0274,2.17187 0,1.11127 0.004,1.75168 0.0274,2.17383 0.0234,0.42215 0.0817,0.68183 0.18359,0.88477 0.44923,0.89412 1.56487,1.26463 2.41211,0.74804 0.15368,-0.0937 0.31447,-0.18741 0.46289,-0.35547 0.14842,-0.16805 0.24666,-0.39298 0.29883,-0.63671 0.10433,-0.48747 0.10362,-1.13682 0.11914,-2.42188 l 0.0215,-1.82617 8.70117,0 8.98829,0 0.77929,0.77344 0.77539,0.77539 0,4.33398 0,4.74609 1.72071,1.73047 1.42968,1.4375 0,1.37305 c 0,0.4395 0.006,0.84436 0.0176,1.15039 0.006,0.15301 0.0132,0.27996 0.0215,0.38086 0.004,0.0504 0.008,0.0941 0.0156,0.14062 0.004,0.0233 0.008,0.0469 0.0176,0.084 0.005,0.0186 0.0108,0.0401 0.0254,0.0742 0.007,0.0171 0.0156,0.0383 0.0312,0.0645 0.0157,0.0262 0.0776,0.0971 0.0781,0.0977 1.3e-4,1.3e-4 0.0994,0.078 0.0996,0.0781 2.2e-4,1.3e-4 0.0602,0.0311 0.0605,0.0312 6.1e-4,2.6e-4 0.0527,0.0173 0.0684,0.0215 0.0313,0.008 0.0468,0.0115 0.0605,0.0137 0.0276,0.004 0.0441,0.006 0.0625,0.008 0.0368,0.003 0.0763,0.004 0.125,0.006 0.0974,0.004 0.23076,0.008 0.40039,0.0117 0.33926,0.007 0.82158,0.0141 1.41406,0.0195 1.18496,0.0109 2.80875,0.0176 4.58789,0.0176 l 6.96485,0 0,-2.75 0,-0.0312 0,-2.71875 -6.59961,0 -5.89063,0 -1.13281,-1.13477 -1.13477,-1.13867 -0.0234,-4.31641 -0.0254,-4.72851 -1.47265,-1.47266 -1.47266,-1.47265 -10.21875,-0.0625 c -2.75318,-0.017 -5.29401,-0.0351 -7.17187,-0.0488 -0.93893,-0.007 -1.71189,-0.0128 -2.26172,-0.0176 -0.54984,-0.005 -0.92786,-0.0105 -0.91016,-0.01 z m -8.89648,0.9668 c 0.3812,0 0.45856,0.0476 0.61718,0.33789 0.0344,0.063 0.0516,0.0881 0.0723,0.47071 0.0206,0.38265 0.0254,1.05662 0.0254,2.24414 l 0,2.49218 -0.14453,0.19141 -0.34961,0.45898 0,2.44532 0,2.48633 2.41797,2.41796 2.41797,2.41993 5.40625,0 5.69726,0 0,-1.26368 0,-0.26562 6.02539,0 6.0254,0 0,0.97461 0,1.95117 1.17187,0.0606 0.50195,0.0254 1.29883,1.32031 1.58008,1.60742 7.37109,0 7.3711,0 1.42773,-1.42969 1.42774,-1.42968 0,-3.22657 0,-2.81054 0.82617,-0.81446 0.83203,-0.81836 6.58203,0 6.99414,0 1.20313,-1.20507 c 0.48694,-0.48823 0.75317,-0.75716 0.93554,-0.99805 0.18237,-0.24089 0.26563,-0.5494 0.26563,-0.75 l 0,-0.83789 -1.84961,0 -0.84961,0 0,-2.1543 0,-2.15429 2.875,0 2.875,0 0,2.15429 0,2.1543 -0.84961,0 -1.85156,0 0,1.15625 0,0.44922 -1.32032,1.3125 -1.32226,1.3125 -6.58594,0 -7,0 -0.70508,0.71289 -0.70507,0.71094 0,3.26757 0,2.85352 -0.5586,0.55469 -0.85351,0.84765 c -0.68362,0.67959 -1.08271,1.06424 -1.30665,1.25196 -0.10269,0.0861 -0.15544,0.1187 -0.17382,0.1289 -0.0548,-0.003 -0.0929,-0.002 -0.18555,-0.004 -0.11897,-0.002 -0.28375,-0.005 -0.49023,-0.008 -0.41297,-0.005 -0.99215,-0.01 -1.69532,-0.0156 -1.40634,-0.0122 -3.31056,-0.0264 -5.37109,-0.0391 l -7.28516,-0.0449 -1.32031,-1.31836 -1.60937,-1.60743 -0.67969,0 c -0.21503,0 -0.34125,-0.0242 -0.56836,0.0625 -0.0918,0.0351 -0.19152,0.13828 -0.26953,0.24219 -0.0788,0.009 -0.17243,0.0226 -0.48438,0.0312 -0.80509,0.0222 -2.44138,0.0234 -5.67383,0.0234 l -6.02539,0 0,-0.26563 0,-1.26367 -5.85742,0 c -2.18413,0 -3.53681,-0.007 -4.36328,-0.0254 -0.41324,-0.009 -0.69491,-0.0222 -0.875,-0.0371 -0.18009,-0.0149 -0.26823,-0.0462 -0.21094,-0.0215 0.11218,0.0484 0.0459,0.0239 0.004,-0.01 -0.042,-0.0337 -0.10562,-0.0873 -0.18359,-0.15625 -0.15596,-0.13794 -0.37131,-0.33573 -0.625,-0.57617 -0.5074,-0.48088 -1.17217,-1.1324 -1.8711,-1.83594 l -2.39648,-2.41406 0,-2.41016 c 0,-1.0549 -0.006,-1.71121 -0.0254,-2.1289 -0.009,-0.20885 -0.0207,-0.35384 -0.0449,-0.48633 -0.0121,-0.0662 -0.024,-0.13021 -0.0625,-0.21484 -0.0385,-0.0846 -0.12052,-0.22598 -0.31055,-0.29883 0.20289,0.0778 0.11949,0.0773 0.0937,0.043 -0.0257,-0.0344 -0.0639,-0.0956 -0.0899,-0.15039 -0.0534,-0.11264 -0.10183,-0.46879 -0.10156,-2.69727 1.6e-4,-1.20655 0.006,-1.86262 0.0274,-2.2168 0.0216,-0.35417 0.0208,-0.31544 0.0762,-0.40625 0.18798,-0.30829 0.28281,-0.36328 0.65625,-0.36328 z m 4.48633,0 c 0.18746,-0.004 0.37881,0.0568 0.40234,0.0723 0.22603,0.14809 0.19332,0.0621 0.25391,0.38281 0.0606,0.32069 0.0859,1.00758 0.10156,2.28125 0.0163,1.32753 0.0141,2.07733 -0.0234,2.49219 -0.0375,0.41485 -0.0554,0.41582 -0.16406,0.54492 -0.11437,0.13609 -0.26725,0.40301 -0.30274,0.70508 -0.0355,0.30206 -0.0332,0.70002 -0.0332,1.48828 l 0,1.81836 0.62305,0.61719 0.62304,0.61328 3.75782,0 3.76172,0 1.33593,-1.33985 1.33789,-1.34179 0,-1.80274 0,-1.0957 6.02539,0 6.0254,0 0,1.70508 0,1.70507 -5.59961,0 -6.30665,0 -1.3164,1.32618 c -0.31462,0.31747 -0.63393,0.62164 -0.88867,0.84961 -0.12737,0.11398 -0.23796,0.20973 -0.32032,0.27539 -0.0824,0.0657 -0.1742,0.10996 -0.0918,0.0742 0.0624,-0.0271 -0.20531,0.041 -0.81641,0.0586 -0.6111,0.0176 -1.59833,0.022 -3.16992,0.0195 -1.06861,-0.002 -2.06068,-0.0109 -2.79492,-0.0254 -0.36712,-0.007 -0.67012,-0.0164 -0.88281,-0.0254 -0.0944,-0.004 -0.16335,-0.006 -0.2168,-0.01 -0.004,-0.003 0.004,0.001 0,-0.002 -0.0524,-0.0429 -0.12759,-0.10955 -0.21485,-0.18945 -0.1745,-0.1598 -0.39827,-0.37736 -0.62109,-0.60547 l -0.68945,-0.70508 0,-1.6875 c 0,-0.80548 -0.005,-1.2844 -0.0274,-1.60547 -0.0113,-0.16053 -0.0253,-0.28205 -0.0605,-0.4082 -0.0352,-0.12615 -0.11425,-0.27918 -0.23438,-0.37891 -0.149,-0.12364 -0.11715,-0.0262 -0.16211,-0.38281 -0.045,-0.3566 -0.0566,-1.07436 -0.0566,-2.39648 8e-5,-1.39639 0.0151,-2.13819 0.0742,-2.49024 0.0591,-0.35205 0.0379,-0.27131 0.2832,-0.45117 0.0155,-0.0114 0.20121,-0.0821 0.38868,-0.0859 z m 4.36914,0.0332 c 0.11395,0.005 0.39071,0.005 0.9414,0.01 0.5507,0.005 1.32446,0.0107 2.26367,0.0176 1.87843,0.0137 4.42032,0.0319 7.17383,0.0488 l 9.80664,0.0605 1.1836,1.18164 1.18164,1.1836 0.0234,4.3164 0.0254,4.72657 1.42382,1.42773 1.42774,1.42969 6.30469,0 5.59961,0 0,1.78125 0,1.71875 -5.96485,0 c -1.77661,0 -3.39972,-0.007 -4.58008,-0.0176 -0.59017,-0.005 -1.07066,-0.0124 -1.40234,-0.0195 -0.0369,-7.9e-4 -0.0508,-0.001 -0.084,-0.002 -7.4e-4,-0.0183 -0.001,-0.0257 -0.002,-0.0449 -0.0105,-0.28823 -0.0176,-0.6861 -0.0176,-1.11523 l 0,-1.78516 -1.7207,-1.73047 -1.42969,-1.4375 0,-4.33398 0,-4.75 -1.07031,-1.06641 -1.07031,-1.0664 -9.40235,0 -9.68945,0 -0.0332,2.81445 c -0.0155,1.28349 -0.0387,1.94903 -0.0977,2.22461 -0.0295,0.13779 -0.0476,0.15784 -0.0703,0.18359 -0.0227,0.0258 -0.0878,0.0759 -0.23242,0.16407 -0.33521,0.20438 -0.78902,0.0723 -0.99805,-0.34375 -0.0366,-0.073 -0.0575,-0.11969 -0.0781,-0.49024 -0.0206,-0.37055 -0.0274,-1.01069 -0.0274,-2.11914 0,-1.10934 0.007,-1.74765 0.0274,-2.11719 0.0206,-0.36953 0.0404,-0.41429 0.0762,-0.48437 0.1617,-0.31713 0.27505,-0.37475 0.51172,-0.36524 z m -34.18555,5.93165 c -0.83802,0 -1.50722,0.01 -1.98047,0.0254 -0.23662,0.008 -0.42423,0.0167 -0.56641,0.0293 -0.0711,0.006 -0.12862,0.0117 -0.1914,0.0234 -0.0314,0.006 -0.0635,0.012 -0.11328,0.0293 -0.003,0.001 -0.009,0.005 -0.0117,0.006 -0.003,3.2e-4 -0.002,-3.2e-4 -0.006,0 -0.0616,0.005 -0.1692,0.0102 -0.3125,0.0156 -0.2866,0.0109 -0.71823,0.0217 -1.28711,0.0293 -1.13776,0.0151 -2.8224,0.0215 -5.01367,0.0215 l -6.93164,0 -1.98828,1.99219 -1.69727,1.69922 -0.89648,0 -1.60352,0 0,1.13086 0,0.1289 -3.66016,-0.0215 -3.68945,-0.0215 -0.002,-0.0449 -0.0527,-0.99218 -11.94531,0 -11.9707,0 0,2.2539 0,2.25586 11.97461,0 11.97656,0 0,-0.99023 3.68359,0 3.68555,0 0,0.98437 0,1.98633 1.89453,0 1.89649,0 0,-2.63281 0,-0.20703 0,-1.71875 1.71875,-1.72657 1.71875,-1.72656 6.22851,0.0234 5.94336,0.0215 0.0195,2.09375 0.0274,3.08204 3.14843,0 3.1543,0 0,-3.875 0,-3.875 -3.15039,0 z m 7.82031,0.002 0,3.875 0,3.875 3.1543,0 c 1.29776,0 1.95366,5.2e-4 2.33594,-0.0254 0.19114,-0.013 0.3109,-0.005 0.50976,-0.11328 0.0653,-0.0355 0.11875,-0.12212 0.17578,-0.19727 0.0332,-0.006 -0.009,0.002 0.0605,-0.002 0.3432,-0.0206 1.10052,-0.0234 2.56641,-0.0234 l 2.78515,0 4.60156,4.60156 4.60157,4.59961 0,1.60547 c 0,0.786 -0.007,1.24373 -0.0254,1.48047 -0.009,0.11309 -0.0206,0.16576 -0.0215,0.16992 -0.0949,0.0927 -0.19626,0.18793 -0.26367,0.33008 -0.0876,0.18474 -0.13373,0.38862 -0.16406,0.64062 -0.0607,0.50402 -0.0664,1.24252 -0.0664,2.56446 0,1.14852 0.003,1.79097 0.0274,2.21094 0.0242,0.41996 0.0933,0.68494 0.19726,0.8789 0.45976,0.85729 1.56774,1.15494 2.39844,0.64844 0.15361,-0.0937 0.31421,-0.18685 0.46289,-0.35547 0.14868,-0.16862 0.24677,-0.3939 0.29883,-0.63867 0.10411,-0.48955 0.10322,-1.14399 0.11914,-2.44141 0.0163,-1.32908 0.0202,-2.07159 -0.0254,-2.58593 -0.0456,-0.51435 -0.1848,-0.8574 -0.36524,-1.12305 l 0.002,0 c -0.1049,-0.15457 -0.0865,-0.067 -0.10938,-0.30664 -0.0229,-0.23963 -0.0254,-0.7406 -0.0254,-1.7168 0,-0.77696 -0.006,-1.28972 -0.0273,-1.65039 -0.0209,-0.36067 -0.0358,-0.57467 -0.16016,-0.80859 -0.0647,-0.12179 -0.0717,-0.1058 -0.0996,-0.13868 -0.0279,-0.0329 -0.0616,-0.0695 -0.10156,-0.11328 -0.0798,-0.0876 -0.1881,-0.20286 -0.32422,-0.3457 -0.27224,-0.28568 -0.65328,-0.6806 -1.11914,-1.15625 -0.93173,-0.95131 -2.19783,-2.22879 -3.57422,-3.60352 l -5.14453,-5.13867 -3.50977,-0.0469 -2.82031,-0.0391 -0.0176,-1.9629 -0.0293,-2.94726 -3.14844,0 -3.1543,0 z m 22.87305,27.11914 -0.25977,0.0742 0.14063,0 0.11914,-0.0742 z m -32.97266,-26.26758 c 5.5e-4,-8.8e-4 -0.069,0.0887 -0.0976,0.11328 -0.002,0.002 -0.004,0.002 -0.006,0.004 0.017,-0.0191 0.10325,-0.11677 0.10351,-0.11719 z m 2.2793,0.14649 2.15039,0 0,2.875 0,2.875 -2.1543,0 -2.1582,0 -0.0176,-2.0918 -0.0293,-3.08008 -6.93165,-0.0254 -6.64453,-0.0234 -2.01367,2.01953 -2.00976,2.01953 0,2.54688 0,1.42578 -0.89649,0 -0.89453,0 0,-0.98633 0,-1.98437 -4.68555,0 -4.68359,0 0,0.99023 -10.97656,0 -10.97461,0 0,-1.25586 0,-1.2539 10.9707,0 10.99609,0 0.002,0.043 0.0527,0.98828 4.63281,0.0273 4.66602,0.0254 0,-1.13281 0,-0.13086 0.60352,0 1.31054,0 1.99024,-1.99219 1.69726,-1.69922 6.51563,0 c 2.19365,0 3.87914,-0.006 5.02539,-0.0215 0.57312,-0.008 1.0118,-0.0178 1.31445,-0.0293 0.15133,-0.006 0.26798,-0.0118 0.35938,-0.0195 0.0457,-0.004 0.0829,-0.008 0.1289,-0.0156 0.023,-0.004 0.0465,-0.008 0.0899,-0.0215 0.007,-0.002 0.021,-0.009 0.0293,-0.0117 0.0142,-0.002 0.0351,-0.006 0.0781,-0.01 0.10751,-0.01 0.28311,-0.0198 0.50976,-0.0274 0.45331,-0.0151 1.1159,-0.0234 1.94727,-0.0234 z m 8.82031,0.002 2.1543,0 2.1582,0 0.0195,1.95703 0.0273,2.93945 3.79687,0.0527 3.10352,0.043 4.85742,4.85156 c 1.37418,1.37252 2.63843,2.64627 3.56641,3.59375 0.46398,0.47374 0.84477,0.86676 1.11132,1.14648 0.13328,0.13986 0.23784,0.25245 0.3086,0.33008 0.0265,0.0291 0.043,0.0466 0.0586,0.0644 -0.0164,-0.0278 0.0254,0.0782 0.043,0.38086 0.0184,0.31664 0.0254,0.82092 0.0254,1.5918 0,0.97672 -0.002,1.46782 0.0312,1.8125 0.0329,0.34468 0.16302,0.60784 0.27539,0.77344 0.12798,0.18842 0.15812,0.22859 0.19531,0.64844 0.0372,0.41984 0.0378,1.16119 0.0215,2.48632 -0.0159,1.29595 -0.0384,1.96764 -0.0977,2.2461 -0.0296,0.13923 -0.0478,0.15802 -0.0703,0.18359 -0.0225,0.0256 -0.0875,0.0757 -0.23242,0.16406 -0.3125,0.19054 -0.82647,0.0524 -0.99805,-0.26757 -0.0442,-0.0823 -0.0591,-0.0989 -0.0801,-0.46289 -0.021,-0.36402 -0.0254,-1.00815 -0.0254,-2.1543 0,-1.31711 0.0139,-2.05747 0.0606,-2.44531 0.0233,-0.19393 0.0535,-0.29046 0.0723,-0.33008 0.0188,-0.0396 0.0208,-0.0423 0.0781,-0.0899 0.10151,-0.0842 0.19392,-0.23344 0.23437,-0.36132 0.0405,-0.12789 0.0564,-0.24733 0.0684,-0.40235 0.0239,-0.31003 0.0274,-0.76654 0.0274,-1.55664 l 0,-2.01953 -4.89453,-4.89258 -4.89454,-4.89453 -3.19921,0 c -1.4663,0 -2.20516,1.3e-4 -2.625,0.0254 -0.20992,0.0126 -0.33195,0.006 -0.53125,0.10352 -0.0712,0.0348 -0.14082,0.12693 -0.20508,0.21093 -0.0216,0.003 0.01,-0.004 -0.0195,-0.002 -0.29647,0.0201 -0.97034,0.0234 -2.26758,0.0234 l -2.1543,0 0,-2.875 0,-2.875 z m -20.98047,2.86914 0,3.33398 0,3.33594 0.63086,0 0,0.80469 0,0.80469 -9.2207,0 -9.21875,0 0,-0.99024 -11.97656,0 -11.97461,0 0,2.25586 0,2.25586 11.97461,0 11.97656,0 0,-1.04102 0,-0.0391 9.21875,0 9.2207,0 0,0.44336 0,0.44531 -0.80468,0 -1.80469,0 0,3.20118 0,3.19921 3.83008,0 3.83007,0 0,-3.19921 0,-3.20118 -1.80664,0 -0.80468,0 0,-0.44531 0,-0.44336 2.96484,0 2.96484,0 0,0.80469 0,1.80469 3.15625,0 3.1543,0 0,-3.83008 0,-3.83008 -3.1543,0 -3.15625,0 0,1.80469 0,0.80469 -2.96484,0 -2.96484,0 0,-0.80469 0,-0.80469 0.7207,0 0,-3.33594 0,-3.33398 -1.89453,0 -1.89649,0 z m 1,1 0.89649,0 0.89453,0 0,2.33398 0,2.33594 -0.7207,0 0,1.80469 0,1.80469 3.96484,0 3.96484,0 0,-1.80469 0,-0.80469 2.15625,0 2.1543,0 0,2.83008 0,2.83008 -2.1543,0 -2.15625,0 0,-0.80469 0,-1.80469 -3.96484,0 -3.96484,0 0,1.44336 0,1.44531 1.80468,0 0.80664,0 0,2.20118 0,2.19921 -2.83007,0 -2.83008,0 0,-2.19921 0,-2.20118 0.80469,0 1.80468,0 0,-1.44531 0,-1.44336 -10.2207,0 -10.21875,0 0,1.03906 0,0.041 -10.97656,0 -10.97461,0 0,-1.25586 0,-1.25586 10.97461,0 10.97656,0 0,0.99024 10.21875,0 10.2207,0 0,-1.80469 0,-1.80469 -0.63086,0 0,-2.33594 0,-2.33398 z m 100.79102,0.88867 0,3.1543 0,3.14258 1.81836,0.0332 0.83594,0.0156 0,1.49024 0,1.48828 -0.83594,0.0176 -1.81836,0.0332 0,3.09766 0,3.10742 3.875,0 3.875,0 0,-3.10742 0,-3.09766 -1.81836,-0.0332 -0.83594,-0.0176 0,-1.48828 0,-1.49024 0.83594,-0.0156 1.81836,-0.0332 0,-3.14258 0,-3.1543 -3.875,0 -3.875,0 z m -9.90039,0.002 0,3.1543 0,3.1543 1.80469,0 0.80468,0 0,1.52539 0,1.52539 -0.80468,0 -1.80469,0 0,3.10937 0,3.11133 3.83008,0 3.83007,0 0,-3.11133 0,-3.10937 -1.80468,0 -0.80469,0 0,-1.52539 0,-1.52539 0.80469,0 1.80468,0 0,-3.1543 0,-3.1543 -3.83007,0 -3.83008,0 z m 10.90039,0.99805 2.875,0 2.875,0 0,2.1543 0,2.16015 -0.83789,0.0156 -1.81641,0.0352 0,2.4707 0,2.4707 1.81641,0.0332 0.83789,0.0156 0,2.11719 0,2.10742 -2.875,0 -2.875,0 0,-2.10742 0,-2.11719 0.83594,-0.0156 1.81836,-0.0332 0,-2.4707 0,-2.4707 -1.81836,-0.0352 -0.83594,-0.0156 0,-2.16015 0,-2.1543 z m -9.90039,0.002 2.83008,0 2.83007,0 0,2.1543 0,2.1543 -0.80468,0 -1.80469,0 0,2.52539 0,2.52539 1.80469,0 0.80468,0 0,2.10937 0,2.11133 -2.83007,0 -2.83008,0 0,-2.11133 0,-2.10937 0.80469,0 1.80468,0 0,-2.52539 0,-2.52539 -1.80468,0 -0.80469,0 0,-2.1543 0,-2.1543 z m -72.91016,2.7793 0,3.83008 0,3.83008 3.15625,0 3.1543,0 0,-1.80469 0,-0.80469 3.16601,0 3.46094,0 1.67578,1.67383 1.67774,1.67578 0,0.92969 c 0,0.4564 -0.01,0.74188 -0.0254,0.88281 -0.0158,0.14093 -0.0212,0.0574 0.0645,-0.0137 -0.22383,0.18576 -0.45659,0.54268 -0.51758,1.0332 -0.061,0.49053 -0.0625,1.21259 -0.0625,2.5625 0,1.17104 0.003,1.82636 0.0274,2.25196 0.0241,0.4256 0.093,0.69037 0.19726,0.88476 0.14581,0.27188 0.42511,0.37952 0.67188,0.53125 l -0.31446,0.19141 0.5586,0 c 0.3137,0.12176 0.61834,0.0731 0.95312,0 l 0.26953,0 -0.01,-0.0371 c 0.0883,-0.0349 0.18588,0.0139 0.26953,-0.0371 l 1.51953,-0.92578 -0.78906,0 c 0.007,-0.0256 0.0257,-0.0423 0.0312,-0.0684 0.10411,-0.48955 0.10321,-1.14399 0.11914,-2.44141 0.0162,-1.32421 0.0193,-2.06654 -0.0254,-2.58008 -0.0447,-0.51353 -0.1792,-0.85636 -0.35742,-1.11914 -0.085,-0.12522 -0.0808,-0.0952 -0.10547,-0.26953 -0.0247,-0.17431 -0.0374,-0.52754 -0.0508,-1.17578 l -0.0332,-1.59961 -2.39258,-2.39258 -2.39453,-2.39843 -4.14648,0 -3.4375,0 0,-0.80469 0,-1.80469 -3.1543,0 -3.15625,0 z m 1,1 2.15625,0 2.1543,0 0,0.80469 0,1.80469 4.4375,0 3.73047,0 2.10351,2.10546 2.10742,2.10743 0.0254,1.19922 c 0.0135,0.65202 0.0202,1.00986 0.0605,1.29492 0.0404,0.28506 0.15387,0.52384 0.26758,0.6914 0.12194,0.17978 0.15291,0.2228 0.18945,0.64258 0.0367,0.42096 0.0377,1.16229 0.0215,2.48242 -0.0159,1.29595 -0.0384,1.96764 -0.0977,2.2461 -0.0296,0.13923 -0.0478,0.15802 -0.0703,0.18359 -0.0225,0.0256 -0.0875,0.0757 -0.23242,0.16406 -0.3125,0.19054 -0.82646,0.0524 -0.99805,-0.26757 -0.0441,-0.0823 -0.0591,-0.0984 -0.0801,-0.46875 -0.021,-0.3703 -0.0254,-1.02657 -0.0254,-2.19532 0,-1.3468 0.0116,-2.07502 0.0566,-2.4375 0.0451,-0.36247 0.012,-0.26413 0.16211,-0.38867 0.19997,-0.16591 0.26497,-0.41265 0.29102,-0.64453 0.026,-0.23188 0.0312,-0.52812 0.0312,-0.99414 l 0,-1.34375 -1.97071,-1.96875 -1.96875,-1.9668 -3.875,0 -4.16601,0 0,1.80469 0,0.80469 -2.1543,0 -2.15625,0 0,-2.83008 0,-2.83008 z m 45.72071,1.75 c 0,-0.007 0.008,0.0366 -0.0371,0.12695 -0.002,0.004 -0.007,0.005 -0.01,0.01 0.007,-0.0442 0.0469,-0.12363 0.0469,-0.13672 z m -14.05079,4.17969 0,2.75 0,2.75 0.45118,0 0,1.59375 0,1.88476 -2.12696,2.12696 -2.12695,2.125 -6.13672,0 -6.13672,0 -1.22656,-1.22461 c -0.64904,-0.64803 -0.99276,-1.00131 -1.13672,-1.18164 -0.14396,-0.18033 -0.0898,-0.0575 -0.0898,-0.18555 0,-0.17084 -0.0135,-0.1481 0.14453,-0.32812 l 0.39453,-0.44727 0,-2.97266 0,-2.97265 -0.40234,-0.45899 c -0.40247,-0.45838 -0.97482,-0.67325 -1.51758,-0.60937 -0.54276,0.0639 -1.04838,0.40824 -1.32813,0.94922 -0.13846,0.26777 -0.13445,0.48155 -0.15429,0.92578 -0.0199,0.44423 -0.0274,1.10356 -0.0274,2.11914 0,1.33533 0.006,2.07918 0.0664,2.58594 0.0303,0.25337 0.0745,0.45728 0.16211,0.64257 0.0876,0.1853 0.2248,0.33298 0.34375,0.43165 -0.0468,-0.0389 -0.0662,-0.11513 -0.0547,-0.0527 0.0115,0.0624 0.0234,0.22324 0.0234,0.47656 l 0,0.89258 1.92187,1.92578 1.92383,1.92383 7.13672,0.002 7.14062,0.002 1.92383,-1.94922 0.85547,-0.86719 2.77735,-2.81445 0,-2.625 0,-1.91797 5.125,0 6.125,0 0,-2.75 0,-2.75 -7.0254,0 -7.02539,0 z m 18.04883,0.54101 c -0.007,0.0453 -0.0488,0.12537 -0.0488,0.13868 0,0.008 -0.008,-0.038 0.0371,-0.12891 0.002,-0.005 0.009,-0.005 0.0117,-0.01 z m -17.04883,0.45899 6.02539,0 6.0254,0 0,1.75 0,1.75 -5.125,0 -6.125,0 0,2.91797 0,2.21484 -1.63282,1.6543 -0.85547,0.86719 -2.48632,2.51953 -6.72071,-0.002 -6.72461,-0.002 -1.63086,-1.63086 -1.6289,-1.63281 0,-0.47852 c 0,-0.2749 -0.007,-0.46991 -0.041,-0.65625 -0.0343,-0.18633 -0.1275,-0.40306 -0.28906,-0.53711 -0.0577,-0.0478 -0.0593,-0.0501 -0.0781,-0.0898 -0.0188,-0.0397 -0.0489,-0.1365 -0.0723,-0.33203 -0.0467,-0.39106 -0.0606,-1.13815 -0.0606,-2.46875 0,-1.01119 0.007,-1.66526 0.0254,-2.07422 0.0183,-0.40896 0.0843,-0.58784 0.0449,-0.51172 0.1401,-0.27091 0.34306,-0.39088 0.55664,-0.41601 0.21359,-0.0251 0.44413,0.0446 0.64844,0.27734 l 0.1543,0.17578 0,2.5957 0,2.59571 -0.14453,0.16601 c -0.24352,0.27732 -0.39453,0.63783 -0.39453,0.98633 0,0.20244 0.0907,0.53566 0.30859,0.80859 0.21788,0.27293 0.5602,0.6159 1.21094,1.26563 l 1.51953,1.51758 6.55078,0 6.55078,0 2.41992,-2.41797 2.41993,-2.41797 0,-2.30078 0,-2.59375 -0.45118,0 0,-1.75 0,-1.75 z m 30.30469,3.47656 c -0.0828,0.0497 -0.2539,0.16611 -0.2539,0.43359 0,4.7e-4 0.0686,-0.25436 0.0684,-0.2539 -2.7e-4,4.6e-4 0.10992,-0.12741 0.10938,-0.12695 -5.5e-4,4.5e-4 0.0559,-0.0416 0.0762,-0.0527 z m -96.375,5.60352 0,3.15429 0,3.15625 3.875,0 3.875,0 0,-1.49023 0,-0.49024 1.3457,0 1.34571,0 0,0.49024 0,1.49023 3.83008,0 3.83007,0 0,-3.15625 0,-3.15429 -3.82812,0 -3.81445,0 -0.0371,1.45507 -0.0137,0.48047 -1.3125,0 -1.3125,0 -0.0137,-0.48047 -0.0371,-1.45507 -3.85937,0 -3.87305,0 z m 1,1 2.87305,0 2.88476,0 0.0117,0.48047 0.0391,1.45507 2.2871,0 2.28711,0 0.0391,-1.45507 0.0117,-0.48047 2.83984,0 2.82812,0 0,2.15429 0,2.15625 -2.83007,0 -2.83008,0 0,-0.49023 0,-1.49024 -2.34571,0 -2.3457,0 0,1.49024 0,0.49023 -2.875,0 -2.875,0 0,-2.15625 0,-2.15429 z"
       id="path5925"
       inkscape:connector-curvature="0" />
  </g>
</svg>
